<svg width="285" height="357" viewBox="0 0 285 357" fill="none" xmlns="http://www.w3.org/2000/svg">
<g clip-path="url(#clip0_382_4972)">
<g clip-path="url(#clip1_382_4972)">
<path d="M246.441 47.4262C248.397 45.981 251.151 44.528 252.558 44.1984C253.971 43.8582 255.244 42.052 255.387 40.1812C255.53 38.3105 255.721 32.975 254.488 32.2176C253.255 31.4602 251.092 29.2151 249.684 27.2319C249.684 27.2319 247.749 24.5079 249.712 21.317C251.678 18.1344 254.976 18.6275 254.976 18.6275C257.378 18.9941 260.353 19.9112 261.586 20.6686C262.822 21.4343 264.981 21.0559 266.385 19.8463C267.787 18.6283 271.758 14.957 271.42 13.5522C271.082 12.1475 271.142 9.02666 271.548 6.64104C271.548 6.64104 272.106 3.35223 275.753 2.48033C279.392 1.61063 281.38 4.30256 281.38 4.30256C282.826 6.25807 284.278 9.0122 284.608 10.4192C284.946 11.8239 286.755 13.1046 288.625 13.2477C290.498 13.3991 295.832 13.5823 296.597 12.3467C297.355 11.1133 299.6 8.95056 301.583 7.54247C301.583 7.54247 304.307 5.60821 307.49 7.57326C310.681 9.53609 310.18 12.8366 310.18 12.8366C309.813 15.2383 308.896 18.2134 308.138 19.4468C307.381 20.6802 307.751 22.8415 308.961 24.2458C310.179 25.6478 313.85 29.6181 315.255 29.2801C316.66 28.9422 319.78 29.002 322.174 29.4064C322.174 29.4064 325.463 29.9642 326.333 33.6029C327.203 37.2417 324.511 39.2297 324.511 39.2297C322.555 40.6749 319.801 42.1279 318.394 42.4575C316.981 42.7976 315.708 44.6039 315.565 46.4746C315.414 48.3476 315.23 53.6809 316.466 54.4466C317.702 55.2123 319.862 57.4491 321.27 59.4323C321.27 59.4323 323.205 62.1563 321.239 65.3389C319.277 68.5298 315.976 68.0284 315.976 68.0284C313.574 67.6617 310.599 66.7447 309.366 65.9873C308.13 65.2215 305.971 65.5999 304.567 66.8096C303.162 68.0193 299.194 71.6989 299.532 73.1037C299.872 74.5167 299.81 77.6292 299.406 80.0231C299.406 80.0231 298.848 83.312 295.209 84.1816C291.562 85.0536 289.582 82.3594 289.582 82.3594C288.137 80.4039 286.684 77.6498 286.354 76.2428C286.016 74.838 284.208 73.5574 282.337 73.4143C280.464 73.2629 275.131 73.0796 274.365 74.3152C273.607 75.5486 271.362 77.7114 269.379 79.1195C269.379 79.1195 266.655 81.0538 263.464 79.0909C260.273 77.1281 260.774 73.8276 260.774 73.8276C261.141 71.4259 262.058 68.4508 262.816 67.2174C263.573 65.984 263.203 63.8227 261.993 62.4184C260.784 61.0141 257.104 57.0461 255.699 57.384C254.286 57.7242 251.174 57.6622 248.78 57.2578C248.78 57.2578 245.491 56.7 244.619 53.0529C243.755 49.4037 246.441 47.4262 246.441 47.4262ZM289.745 61.258C299.652 58.8996 305.773 48.9627 303.415 39.0563C301.056 29.1499 291.119 23.029 281.213 25.3874C271.306 27.7458 265.185 37.6827 267.543 47.5891C269.901 57.4955 279.839 63.6163 289.745 61.258Z" fill="white"/>
<path d="M265.778 226.478C266.588 225.578 267.791 224.582 268.45 224.282C269.107 223.974 269.548 222.958 269.434 222.028C269.32 221.097 268.87 218.468 268.191 218.221C267.511 217.975 266.226 217.089 265.34 216.266C265.34 216.266 264.12 215.122 264.757 213.369C265.394 211.616 267.059 211.521 267.059 211.521C268.269 211.457 269.821 211.605 270.501 211.851C271.18 212.097 272.204 211.701 272.765 210.964C273.325 210.228 274.903 208.029 274.595 207.373C274.286 206.716 274.005 205.19 273.958 203.975C273.958 203.975 273.898 202.309 275.598 201.51C277.292 200.722 278.539 201.831 278.539 201.831C279.44 202.642 280.436 203.845 280.735 204.503C281.043 205.16 282.059 205.602 282.99 205.488C283.921 205.374 286.55 204.923 286.805 204.242C287.051 203.563 287.937 202.277 288.76 201.391C288.76 201.391 289.895 200.173 291.657 200.808C293.42 201.451 293.508 203.118 293.508 203.118C293.571 204.329 293.424 205.88 293.177 206.56C292.931 207.239 293.328 208.264 294.064 208.824C294.8 209.384 296.999 210.962 297.655 210.654C298.312 210.346 299.847 210.062 301.054 210.017C301.054 210.017 302.719 209.957 303.51 211.659C304.298 213.353 303.189 214.6 303.189 214.6C302.378 215.501 301.175 216.497 300.516 216.797C299.86 217.105 299.418 218.121 299.532 219.051C299.646 219.982 300.096 222.611 300.778 222.866C301.457 223.112 302.743 223.998 303.629 224.821C303.629 224.821 304.847 225.956 304.212 227.717C303.577 229.479 301.91 229.566 301.91 229.566C300.699 229.63 299.148 229.482 298.468 229.236C297.789 228.989 296.764 229.386 296.204 230.123C295.644 230.859 294.066 233.057 294.374 233.714C294.682 234.37 294.964 235.897 295.011 237.112C295.011 237.112 295.071 238.778 293.371 239.577C291.677 240.365 290.43 239.256 290.43 239.256C289.529 238.445 288.533 237.242 288.233 236.583C287.925 235.927 286.909 235.485 285.979 235.599C285.048 235.713 282.419 236.163 282.164 236.845C281.918 237.524 281.032 238.81 280.209 239.696C280.209 239.696 279.065 240.916 277.312 240.279C275.551 239.644 275.461 237.969 275.461 237.969C275.397 236.758 275.545 235.206 275.792 234.527C276.038 233.848 275.641 232.823 274.905 232.263C274.169 231.702 271.97 230.125 271.313 230.433C270.657 230.741 269.13 231.023 267.915 231.07C267.915 231.07 266.25 231.13 265.451 229.43C264.658 227.719 265.778 226.478 265.778 226.478ZM288.375 228.886C292.99 226.734 294.983 221.248 292.831 216.634C290.679 212.019 285.193 210.026 280.579 212.178C275.964 214.331 273.971 219.816 276.123 224.43C278.275 229.045 283.761 231.038 288.375 228.886Z" fill="white"/>
<path d="M236.692 147.817C239.102 146.038 242.487 144.248 244.22 143.841C245.951 143.425 247.522 141.201 247.7 138.894C247.879 136.587 248.108 130.023 246.586 129.084C245.065 128.145 242.4 125.384 240.674 122.943C240.674 122.943 238.297 119.589 240.714 115.664C243.131 111.738 247.201 112.355 247.201 112.355C250.156 112.797 253.821 113.931 255.343 114.87C256.864 115.809 259.519 115.352 261.248 113.86C262.978 112.368 267.86 107.841 267.452 106.107C267.045 104.374 267.111 100.54 267.617 97.5941C267.617 97.5941 268.31 93.54 272.794 92.4721C277.279 91.4041 279.716 94.715 279.716 94.715C281.496 97.1243 283.286 100.51 283.693 102.243C284.109 103.974 286.333 105.544 288.64 105.723C290.947 105.901 297.511 106.131 298.45 104.609C299.389 103.087 302.15 100.422 304.592 98.6965C304.592 98.6965 307.945 96.3191 311.871 98.736C315.796 101.153 315.188 105.22 315.188 105.22C314.746 108.176 313.611 111.84 312.673 113.362C311.734 114.884 312.191 117.538 313.683 119.268C315.174 120.997 319.694 125.881 321.435 125.471C323.175 125.053 327.003 125.13 329.957 125.634C329.957 125.634 334.011 126.327 335.077 130.803C336.145 135.287 332.836 137.733 332.836 137.733C330.427 139.512 327.041 141.302 325.3 141.712C323.56 142.13 321.998 144.351 321.811 146.661C321.633 148.968 321.403 155.532 322.925 156.471C324.447 157.41 327.112 160.171 328.837 162.612C328.837 162.612 331.215 165.966 328.798 169.891C326.381 173.817 322.322 173.206 322.322 173.206C319.366 172.764 315.701 171.63 314.18 170.691C312.658 169.752 309.995 170.211 308.274 171.701C306.544 173.193 301.663 177.72 302.07 179.453C302.486 181.184 302.412 185.021 301.905 187.967C301.905 187.967 301.212 192.021 296.736 193.087C292.251 194.155 289.806 190.846 289.806 190.846C288.026 188.437 286.237 185.051 285.827 183.31C285.409 181.57 283.187 180.008 280.878 179.822C278.571 179.643 272.006 179.414 271.068 180.936C270.129 182.457 267.368 185.122 264.926 186.848C264.926 186.848 261.572 189.225 257.647 186.808C253.721 184.391 254.341 180.33 254.341 180.33C254.783 177.374 255.917 173.71 256.856 172.188C257.794 170.666 257.335 168.004 255.846 166.282C254.354 164.553 249.835 159.669 248.093 160.079C246.362 160.495 242.526 160.421 239.571 159.916C239.571 159.916 235.517 159.224 234.449 154.739C233.383 150.263 236.692 147.817 236.692 147.817ZM290.013 164.857C302.212 161.952 309.742 149.719 306.845 137.518C303.939 125.319 291.706 117.79 279.507 120.695C267.308 123.601 259.778 135.834 262.675 148.035C265.578 160.225 277.822 167.761 290.013 164.857Z" fill="url(#paint0_linear_382_4972)"/>
<path d="M273.318 145.498C274.82 151.816 281.162 155.726 287.477 154.215C293.795 152.713 297.705 146.371 296.192 140.048C294.69 133.73 288.351 129.829 282.025 131.333C275.717 132.841 271.816 139.181 273.318 145.498Z" fill="url(#paint1_linear_382_4972)"/>
<path d="M193.111 214.075C194.413 213.115 196.238 212.149 197.183 211.925C198.12 211.702 198.966 210.499 199.062 209.254C199.158 208.01 199.283 204.463 198.462 203.952C197.643 203.449 196.205 201.954 195.267 200.637C195.267 200.637 193.985 198.825 195.288 196.7C196.593 194.582 198.79 194.914 198.79 194.914C200.385 195.158 202.371 195.768 203.19 196.271C204.009 196.774 205.448 196.534 206.381 195.725C207.314 194.917 209.955 192.47 209.733 191.533C209.51 190.596 209.546 188.522 209.816 186.929C209.816 186.929 210.186 184.74 212.614 184.166C215.033 183.594 216.352 185.378 216.352 185.378C217.312 186.68 218.278 188.505 218.5 189.442C218.723 190.379 219.926 191.225 221.171 191.321C222.415 191.417 225.962 191.541 226.474 190.72C226.977 189.902 228.471 188.463 229.788 187.526C229.788 187.526 231.6 186.244 233.718 187.549C235.835 188.854 235.511 191.049 235.511 191.049C235.268 192.644 234.657 194.63 234.154 195.448C233.651 196.267 233.892 197.707 234.7 198.64C235.509 199.572 237.947 202.216 238.884 201.993C239.821 201.771 241.895 201.806 243.488 202.077C243.488 202.077 245.677 202.447 246.251 204.874C246.825 207.301 245.039 208.613 245.039 208.613C243.737 209.572 241.904 210.54 240.967 210.763C240.029 210.985 239.184 212.189 239.088 213.433C238.991 214.678 238.867 218.225 239.688 218.736C240.507 219.239 241.945 220.734 242.882 222.05C242.882 222.05 244.165 223.862 242.86 225.98C241.554 228.097 239.36 227.773 239.36 227.773C237.765 227.53 235.779 226.919 234.96 226.417C234.139 225.905 232.701 226.154 231.769 226.963C230.836 227.771 228.195 230.217 228.417 231.154C228.64 232.092 228.604 234.165 228.334 235.758C228.334 235.758 227.964 237.947 225.536 238.522C223.109 239.096 221.798 237.309 221.798 237.309C220.838 236.008 219.87 234.174 219.647 233.237C219.425 232.3 218.221 231.455 216.975 231.35C215.73 231.254 212.183 231.13 211.68 231.948C211.177 232.767 209.682 234.205 208.366 235.143C208.366 235.143 206.554 236.425 204.428 235.122C202.31 233.817 202.643 231.62 202.643 231.62C202.886 230.025 203.496 228.039 203.999 227.22C204.502 226.402 204.262 224.962 203.453 224.029C202.645 223.097 200.207 220.453 199.261 220.678C198.324 220.9 196.251 220.865 194.657 220.594C194.657 220.594 192.468 220.224 191.894 217.797C191.326 215.395 193.111 214.075 193.111 214.075ZM221.92 223.283C228.506 221.718 232.583 215.101 231.01 208.517C229.446 201.932 222.83 197.863 216.244 199.428C209.65 200.994 205.582 207.61 207.155 214.193C208.711 220.781 215.326 224.849 221.92 223.283Z" fill="#F2F3F3"/>
<path d="M212.892 212.819C213.702 216.233 217.127 218.338 220.541 217.528C223.956 216.718 226.061 213.294 225.251 209.879C224.441 206.465 221.016 204.36 217.602 205.17C214.198 205.986 212.082 209.404 212.892 212.819Z" fill="#F2F3F3"/>
<path d="M184.117 90.6434C185.606 89.3845 187.741 88.0784 188.852 87.7386C189.963 87.3987 190.893 85.8791 190.91 84.3711C190.927 82.863 190.803 78.5812 189.775 78.0272C188.741 77.4837 186.895 75.7949 185.665 74.2804C185.665 74.2804 183.972 72.1951 185.384 69.5422C186.796 66.8892 189.462 67.1143 189.462 67.1143C191.411 67.2813 193.843 67.8623 194.869 68.408C195.903 68.9515 197.609 68.5423 198.676 67.5024C199.743 66.4625 202.73 63.3106 202.388 62.1916C202.048 61.0809 201.934 58.5759 202.13 56.6376C202.13 56.6376 202.407 53.9661 205.279 53.087C208.158 52.2057 209.886 54.255 209.886 54.255C211.145 55.744 212.451 57.8789 212.791 58.9896C213.131 60.1002 214.651 61.0307 216.159 61.0478C217.667 61.0649 221.949 60.9406 222.503 59.9125C223.057 58.8844 224.735 57.0325 226.25 55.8024C226.25 55.8024 228.335 54.1092 230.988 55.5211C233.649 56.9309 233.416 59.5996 233.416 59.5996C233.249 61.5479 232.668 63.9799 232.122 65.0058C231.579 66.0399 231.988 67.746 233.036 68.8107C234.084 69.8753 237.228 72.865 238.347 72.5229C239.458 72.1831 241.963 72.0686 243.901 72.2649C243.901 72.2649 246.564 72.5443 247.452 75.4132C248.333 78.2927 246.284 80.0208 246.284 80.0208C244.794 81.2797 242.66 82.5858 241.549 82.9256C240.438 83.2654 239.508 84.7851 239.49 86.2931C239.473 87.8012 239.598 92.0829 240.626 92.637C241.66 93.1804 243.506 94.8693 244.736 96.3838C244.736 96.3838 246.429 98.4691 245.017 101.122C243.607 103.783 240.938 103.55 240.938 103.55C238.99 103.383 236.558 102.802 235.532 102.256C234.498 101.713 232.792 102.122 231.725 103.162C230.66 104.21 227.673 107.362 228.013 108.473C228.352 109.583 228.467 112.088 228.27 114.027C228.27 114.027 227.991 116.69 225.122 117.577C222.243 118.458 220.514 116.409 220.514 116.409C219.255 114.92 217.949 112.785 217.61 111.675C217.27 110.564 215.75 109.634 214.242 109.616C212.734 109.599 208.452 109.724 207.906 110.749C207.361 111.775 205.674 113.629 204.159 114.86C204.159 114.86 202.074 116.553 199.413 115.143C196.762 113.739 196.985 111.065 196.985 111.065C197.152 109.116 197.733 106.684 198.279 105.658C198.822 104.624 198.413 102.918 197.373 101.851C196.325 100.787 193.173 97.7992 192.062 98.139C190.951 98.4789 188.446 98.5934 186.508 98.3971C186.508 98.3971 183.836 98.1199 182.955 95.2405C182.059 92.3737 184.117 90.6434 184.117 90.6434ZM219.547 99.4873C227.369 97.087 231.757 88.7943 229.351 80.9824C226.942 73.1622 218.658 68.7728 210.837 71.1813C203.015 73.5816 198.627 81.8743 201.033 89.6862C203.442 97.5064 211.735 101.894 219.547 99.4873Z" fill="#F2F3F3"/>
<path d="M207.859 87.5866C209.106 91.641 213.403 93.9147 217.449 92.6698C221.504 91.4227 223.769 87.1283 222.533 83.08C221.286 79.0256 216.989 76.7518 212.943 77.9967C208.888 79.2438 206.623 83.5383 207.859 87.5866Z" fill="white"/>
<g opacity="0.2">
<path d="M116.74 239.302C117.847 238.482 119.399 237.66 120.204 237.473C121 237.288 121.723 236.26 121.805 235.197C121.887 234.134 121.992 231.117 121.291 230.689C120.59 230.262 119.37 228.985 118.576 227.871C118.576 227.871 117.481 226.329 118.595 224.529C119.709 222.73 121.571 223.008 121.571 223.008C122.934 223.215 124.61 223.731 125.313 224.166C126.014 224.594 127.231 224.386 128.028 223.703C128.822 223.011 131.065 220.938 130.88 220.142C130.687 219.348 130.725 217.585 130.951 216.226C130.951 216.226 131.265 214.363 133.333 213.876C135.39 213.382 136.516 214.907 136.516 214.907C137.336 216.014 138.158 217.566 138.345 218.37C138.538 219.164 139.558 219.889 140.621 219.972C141.684 220.054 144.701 220.159 145.129 219.458C145.556 218.757 146.825 217.539 147.947 216.742C147.947 216.742 149.489 215.647 151.289 216.761C153.088 217.875 152.81 219.738 152.81 219.738C152.603 221.1 152.087 222.777 151.652 223.48C151.224 224.18 151.432 225.397 152.115 226.194C152.807 226.989 154.88 229.231 155.676 229.046C156.47 228.853 158.233 228.891 159.592 229.117C159.592 229.117 161.455 229.431 161.94 231.491C162.425 233.55 160.909 234.674 160.909 234.674C159.802 235.494 158.25 236.315 157.445 236.503C156.652 236.696 155.926 237.716 155.844 238.779C155.762 239.842 155.657 242.859 156.358 243.286C157.059 243.714 158.277 244.982 159.073 246.105C159.073 246.105 160.168 247.647 159.054 249.446C157.943 251.254 156.078 250.967 156.078 250.967C154.715 250.76 153.039 250.245 152.336 249.809C151.635 249.382 150.418 249.59 149.621 250.273C148.824 250.957 146.584 253.038 146.769 253.834C146.954 254.63 146.924 256.39 146.698 257.749C146.698 257.749 146.384 259.612 144.324 260.098C142.267 260.591 141.141 259.067 141.141 259.067C140.322 257.959 139.5 256.407 139.312 255.603C139.119 254.809 138.099 254.084 137.036 254.002C135.973 253.92 132.956 253.815 132.529 254.515C132.101 255.216 130.824 256.437 129.71 257.231C129.71 257.231 128.168 258.326 126.368 257.212C124.569 256.098 124.848 254.236 124.848 254.236C125.055 252.873 125.57 251.197 126.006 250.494C126.433 249.793 126.225 248.576 125.542 247.779C124.858 246.982 122.777 244.742 121.981 244.927C121.187 245.121 119.424 245.082 118.065 244.856C118.065 244.856 116.202 244.542 115.715 242.474C115.221 240.417 116.74 239.302 116.74 239.302ZM141.24 247.128C146.847 245.797 150.307 240.171 148.976 234.564C147.646 228.957 142.019 225.498 136.412 226.829C130.805 228.16 127.346 233.786 128.677 239.393C130.016 244.997 135.642 248.457 141.24 247.128Z" fill="#0D57D7"/>
</g>
<g opacity="0.2">
<path d="M7.55222 97.4765C8.65996 96.657 10.2119 95.8351 11.0162 95.648C11.81 95.4547 12.5352 94.4345 12.6174 93.3717C12.6996 92.309 12.8047 89.2918 12.1039 88.8643C11.403 88.4368 10.1827 87.1599 9.38822 86.0456C9.38822 86.0456 8.29327 84.504 9.40725 82.7043C10.5212 80.9046 12.3836 81.1834 12.3836 81.1834C13.7465 81.3904 15.4226 81.9055 16.1257 82.3414C16.8265 82.7689 18.0435 82.5609 18.8404 81.8775C19.6351 81.1858 21.8775 79.1127 21.6925 78.3167C21.4993 77.523 21.5377 75.7601 21.7635 74.4012C21.7635 74.4012 22.0778 72.5383 24.1434 72.0425C26.2007 71.5488 27.3267 73.0732 27.3267 73.0732C28.1462 74.1809 28.968 75.7328 29.1552 76.5371C29.3485 77.3308 30.3687 78.056 31.4315 78.1381C32.4943 78.2203 35.5115 78.3255 35.939 77.6246C36.3665 76.9238 37.6352 75.7057 38.7579 74.909C38.7579 74.909 40.2995 73.814 42.0992 74.928C43.8989 76.0419 43.6201 77.9042 43.6201 77.9042C43.4131 79.2671 42.8979 80.9432 42.4621 81.6462C42.0345 82.3471 42.2425 83.564 42.9259 84.3609C43.6176 85.1556 45.6907 87.3978 46.4867 87.2129C47.2805 87.0196 49.0434 87.058 50.4024 87.2838C50.4024 87.2838 52.2653 87.598 52.7506 89.6575C53.2442 91.7148 51.7198 92.8408 51.7198 92.8408C50.612 93.6602 49.0601 94.4821 48.2558 94.6693C47.462 94.8625 46.7369 95.8827 46.6547 96.9455C46.5725 98.0082 46.4673 101.025 47.1681 101.453C47.869 101.88 49.0871 103.149 49.8838 104.272C49.8838 104.272 50.9787 105.813 49.8648 107.613C48.753 109.421 46.8884 109.134 46.8884 109.134C45.5255 108.927 43.8494 108.412 43.1464 107.976C42.4455 107.548 41.2286 107.756 40.4316 108.44C39.6347 109.123 37.3945 111.205 37.5795 112C37.7728 112.794 37.7344 114.557 37.5085 115.916C37.5085 115.916 37.1943 117.779 35.1347 118.264C33.0774 118.758 31.9514 117.234 31.9514 117.234C31.132 116.126 30.3101 114.574 30.1229 113.77C29.9296 112.976 28.9094 112.251 27.8467 112.169C26.7839 112.086 23.7666 111.981 23.3391 112.682C22.9116 113.383 21.6346 114.603 20.5203 115.398C20.5203 115.398 18.9787 116.493 17.1789 115.379C15.3792 114.265 15.658 112.402 15.658 112.402C15.865 111.04 16.3802 109.364 16.816 108.661C17.2436 107.96 17.0357 106.743 16.3522 105.946C15.6688 105.149 13.5874 102.909 12.7914 103.094C11.9954 103.279 10.2348 103.249 8.87578 103.023C8.87578 103.023 7.01288 102.709 6.52533 100.641C6.03611 98.6002 7.55222 97.4765 7.55222 97.4765ZM32.0531 105.303C37.6601 103.972 41.1196 98.3461 39.7889 92.7392C38.4582 87.1324 32.832 83.673 27.225 85.0038C21.618 86.3345 18.1585 91.9606 19.4892 97.5675C20.8304 103.18 26.4566 106.64 32.0531 105.303Z" fill="#0D57D7"/>
</g>
<g opacity="0.2">
<path d="M69.5657 41.0774C70.6735 40.258 72.2254 39.4361 73.0297 39.2489C73.8257 39.064 74.5487 38.0355 74.6309 36.9727C74.7131 35.91 74.8183 32.8928 74.1174 32.4653C73.4165 32.0378 72.1963 30.7609 71.4017 29.6465C71.4017 29.6465 70.3068 28.105 71.4208 26.3053C72.5348 24.5056 74.3971 24.7844 74.3971 24.7844C75.76 24.9914 77.4361 25.5065 78.1392 25.9423C78.84 26.3698 80.057 26.1619 80.8539 25.4785C81.6486 24.7868 83.891 22.7137 83.7061 21.9177C83.5128 21.1239 83.5512 19.3611 83.777 18.0022C83.777 18.0022 84.0913 16.1393 86.1591 15.6517C88.2165 15.1581 89.3425 16.6825 89.3425 16.6825C90.1619 17.7902 90.9838 19.342 91.1709 20.1463C91.3642 20.9401 92.3844 21.6652 93.4472 21.7474C94.51 21.8296 97.5273 21.9347 97.9548 21.2339C98.3823 20.5331 99.6509 19.315 100.774 18.5183C100.774 18.5183 102.315 17.4233 104.115 18.5373C105.915 19.6512 105.636 21.5135 105.636 21.5135C105.429 22.8764 104.914 24.5524 104.478 25.2555C104.042 25.9586 104.258 27.1733 104.942 27.9702C105.633 28.7648 107.706 31.0071 108.502 30.8222C109.296 30.6289 111.059 30.6672 112.418 30.8931C112.418 30.8931 114.281 31.2073 114.766 33.2668C115.252 35.3263 113.736 36.45 113.736 36.45C112.628 37.2695 111.076 38.0914 110.272 38.2785C109.478 38.4718 108.753 39.492 108.67 40.5548C108.588 41.6175 108.483 44.6347 109.184 45.0622C109.885 45.4897 111.103 46.7583 111.9 47.8809C111.9 47.8809 112.994 49.4225 111.88 51.2222C110.769 53.0302 108.904 52.7431 108.904 52.7431C107.541 52.5361 105.865 52.021 105.162 51.5852C104.461 51.1577 103.244 51.3656 102.447 52.049C101.65 52.7324 99.4103 54.8138 99.5952 55.6098C99.7885 56.4035 99.7501 58.1664 99.5243 59.5253C99.5243 59.5253 99.21 61.3882 97.1504 61.8735C95.0931 62.3672 93.9671 60.8428 93.9671 60.8428C93.1477 59.7351 92.3258 58.1832 92.1386 57.3789C91.9454 56.5852 90.9252 55.86 89.8624 55.7779C88.7996 55.6957 85.7823 55.5905 85.3548 56.2914C84.9273 56.9922 83.6503 58.2125 82.536 59.007C82.536 59.007 80.9944 60.102 79.1863 58.9902C77.3866 57.8763 77.6654 56.014 77.6654 56.014C77.8724 54.6511 78.3876 52.975 78.8235 52.272C79.251 51.5711 79.0431 50.3542 78.3596 49.5573C77.6762 48.7604 75.5948 46.5204 74.7988 46.7053C74.005 46.8986 72.2422 46.8602 70.8832 46.6344C70.8832 46.6344 69.0203 46.3202 68.5244 44.2546C68.0496 42.2012 69.5657 41.0774 69.5657 41.0774ZM94.0688 48.9122C99.6758 47.5815 103.135 41.9553 101.805 36.3485C100.474 30.7417 94.8477 27.2823 89.2408 28.613C83.6338 29.9438 80.1742 35.5699 81.5049 41.1768C82.8439 46.7814 88.4702 50.2408 94.0688 48.9122Z" fill="#0D57D7"/>
</g>
<g opacity="0.2">
<path d="M205.505 278.357C207.919 277.466 211.148 276.794 212.68 276.867C214.212 276.941 216.038 275.476 216.742 273.608C217.446 271.739 219.204 266.37 218.163 265.232C217.13 264.092 215.589 261.174 214.748 258.747C214.748 258.747 213.585 255.409 216.515 252.744C219.453 250.076 222.666 251.553 222.666 251.553C225.007 252.629 227.758 254.442 228.799 255.58C229.832 256.72 232.134 256.98 233.926 256.157C235.709 255.335 240.826 252.765 240.908 251.231C240.981 249.699 241.958 246.548 243.077 244.231C243.077 244.231 244.614 241.046 248.58 241.237C252.537 241.431 253.764 244.743 253.764 244.743C254.655 247.157 255.327 250.386 255.254 251.918C255.181 253.45 256.645 255.275 258.514 255.98C260.382 256.684 265.752 258.441 266.884 257.411C268.024 256.378 270.941 254.837 273.369 253.996C273.369 253.996 276.707 252.832 279.375 255.771C282.04 258.701 280.563 261.914 280.563 261.914C279.486 264.255 277.675 267.014 276.544 268.044C275.404 269.077 275.144 271.379 275.967 273.171C276.789 274.954 279.361 280.08 280.893 280.153C282.425 280.226 285.576 281.203 287.893 282.321C287.893 282.321 291.078 283.859 290.885 287.816C290.693 291.781 287.379 293.001 287.379 293.001C284.964 293.892 281.736 294.563 280.204 294.49C278.672 294.417 276.846 295.881 276.142 297.75C275.438 299.619 273.68 304.988 274.711 306.12C275.743 307.26 277.284 310.177 278.125 312.605C278.125 312.605 279.289 315.943 276.359 318.608C273.42 321.275 270.207 319.799 270.207 319.799C267.866 318.722 265.107 316.911 264.076 315.78C263.044 314.64 260.733 314.382 258.95 315.203C257.166 316.025 252.049 318.595 251.976 320.127C251.903 321.659 250.926 324.81 249.807 327.127C249.807 327.127 248.27 330.312 244.313 330.118C240.347 329.927 239.128 326.613 239.128 326.613C238.237 324.198 237.565 320.97 237.638 319.438C237.711 317.906 236.247 316.08 234.387 315.374C232.518 314.67 227.151 312.921 226.019 313.951C224.879 314.984 221.961 316.525 219.534 317.366C219.534 317.366 216.196 318.529 213.528 315.591C210.863 312.661 212.34 309.448 212.34 309.448C213.416 307.107 215.229 304.356 216.359 303.317C217.499 302.285 217.759 299.982 216.935 298.191C216.114 296.407 213.544 291.29 212.009 291.209C210.478 291.136 207.326 290.159 205.009 289.04C205.009 289.04 201.825 287.503 202.016 283.537C202.193 279.585 205.505 278.357 205.505 278.357ZM245.495 305.187C256.264 305.704 265.425 297.397 265.94 286.62C266.458 275.851 258.144 266.7 247.372 266.175C236.603 265.658 227.453 273.971 226.935 284.74C226.41 295.511 234.723 304.662 245.495 305.187Z" fill="#0D57D7"/>
</g>
<path d="M280.244 346.738C280.397 345.941 280.752 344.966 281.019 344.566C281.286 344.165 281.198 343.433 280.809 342.94C280.42 342.447 279.27 341.099 278.795 341.189C278.321 341.279 277.282 341.218 276.497 341.044C276.497 341.044 275.411 340.808 275.176 339.589C274.939 338.362 275.868 337.742 275.868 337.742C276.539 337.287 277.479 336.842 277.953 336.751C278.428 336.661 278.878 336.078 278.948 335.472C279.016 334.858 279.171 333.065 278.768 332.789C278.368 332.522 277.681 331.744 277.241 331.06C277.241 331.06 276.637 330.126 277.341 329.094C278.037 328.064 279.135 328.279 279.135 328.279C279.932 328.432 280.907 328.786 281.307 329.054C281.707 329.321 282.44 329.233 282.933 328.844C283.425 328.455 284.774 327.304 284.684 326.83C284.593 326.356 284.655 325.316 284.829 324.532C284.829 324.532 285.065 323.446 286.284 323.211C287.511 322.974 288.129 323.894 288.129 323.894C288.583 324.566 289.029 325.506 289.12 325.98C289.21 326.454 289.784 326.906 290.398 326.974C291.012 327.042 292.806 327.197 293.082 326.795C293.349 326.394 294.127 325.707 294.811 325.267C294.811 325.267 295.745 324.663 296.777 325.367C297.809 326.071 297.592 327.161 297.592 327.161C297.439 327.958 297.085 328.933 296.817 329.333C296.55 329.733 296.638 330.466 297.027 330.959C297.416 331.451 298.567 332.8 299.041 332.71C299.515 332.619 300.554 332.681 301.339 332.855C301.339 332.855 302.425 333.091 302.66 334.31C302.897 335.537 301.976 336.155 301.976 336.155C301.305 336.609 300.365 337.055 299.891 337.146C299.417 337.236 298.967 337.818 298.896 338.424C298.828 339.038 298.674 340.832 299.076 341.108C299.476 341.375 300.164 342.153 300.604 342.837C300.604 342.837 301.208 343.77 300.504 344.803C299.799 345.835 298.712 345.626 298.712 345.626C297.915 345.473 296.94 345.119 296.54 344.851C296.139 344.584 295.407 344.672 294.914 345.061C294.421 345.45 293.072 346.601 293.163 347.075C293.253 347.549 293.192 348.588 293.018 349.373C293.018 349.373 292.782 350.459 291.555 350.696C290.336 350.931 289.709 350.013 289.709 350.013C289.255 349.342 288.809 348.401 288.719 347.927C288.628 347.453 288.046 347.003 287.44 346.933C286.826 346.865 285.032 346.71 284.757 347.113C284.489 347.513 283.711 348.2 283.027 348.64C283.027 348.64 282.094 349.244 281.061 348.54C280.029 347.836 280.244 346.738 280.244 346.738ZM294.002 340.393C295.906 337.582 295.175 333.764 292.365 331.861C289.554 329.957 285.736 330.687 283.832 333.498C281.928 336.308 282.659 340.126 285.469 342.03C288.28 343.934 292.098 343.203 294.002 340.393Z" fill="#F2F3F3"/>
<path d="M287.13 339.578C288.584 340.561 290.566 340.185 291.55 338.732C292.533 337.278 292.158 335.296 290.704 334.313C289.25 333.329 287.268 333.705 286.285 335.159C285.293 336.615 285.677 338.594 287.13 339.578Z" fill="white"/>
<path d="M164.926 49.7866C165.079 48.9897 165.433 48.0147 165.701 47.6145C165.968 47.2142 165.88 46.4815 165.491 45.9888C165.102 45.4962 163.951 44.1473 163.477 44.2378C163.003 44.3283 161.964 44.2667 161.179 44.0928C161.179 44.0928 160.093 43.8566 159.856 42.6297C159.618 41.4028 160.548 40.7821 160.548 40.7821C161.219 40.3278 162.159 39.8821 162.633 39.7916C163.107 39.7011 163.56 39.1271 163.628 38.513C163.696 37.8988 163.85 36.1051 163.448 35.8295C163.048 35.5623 162.36 34.7842 161.921 34.1005C161.921 34.1005 161.316 33.1669 162.021 32.1345C162.716 31.1043 163.815 31.3194 163.815 31.3194C164.611 31.4723 165.586 31.8269 165.987 32.0941C166.387 32.3613 167.12 32.2732 167.612 31.8842C168.105 31.4952 169.462 30.3426 169.363 29.8706C169.273 29.3965 169.335 28.357 169.509 27.5723C169.509 27.5723 169.745 26.4864 170.963 26.2514C172.19 26.0141 172.809 26.935 172.809 26.935C173.263 27.606 173.709 28.5462 173.799 29.0203C173.89 29.4945 174.472 29.9446 175.078 30.0148C175.692 30.0828 177.486 30.2375 177.761 29.8351C178.029 29.4348 178.807 28.7475 179.491 28.3077C179.491 28.3077 180.424 27.7036 181.457 28.4077C182.489 29.1118 182.272 30.2016 182.272 30.2016C182.119 30.9985 181.764 31.9735 181.497 32.3737C181.23 32.774 181.318 33.5067 181.707 33.9994C182.096 34.492 183.246 35.8409 183.72 35.7504C184.195 35.6599 185.234 35.7215 186.019 35.8954C186.019 35.8954 187.105 36.1316 187.34 37.3502C187.577 38.5771 186.656 39.1956 186.656 39.1956C185.985 39.6499 185.045 40.0956 184.571 40.1861C184.097 40.2766 183.646 40.8589 183.576 41.4647C183.508 42.0789 183.353 43.8726 183.756 44.1482C184.156 44.4154 184.843 45.1935 185.283 45.8772C185.283 45.8772 185.887 46.8108 185.183 47.8432C184.479 48.8756 183.391 48.6666 183.391 48.6666C182.595 48.5137 181.62 48.1591 181.219 47.8919C180.819 47.6247 180.086 47.7128 179.594 48.1018C179.101 48.4908 177.752 49.6412 177.843 50.1154C177.933 50.5895 177.871 51.629 177.697 52.4137C177.697 52.4137 177.461 53.4996 176.234 53.7368C175.007 53.9741 174.389 53.0532 174.389 53.0532C173.935 52.3822 173.489 51.442 173.398 50.9679C173.308 50.4937 172.726 50.0436 172.12 49.9734C171.506 49.9054 169.712 49.7507 169.436 50.1531C169.169 50.5534 168.391 51.2407 167.707 51.6805C167.707 51.6805 166.773 52.2846 165.741 51.5805C164.709 50.8764 164.926 49.7866 164.926 49.7866ZM178.675 43.4439C180.579 40.6335 179.849 36.8154 177.038 34.9115C174.228 33.0077 170.412 33.7465 168.506 36.5487C166.602 39.3591 167.332 43.1772 170.143 45.0811C172.953 46.9849 176.769 46.2461 178.675 43.4439Z" fill="#F2F3F3"/>
<g opacity="0.57">
<path d="M74.5998 143.82C74.7527 143.023 75.1073 142.048 75.3746 141.647C75.6418 141.247 75.5537 140.514 75.1647 140.022C74.7757 139.529 73.6253 138.18 73.1511 138.271C72.677 138.361 71.6374 138.3 70.8528 138.126C70.8528 138.126 69.7669 137.89 69.5296 136.663C69.2923 135.436 70.2216 134.815 70.2216 134.815C70.8926 134.361 71.8328 133.915 72.307 133.825C72.7811 133.734 73.2335 133.16 73.3015 132.546C73.3695 131.932 73.5242 130.138 73.1218 129.862C72.7216 129.595 72.0342 128.817 71.5944 128.133C71.5944 128.133 70.9903 127.2 71.6944 126.167C72.3903 125.137 73.4884 125.352 73.4884 125.352C74.2852 125.505 75.2603 125.86 75.6606 126.127C76.0608 126.394 76.7936 126.306 77.2862 125.917C77.7789 125.528 79.1361 124.376 79.0373 123.904C78.9468 123.429 79.0085 122.39 79.1824 121.605C79.1824 121.605 79.4186 120.519 80.6372 120.284C81.8642 120.047 82.4827 120.968 82.4827 120.968C82.9369 121.639 83.3826 122.579 83.4731 123.053C83.5636 123.527 84.1459 123.978 84.7518 124.048C85.3659 124.116 87.1597 124.27 87.4353 123.868C87.7025 123.468 88.4806 122.781 89.1644 122.341C89.1644 122.341 90.0981 121.737 91.1305 122.441C92.1629 123.145 91.9455 124.235 91.9455 124.235C91.7926 125.031 91.438 126.006 91.1708 126.407C90.9035 126.807 90.9916 127.54 91.3806 128.032C91.7696 128.525 92.9201 129.874 93.3942 129.783C93.8684 129.693 94.8996 129.757 95.6926 129.928C95.6926 129.928 96.7785 130.165 97.0136 131.383C97.2508 132.61 96.3299 133.229 96.3299 133.229C95.6588 133.683 94.7187 134.129 94.2445 134.219C93.7703 134.31 93.3202 134.892 93.25 135.498C93.182 136.112 93.0272 137.906 93.4297 138.181C93.8299 138.448 94.5172 139.226 94.957 139.91C94.957 139.91 95.5612 140.844 94.857 141.876C94.1529 142.909 93.0653 142.7 93.0653 142.7C92.2684 142.547 91.2934 142.192 90.8931 141.925C90.4929 141.658 89.7601 141.746 89.2674 142.135C88.7748 142.524 87.4259 143.674 87.5164 144.148C87.6069 144.622 87.5452 145.662 87.3713 146.447C87.3713 146.447 87.1351 147.533 85.9082 147.77C84.6812 148.007 84.0627 147.086 84.0627 147.086C83.6085 146.415 83.1628 145.475 83.0723 145.001C82.9818 144.527 82.3994 144.077 81.7936 144.006C81.1794 143.938 79.3856 143.784 79.1101 144.186C78.8428 144.586 78.0647 145.274 77.381 145.713C77.381 145.713 76.4473 146.318 75.4149 145.613C74.3908 144.907 74.5998 143.82 74.5998 143.82ZM88.3575 137.475C90.2615 134.664 89.531 130.846 86.7205 128.942C83.91 127.038 80.094 127.777 78.1878 130.579C76.2839 133.39 77.0144 137.208 79.8249 139.112C82.6354 141.016 86.4514 140.277 88.3575 137.475Z" fill="url(#paint2_linear_382_4972)"/>
</g>
<g opacity="0.1">
<path d="M110.9 97.0231C111.675 96.4495 112.769 95.8735 113.328 95.7394C113.887 95.6053 114.393 94.8908 114.451 94.1455C114.509 93.4003 114.579 91.2839 114.093 90.9829C113.603 90.6832 112.747 89.7896 112.184 89.0014C112.184 89.0014 111.418 87.9195 112.198 86.6536C112.978 85.3877 114.287 85.5858 114.287 85.5858C115.239 85.7291 116.424 86.0955 116.914 86.3952C117.405 86.6949 118.26 86.5496 118.819 86.0677C119.377 85.5858 120.952 84.1279 120.818 83.5691C120.683 83.0102 120.707 81.7715 120.871 80.8241C120.871 80.8241 121.094 79.5178 122.539 79.1722C123.984 78.8266 124.77 79.8935 124.77 79.8935C125.344 80.669 125.92 81.7628 126.054 82.3217C126.188 82.8805 126.907 83.3853 127.652 83.4433C128.398 83.5013 130.515 83.5763 130.815 83.0857C131.115 82.5952 132.008 81.7389 132.792 81.1777C132.792 81.1777 133.874 80.4115 135.14 81.1914C136.406 81.9713 136.208 83.2806 136.208 83.2806C136.065 84.2322 135.698 85.4172 135.398 85.9077C135.094 86.3994 135.244 87.2538 135.726 87.8119C136.208 88.3701 137.666 89.9448 138.225 89.8107C138.783 89.6766 140.022 89.7001 140.97 89.8638C140.97 89.8638 142.276 90.0868 142.621 91.5319C142.967 92.977 141.9 93.7634 141.9 93.7634C141.125 94.3369 140.031 94.9129 139.472 95.047C138.913 95.1811 138.408 95.9002 138.349 96.6409C138.291 97.3862 138.216 99.5038 138.707 99.8035C139.198 100.108 140.053 100.997 140.616 101.785C140.616 101.785 141.382 102.867 140.602 104.133C139.822 105.399 138.513 105.201 138.513 105.201C137.561 105.057 136.376 104.691 135.886 104.391C135.394 104.087 134.535 104.238 133.981 104.719C133.423 105.201 131.848 106.659 131.982 107.217C132.117 107.776 132.093 109.015 131.929 109.962C131.929 109.962 131.706 111.269 130.261 111.614C128.816 111.96 128.03 110.893 128.03 110.893C127.456 110.117 126.88 109.024 126.746 108.465C126.612 107.906 125.893 107.401 125.152 107.342C124.407 107.284 122.289 107.209 121.989 107.7C121.69 108.19 120.796 109.046 120.008 109.609C120.008 109.609 118.926 110.375 117.66 109.595C116.394 108.815 116.592 107.506 116.592 107.506C116.735 106.554 117.102 105.369 117.402 104.879C117.706 104.387 117.556 103.533 117.074 102.975C116.592 102.416 115.134 100.842 114.575 100.976C114.017 101.11 112.778 101.086 111.826 100.924C111.826 100.924 110.52 100.701 110.174 99.2558C109.833 97.8094 110.9 97.0231 110.9 97.0231ZM128.097 102.513C132.03 101.579 134.46 97.6314 133.525 93.6945C132.59 89.7622 128.638 87.333 124.706 88.2675C120.769 89.2031 118.343 93.1493 119.279 97.0862C120.219 101.022 124.166 103.452 128.097 102.513Z" fill="url(#paint3_linear_382_4972)"/>
</g>
<g opacity="0.2">
<path d="M185.742 12.5796C187.169 11.5239 189.183 10.4636 190.211 10.2168C191.24 9.96994 192.171 8.6547 192.278 7.28293C192.385 5.91116 192.515 2.0156 191.62 1.46169C190.717 0.90998 189.141 -0.734915 188.106 -2.18558C188.106 -2.18558 186.696 -4.17706 188.131 -6.50712C189.567 -8.83718 191.977 -8.4727 191.977 -8.4727C193.728 -8.20893 195.909 -7.53448 196.812 -6.98277C197.715 -6.43107 199.29 -6.69855 200.318 -7.58561C201.345 -8.47268 204.244 -11.1561 203.997 -12.1848C203.75 -13.2134 203.793 -15.4935 204.095 -17.2373C204.095 -17.2373 204.505 -19.6418 207.165 -20.2779C209.825 -20.914 211.273 -18.9502 211.273 -18.9502C212.328 -17.5228 213.389 -15.5094 213.635 -14.4808C213.882 -13.4521 215.206 -12.5229 216.578 -12.4162C217.949 -12.3094 221.847 -12.1715 222.399 -13.0744C222.951 -13.9773 224.596 -15.5535 226.038 -16.5865C226.038 -16.5865 228.03 -17.9968 230.36 -16.5612C232.69 -15.1257 232.325 -12.7157 232.325 -12.7157C232.061 -10.9641 231.387 -8.78303 230.835 -7.88012C230.275 -6.97501 230.551 -5.40248 231.438 -4.37505C232.325 -3.34761 235.009 -0.449157 236.037 -0.695988C237.066 -0.942818 239.346 -0.899661 241.09 -0.598242C241.09 -0.598242 243.494 -0.187802 244.131 2.47215C244.767 5.13211 242.803 6.57953 242.803 6.57953C241.375 7.63523 239.362 8.69549 238.333 8.94232C237.305 9.18915 236.375 10.5127 236.266 11.8762C236.16 13.2479 236.022 17.1457 236.924 17.6974C237.83 18.2574 239.404 19.894 240.439 21.3447C240.439 21.3447 241.849 23.3361 240.413 25.6662C238.978 27.9963 236.568 27.6318 236.568 27.6318C234.816 27.368 232.635 26.6936 231.732 26.1419C230.827 25.5818 229.246 25.8599 228.227 26.7447C227.2 27.6318 224.301 30.3152 224.548 31.3439C224.795 32.3725 224.751 34.6526 224.45 36.3964C224.45 36.3964 224.039 38.8009 221.379 39.437C218.719 40.0731 217.272 38.1093 217.272 38.1093C216.216 36.6819 215.156 34.6685 214.909 33.6398C214.662 32.6112 213.339 31.682 211.975 31.5731C210.604 31.4663 206.706 31.3284 206.154 32.2313C205.602 33.1342 203.957 34.7104 202.507 35.7455C202.507 35.7455 200.515 37.1558 198.185 35.7203C195.855 34.2848 196.219 31.8748 196.219 31.8748C196.483 30.1232 197.158 27.9421 197.709 27.0392C198.269 26.1341 197.994 24.5616 197.107 23.5341C196.219 22.5067 193.536 19.6082 192.507 19.8551C191.479 20.1019 189.198 20.0587 187.446 19.7595C187.446 19.7595 185.042 19.3491 184.406 16.6891C183.778 14.027 185.742 12.5796 185.742 12.5796ZM217.397 22.6852C224.635 20.9651 229.109 13.6993 227.387 6.4528C225.667 -0.785345 218.392 -5.25662 211.154 -3.53659C203.907 -1.81434 199.442 5.44931 201.164 12.6958C202.895 19.94 210.161 24.4135 217.397 22.6852Z" fill="#0D57D7"/>
<path d="M207.482 11.1939C208.372 14.9429 212.137 17.26 215.895 16.3677C219.644 15.4776 221.961 11.7121 221.071 7.96313C220.181 4.21416 216.415 1.89702 212.658 2.78934C208.909 3.67944 206.592 7.44496 207.482 11.1939Z" fill="#0D57D7"/>
</g>
<g opacity="0.2">
<path d="M153.092 157.698C154.662 156.542 156.868 155.369 158.007 155.101C159.137 154.836 160.165 153.38 160.28 151.872C160.395 150.365 160.548 146.09 159.549 145.475C158.559 144.866 156.816 143.061 155.691 141.474C155.691 141.474 154.14 139.288 155.718 136.725C157.288 134.163 159.949 134.568 159.949 134.568C161.876 134.856 164.271 135.598 165.26 136.207C166.25 136.816 167.987 136.523 169.115 135.547C170.243 134.571 173.428 131.624 173.163 130.494C172.898 129.363 172.944 126.86 173.27 124.941C173.27 124.941 173.714 122.296 176.643 121.597C179.571 120.899 181.159 123.057 181.159 123.057C182.315 124.626 183.48 126.834 183.755 127.971C184.02 129.101 185.477 130.129 186.984 130.244C188.492 130.359 192.776 130.51 193.385 129.521C193.993 128.531 195.799 126.788 197.386 125.663C197.386 125.663 199.571 124.112 202.135 125.691C204.699 127.269 204.3 129.919 204.3 129.919C204.012 131.846 203.27 134.241 202.661 135.23C202.052 136.219 202.345 137.956 203.321 139.085C204.297 140.213 207.243 143.397 208.374 143.132C209.505 142.867 212.008 142.913 213.927 143.239C213.927 143.239 216.574 143.692 217.262 146.614C217.961 149.542 215.803 151.13 215.803 151.13C214.233 152.286 212.027 153.46 210.888 153.727C209.758 153.992 208.731 155.448 208.615 156.956C208.5 158.463 208.349 162.747 209.338 163.356C210.328 163.964 212.071 165.77 213.196 167.357C213.196 167.357 214.747 169.542 213.166 172.097C211.597 174.659 208.938 174.263 208.938 174.263C207.011 173.974 204.616 173.232 203.627 172.623C202.637 172.015 200.9 172.307 199.772 173.284C198.644 174.26 195.459 177.206 195.726 178.345C195.991 179.475 195.945 181.979 195.619 183.898C195.619 183.898 195.175 186.543 192.244 187.233C189.316 187.932 187.728 185.774 187.728 185.774C186.572 184.204 185.405 181.988 185.132 180.859C184.867 179.729 183.41 178.702 181.903 178.586C180.395 178.471 176.12 178.318 175.505 179.318C174.896 180.307 173.088 182.042 171.504 183.175C171.504 183.175 169.31 184.728 166.754 183.148C164.193 181.578 164.598 178.918 164.598 178.918C164.886 176.99 165.628 174.596 166.237 173.606C166.846 172.617 166.553 170.88 165.577 169.752C164.601 168.623 161.654 165.439 160.524 165.704C159.393 165.969 156.89 165.923 154.97 165.597C154.97 165.597 152.323 165.144 151.627 162.225C150.935 159.286 153.092 157.698 153.092 157.698ZM187.87 168.806C195.827 166.913 200.743 158.933 198.849 150.976C196.956 143.019 188.97 138.114 181.021 140.005C173.064 141.899 168.148 149.878 170.042 157.835C171.933 165.784 179.912 170.7 187.87 168.806Z" fill="#0D57D7"/>
<path d="M176.987 156.184C177.968 160.309 182.104 162.848 186.229 161.867C190.346 160.888 192.893 156.75 191.914 152.633C190.933 148.508 186.797 145.969 182.672 146.95C178.545 147.923 175.997 152.061 176.987 156.184Z" fill="#0D57D7"/>
</g>
</g>
</g>
<defs>
<linearGradient id="paint0_linear_382_4972" x1="348.016" y1="179.454" x2="248.083" y2="206.026" gradientUnits="userSpaceOnUse">
<stop stop-color="#0D57D7"/>
<stop offset="1" stop-color="#4D8EFF"/>
</linearGradient>
<linearGradient id="paint1_linear_382_4972" x1="299.14" y1="151.118" x2="276.415" y2="157.161" gradientUnits="userSpaceOnUse">
<stop stop-color="#0D57D7"/>
<stop offset="1" stop-color="#4D8EFF"/>
</linearGradient>
<linearGradient id="paint2_linear_382_4972" x1="100.356" y1="143.934" x2="73.3657" y2="151.11" gradientUnits="userSpaceOnUse">
<stop stop-color="#0D57D7"/>
<stop offset="1" stop-color="#4D8EFF"/>
</linearGradient>
<linearGradient id="paint3_linear_382_4972" x1="146.794" y1="107.219" x2="114.569" y2="115.788" gradientUnits="userSpaceOnUse">
<stop stop-color="#0D57D7"/>
<stop offset="1" stop-color="#4D8EFF"/>
</linearGradient>
<clipPath id="clip0_382_4972">
<rect width="285" height="357" fill="white" transform="matrix(-1 0 0 1 285 0)"/>
</clipPath>
<clipPath id="clip1_382_4972">
<rect width="415" height="540" fill="white" transform="matrix(-0.96642 0.256968 0.256968 0.96642 345.238 -57)"/>
</clipPath>
</defs>
</svg>
