<svg width="215" height="220" viewBox="0 0 215 220" fill="none" xmlns="http://www.w3.org/2000/svg">
<g opacity="0.5">
<path opacity="0.1" d="M7.11328 144.995C7.11328 164.844 15.0024 183.881 29.0451 197.917C43.0878 211.952 62.1338 219.837 81.9932 219.837C101.853 219.837 120.899 211.952 134.941 197.917C148.984 183.881 156.873 164.844 156.873 144.995C156.873 116.688 115.081 58.9333 81.9932 20.6319C48.9051 58.9506 7.11328 116.688 7.11328 144.995Z" fill="url(#paint0_linear_382_4401)"/>
<path opacity="0.1" d="M7.11328 134.323C7.11328 154.172 15.0024 173.209 29.0451 187.244C43.0878 201.28 62.1338 209.165 81.9932 209.165C101.853 209.165 120.899 201.28 134.941 187.244C148.984 173.209 156.873 154.172 156.873 134.323C156.873 106.016 115.081 48.2613 81.9932 9.95984C48.9051 48.2785 7.11328 106.016 7.11328 134.323Z" fill="url(#paint1_linear_382_4401)"/>
<path opacity="0.1" d="M0 108.856C3.57082e-07 120.836 4.7597 132.326 13.232 140.798C21.7043 149.269 33.1953 154.028 45.1769 154.028C57.1586 154.028 68.6495 149.269 77.1219 140.798C85.5942 132.326 90.3539 120.836 90.3539 108.856C90.3539 91.7701 65.1398 56.9113 45.1769 33.7936C25.2141 56.9217 0 91.7701 0 108.856Z" fill="url(#paint2_linear_382_4401)" fill-opacity="0.7"/>
<path opacity="0.4" d="M124.502 75.0621C124.502 87.0426 129.262 98.5324 137.734 107.004C146.206 115.475 157.697 120.235 169.679 120.235C181.661 120.235 193.151 115.475 201.624 107.004C210.096 98.5324 214.856 87.0426 214.856 75.0621C214.856 57.9765 189.642 23.1177 169.679 0C149.716 23.1281 124.502 57.9765 124.502 75.0621Z" fill="url(#paint3_linear_382_4401)" fill-opacity="0.7"/>
</g>
<defs>
<linearGradient id="paint0_linear_382_4401" x1="82.171" y1="370.664" x2="82.171" y2="136.064" gradientUnits="userSpaceOnUse">
<stop stop-color="#0D57D7"/>
<stop offset="1" stop-color="#4D8EFF"/>
</linearGradient>
<linearGradient id="paint1_linear_382_4401" x1="82.1711" y1="9.9598" x2="82.1711" y2="209.165" gradientUnits="userSpaceOnUse">
<stop stop-color="#0D57D7"/>
<stop offset="1" stop-color="#4D8EFF"/>
</linearGradient>
<linearGradient id="paint2_linear_382_4401" x1="45.2843" y1="33.7936" x2="45.2843" y2="154.028" gradientUnits="userSpaceOnUse">
<stop stop-color="#0D57D7"/>
<stop offset="1" stop-color="#4D8EFF"/>
</linearGradient>
<linearGradient id="paint3_linear_382_4401" x1="169.786" y1="-2.28407e-05" x2="169.786" y2="120.235" gradientUnits="userSpaceOnUse">
<stop stop-color="#0D57D7"/>
<stop offset="1" stop-color="#4D8EFF"/>
</linearGradient>
</defs>
</svg>
