<svg width="200" height="314" viewBox="0 0 200 314" fill="none" xmlns="http://www.w3.org/2000/svg">
<g opacity="0.2">
<mask id="mask0_519_3755" style="mask-type:alpha" maskUnits="userSpaceOnUse" x="0" y="0" width="201" height="314">
<rect x="0.929688" y="0.437012" width="199.073" height="313" fill="#D9D9D9"/>
</mask>
<g mask="url(#mask0_519_3755)">
<path d="M156.484 216.082C155.944 214.943 155.309 213.828 154.673 212.736C146.626 198.753 138.867 185.058 132.775 170.079C130.976 165.642 129.213 161.193 127.486 156.72C131.468 162.213 136.721 168.389 142.897 171.519C145.103 172.646 147.73 173.174 150.092 172.418C163.02 168.329 144.947 143.9 141.518 138.552C131.36 122.758 126.959 102.047 124.332 83.7346C120.423 56.4521 121.346 28.7978 119.404 1.35928C119.164 -1.97459 118.732 -5.0806 117.185 -8.07869C113.611 -14.9863 104.833 -15.406 98.8608 -11.4725C98.7288 -11.3886 98.6089 -11.2926 98.477 -11.1967C98.2012 4.78909 97.3737 20.7749 96.1145 36.7127C94.3876 58.4188 91.9172 80.065 88.8352 101.615C86.2208 119.928 82.0475 138.108 75.3798 155.401C68.772 172.55 59.6818 188.776 47.6175 202.687C45.1471 205.553 42.5807 208.227 39.8105 210.781C37.388 213.024 33.8983 215.962 33.6464 219.512C33.5145 221.323 34.354 222.558 35.6012 223.313C42.2449 220.735 48.2891 216.274 53.3978 211.501C57.4392 207.723 61.1089 203.538 64.4907 199.101C63.5793 201.823 62.8238 204.581 62.3441 207.436C61.9963 209.522 61.9963 212.053 64.035 213.264C66.8652 214.931 70.8347 212.82 73.2931 211.357C77.7902 208.695 81.0521 204.414 83.6425 199.928C83.6665 201.355 83.7144 202.795 83.7864 204.222C84.1222 210.302 84.7818 216.706 87.2522 222.33C89.8905 228.35 95.9346 234.754 102.878 230.293C104.845 229.034 106.344 227.151 107.615 225.184C113.767 215.65 114.966 204.042 117.089 193.153C117.617 190.466 118.025 187.768 118.36 185.046C120.135 189.975 122.174 194.808 124.512 199.521C128.71 207.975 133.279 218.457 140.318 224.98C143.34 227.787 147.562 229.633 151.603 228.794C158.379 227.391 158.954 221.227 156.496 216.034L156.484 216.082Z" fill="#A3DAF7"/>
<g style="mix-blend-mode:multiply">
<path d="M96.703 32.3715C98.6697 29.1815 101.632 26.1954 105.481 25.5838C109.631 24.9362 113.756 27.1548 116.478 30.1769C118.445 32.3715 119.848 34.8779 120.951 37.5522C120.556 25.4759 120.256 13.3996 119.392 1.35928C119.153 -1.97459 118.721 -5.0806 117.174 -8.07869C113.6 -14.9863 104.822 -15.406 98.8496 -11.4725C98.7177 -11.3886 98.5978 -11.2926 98.4658 -11.1967C98.214 3.5299 97.4705 18.2445 96.3672 32.9351C96.4751 32.7432 96.583 32.5514 96.691 32.3595L96.703 32.3715Z" fill="#A3DAF7"/>
</g>
<g style="mix-blend-mode:screen">
<path d="M34.8935 217.75C37.3639 215.423 39.7384 212.977 42.0769 210.518C48.2049 204.067 53.6495 196.991 58.7942 189.736C63.843 182.612 68.5439 175.333 72.4415 167.502C76.315 159.731 79.445 151.648 82.3831 143.481C88.5592 126.26 91.8451 108.38 94.0397 90.2593C96.3062 71.6112 98.201 52.8912 99.6401 34.1591C100.851 18.4851 101.655 2.77518 101.787 -12.9468C100.767 -12.563 99.784 -12.0713 98.8606 -11.4717C98.7287 -11.3878 98.6087 -11.2918 98.4768 -11.1959C98.201 4.78989 97.3735 20.7757 96.1143 36.7135C94.3874 58.4196 91.917 80.0658 88.835 101.616C86.2207 119.928 82.0473 138.109 75.3796 155.402C68.7718 172.551 59.6816 188.776 47.6173 202.687C45.1469 205.554 42.5805 208.228 39.8103 210.782C37.5557 212.869 34.3778 215.567 33.7422 218.793C34.1379 218.445 34.5217 218.086 34.8935 217.738V217.75Z" fill="#A3DAF7"/>
<path d="M104.641 113.117C104.533 115.227 104.449 117.35 104.413 119.461C104.305 125.421 104.461 131.405 105.241 137.317C105.924 142.462 107.088 147.691 109.414 152.38C110.445 149.741 110.889 146.899 110.985 144.081C111.201 137.653 109.846 131.225 108.215 125.049C107.148 121.044 105.888 117.086 104.653 113.129L104.641 113.117Z" fill="#A3DAF7"/>
<path d="M92.637 165.619C92.4811 163.101 92.2292 160.583 91.9414 158.064C91.7136 156.098 91.4617 154.143 91.2219 152.188C90.958 153.951 90.7062 155.726 90.4664 157.501C89.7588 162.873 89.0633 168.282 88.6795 173.69C88.4517 176.808 88.0319 179.914 87.7441 183.032C87.4203 186.678 87.1925 190.384 87.5162 194.041C87.7321 196.548 88.2118 199.522 89.9747 201.453C91.9054 198.934 92.601 195.516 92.9848 192.446C93.8362 185.719 93.2606 178.895 92.8768 172.143C92.7569 169.973 92.7689 167.79 92.637 165.619Z" fill="#A3DAF7"/>
</g>
<g style="mix-blend-mode:multiply">
<path d="M156.484 216.083C155.944 214.944 155.308 213.829 154.673 212.737C146.626 198.754 138.867 185.059 132.775 170.081C130.976 165.643 129.213 161.194 127.486 156.721C131.468 162.214 136.72 168.39 142.896 171.52C145.103 172.647 147.729 173.175 150.092 172.419C163.007 168.33 144.947 143.901 141.517 138.553C131.36 122.759 126.959 102.048 124.332 83.7358C120.423 56.4532 121.346 28.7989 119.403 1.36043C119.164 -1.97344 118.732 -5.07946 117.185 -8.07754C116.141 -10.0803 114.654 -11.5313 112.927 -12.4907C113.107 -8.1375 113.227 -3.77229 113.299 0.580924C113.515 14.1443 113.323 27.7196 113.551 41.2829C113.779 54.9542 114.714 68.5655 116.046 82.1648C116.741 89.2283 117.557 96.2798 118.564 103.319C119.463 109.627 120.351 115.863 122.461 121.907C126.239 132.736 132.499 143.518 132.223 155.306C132.211 155.87 131.564 156.098 131.156 155.75C128.925 153.795 127.102 151.409 125.519 148.914C122.437 144.045 120.159 138.649 118.264 133.204C118.312 133.492 118.36 133.768 118.408 134.056C119.116 138.481 119.607 142.942 120.471 147.343C121.178 150.941 121.934 154.527 122.521 158.148C123.133 161.89 123.625 165.691 123.517 169.481C123.445 172.371 123.049 175.513 121.37 177.96C121.202 178.211 120.794 178.391 120.519 178.187C117.365 175.825 115.254 172.395 113.647 168.845C110.985 162.981 109.546 156.685 108.131 150.425C107.855 155.906 107.483 161.374 106.979 166.843C106.308 174.122 105.456 181.413 104.137 188.609C103.118 194.185 101.883 199.846 99.616 205.062C98.3928 207.88 96.402 211.718 93.0082 212.234C88.4152 212.929 86.0047 207.82 85.0693 204.199C84.2658 201.093 83.978 197.867 83.8341 194.665C83.6662 190.803 83.7741 186.93 83.99 183.056C84.0859 181.317 84.2178 179.591 84.3617 177.864C82.5989 183.128 81.0519 188.513 78.8453 193.61C77.754 196.152 76.4828 198.754 74.636 200.841C73.2688 202.388 71.446 203.491 69.3234 202.964C64.8142 201.836 66.2653 194.893 66.9609 191.751C67.4166 189.7 68.0282 187.709 68.6878 185.731C65.6897 190.971 62.2719 195.972 58.4583 200.649C56.0239 203.635 53.4095 206.489 50.5793 209.104C48.2288 211.274 45.7224 213.349 42.9642 214.98C41.753 215.687 40.0261 216.731 38.551 216.347C37.4597 216.071 37.1119 214.98 37.1599 213.961C37.1719 213.709 37.2199 213.469 37.2559 213.217C35.469 215.028 33.826 217.139 33.6581 219.537C33.5262 221.348 34.3657 222.583 35.6129 223.339C42.2567 220.76 48.3008 216.299 53.4095 211.538C57.4509 207.761 61.1206 203.563 64.5024 199.126C63.591 201.848 62.8355 204.607 62.3558 207.461C62.008 209.547 62.008 212.078 64.0467 213.289C66.8769 214.956 70.8464 212.845 73.3048 211.382C77.8019 208.72 81.0639 204.439 83.6542 199.954C83.6782 201.381 83.7261 202.82 83.7981 204.247C84.1339 210.327 84.7935 216.731 87.2639 222.355C89.9022 228.375 95.9463 234.779 102.89 230.318C104.857 229.059 106.356 227.176 107.627 225.209C113.779 215.675 114.978 204.067 117.101 193.178C117.628 190.492 118.036 187.793 118.372 185.071C120.147 190 122.186 194.833 124.524 199.546C128.721 208 133.29 218.482 140.33 225.006C143.352 227.812 147.573 229.659 151.615 228.819C158.39 227.416 158.966 221.252 156.508 216.059L156.484 216.083Z" fill="#A3DAF7"/>
</g>
<g style="mix-blend-mode:multiply">
<path d="M156.484 216.083C155.944 214.943 155.308 213.828 154.673 212.737C146.626 198.754 138.867 185.058 132.775 170.08C130.976 165.643 129.213 161.194 127.486 156.72C131.468 162.213 136.72 168.389 142.896 171.519C145.103 172.646 147.729 173.174 150.092 172.418C156.855 170.284 155.129 162.561 151.447 154.922C151.495 155.989 151.519 157.044 151.459 158.1C151.255 162.045 149.96 166.338 146.086 168.125C143.964 169.109 141.637 169.288 139.455 168.425C136.96 167.442 134.885 165.559 133.111 163.592C130.556 160.738 128.494 157.524 126.551 154.226C128.086 159.695 129.537 165.175 131.084 170.632C132.655 176.124 134.31 181.605 136.001 187.061C137.32 191.306 138.615 195.54 140.198 199.689C141.613 203.395 143.136 207.232 143.472 211.226C143.616 212.881 143.436 214.464 142.776 215.999C142.357 216.994 141.709 218.037 140.63 218.397C138.531 219.093 136.528 216.814 135.365 215.387C133.518 213.12 132.031 210.578 130.628 208.024C128.781 204.678 126.863 201.368 125.172 197.938C121.694 190.899 118.96 183.559 116.249 176.196C115.938 181.317 115.098 186.414 113.875 191.378C112.268 197.938 110.013 204.342 107.195 210.482C105.048 215.171 102.734 220.28 98.2728 223.23C95.2508 225.233 91.3772 225.76 88.2113 223.77C88.0194 223.65 87.8635 223.506 87.6836 223.374C90.5258 229.058 96.2701 234.527 102.818 230.317C104.785 229.058 106.284 227.175 107.555 225.209C113.707 215.675 114.906 204.066 117.029 193.177C117.557 190.491 117.964 187.793 118.3 185.07C120.075 189.999 122.114 194.832 124.452 199.545C128.649 208 133.218 218.481 140.258 225.005C143.28 227.811 147.501 229.658 151.543 228.818C158.318 227.415 158.894 221.251 156.436 216.059L156.484 216.083Z" fill="#A3DAF7"/>
</g>
<path d="M24.1567 302.835C25.5717 303.123 26.8909 302.524 27.9103 301.564C30.5126 299.13 31.8198 295.34 32.9111 292.042C34.3142 287.773 35.4534 283.408 36.6047 279.066C37.5881 275.397 38.4995 271.703 39.303 267.998C37.8399 269.856 36.3888 271.727 34.9737 273.622C31.1242 278.803 27.3826 284.151 24.4205 289.896C23.2332 292.198 22.106 294.621 21.5663 297.163C21.2425 298.71 21.0986 300.641 22.1419 301.78C22.6696 302.356 23.3652 302.667 24.1567 302.823V302.835Z" fill="#A3DAF7"/>
<path d="M66.1804 264.52C67.7394 264.364 68.6628 262.841 69.2264 261.545C70.6775 258.272 70.8814 254.566 71.3611 251.064C71.8408 247.61 72.2725 244.145 72.2485 240.643C72.2365 238.988 72.0686 237.333 71.9247 235.678C68.6508 240.715 66.2403 246.291 64.5734 252.06C64.1297 253.607 63.7459 255.166 63.4701 256.749C63.1703 258.475 62.9425 260.37 63.3142 262.109C63.638 263.596 64.5374 264.663 66.1684 264.508L66.1804 264.52Z" fill="#A3DAF7"/>
<path d="M165.945 205.326C168.62 213.576 172.745 221.563 178.261 228.243C180.276 230.677 182.615 232.908 185.157 234.767C187.747 236.662 190.925 238.544 194.247 238.473C196.981 238.413 200.315 236.266 200.411 233.268C200.495 230.474 197.977 228.087 196.022 226.42C193.851 224.561 191.429 223.05 189.055 221.491C187.1 220.208 185.193 218.865 183.202 217.618C181.02 216.251 178.801 214.92 176.642 213.516C173.213 211.274 169.855 208.887 166.809 206.141C166.521 205.877 166.233 205.602 165.945 205.326Z" fill="#A3DAF7"/>
<path d="M192.7 182.397C190.601 181.33 188.275 180.754 185.996 180.214C183.49 179.627 181.007 178.967 178.513 178.332C174.987 177.444 171.521 176.401 168.031 175.381C167.971 175.369 167.912 175.345 167.852 175.333C168.379 176.113 169.003 176.845 169.59 177.54C170.718 178.859 171.857 180.154 172.996 181.474C175.515 184.388 178.597 187.014 182.182 188.513C182.398 188.609 182.638 188.681 182.866 188.753C186.14 189.88 189.822 189.94 193.203 189.293C194.067 189.125 194.954 188.885 195.554 188.261C197.629 186.091 194.523 183.332 192.7 182.409V182.397Z" fill="#A3DAF7"/>
<path d="M0.941406 211.586C0.941406 213.277 2.14064 214.68 3.4598 215.604C5.99018 217.39 9.26409 217.51 12.2262 216.995C18.5821 215.879 24.4224 212.402 29.2553 208.24C32.4932 205.446 35.4553 202.292 37.9977 198.85C39.101 197.363 40.1324 195.792 41.0678 194.173C40.648 194.377 40.2403 194.569 39.8326 194.749C35.9231 196.536 31.9056 198.071 27.8042 199.342C25.5257 200.05 23.2232 200.673 20.8967 201.213C18.6661 201.729 16.4115 202.076 14.157 202.496C10.1755 203.24 6.1221 204.295 3.15999 207.245C2.02072 208.384 0.941406 209.895 0.941406 211.574L0.941406 211.586Z" fill="#A3DAF7"/>
<g style="mix-blend-mode:multiply">
<path d="M34.7222 278.983C33.5469 281.177 32.4077 283.396 31.3403 285.662C30.345 287.785 29.3376 289.956 28.6181 292.186C27.9105 294.381 27.3469 296.743 26.0637 298.698C25.572 299.441 24.8405 300.305 23.8451 300.185C22.7298 300.053 21.9743 298.746 21.6985 297.775C21.6385 297.571 21.5906 297.367 21.5546 297.163V297.175C21.2308 298.722 21.0869 300.653 22.1302 301.792C22.6579 302.368 23.3534 302.679 24.1449 302.835C25.56 303.123 26.8792 302.523 27.8985 301.564C30.5009 299.13 31.808 295.34 32.8993 292.042C34.3024 287.773 35.4417 283.408 36.593 279.066C37.1686 276.908 37.7083 274.749 38.2239 272.579C37.0367 274.701 35.8614 276.824 34.7102 278.983H34.7222Z" fill="#A3DAF7"/>
</g>
<g style="mix-blend-mode:multiply">
<path d="M70.147 253.547C69.5474 254.962 68.9238 256.413 68.1083 257.72C67.6047 258.536 66.9811 259.375 66.1536 259.891C64.9903 260.598 63.875 260.107 63.1915 259.123C63.1195 260.143 63.1195 261.15 63.3354 262.133C63.6592 263.62 64.5586 264.688 66.1896 264.532C67.7486 264.376 68.672 262.853 69.2356 261.558C70.6867 258.284 70.8906 254.578 71.3702 251.076C71.4302 250.657 71.4782 250.237 71.5381 249.817C71.1184 251.076 70.6747 252.324 70.147 253.559V253.547Z" fill="#A3DAF7"/>
</g>
<g style="mix-blend-mode:multiply">
<path d="M196.036 226.433C193.865 224.574 191.443 223.063 189.068 221.504C187.114 220.221 185.207 218.877 183.216 217.63C181.033 216.263 178.815 214.932 176.656 213.529C173.694 211.598 170.792 209.535 168.094 207.233C169.845 209.883 171.811 212.402 173.91 214.824C175.517 216.695 177.136 218.578 178.935 220.269C180.662 221.888 182.485 223.387 184.235 224.958C185.998 226.553 187.689 228.231 189.092 230.15C190.124 231.553 191.119 233.256 191.191 235.043C191.239 236.122 190.759 237.094 189.812 237.514C191.239 238.125 192.738 238.509 194.261 238.473C196.995 238.413 200.329 236.266 200.425 233.268C200.509 230.474 197.991 228.088 196.036 226.421V226.433Z" fill="#A3DAF7"/>
</g>
<g style="mix-blend-mode:multiply">
<path d="M192.7 182.397C190.601 181.33 188.275 180.754 185.996 180.214C183.49 179.627 181.007 178.967 178.513 178.332C174.987 177.444 171.521 176.401 168.031 175.381C167.971 175.369 167.912 175.345 167.852 175.333C167.9 175.405 167.96 175.477 168.019 175.549C168.907 175.945 169.794 176.317 170.682 176.653C174.04 177.936 177.517 178.883 180.851 180.262C183.418 181.318 186.488 182.325 188.215 184.652C188.922 185.599 189.138 186.918 188.43 187.937C187.795 188.861 186.644 189.149 185.588 189.245C185.324 189.269 185.061 189.281 184.797 189.281C187.543 189.868 190.469 189.808 193.191 189.281C194.055 189.113 194.942 188.873 195.542 188.249C197.617 186.079 194.511 183.32 192.688 182.397H192.7Z" fill="#A3DAF7"/>
</g>
<g style="mix-blend-mode:multiply">
<path d="M33.9446 200.816C29.8672 203.958 25.6699 207.124 21.1128 209.546C18.7503 210.806 16.2439 211.861 13.6176 212.413C11.7348 212.808 9.69609 213.06 7.77731 212.748C6.21831 212.497 4.59934 211.765 3.95176 210.23C3.42409 208.947 3.65195 207.508 4.26356 206.285C3.8798 206.584 3.50804 206.908 3.14827 207.268C2.009 208.407 0.929688 209.918 0.929688 211.597C0.929688 213.288 2.12892 214.691 3.44808 215.615C5.97846 217.401 9.25237 217.521 12.2145 217.006C18.5704 215.89 24.4107 212.413 29.2436 208.251C32.4815 205.457 35.4436 202.303 37.986 198.861C39.0653 197.41 40.0727 195.887 40.9841 194.304C38.9454 196.763 36.427 198.885 33.9326 200.816H33.9446Z" fill="#A3DAF7"/>
</g>
<g style="mix-blend-mode:screen">
<path d="M16.9506 205.217C16.4589 204.437 15.2596 204.318 14.4322 204.246C13.089 204.126 11.7099 204.378 10.4147 204.725C8.78378 205.169 6.66113 205.877 6.01355 207.615C5.84566 208.083 5.86964 208.599 6.07351 209.043C6.18144 209.822 6.88899 210.326 7.71646 210.518C8.62788 210.733 9.55129 210.662 10.4747 210.518C12.4534 210.194 14.6121 209.474 16.1111 208.083C16.8546 207.4 17.5862 206.2 16.9626 205.217H16.9506Z" fill="#A3DAF7"/>
</g>
<g style="mix-blend-mode:screen">
<path d="M22.3363 203.431C22.3363 203.431 22.3363 203.431 22.3363 203.419C22.3003 203.335 22.2883 203.275 22.2404 203.215C22.1324 203.071 22.0845 203.059 21.9526 202.987C21.8446 202.927 21.7247 202.891 21.5928 202.891C21.5448 202.891 21.4969 202.891 21.4489 202.903C21.4249 202.903 21.3529 202.903 21.305 202.915C21.305 202.915 21.293 202.915 21.281 202.915C21.1731 202.939 21.0651 202.987 20.9572 203.011C20.8013 203.071 20.6694 203.155 20.5615 203.275C20.4415 203.371 20.3336 203.479 20.2616 203.611C20.2257 203.695 20.1777 203.779 20.1417 203.862C20.0938 203.982 20.0818 204.102 20.1057 204.234C20.1057 204.318 20.1177 204.39 20.1657 204.462C20.2017 204.582 20.2736 204.666 20.3816 204.738C20.4535 204.774 20.5255 204.81 20.5974 204.834C20.6934 204.858 20.7773 204.87 20.8733 204.87C20.8733 204.87 20.8972 204.87 20.9092 204.87C21.0172 204.87 21.1251 204.87 21.221 204.834H21.245C21.341 204.822 21.4369 204.786 21.5208 204.738L21.7967 204.582L22.0365 204.378C22.1085 204.306 22.1684 204.234 22.2164 204.15C22.2164 204.15 22.3363 203.91 22.3363 203.898L22.3843 203.659L22.3603 203.419L22.3363 203.431Z" fill="#A3DAF7"/>
<path d="M22.3261 203.406C22.3261 203.406 22.2542 203.238 22.2422 203.214C22.2662 203.274 22.3021 203.346 22.3261 203.406Z" fill="#A3DAF7"/>
</g>
<g style="mix-blend-mode:screen">
<path d="M27.2905 290.423C26.8828 289.967 26.1632 290.027 25.6955 290.399C24.8441 291.082 24.2564 292.018 23.8367 293.013C23.6328 293.337 23.453 293.685 23.2971 294.008C22.8174 295.028 22.3736 296.323 22.6615 297.45C22.7454 297.786 23.0692 297.954 23.393 297.954C24.7601 297.954 25.8035 296.755 26.475 295.675C27.1226 294.62 27.6503 293.361 27.7222 292.114C27.7582 291.55 27.6862 290.867 27.2905 290.435V290.423Z" fill="#A3DAF7"/>
</g>
<g style="mix-blend-mode:screen">
<path d="M28.1288 287.544C27.6012 287.544 27.1095 288.48 27.817 288.48C28.3447 288.48 28.8364 287.544 28.1288 287.544Z" fill="#A3DAF7"/>
</g>
<g style="mix-blend-mode:screen">
<path d="M68.2039 251.928C67.7122 251.148 66.6209 251.46 66.0213 251.904C65.5056 252.287 65.0859 252.815 64.7621 253.355C64.3783 253.99 64.0905 254.674 63.9586 255.405C63.9346 255.537 63.9226 255.681 63.9226 255.813C63.8147 256.161 63.7307 256.521 63.7188 256.868C63.7188 257.264 63.7907 257.672 64.0545 257.972C64.5102 258.475 65.1818 258.523 65.7814 258.26C66.7528 257.84 67.2445 256.82 67.6043 255.885C67.8201 255.321 68 254.734 68.1439 254.146C68.3118 253.487 68.5876 252.527 68.1919 251.892L68.2039 251.928Z" fill="#A3DAF7"/>
</g>
<g style="mix-blend-mode:screen">
<path d="M187.148 230.378C186.788 229.766 186.404 229.154 185.937 228.615C185.457 228.051 184.917 227.523 184.378 227.032C183.802 226.504 183.083 225.845 182.267 225.821C181.56 225.797 180.84 226.336 180.648 227.008C180.504 227.5 180.576 228.063 180.732 228.543C181.068 229.598 181.763 230.582 182.495 231.385C183.107 232.057 183.85 232.74 184.714 233.124C185.061 233.376 185.433 233.604 185.829 233.784C186.261 233.975 186.728 234.035 187.172 233.843C187.664 233.64 188.059 233.136 188.035 232.596C188.011 231.805 187.544 231.025 187.148 230.366V230.378Z" fill="#A3DAF7"/>
</g>
<g style="mix-blend-mode:screen">
<path d="M186.761 185.143C186.473 184.579 185.946 184.136 185.454 183.776C184.831 183.32 184.135 182.96 183.415 182.648C181.94 182.001 180.01 181.437 178.666 182.636C178.451 182.828 178.235 183.272 178.355 183.56C178.69 184.399 179.386 185.095 180.058 185.707C180.321 186.006 180.609 186.282 180.921 186.51C181.065 186.618 181.221 186.714 181.377 186.822C182 187.302 182.684 187.721 183.415 187.985C183.967 188.189 184.567 188.237 185.13 188.057C185.25 188.021 185.358 187.961 185.466 187.901C186.593 187.505 187.385 186.354 186.761 185.143Z" fill="#A3DAF7"/>
</g>
</g>
</g>
</svg>
