<svg width="364" height="154" viewBox="0 0 364 154" fill="none" xmlns="http://www.w3.org/2000/svg">
<g opacity="0.09">
<path d="M32.6915 22.3892C31.9541 22.3909 31.2474 22.6846 30.726 23.206C30.2046 23.7274 29.9109 24.4341 29.9092 25.1715V128.907C29.9109 129.644 30.2046 130.351 30.726 130.872C31.2474 131.393 31.9541 131.687 32.6915 131.689H47.2939C48.0307 131.687 48.7367 131.393 49.2571 130.872C49.7775 130.35 50.0698 129.643 50.0698 128.907V25.1715C50.0698 24.4347 49.7775 23.728 49.2571 23.2064C48.7367 22.6848 48.0307 22.3909 47.2939 22.3892H32.6915Z" fill="white"/>
<path d="M151.967 88.0202C151.967 95.5135 154.943 102.7 160.242 107.998C165.541 113.297 172.727 116.274 180.22 116.274C187.714 116.274 194.9 113.297 200.198 107.998C205.497 102.7 208.474 95.5135 208.474 88.0202C208.474 77.3339 192.705 55.5313 180.22 41.0723C167.736 55.5378 151.967 77.3339 151.967 88.0202Z" fill="white"/>
<path d="M0 45.937H16.883V108.139H0V45.937Z" fill="white"/>
<path d="M346.255 45.937H363.144V108.139H346.255V45.937Z" fill="white"/>
<path d="M330.447 131.689C331.184 131.687 331.89 131.393 332.41 130.872C332.931 130.35 333.223 129.643 333.223 128.907V25.1715C333.223 24.4347 332.931 23.728 332.41 23.2064C331.89 22.6848 331.184 22.3909 330.447 22.3892H315.845C315.107 22.3909 314.401 22.6846 313.879 23.206C313.358 23.7274 313.064 24.4341 313.062 25.1715V128.907C313.064 129.644 313.358 130.351 313.879 130.872C314.401 131.393 315.107 131.687 315.845 131.689H330.447Z" fill="white"/>
<path d="M92.4109 64.6966C92.7237 62.3856 93.1255 60.0942 93.6164 57.8222C93.8184 56.9035 94.0008 55.9847 94.268 55.0725C94.978 52.1917 95.8349 49.3492 96.8353 46.556C96.8939 46.3866 96.933 46.2107 96.9982 46.0478L97.0308 45.937H63.1475V108.139H97.0308V108.048C96.9461 107.82 96.8939 107.585 96.8092 107.357C95.8253 104.62 95.0043 101.831 94.294 99.0165C94.066 98.0913 93.877 97.1595 93.6424 96.2342C93.1472 93.9753 92.7454 91.6925 92.437 89.3859C92.3067 88.4606 92.1633 87.5353 92.0721 86.597C91.3423 80.243 91.3423 73.8264 92.0721 67.4725C92.1372 66.5407 92.2806 65.6219 92.4109 64.6966Z" fill="white"/>
<path d="M181.478 0.000313839C167.307 -0.0402675 153.402 3.85547 141.315 11.2533C129.228 18.6511 119.432 29.2603 113.021 41.8983C112.962 42.0417 112.943 42.1981 112.871 42.3349C107.443 53.0982 104.615 64.9847 104.615 77.0393C104.615 89.0938 107.443 100.98 112.871 111.744C112.943 111.887 112.969 112.043 113.027 112.193C119.279 124.359 128.658 134.639 140.2 141.978C151.742 149.317 165.03 153.448 178.698 153.948C192.367 154.449 205.922 151.299 217.969 144.823C230.017 138.348 240.122 128.78 247.246 117.104C254.369 105.428 258.254 92.0655 258.501 78.3902C258.748 64.7149 255.348 51.2207 248.65 39.2952C241.953 27.3697 232.2 17.4434 220.394 10.5371C208.588 3.6309 195.156 -0.00605562 181.478 0.000313839ZM180.22 129.304C169.275 129.292 158.78 124.939 151.041 117.199C143.301 109.459 138.947 98.9647 138.935 88.0188C138.935 66.8678 171.704 30.8928 175.425 26.8594C176.05 26.2275 176.794 25.726 177.615 25.3837C178.435 25.0414 179.315 24.8651 180.204 24.8651C181.093 24.8651 181.973 25.0414 182.794 25.3837C183.614 25.726 184.358 26.2275 184.984 26.8594C188.717 30.8928 221.473 66.8678 221.473 88.0188C221.461 98.959 217.112 109.448 209.379 117.187C201.646 124.926 191.161 129.284 180.22 129.304Z" fill="white"/>
<path d="M300.03 108.139V45.937H266.146C273.489 66.0209 273.489 88.0551 266.146 108.139H300.03Z" fill="white"/>
</g>
</svg>
