<svg width="424" height="397" viewBox="0 0 424 397" fill="none" xmlns="http://www.w3.org/2000/svg">
<g opacity="0.3">
<path d="M188.388 477C185.634 477 182.869 476.968 180.087 476.896C139.775 475.904 98.8134 467.823 64.754 454.134C27.4875 439.158 0.29554 418.402 -13.8818 394.106C-17.247 388.339 -17.5245 381.121 -14.7284 372.045C-12.2589 364.029 -7.43245 354.73 0.0355988 343.617C13.8652 323.033 34.7729 299.337 54.9957 276.421C71.4282 257.798 88.4157 238.543 101.044 221.527C121.017 194.608 127.154 177.168 120.35 166.636C114.16 157.05 97.3169 153.159 68.8569 154.736C37.2248 156.49 -7.67483 164.93 -68.4098 180.531C-77.7536 182.931 -84.4103 181.062 -87.6595 175.123C-92.7811 165.767 -89.4089 147.162 -78.4105 124.084C-67.0434 100.238 -48.8369 74.8604 -28.4596 54.4557C-3.68438 29.6532 23.62 12.4715 50.4923 4.77524C82.9921 -4.52704 114.466 -0.22622 144.043 17.5699C174.99 36.1889 194.721 58.02 213.802 79.1324C245.178 113.848 272.272 143.828 339.459 144.529C392.765 145.086 424.33 146.275 445.013 148.51C466.455 150.824 477.829 154.402 483.049 160.471C488.142 166.396 487.226 174.304 485.958 185.252C483.822 203.666 480.597 231.49 505.861 271.818C514.541 285.669 517.119 294.849 513.979 300.713C509.208 309.616 491.592 309.591 469.29 309.555C445.596 309.523 416.111 309.476 391.335 320.23C362.296 332.838 345.705 357.504 340.612 395.633C338.746 409.585 332.947 422.171 323.368 433.036C314.421 443.186 302.211 451.824 287.074 458.708C260.978 470.579 226.188 476.996 188.384 476.996L188.388 477ZM80.3575 153.684C102.175 153.684 115.495 157.823 120.933 166.245C127.923 177.067 121.78 194.773 101.599 221.965C88.9531 239.007 71.9551 258.272 55.512 276.906C14.9787 322.842 -26.9351 370.342 -13.2811 393.743C0.815422 417.902 27.8845 438.555 65.0069 453.473C98.996 467.13 139.87 475.196 180.101 476.184C220.996 477.19 258.885 470.752 286.79 458.058C317.979 443.869 336.347 422.253 339.916 395.539C342.635 375.181 348.821 358.291 358.302 345.342C366.529 334.106 377.548 325.436 391.061 319.569C415.967 308.754 445.533 308.804 469.29 308.837C491.36 308.873 508.794 308.898 513.36 300.368C516.322 294.838 513.673 285.626 505.267 272.206C479.867 231.663 483.109 203.684 485.259 185.166C486.506 174.404 487.408 166.629 482.519 160.945C477.429 155.024 466.188 151.517 444.936 149.225C424.278 146.993 392.73 145.804 339.449 145.251C271.959 144.547 244.767 114.459 213.282 79.6247C194.236 58.5517 174.541 36.7602 143.685 18.1951C67.6204 -27.569 -1.69969 28.6759 -27.9713 54.9803C-48.2924 75.3274 -66.4497 100.633 -77.7817 124.408C-88.5166 146.932 -91.9837 165.763 -87.0483 174.778C-83.9255 180.484 -77.7115 182.187 -68.5819 179.841C-7.80479 164.226 37.137 155.782 68.8182 154.025C72.9 153.799 76.7464 153.684 80.3575 153.684Z" fill="#41444A"/>
<path d="M190.309 472.304C187.26 472.304 184.197 472.261 181.106 472.175C141.76 471.165 101.785 463.236 68.5406 449.844C32.1628 435.192 5.61015 414.902 -8.25105 391.167C-11.546 385.53 -11.8305 378.477 -9.11869 369.609C-6.72653 361.78 -2.03002 352.697 5.23077 341.846C18.6845 321.747 39.0407 298.611 58.7225 276.241C74.7195 258.061 91.2609 239.258 103.548 222.644C122.963 196.365 128.903 179.331 122.24 169.033C116.173 159.659 99.7195 155.84 71.9339 157.356C41.05 159.045 -2.7712 167.258 -62.0343 182.46C-71.2271 184.792 -77.7749 182.931 -80.9714 177.078C-85.9735 167.927 -82.7383 149.821 -72.0983 127.401C-61.1105 104.244 -43.4485 79.5603 -23.6403 59.673C0.618576 35.3232 27.4066 18.4325 53.8293 10.8369C85.7951 1.64961 116.795 5.82109 145.972 23.2328C176.42 41.4242 195.88 62.7666 214.698 83.4048C245.589 117.283 272.268 146.541 337.9 147.296C389.916 147.863 420.744 149.045 440.97 151.248C461.916 153.529 473.031 157.036 478.138 162.983C483.13 168.792 482.23 176.539 480.987 187.261C478.9 205.226 475.749 232.371 500.272 271.646C508.622 285.102 511.077 294.037 508 299.768C503.293 308.532 486.003 308.535 464.115 308.539C440.917 308.546 412.05 308.55 387.801 319.12C359.383 331.505 343.134 355.668 338.125 392.989C336.277 406.682 330.59 419.013 321.214 429.641C312.461 439.568 300.514 447.998 285.715 454.699C260.462 466.131 226.862 472.297 190.316 472.297L190.309 472.304ZM83.0235 156.336C104.412 156.336 117.473 160.392 122.816 168.649C129.662 179.23 123.715 196.523 104.1 223.076C91.7948 239.715 75.2428 258.524 59.2354 276.719C19.777 321.563 -21.0233 367.935 -7.66091 390.808C6.12302 414.407 32.5598 434.596 68.7935 449.19C101.964 462.549 141.858 470.465 181.123 471.471C221.116 472.588 258.157 466.405 285.427 454.059C315.917 440.255 333.902 419.106 337.436 392.899C340.109 372.972 346.176 356.437 355.46 343.75C363.514 332.745 374.306 324.24 387.527 318.477C411.906 307.853 440.851 307.845 464.112 307.842C485.775 307.838 502.882 307.831 507.396 299.438C510.301 294.03 507.778 285.066 499.692 272.034C475.036 232.547 478.205 205.247 480.302 187.185C481.524 176.647 482.41 169.03 477.622 163.457C472.641 157.658 461.656 154.219 440.9 151.959C420.695 149.76 389.888 148.578 337.893 148.011C271.962 147.249 245.192 117.89 214.192 83.8934C195.406 63.2912 175.981 41.9883 145.62 23.8472C70.5674 -20.9504 2.58218 34.3388 -23.1626 60.1868C-42.9146 80.0202 -60.5274 104.632 -71.4836 127.721C-81.8672 149.602 -85.1937 167.93 -80.3743 176.747C-77.3006 182.374 -71.1885 184.07 -62.203 181.788C-2.89415 166.572 40.9692 158.355 71.8952 156.663C75.826 156.447 79.5319 156.339 83.02 156.339L83.0235 156.336Z" fill="#41444A"/>
<path d="M191.598 467.59C188.461 467.59 185.311 467.543 182.132 467.45C143.688 466.329 104.697 458.529 72.3379 445.486C36.8348 431.175 10.9179 411.374 -2.6131 388.228C-5.83778 382.72 -6.12933 375.832 -3.50182 367.176C-1.18342 359.53 3.3761 350.667 10.4367 340.078C23.5145 320.464 43.3158 297.893 62.4636 276.065C78.0285 258.323 94.1203 239.981 106.067 223.765C124.892 198.169 130.656 181.598 124.203 171.62C118.305 162.497 102.256 158.764 75.1445 160.209C45.0475 161.811 2.26608 169.723 -55.6482 184.397C-64.6724 186.686 -71.1077 184.857 -74.2551 179.111C-79.1342 170.201 -76.0466 152.617 -65.7859 130.868C-55.188 108.412 -38.0916 84.4178 -18.8805 65.0408C4.86549 41.0898 31.1442 24.4542 57.1172 16.9341C88.5631 7.8294 119.106 11.8536 147.904 28.8988C177.853 46.6626 197.043 67.5164 215.604 87.6803C246.01 120.722 272.271 149.254 336.351 150.069C387.162 150.651 417.27 151.823 437.029 153.986C457.494 156.228 468.359 159.663 473.354 165.48C478.243 171.171 477.362 178.759 476.143 189.265C474.112 206.778 471.042 233.24 494.694 271.488C502.755 284.523 505.109 293.196 502.109 298.787C497.493 307.385 480.544 307.425 459.085 307.475C436.365 307.529 408.087 307.594 384.331 317.985C356.493 330.161 340.562 353.832 335.634 390.355C333.807 403.782 328.229 415.854 319.057 426.231C310.497 435.918 298.817 444.128 284.348 450.635C259.84 461.654 227.189 467.594 191.602 467.594L191.598 467.59ZM85.7494 159.221C106.745 159.221 119.549 163.18 124.762 171.243C131.394 181.497 125.622 198.32 106.601 224.186C94.6366 240.422 78.5343 258.779 62.9624 276.529C24.5789 320.281 -15.1114 365.524 -2.0335 387.872C11.4202 410.889 37.2247 430.586 72.5873 444.843C104.873 457.857 143.783 465.643 182.149 466.76C221.298 467.903 257.497 461.949 284.074 449.999C313.869 436.604 331.464 415.944 334.963 390.258C337.594 370.759 343.545 354.569 352.643 342.137C360.539 331.351 371.109 323.011 384.064 317.345C407.943 306.9 436.298 306.836 459.082 306.782C480.316 306.731 497.089 306.692 501.512 298.453C504.343 293.179 501.926 284.48 494.117 271.854C470.336 233.398 473.424 206.788 475.468 189.179C476.666 178.853 477.53 171.394 472.841 165.932C467.969 160.259 457.237 156.892 436.951 154.672C417.217 152.512 387.127 151.341 336.337 150.759C271.969 149.943 245.617 121.307 215.105 88.1546C196.579 68.0266 177.417 47.2051 147.559 29.4952C73.4795 -14.3538 6.81154 40.091 -18.4133 65.533C-60.9559 108.448 -83.0509 161.646 -73.6684 178.774C-70.644 184.296 -64.6372 185.963 -55.8168 183.728C2.13962 169.044 44.9632 161.125 75.1024 159.519C78.861 159.318 82.4088 159.217 85.7494 159.217V159.221Z" fill="#41444A"/>
<path d="M193.425 462.894C190.028 462.894 186.603 462.84 183.15 462.729C145.641 461.543 107.634 453.883 76.128 441.16C41.5066 427.18 16.2255 407.86 3.01768 385.285C-0.13324 379.903 -0.431816 373.184 2.10788 364.737C4.349 357.278 8.77502 348.63 15.6319 338.303C28.3339 319.174 47.5801 297.167 66.1905 275.886C81.3198 258.585 96.9654 240.696 108.571 224.883C126.824 199.944 132.398 183.811 126.121 174.11C120.367 165.218 104.718 161.563 78.2778 162.94C48.95 164.467 7.22591 172.116 -49.2797 186.33C-58.1459 188.561 -64.4688 186.754 -67.5635 181.102C-72.3232 172.414 -69.376 155.337 -59.4807 134.249C-49.1146 112.167 -32.9948 89.4627 -14.0928 70.3228C9.13333 46.8066 34.8991 30.4476 60.4226 23.0137C91.3381 14.0096 121.417 17.8937 149.825 34.5652C179.276 51.8979 198.199 72.263 216.5 91.9598C246.421 124.164 272.264 151.974 334.787 152.843C384.352 153.44 413.732 154.6 433.028 156.727C453.008 158.93 463.613 162.296 468.496 167.984C473.28 173.561 472.419 180.991 471.225 191.27C469.244 208.33 466.254 234.113 489.098 271.323C496.85 283.948 499.095 292.37 496.162 297.825C491.62 306.268 475.008 306.34 453.974 306.433C431.738 306.53 404.065 306.653 380.822 316.857C353.584 328.814 337.984 351.993 333.14 387.711C331.331 400.875 325.865 412.689 316.897 422.821C308.526 432.278 297.117 440.273 282.982 446.589C269.665 452.539 254.082 456.941 236.666 459.671C223.027 461.809 208.519 462.887 193.428 462.887L193.425 462.894ZM88.4436 161.984C109.028 161.984 121.576 165.854 126.676 173.737C133.129 183.711 127.544 200.091 109.102 225.289C97.4783 241.123 81.8256 259.024 66.6858 276.335C29.3771 318.994 -9.19958 363.109 3.58673 384.933C33.0058 435.207 114.982 459.887 183.171 462.046C221.449 463.257 256.801 457.548 282.715 445.968C311.811 432.968 329.023 412.79 332.483 387.614C335.072 368.542 340.899 352.7 349.808 340.531C357.539 329.971 367.884 321.793 380.558 316.228C403.928 305.97 431.675 305.848 453.97 305.747C474.787 305.657 491.23 305.582 495.582 297.49C498.35 292.345 496.046 283.902 488.539 271.675C465.569 234.264 468.58 208.337 470.568 191.184C471.741 181.077 472.588 173.773 467.997 168.423C459.039 157.988 429.16 154.643 334.777 153.512C271.973 152.638 246.042 124.732 216.015 92.4161C197.749 72.7552 178.858 52.426 149.491 35.1437C76.4019 -7.74239 11.0688 45.7898 -13.6291 70.7971C-32.4784 89.8831 -48.5526 112.519 -58.8835 134.537C-68.5435 155.114 -71.5715 172.396 -66.9874 180.764C-64.0121 186.197 -58.1072 187.843 -49.4413 185.665C7.10648 171.444 48.8692 163.788 78.2391 162.257C81.8326 162.07 85.233 161.977 88.4366 161.977L88.4436 161.984Z" fill="#41444A"/>
<path d="M195.062 458.194C191.465 458.194 187.836 458.133 184.173 458.007C147.598 456.757 110.574 449.237 79.9256 436.837C46.1859 423.187 21.5406 404.346 8.65594 382.349C5.57529 377.096 5.26969 370.539 7.72157 362.304C9.88892 355.032 14.1779 346.603 20.831 336.535C33.1572 317.887 51.8484 296.444 69.9249 275.709C84.6221 258.847 99.8181 241.414 111.083 226.003C128.759 201.726 134.151 186.028 128.05 176.603C122.44 167.941 107.188 164.369 81.422 165.677C52.8636 167.128 12.2003 174.516 -42.8968 188.266C-51.6048 190.44 -57.8153 188.654 -60.8573 183.099C-65.4941 174.634 -62.6874 158.063 -53.1574 137.637C-43.1778 116.252 -27.5953 94.2229 -9.28352 75.6039C13.4192 52.5225 38.6722 36.4402 63.746 29.0961C94.131 20.1926 123.743 23.9401 151.761 40.2308C180.713 57.1359 199.369 77.0124 217.41 96.235C246.847 127.602 272.268 154.69 333.239 155.613C381.556 156.22 410.209 157.373 429.041 159.465C448.533 161.631 458.885 164.93 463.655 170.488C468.338 175.946 467.495 183.218 466.325 193.278C464.397 209.889 461.485 234.99 483.52 271.157C490.967 283.377 493.099 291.543 490.233 296.865C485.768 305.154 469.49 305.261 448.877 305.394C427.127 305.538 400.058 305.714 377.323 315.735C350.683 327.477 335.416 350.16 330.653 385.073C328.862 397.979 323.508 409.534 314.744 419.422C306.566 428.645 295.421 436.431 281.623 442.557C268.629 448.324 253.419 452.571 236.414 455.183C223.368 457.184 209.503 458.194 195.069 458.194H195.062ZM91.1347 164.75C111.312 164.75 123.603 168.533 128.591 176.237C132.002 181.504 131.981 188.489 128.531 197.594C125.573 205.398 120.037 214.818 111.603 226.402C100.32 241.834 85.1139 259.282 70.4096 276.151C34.1759 317.718 -3.29082 360.702 9.21096 382.004C37.8502 430.887 117.729 455.065 184.194 457.339C221.601 458.622 256.106 453.153 281.356 441.943C309.756 429.339 326.578 409.638 330.003 384.979C332.547 366.339 338.258 350.846 346.977 338.935C354.649 328.454 364.491 320.665 377.06 315.124C399.917 305.049 427.06 304.873 448.867 304.73C469.265 304.597 485.375 304.493 489.657 296.545C492.358 291.529 490.169 283.341 482.961 271.512C460.803 235.148 463.733 209.907 465.672 193.206C466.82 183.315 467.649 176.168 463.16 170.93C454.406 160.722 425.261 157.438 333.224 156.278C271.984 155.351 246.474 128.17 216.936 96.6949C198.926 77.5082 180.302 57.6641 151.434 40.8057C79.3354 -1.11747 15.3407 51.5057 -8.82687 76.0746C-27.086 94.6397 -42.6228 116.604 -52.5708 137.921C-62.013 158.15 -64.8267 174.498 -60.2918 182.772C-57.3657 188.112 -51.5662 189.743 -43.0513 187.619C12.0844 173.858 52.7898 166.464 81.3869 165.012C84.8188 164.84 88.0681 164.75 91.1347 164.75Z" fill="#41444A"/>
<path d="M196.909 453.501C193.056 453.501 189.15 453.43 185.194 453.282C149.554 451.967 113.517 444.587 83.7187 432.511C50.8642 419.195 26.8548 400.832 14.2897 379.407C11.2793 374.283 10.9667 367.891 13.3343 359.868C15.4279 352.779 19.5799 344.569 26.0328 334.763C37.983 316.601 56.1192 295.722 73.6583 275.529C87.9199 259.109 102.67 242.129 113.594 227.121C130.698 203.504 135.904 188.241 129.974 179.089C124.512 170.657 109.657 167.161 84.5618 168.404C56.7726 169.78 17.1667 176.905 -36.5183 190.195C-45.0682 192.312 -51.1698 190.548 -54.1592 185.09C-58.6765 176.847 -56.0069 160.783 -46.8386 141.014C-37.2419 120.326 -22.1969 98.9691 -4.47171 80.8783C17.7076 58.2352 42.4442 42.4332 67.0649 35.1753C96.916 26.376 126.061 29.9834 153.692 45.8968C182.149 62.3743 200.538 81.7622 218.319 100.514C247.271 131.04 272.271 157.406 331.685 158.387C378.756 159.008 406.678 160.151 425.05 162.21C444.054 164.337 454.149 167.567 458.807 172.999C463.384 178.342 462.559 185.453 461.417 195.294C459.541 211.452 456.703 235.873 477.934 270.995C485.075 282.809 487.095 290.724 484.303 295.905C479.915 304.04 463.967 304.18 443.78 304.356C422.514 304.543 396.049 304.773 373.82 314.61C347.781 326.137 332.845 348.32 328.162 382.435C326.388 395.079 321.147 406.376 312.583 416.019C304.599 425.013 293.72 432.583 280.252 438.519C257.887 448.378 229.261 453.501 196.909 453.501ZM93.8248 167.509C113.591 167.509 125.629 171.203 130.505 178.73C133.824 183.85 133.817 190.641 130.484 199.491C127.631 207.068 122.274 216.23 114.107 227.509C103.165 242.542 88.4082 259.53 74.136 275.96C38.9772 316.436 2.624 358.29 14.8342 379.069C42.6901 426.565 120.479 450.235 185.219 452.628C222.282 454.001 255.059 448.91 279.999 437.919C307.7 425.71 324.136 406.491 327.526 382.342C330.027 364.129 335.62 348.985 344.145 337.332C351.652 327.078 361.273 319.45 373.56 314.01C395.905 304.122 422.444 303.889 443.766 303.702C463.746 303.526 479.525 303.389 483.734 295.589C486.372 290.702 484.292 282.769 477.382 271.336C456.036 236.017 458.888 211.462 460.774 195.215C461.898 185.539 462.71 178.547 458.319 173.423C449.765 163.442 421.355 160.215 331.664 159.033C271.987 158.049 246.899 131.594 217.852 100.963C200.099 82.2437 181.745 62.8881 153.369 46.4609C82.2609 5.5043 19.608 57.204 -4.0291 81.3346C-21.7016 99.3751 -36.7009 120.671 -46.2696 141.291C-55.35 160.866 -58.0267 176.711 -53.6112 184.77C-50.7343 190.019 -45.0366 191.633 -36.6728 189.563C17.0508 176.265 56.6953 169.133 84.5266 167.754C87.797 167.592 90.8952 167.509 93.8213 167.509H93.8248Z" fill="#41444A"/>
<path d="M198.55 448.81C194.5 448.81 190.387 448.727 186.217 448.562C151.511 447.179 116.458 439.946 87.5131 428.19C55.5403 415.205 32.1666 397.319 19.9248 376.472C16.9846 371.478 16.665 365.251 18.9482 357.436C20.9645 350.534 24.9831 342.54 31.2322 332.997C42.8066 315.319 60.3878 295.004 77.3929 275.354C91.2225 259.373 105.523 242.848 116.107 228.243C123.975 217.316 129.125 208.46 131.854 201.166C134.991 192.78 135.009 186.374 131.9 181.58C126.582 173.378 112.123 169.961 87.7028 171.136C60.6829 172.436 22.1378 179.302 -30.1385 192.13C-38.5304 194.188 -44.5231 192.442 -47.4598 187.081C-51.8577 179.062 -49.325 163.5 -40.5151 144.389C-31.2977 124.398 -16.7867 103.713 0.34486 86.1431C21.9973 63.9419 46.2175 48.4202 70.3815 41.2521C99.6987 32.5607 128.377 36.0279 155.618 51.5605C183.579 67.6068 201.701 86.5096 219.226 104.791C247.69 134.48 272.272 160.119 330.126 161.154C375.953 161.787 403.145 162.922 421.057 164.945C439.572 167.036 449.415 170.194 453.96 175.501C458.435 180.725 457.628 187.678 456.511 197.303C454.684 213.012 451.926 236.747 472.349 270.831C479.185 282.238 481.096 289.899 478.37 294.943C474.057 302.923 458.446 303.096 438.683 303.315C417.902 303.545 392.038 303.832 370.322 313.483C344.88 324.79 330.274 346.481 325.672 379.792C323.916 392.174 318.787 403.215 310.427 412.611C302.632 421.374 292.024 428.729 278.89 434.474C257.336 443.906 229.754 448.803 198.55 448.803V448.81ZM96.5126 170.273C115.871 170.273 127.653 173.881 132.42 181.225C135.648 186.201 135.651 192.798 132.437 201.389C129.687 208.736 124.509 217.643 116.609 228.616C106.008 243.247 91.7002 259.782 77.8601 275.771C43.7762 315.154 8.53301 355.881 20.4587 376.134C32.6303 396.862 55.8986 414.655 87.7449 427.59C116.627 439.321 151.606 446.539 186.245 447.919C248.318 450.387 317.382 433.766 325.054 379.702C327.509 361.917 332.986 347.124 341.321 335.731C348.659 325.703 358.063 318.237 370.069 312.901C391.905 303.196 417.835 302.909 438.673 302.679C458.235 302.463 473.684 302.291 477.822 294.634C480.393 289.877 478.43 282.199 471.815 271.161C451.28 236.891 454.055 213.019 455.889 197.228C456.988 187.768 457.782 180.934 453.49 175.921C445.136 166.17 417.463 162.997 330.116 161.79C272.005 160.752 247.338 135.022 218.78 105.233C201.287 86.9839 183.196 68.117 155.312 52.1138C85.1912 12.1273 23.8871 62.9 0.787457 86.5886C-16.2984 104.108 -30.7673 124.728 -39.9531 144.655C-48.6752 163.576 -51.2149 178.925 -46.9188 186.765C-44.0911 191.925 -38.4953 193.52 -30.2861 191.504C22.0254 178.667 60.6091 171.797 87.6711 170.496C90.7764 170.345 93.7236 170.273 96.5126 170.273Z" fill="#41444A"/>
<path d="M200.208 444.116C195.951 444.116 191.63 444.023 187.239 443.836C153.468 442.392 119.398 435.296 91.307 423.863C60.2158 411.208 37.478 393.8 25.5593 373.528C20.2235 364.481 23.7819 350.644 36.4347 331.224C47.6333 314.032 64.6629 294.277 81.1271 275.177C94.5246 259.637 108.375 243.566 118.618 229.363C134.794 206.759 139.484 192.789 133.825 184.069C128.651 176.096 114.589 172.758 90.8398 173.869C64.5892 175.094 27.1014 181.698 -23.7593 194.065C-31.9966 196.066 -37.8734 194.342 -40.7644 189.074C-45.0394 181.277 -42.6437 166.219 -34.1921 147.762C-25.3541 128.464 -11.377 108.447 5.17148 91.4057C26.297 69.6465 49.9938 54.4086 73.7047 47.3376C102.488 38.7503 130.695 42.081 157.546 57.2363C185.009 72.8515 202.864 91.2943 220.129 109.13C248.104 138.029 272.265 162.982 328.57 163.938C373.217 164.696 399.699 165.878 417.119 167.894C435.146 169.981 444.722 173.078 449.137 178.256C453.483 183.343 452.692 190.098 451.603 199.447C449.829 214.653 447.146 237.637 466.764 270.679C473.302 281.691 475.111 289.107 472.451 294.015C468.219 301.83 452.97 302.038 433.664 302.304C413.388 302.581 388.153 302.929 366.936 312.397C342.084 323.489 327.769 344.676 323.178 377.172C321.464 389.291 316.465 400.077 308.316 409.232C300.721 417.765 290.373 424.908 277.566 430.463C256.816 439.464 230.27 444.131 200.208 444.131V444.116ZM99.0349 173.01C118.123 173.01 129.705 176.589 134.331 183.714C137.468 188.543 137.485 194.945 134.387 203.285C131.742 210.406 126.743 219.054 119.107 229.726C108.846 243.954 94.9848 260.033 81.5802 275.583C48.5712 313.874 14.4416 353.469 26.0757 373.201C37.9276 393.358 60.5601 410.673 91.5283 423.281C119.56 434.688 153.556 441.767 187.26 443.211C247.788 445.805 315.12 429.788 322.571 377.067C325.022 359.717 330.407 345.276 338.574 334.149C345.762 324.354 354.958 317.046 366.687 311.811C388.016 302.293 413.318 301.945 433.65 301.668C452.759 301.406 467.85 301.201 471.91 293.703C474.415 289.075 472.56 281.648 466.234 270.995C446.506 237.767 449.204 214.656 450.989 199.365C452.06 190.177 452.836 183.538 448.67 178.658C440.563 169.158 413.62 165.996 328.553 164.556C271.998 163.596 247.757 138.557 219.686 109.565C202.449 91.7614 184.626 73.3509 157.241 57.7788C88.1069 18.7624 28.1587 68.6045 5.59301 91.8441C-10.9062 108.835 -24.8412 128.791 -33.6511 148.024C-42.0184 166.298 -44.4211 181.148 -40.241 188.769C-37.4624 193.839 -31.9685 195.416 -23.9104 193.458C32.2511 179.804 72.7527 173.021 99.0279 173.021L99.0349 173.01Z" fill="#41444A"/>
<path d="M201.856 439.432C197.402 439.432 192.867 439.328 188.258 439.116C155.421 437.607 122.339 430.654 95.0973 419.541C64.8879 407.217 42.7894 390.29 31.1904 370.59C26.0021 361.812 29.3919 348.414 41.5494 329.633C52.3124 313.005 68.7203 293.886 84.5873 275.397C97.6581 260.166 111.175 244.414 121.127 230.481C136.758 208.592 141.283 195.057 135.796 186.596C130.769 178.842 117.101 175.572 94.0154 176.604C68.5095 177.743 32.0721 184.084 -17.3836 195.995C-25.4628 197.939 -31.2342 196.236 -34.069 191.062C-38.2245 183.488 -35.9623 168.929 -27.869 151.122C-19.4069 132.514 -5.96018 113.169 10.0016 96.6522C24.3616 81.7915 47.6475 62.2276 77.0244 53.4104C105.27 44.9345 133.01 48.1251 159.471 62.8959C186.439 78.0835 204.027 96.0414 221.039 113.41C248.526 141.475 272.262 165.713 327.011 166.701C370.425 167.485 396.18 168.67 413.132 170.654C430.671 172.709 439.99 175.738 444.294 180.786C448.53 185.755 447.761 192.348 446.693 201.467C444.968 216.217 442.362 238.504 461.172 270.503C467.407 281.113 469.107 288.274 466.519 293.046C462.363 300.706 447.452 300.947 428.574 301.256C408.783 301.579 384.156 301.978 363.448 311.262C339.193 322.135 325.205 342.827 320.684 374.517C318.995 386.374 314.109 396.905 306.163 405.816C298.761 414.116 288.68 421.046 276.206 426.411C256.265 434.987 230.766 439.432 201.856 439.432ZM101.694 175.792C120.431 175.792 131.781 179.288 136.295 186.254C139.333 190.943 139.361 197.148 136.372 205.222C133.818 212.12 128.992 220.499 121.608 230.836C111.639 244.795 98.1148 260.554 85.0369 275.796C53.2573 312.829 20.3923 351.127 31.7032 370.27C43.2355 389.856 65.2322 406.696 95.3222 418.97C122.5 430.058 155.516 436.996 188.29 438.501C222.725 440.086 253.047 435.709 275.978 425.847C301.617 414.82 316.873 397.038 320.098 374.427C322.511 357.508 327.78 343.416 335.761 332.547C342.786 322.979 351.765 315.833 363.213 310.702C384.033 301.367 408.727 300.965 428.571 300.641C447.255 300.336 462.015 300.095 466.002 292.747C468.444 288.249 466.698 281.077 460.666 270.816C441.75 238.637 444.371 216.224 446.103 201.392C447.149 192.427 447.908 185.949 443.844 181.185C435.944 171.915 409.735 168.803 327.004 167.309C272.012 166.313 248.196 141.996 220.621 113.838C203.64 96.5013 186.084 78.5722 159.187 63.4241C91.0401 25.3814 32.4514 74.2821 10.4267 97.0761C-5.48597 113.543 -18.894 132.827 -27.3281 151.374C-35.3406 169.001 -37.6098 183.355 -33.5491 190.757C-30.8197 195.736 -25.4242 197.296 -17.5206 195.391C36.8634 182.295 76.1462 175.788 101.694 175.788V175.792Z" fill="#41444A"/>
<path d="M203.511 434.747C198.856 434.747 194.111 434.628 189.281 434.391C157.378 432.817 125.279 426.005 98.8912 415.215C69.5635 403.222 48.1008 386.773 36.825 367.647C31.7737 359.11 35.0159 346.104 46.7379 327.884C57.1215 311.747 72.9638 293.2 88.2863 275.264C100.936 260.457 114.017 245.144 123.635 231.595C138.69 210.382 143.036 197.271 137.724 189.082C132.842 181.555 119.571 178.364 97.156 179.327C72.4158 180.391 37.0357 186.474 -11.0043 197.925C-18.9255 199.811 -24.5809 198.126 -27.363 193.045C-31.4062 185.665 -29.2529 171.549 -21.4581 154.316C-13.3121 136.312 -0.322094 117.574 15.1233 101.56C29.111 87.0555 51.8208 67.9551 80.5654 59.3319C108.21 51.0392 135.41 54.1436 161.404 68.5623C187.974 83.3008 205.33 100.817 222.114 117.754C249.067 144.957 272.346 168.451 325.458 169.475C367.636 170.287 392.667 171.469 409.152 173.424C426.203 175.447 435.266 178.408 439.453 183.33C443.584 188.181 442.829 194.608 441.789 203.505C440.114 217.794 437.584 239.392 455.591 270.345C461.527 280.553 463.118 287.462 460.6 292.094C456.518 299.596 441.947 299.873 423.498 300.221C404.196 300.588 380.173 301.044 359.971 310.145C336.309 320.802 322.648 340.998 318.201 371.884C316.533 383.478 311.759 393.754 304.017 402.417C296.805 410.487 286.994 417.202 274.854 422.38C255.724 430.532 231.272 434.754 203.518 434.754L203.511 434.747ZM104.368 178.562C122.711 178.562 133.811 181.968 138.213 188.752C143.678 197.177 139.33 210.5 124.109 231.947C114.477 245.518 101.385 260.842 88.7289 275.659C58.0418 311.582 26.3079 348.727 37.3238 367.338C48.5329 386.353 69.8972 402.715 99.109 414.662C125.437 425.43 157.469 432.224 189.309 433.795C222.862 435.451 252.366 431.312 274.626 421.823C299.928 411.04 314.39 394.207 317.618 371.79C319.993 355.298 325.149 341.559 332.94 330.949C339.801 321.61 348.565 314.622 359.732 309.592C380.043 300.444 404.129 299.988 423.484 299.618C441.747 299.269 456.17 298.996 460.087 291.796C462.462 287.43 460.828 280.51 455.088 270.644C436.984 239.514 439.527 217.798 441.21 203.426C442.235 194.684 442.973 188.367 439.014 183.714C431.321 174.674 405.847 171.613 325.448 170.065C272.104 169.037 248.747 145.463 221.703 118.171C204.947 101.262 187.623 83.7751 161.126 69.0797C94.1701 31.9424 37.0076 79.7114 15.5379 101.974C0.138081 117.941 -12.8133 136.617 -20.9277 154.561C-28.6417 171.617 -30.802 185.536 -26.8537 192.747C-24.1735 197.641 -18.8868 199.182 -11.1378 197.339C41.4934 184.796 79.5537 178.562 104.368 178.562Z" fill="#41444A"/>
<path d="M205.172 430.069C200.318 430.069 195.361 429.936 190.303 429.67C159.335 428.032 128.219 421.363 102.689 410.893C74.2425 399.23 53.4156 383.259 42.4629 364.709C37.5451 356.416 40.6433 343.797 51.9332 326.134C61.9339 310.494 77.2143 292.518 91.9958 275.135C104.224 260.752 116.869 245.881 126.15 232.716C140.633 212.175 144.799 199.488 139.66 191.573C134.918 184.272 122.044 181.156 100.3 182.055C76.3256 183.043 42.0063 188.867 -4.62512 199.858C-12.3882 201.691 -17.9383 200.02 -20.6677 195.033C-24.5879 187.872 -22.5681 174.247 -15.1211 157.655C-7.34046 140.326 5.1297 122.249 19.9991 106.76C33.6144 92.5746 55.7551 73.8838 83.913 65.3899C111.014 57.2159 137.731 60.1873 163.332 74.2251C189.425 88.5325 206.518 105.57 223.048 122.044C249.506 148.41 272.357 171.182 323.902 172.242C364.847 173.083 389.151 174.265 405.169 176.187C421.732 178.178 430.538 181.074 434.613 185.867C438.635 190.599 437.901 196.865 436.882 205.531C435.259 219.361 432.804 240.265 450.002 270.177C455.563 279.846 457.091 286.701 454.674 291.131C450.669 298.475 436.432 298.784 418.412 299.179C399.594 299.589 376.179 300.103 356.483 309.017C333.418 319.458 320.08 339.155 315.704 369.239C314.056 380.575 309.398 390.589 301.86 399.011C294.842 406.851 285.297 413.354 273.491 418.338C255.172 426.07 231.767 430.065 205.172 430.069ZM107.037 181.329C124.991 181.329 135.845 184.645 140.134 191.246C145.424 199.395 141.255 212.286 126.614 233.054C117.316 246.24 104.663 261.122 92.4279 275.516C62.8297 310.329 32.2268 346.323 42.9512 364.403C53.8406 382.846 74.5727 398.734 102.903 410.351C128.377 420.795 159.43 427.45 190.334 429.084C223.01 430.816 251.691 426.911 273.277 417.799C297.873 407.415 311.959 391.049 315.142 369.153C317.477 353.092 322.518 339.698 330.123 329.346C336.819 320.234 345.365 313.408 356.251 308.482C376.052 299.521 399.531 299.007 418.401 298.594C436.239 298.206 450.329 297.897 454.175 290.844C456.486 286.608 454.958 279.943 449.51 270.468C432.214 240.387 434.683 219.368 436.316 205.46C437.318 196.941 438.038 190.786 434.181 186.248C426.695 177.438 401.955 174.427 323.888 172.824C272.118 171.761 249.194 148.913 222.648 122.461C206.145 106.012 189.077 89.0067 163.058 74.7353C97.1103 38.5682 41.3248 85.367 20.403 107.166C5.57933 122.609 -6.85219 140.624 -14.6048 157.895C-21.9745 174.315 -24.0048 187.746 -20.1724 194.745C-17.5414 199.549 -12.3566 201.076 -4.7551 199.287C46.1197 187.293 82.9611 181.333 107.037 181.333V181.329Z" fill="#41444A"/>
<path d="M206.833 425.394C201.779 425.394 196.608 425.246 191.325 424.944C161.291 423.241 131.159 416.716 106.482 406.57C78.9176 395.237 58.7265 379.744 48.0935 361.765C43.3092 353.717 46.2598 341.486 57.1212 324.383C66.739 309.235 81.4608 291.834 95.6944 275.001C107.501 261.042 119.711 246.609 128.658 233.829C142.565 213.963 146.552 201.697 141.585 194.051C132.016 179.327 87.5835 181.781 1.75015 201.783C-5.85841 203.558 -11.2961 201.909 -13.9763 197.015C-17.7771 190.073 -15.8837 176.941 -8.781 160.984C-1.36564 144.327 10.5917 126.912 24.8814 111.947C38.1209 98.0853 59.6925 79.8041 87.2639 71.4432C113.817 63.3913 140.057 66.2298 165.257 79.8868C190.868 93.7629 207.705 110.323 223.986 126.337C249.945 151.869 272.363 173.919 322.342 175.012C398.27 176.675 422.367 179.679 429.772 188.406C433.689 193.023 432.968 199.124 431.978 207.568C430.404 220.941 428.026 241.148 444.416 270.014C449.682 279.288 451.101 285.884 448.755 290.178C444.824 297.364 430.928 297.709 413.336 298.144C395.003 298.6 372.191 299.164 353.001 307.895C330.53 318.117 317.516 337.322 313.213 366.601C311.586 377.675 307.044 387.433 299.71 395.611C292.885 403.221 283.608 409.509 272.131 414.306C254.621 421.621 232.266 425.397 206.83 425.397L206.833 425.394ZM109.865 184.069C127.277 184.069 137.833 187.249 142.048 193.738C147.163 201.607 143.172 214.075 129.111 234.163C120.15 246.965 107.933 261.409 96.1159 275.375C67.6102 309.074 38.1349 343.919 48.5677 361.47C59.1375 379.342 79.2338 394.752 106.686 406.042C131.31 416.167 161.379 422.677 191.353 424.377C223.15 426.18 251.009 422.516 271.921 413.777C295.811 403.796 309.517 387.893 312.661 366.519C316.996 337.031 330.116 317.682 352.773 307.378C372.065 298.6 394.94 298.032 413.322 297.58C430.738 297.148 444.49 296.807 448.266 289.905C450.511 285.802 449.092 279.392 443.935 270.305C427.45 241.274 429.842 220.952 431.426 207.507C432.403 199.21 433.109 193.214 429.354 188.787C422.075 180.207 398.07 177.246 322.335 175.586C272.138 174.487 249.646 152.365 223.603 126.754C207.35 110.769 190.541 94.2372 165 80.397C100.057 45.2071 45.6592 91.0215 25.2854 112.353C11.0378 127.271 -0.880888 144.629 -8.26814 161.225C-15.2971 177.013 -17.1975 189.958 -13.4845 196.742C-10.9027 201.456 -5.81627 202.969 1.6307 201.233C46.8781 190.691 80.1752 185.119 103.419 184.206C105.663 184.116 107.817 184.073 109.868 184.073L109.865 184.069Z" fill="#41444A"/>
<path d="M208.498 420.722C203.247 420.722 197.858 420.557 192.343 420.219C163.244 418.451 134.099 412.067 110.272 402.243C83.5892 391.242 64.0339 376.226 53.724 358.822C49.0732 351.014 51.8799 339.175 62.3091 322.63C71.5441 307.977 85.7039 291.144 99.3965 274.868C110.781 261.333 122.556 247.338 131.166 234.946C144.5 215.756 148.308 203.91 143.509 196.537C134.253 182.308 91.2329 184.59 8.12539 203.716C0.671397 205.433 -4.66092 203.802 -7.28843 199.001C-10.9698 192.275 -9.20287 179.632 -2.44088 164.311C4.61618 148.326 16.0571 131.568 29.7743 117.131C42.6379 103.593 63.6334 85.7285 90.6146 77.5005C116.616 69.5707 142.375 72.2799 167.181 85.5524C192.315 99.001 208.892 115.08 224.927 130.63C250.387 155.325 272.373 176.653 320.786 177.781C394.377 179.499 417.737 182.452 424.931 190.946C428.742 195.444 428.04 201.384 427.07 209.601C425.454 223.287 423.241 242.028 438.827 269.845C443.801 278.727 445.112 285.061 442.832 289.218C438.975 296.246 425.419 296.623 408.256 297.105C390.411 297.604 368.201 298.222 349.516 306.77C327.639 316.773 314.951 335.482 310.722 363.96C309.117 374.771 304.687 384.275 297.56 392.204C290.928 399.584 281.918 405.66 270.775 410.263C254.076 417.165 232.771 420.719 208.498 420.719V420.722ZM112.523 186.818C129.546 186.818 139.856 189.911 143.962 196.228C148.901 203.82 145.093 215.863 131.608 235.269C122.984 247.683 111.203 261.689 99.8074 275.231C72.3941 307.819 44.0465 341.514 54.1877 358.534C78.1094 398.913 143.576 416.702 192.371 419.666C198.044 420.011 203.566 420.18 208.899 420.18C267.435 420.18 304.863 399.674 310.181 363.877C314.442 335.198 327.235 316.349 349.292 306.263C368.074 297.673 390.345 297.051 408.239 296.552C425.23 296.077 438.648 295.704 442.358 288.949C444.535 284.978 443.229 278.824 438.357 270.125C422.683 242.146 425.001 222.521 426.533 209.536C427.485 201.459 428.177 195.624 424.523 191.312C417.452 182.962 394.181 180.052 320.775 178.338C272.152 177.203 250.096 155.806 224.555 131.033C208.551 115.507 191.999 99.4538 166.932 86.0447C102.99 51.8321 49.9865 96.6584 30.1642 117.519C-0.284067 149.565 -13.7624 186.038 -6.81421 198.728C-4.28154 203.356 0.706522 204.851 8.00245 203.173C51.8342 193.084 84.0705 187.773 106.545 186.936C108.621 186.857 110.613 186.821 112.516 186.821L112.523 186.818Z" fill="#41444A"/>
<path d="M210.17 416.055C204.718 416.055 199.115 415.868 193.365 415.495C165.2 413.662 137.038 407.421 114.069 397.921C88.2677 387.246 69.3481 372.709 59.3615 355.883C54.8441 348.32 57.5068 336.869 67.504 320.88C76.356 306.72 89.9538 290.462 103.105 274.735C114.069 261.628 125.404 248.071 133.677 236.064C146.438 217.545 150.063 206.119 145.437 199.016C136.494 185.284 94.8892 187.389 14.504 205.645C7.20107 207.305 1.98116 205.692 -0.59718 200.985C-4.15908 194.478 -2.51864 182.323 3.90613 167.631C10.6049 152.311 21.5365 136.214 34.6811 122.302C47.1653 109.094 67.5848 91.6463 93.9758 83.5549C119.422 75.7509 144.703 78.3271 169.113 91.2152C193.769 104.233 210.092 119.837 225.875 134.924C250.833 158.782 272.384 179.384 319.229 180.552C390.488 182.323 413.11 185.226 420.097 193.486C423.799 197.866 423.114 203.644 422.17 211.638C420.606 224.835 418.464 242.912 433.242 269.68C437.928 278.166 439.129 284.246 436.916 288.263C433.133 295.132 419.914 295.542 403.18 296.067C385.82 296.609 364.213 297.281 346.031 305.642C324.751 315.429 312.383 333.639 308.224 361.316C306.64 371.865 302.326 381.113 295.402 388.798C288.964 395.949 280.22 401.809 269.412 406.225C253.524 412.714 233.266 416.051 210.163 416.051L210.17 416.055ZM115.186 189.563C131.818 189.563 141.882 192.57 145.883 198.714C150.65 206.033 147.018 217.646 134.112 236.376C125.822 248.405 114.48 261.969 103.509 275.087C77.185 306.562 49.9685 339.111 59.8146 355.599C82.9037 394.501 146.207 411.884 193.4 414.952C223.437 416.903 249.656 413.712 269.222 405.721C291.703 396.538 304.651 381.573 307.707 361.237C311.895 333.362 324.361 315.016 345.82 305.15C364.097 296.746 385.764 296.07 403.173 295.524C419.739 295.007 432.827 294.597 436.463 287.997C438.577 284.159 437.373 278.256 432.788 269.949C417.926 243.023 420.167 224.099 421.653 211.574C422.584 203.716 423.255 198.042 419.707 193.842C412.843 185.722 390.306 182.862 319.229 181.094C272.183 179.923 250.562 159.256 225.524 135.323C209.766 120.257 193.47 104.682 168.881 91.7002C105.94 58.4721 54.3383 102.3 35.0745 122.683C21.9721 136.548 11.0791 152.591 4.40142 167.858C-1.95309 182.388 -3.60407 194.367 -0.122966 200.723C2.36404 205.264 7.24672 206.741 14.3986 205.117C56.8148 195.484 87.9867 190.429 109.699 189.667C111.603 189.599 113.433 189.566 115.193 189.566L115.186 189.563Z" fill="#41444A"/>
<path d="M211.842 411.395C206.197 411.395 200.373 411.19 194.387 410.773C167.157 408.879 139.979 402.778 117.866 393.602C92.9435 383.258 74.6633 369.198 64.9963 352.944C55.245 336.664 81.4604 305.113 106.815 274.605C117.357 261.922 128.253 248.804 136.192 237.184C148.381 219.338 151.827 208.332 147.37 201.498C138.735 188.258 98.5463 190.191 20.887 207.578C13.7386 209.177 8.62411 207.585 6.09846 202.968C2.65599 196.68 4.17349 185.01 10.2646 170.947C16.612 156.288 27.0308 140.849 39.6063 127.465C51.7077 114.587 71.5475 97.5673 97.345 89.6088C122.236 81.9305 147.036 84.3773 171.049 96.8774C195.23 109.464 211.298 124.59 226.838 139.217C251.29 162.238 272.409 182.118 317.684 183.318C386.611 185.147 408.498 187.996 415.275 196.026C418.872 200.291 418.204 205.907 417.28 213.679C415.77 226.387 413.697 243.795 427.667 269.514C432.065 277.609 433.161 283.43 431.018 287.307C427.309 294.015 414.428 294.464 398.122 295.028C363.037 296.246 314.983 297.91 305.748 358.674C304.185 368.961 299.983 377.951 293.267 385.396C287.021 392.312 278.545 397.964 268.07 402.189C252.99 408.272 233.786 411.395 211.849 411.395H211.842ZM117.835 192.304C134.081 192.304 143.903 195.229 147.798 201.2C152.393 208.243 148.943 219.435 136.614 237.482C128.661 249.124 117.754 262.249 107.209 274.943C81.9768 305.307 55.8843 336.707 65.4389 352.663C75.0462 368.821 93.2421 382.805 118.059 393.106C140.126 402.265 167.245 408.351 194.423 410.241C223.585 412.268 248.982 409.314 267.874 401.697C289.649 392.916 302.217 378.414 305.228 358.595C309.341 331.529 321.481 313.683 342.343 304.036C360.114 295.818 381.173 295.085 398.097 294.5C414.242 293.939 426.989 293.497 430.558 287.048C432.606 283.347 431.51 277.695 427.207 269.776C413.156 243.907 415.239 226.402 416.757 213.618C417.667 205.979 418.324 200.464 414.874 196.375C408.217 188.481 386.41 185.671 317.663 183.85C272.194 182.646 251.009 162.701 226.48 139.609C210.967 125.007 194.928 109.906 170.807 97.3517C108.867 65.1117 58.6769 107.926 39.9717 127.831C27.4383 141.168 17.0546 156.557 10.7317 171.159C4.71093 185.068 3.18291 196.565 6.54458 202.706C8.98241 207.161 13.7667 208.623 20.7711 207.057C61.7681 197.877 91.8791 193.08 112.826 192.39C114.557 192.333 116.226 192.304 117.835 192.304Z" fill="#41444A"/>
<path d="M213.518 406.743C207.676 406.743 201.635 406.513 195.407 406.049C169.11 404.091 142.919 398.137 121.657 389.281C97.6159 379.267 79.9715 365.682 70.6276 350.002C61.1749 334.261 86.2592 303.868 110.518 274.47C120.635 262.211 131.096 249.534 138.697 238.299C150.314 221.128 153.581 210.54 149.292 203.972C140.966 191.224 102.189 192.984 27.2595 209.505C20.2622 211.046 15.2566 209.472 12.7801 204.949C9.45707 198.88 10.8551 187.692 16.6125 174.254C22.6087 160.256 32.5251 145.467 44.5316 132.615C56.2465 120.071 75.5033 103.479 100.707 95.6641C125.04 88.1188 149.355 90.4327 172.974 102.545C196.685 114.703 212.499 129.352 227.79 143.519C251.737 165.703 272.416 184.86 316.121 186.093C382.715 187.976 403.869 190.774 410.434 198.571C413.926 202.718 413.273 208.175 412.37 215.724C410.909 227.948 408.91 244.684 422.072 269.353C426.185 277.06 427.176 282.622 425.1 286.356C421.461 292.906 408.92 293.383 393.046 293.994C358.977 295.299 312.317 297.088 303.247 356.038C300.247 375.53 287.953 389.701 266.704 398.155C252.432 403.832 234.278 406.743 213.515 406.743H213.518ZM120.484 195.047C136.347 195.047 145.926 197.885 149.717 203.688C154.139 210.457 150.869 221.225 139.115 238.594C131.5 249.851 121.032 262.534 110.908 274.804C86.7651 304.058 61.8001 334.311 71.0597 349.733C80.3473 365.319 97.9109 378.829 121.85 388.803C143.063 397.642 169.198 403.581 195.445 405.535C223.73 407.641 248.308 404.921 266.525 397.674C287.594 389.292 299.784 375.257 302.752 355.959C306.791 329.702 318.608 312.355 338.87 302.926C356.135 294.893 376.593 294.109 393.029 293.48C408.748 292.877 421.162 292.403 424.664 286.104C426.646 282.536 425.655 277.14 421.633 269.605C408.39 244.792 410.403 227.958 411.871 215.667C412.756 208.247 413.399 202.887 410.055 198.913C403.606 191.249 382.533 188.489 316.111 186.61C272.219 185.371 251.473 166.152 227.453 143.904C212.183 129.762 196.397 115.135 172.749 103.008C111.811 71.7599 63.0401 113.554 44.9004 132.974C32.9361 145.783 23.0548 160.518 17.0797 174.466C11.3855 187.753 9.98397 198.773 13.2262 204.701C15.6149 209.07 20.3043 210.514 27.1577 209.005C66.7355 200.278 95.7858 195.736 115.963 195.118C117.522 195.072 119.029 195.047 120.484 195.047Z" fill="#41444A"/>
<path d="M215.197 402.1C209.166 402.1 202.899 401.845 196.432 401.327C171.07 399.308 145.863 393.494 125.458 384.961C102.298 375.274 85.2898 362.171 76.2656 347.062C67.1115 331.864 91.0682 302.62 114.235 274.34C123.93 262.508 133.952 250.27 141.216 239.423C152.263 222.924 155.351 212.756 151.227 206.453C147.335 200.503 136.832 197.852 119.114 198.348C99.7306 198.89 71.7764 203.173 33.6457 211.444C26.7994 212.928 21.8992 211.372 19.4754 206.938C16.2753 201.085 17.5505 190.378 22.9776 177.562C28.6296 164.218 38.0437 150.079 49.4811 137.759C60.8096 125.553 79.4798 109.396 104.083 101.725C127.857 94.3122 151.684 96.4968 174.906 108.217C198.147 119.945 213.708 134.119 228.76 147.826C252.197 169.169 272.437 187.605 314.572 188.873C378.837 190.809 399.257 193.558 405.611 201.125C408.994 205.156 408.358 210.452 407.477 217.782C406.065 229.517 404.136 245.585 416.494 269.198C420.323 276.517 421.211 281.82 419.202 285.413C415.633 291.802 403.434 292.315 387.988 292.966C354.937 294.36 309.668 296.268 300.76 353.407C297.803 372.375 285.891 386.078 265.352 394.127C251.888 399.405 234.784 402.103 215.197 402.103V402.1ZM123.125 197.787C138.606 197.787 147.95 200.543 151.635 206.173C155.885 212.673 152.797 223.014 141.62 239.707C134.345 250.576 124.313 262.82 114.61 274.663C91.5565 302.807 67.7156 331.91 76.6871 346.8C85.6551 361.815 102.583 374.85 125.644 384.498C146.004 393.013 171.158 398.812 196.471 400.828C203.131 401.359 209.521 401.622 215.615 401.622C264.923 401.622 295.417 384.48 300.275 353.325C304.241 327.872 315.731 311.024 335.399 301.815C352.158 293.968 372.012 293.131 387.967 292.459C403.261 291.816 415.342 291.306 418.774 285.158C420.688 281.727 419.803 276.582 416.058 269.432C403.627 245.678 405.569 229.517 406.988 217.717C407.853 210.517 408.478 205.314 405.236 201.452C398.99 194.014 378.651 191.305 314.555 189.372C272.24 188.097 251.937 169.607 228.43 148.2C213.402 134.514 197.866 120.365 174.685 108.666C114.744 78.4168 67.403 119.176 49.8324 138.104C24.4424 165.454 13.8551 195.649 19.8969 206.694C22.2048 210.916 26.9224 212.389 33.5369 210.955C71.6956 202.677 99.6814 198.391 119.093 197.848C120.477 197.809 121.822 197.791 123.118 197.791L123.125 197.787Z" fill="#41444A"/>
<path d="M216.873 397.462C210.655 397.462 204.167 397.178 197.451 396.607C172.693 394.497 149.116 388.971 129.272 380.628C107.012 371.269 90.6288 358.646 81.8962 344.124C73.0687 329.446 95.8874 301.36 117.951 274.197C127.214 262.792 136.793 251 143.72 240.541C154.195 224.714 157.104 214.962 153.145 208.926C149.393 203.199 139.284 200.626 122.236 201.054C103.619 201.521 76.7255 205.552 40.0175 213.374C33.3223 214.801 28.5274 213.259 26.1493 208.915C23.0686 203.281 24.2278 193.052 29.3318 180.85C34.643 168.156 43.5583 154.668 54.4337 142.876C65.3723 131.012 83.4523 115.292 107.451 107.769C130.66 100.493 154.002 102.548 176.828 113.873C199.6 125.173 214.912 138.87 229.722 152.117C252.646 172.622 272.444 190.332 313.009 191.633C374.945 193.623 394.63 196.322 400.774 203.659C404.052 207.575 403.43 212.713 402.569 219.82C401.21 231.066 399.344 246.466 410.898 269.023C414.449 275.953 415.233 281.002 413.294 284.451C409.795 290.678 397.936 291.224 382.919 291.917C350.879 293.398 307.002 295.428 298.262 350.753C295.35 369.199 283.818 382.429 263.989 390.078C251.332 394.961 235.279 397.451 216.869 397.451L216.873 397.462ZM125.756 200.515C140.861 200.515 149.966 203.184 153.545 208.649C155.772 212.048 155.916 216.514 153.981 222.306C152.323 227.272 149.189 233.154 144.117 240.81C137.179 251.291 127.593 263.091 118.32 274.505C96.3616 301.536 73.6553 329.486 82.3037 343.865C90.9836 358.298 107.29 370.855 129.455 380.172C148.972 388.379 173.132 394.038 197.489 396.114C224.021 398.374 246.959 396.132 263.824 389.625C283.481 382.044 294.908 368.94 297.792 350.681C301.684 326.033 312.847 309.685 331.921 300.699C348.175 293.038 367.431 292.151 382.901 291.432C397.771 290.746 409.517 290.203 412.883 284.21C414.734 280.915 413.947 276.025 410.48 269.253C398.86 246.559 400.732 231.073 402.102 219.763C402.949 212.778 403.56 207.73 400.416 203.978C394.377 196.767 374.773 194.108 312.998 192.122C272.265 190.814 252.407 173.05 229.413 152.484C214.628 139.258 199.341 125.583 176.624 114.311C117.677 85.0644 71.7795 124.774 54.785 143.206C43.9482 154.959 35.0646 168.393 29.7779 181.037C24.7336 193.095 23.5639 203.166 26.5743 208.671C28.8365 212.81 33.4557 214.269 39.9262 212.889C76.6622 205.06 103.584 201.025 122.229 200.558C123.438 200.529 124.614 200.511 125.756 200.511V200.515Z" fill="#41444A"/>
<path d="M218.551 392.834C212.151 392.834 205.442 392.517 198.473 391.882C157.363 388.13 106.629 372.842 87.5337 341.181C79.0048 327.042 100.696 300.105 121.667 274.06C130.505 263.083 139.645 251.729 146.231 241.658C156.274 226.298 158.916 217.247 155.073 211.394C151.458 205.89 141.742 203.393 125.366 203.755C107.511 204.151 81.6815 207.931 46.3962 215.307C39.8485 216.676 35.159 215.152 32.8336 210.898C29.8724 205.48 30.9157 195.729 35.7 184.141C40.674 172.09 49.094 159.249 59.4074 147.988C69.9525 136.473 87.4389 121.199 110.834 113.826C133.473 106.694 156.327 108.616 178.759 119.546C201.068 130.415 216.134 143.637 230.705 156.425C253.113 176.089 272.465 193.073 311.456 194.41C371.067 196.454 390.018 199.103 395.951 206.213C399.123 210.014 398.515 214.994 397.675 221.886C396.365 232.64 394.567 247.371 405.312 268.868C408.586 275.414 409.267 280.204 407.399 283.513C403.97 289.574 392.449 290.156 377.864 290.893C346.836 292.46 304.346 294.608 295.771 348.126C292.902 366.048 281.752 378.81 262.636 386.057C250.784 390.548 235.778 392.837 218.548 392.837L218.551 392.834ZM128.313 203.22C143.21 203.22 152.006 205.865 155.463 211.128C159.429 217.168 156.784 226.377 146.621 241.924C140.024 252.017 130.874 263.378 122.029 274.365C101.16 300.285 79.5774 327.085 87.9307 340.936C106.938 372.447 157.518 387.671 198.515 391.411C224.172 393.753 246.291 391.745 262.478 385.612C281.425 378.429 292.473 365.793 295.318 348.05C299.137 324.207 309.977 308.359 328.454 299.592C344.205 292.118 362.857 291.177 377.846 290.419C392.29 289.689 403.7 289.111 407.002 283.276C408.786 280.121 408.101 275.479 404.905 269.087C394.093 247.461 395.898 232.647 397.219 221.828C398.044 215.059 398.642 210.165 395.603 206.522C389.772 199.537 370.898 196.925 311.445 194.888C272.289 193.544 252.881 176.51 230.407 156.788C215.861 144.022 200.819 130.821 178.566 119.977C120.617 91.74 76.1736 130.386 59.7551 148.315C49.4769 159.536 41.0885 172.327 36.1356 184.328C31.4074 195.779 30.3571 205.379 33.2446 210.668C35.4611 214.725 39.9785 216.166 46.3084 214.843C83.4309 207.083 110.321 203.224 128.313 203.224V203.22Z" fill="#41444A"/>
<path d="M220.586 388.245C213.947 388.245 206.911 387.882 199.495 387.157C176.634 384.922 154.979 379.676 136.87 371.987C116.082 363.159 101.378 351.805 93.1687 338.238C84.9419 324.638 105.502 298.855 125.384 273.92C133.797 263.367 142.498 252.459 148.743 242.772C158.21 228.094 160.68 219.446 156.998 213.855C153.521 208.574 144.198 206.148 128.493 206.45C111.403 206.774 86.635 210.302 52.7759 217.233C46.3757 218.544 41.7881 217.035 39.5118 212.867C36.67 207.668 37.6044 198.387 42.0691 187.407C46.7129 175.996 54.6411 163.801 64.3995 153.069C74.5512 141.905 91.4334 127.081 114.22 119.866C136.287 112.878 158.649 114.674 180.688 125.205C202.537 135.646 217.357 148.394 231.693 160.722C253.581 179.546 272.483 195.804 309.9 197.177C367.189 199.275 385.406 201.873 391.132 208.757C394.198 212.447 393.605 217.269 392.783 223.945C391.518 234.21 389.79 248.266 399.731 268.703C402.731 274.868 403.314 279.402 401.512 282.564C398.154 288.46 386.969 289.078 372.817 289.858C342.8 291.511 301.691 293.775 293.285 345.485C290.457 362.886 279.691 375.178 261.284 382.022C250.135 386.169 236.502 388.249 220.586 388.249V388.245ZM130.909 205.958C145.452 205.958 154.023 208.513 157.374 213.6C161.171 219.371 158.706 228.17 149.123 243.031C142.863 252.735 134.155 263.654 125.735 274.218C105.951 299.027 85.4934 324.682 93.5516 338.001C101.596 351.295 116.634 362.9 137.043 371.567C155.109 379.238 176.719 384.473 199.537 386.7C231.37 389.812 285.82 388.587 292.839 345.41C296.583 322.371 307.097 307.022 324.98 298.474C340.229 291.188 358.284 290.196 372.792 289.395C386.811 288.622 397.887 288.011 401.122 282.331C402.84 279.313 402.253 274.922 399.327 268.907C389.323 248.348 391.065 234.21 392.337 223.887C393.145 217.33 393.728 212.591 390.788 209.059C385.164 202.297 367.017 199.735 309.886 197.644C272.314 196.268 253.356 179.963 231.405 161.081C217.094 148.772 202.295 136.045 180.502 125.629C121.948 97.6469 77.0909 139.804 64.7367 153.389C55.017 164.081 47.1169 176.226 42.4941 187.59C38.0786 198.438 37.1407 207.571 39.9123 212.648C42.0831 216.622 46.5022 218.052 52.6916 216.784C88.0015 209.555 113.662 205.958 130.913 205.958H130.909Z" fill="#41444A"/>
<path d="M222.222 383.639C215.428 383.639 208.188 383.237 200.517 382.432C178.601 380.136 157.907 375.03 140.667 367.668C120.771 359.174 106.685 348.281 98.8022 335.295C90.874 322.238 110.306 297.605 129.103 273.78C137.091 263.655 145.349 253.185 151.258 243.886C160.152 229.888 162.442 221.642 158.926 216.313C152.023 205.857 121.256 206.734 59.1576 219.162C52.9015 220.413 48.4192 218.922 46.1922 214.844C40.3856 204.205 50.8008 178.77 69.4148 158.139C79.1661 147.331 95.444 132.966 117.62 125.91C139.111 119.072 160.981 120.739 182.623 130.868C204.015 140.882 218.597 153.155 232.697 165.027C254.061 183.01 272.51 198.542 308.35 199.947C363.317 202.103 380.804 204.65 386.319 211.304C389.28 214.883 388.7 219.55 387.896 226.011C386.68 235.784 385.012 249.168 394.152 268.537C396.881 274.326 397.366 278.605 395.634 281.62C392.343 287.35 381.499 288.001 367.775 288.824C338.767 290.563 299.038 292.941 290.801 342.844C288.015 359.721 277.631 371.545 259.938 377.987C249.596 381.753 236.965 383.643 222.229 383.643L222.222 383.639ZM133.494 208.689C147.692 208.689 156.042 211.154 159.284 216.069C162.916 221.57 160.623 229.963 151.62 244.137C145.701 253.454 137.435 263.935 129.44 274.067C110.742 297.767 91.4079 322.278 99.171 335.062C107.004 347.964 121.024 358.797 140.832 367.255C158.03 374.599 178.685 379.694 200.555 381.986C224.807 384.527 244.735 383.039 259.78 377.56C277.312 371.175 287.601 359.469 290.358 342.765C294.029 320.532 304.219 305.678 321.509 297.357C336.255 290.261 353.713 289.215 367.74 288.374C381.334 287.559 392.072 286.916 395.248 281.393C396.902 278.515 396.411 274.376 393.751 268.735C384.559 249.247 386.234 235.787 387.457 225.957C388.247 219.612 388.816 215.027 385.978 211.599C380.561 205.06 363.145 202.548 308.329 200.4C272.338 198.988 253.836 183.412 232.412 165.379C218.333 153.525 203.776 141.273 182.437 131.285C124.905 104.355 81.6285 145.269 69.7344 158.451C51.2399 178.95 40.8493 204.151 46.5715 214.632C48.6967 218.523 53.0174 219.942 59.0698 218.731C92.5601 212.03 116.981 208.692 133.494 208.692V208.689Z" fill="#41444A"/>
<path d="M223.842 379.048C216.904 379.048 209.465 378.603 201.536 377.711C180.569 375.354 160.834 370.389 144.465 363.357C125.461 355.194 111.993 344.764 104.438 332.361C96.808 319.843 115.116 296.359 132.82 273.647C140.38 263.95 148.199 253.922 153.763 245.011C162.085 231.692 164.203 223.845 160.845 218.779C154.241 208.808 124.847 209.523 65.5342 221.1C59.4221 222.293 55.0382 220.812 52.8603 216.82C50.2223 211.984 50.9178 203.853 54.8274 193.926C58.8249 183.772 65.7907 172.856 74.4425 163.188C83.7898 152.743 99.4601 138.845 121.018 131.954C141.929 125.271 163.3 126.812 184.545 136.538C205.485 146.124 219.827 157.924 233.699 169.339C254.533 186.481 272.525 201.284 306.788 202.721C359.437 204.931 376.192 207.428 381.497 213.86C384.356 217.327 383.787 221.84 382.997 228.088C381.827 237.369 380.221 250.077 388.557 268.373C391.023 273.784 391.409 277.808 389.744 280.679C386.516 286.241 376.017 286.923 362.721 287.789C334.718 289.611 296.366 292.105 288.297 340.201C285.554 356.552 275.553 367.91 258.572 373.95C249.032 377.345 237.401 379.044 223.839 379.044L223.842 379.048ZM136.193 211.391C149.829 211.391 158.017 213.734 161.196 218.534C164.663 223.769 162.545 231.757 154.122 245.245C148.543 254.173 140.717 264.212 133.151 273.917C115.538 296.51 97.3244 319.871 104.796 332.127C112.306 344.451 125.711 354.824 144.63 362.951C160.964 369.969 180.657 374.92 201.582 377.273C224.949 379.9 244.079 378.642 258.439 373.536C275.261 367.55 285.167 356.312 287.886 340.125C291.483 318.696 301.35 304.339 318.05 296.24C332.294 289.331 349.155 288.235 362.704 287.355C375.873 286.5 386.274 285.82 389.386 280.456C390.974 277.718 390.58 273.827 388.178 268.556C379.789 250.142 381.402 237.362 382.578 228.031C383.351 221.894 383.913 217.46 381.173 214.14C375.964 207.824 359.275 205.359 306.774 203.156C272.37 201.712 254.325 186.866 233.435 169.677C219.585 158.28 205.267 146.498 184.377 136.937C127.864 111.068 86.189 150.716 74.7586 163.486C57.455 182.82 47.7985 206.652 53.2327 216.612C55.3122 220.424 59.538 221.829 65.4534 220.676C96.4813 214.621 119.142 211.589 134.731 211.406C135.227 211.399 135.715 211.399 136.193 211.399V211.391Z" fill="#41444A"/>
<path d="M225.446 374.47C218.379 374.47 210.742 373.978 202.558 372.986C182.539 370.568 163.763 365.746 148.265 359.042C130.157 351.209 117.307 341.242 110.071 329.421C102.74 317.442 119.924 295.108 136.543 273.506C143.674 264.237 151.05 254.65 156.274 246.128C164.023 233.488 165.965 226.043 162.769 221.228C156.464 211.739 128.443 212.296 71.9123 223.028C65.9407 224.16 61.6587 222.698 59.53 218.789C54.2153 209.037 62.9865 186.822 79.4998 168.21C88.4432 158.132 103.499 144.708 124.435 137.989C144.759 131.464 165.635 132.884 186.48 142.2C206.973 151.359 221.08 162.688 234.727 173.643C255.024 189.94 272.556 204.018 305.241 205.487C355.575 207.751 371.6 210.201 376.694 216.41C379.448 219.766 378.889 224.131 378.116 230.168C376.989 238.953 375.447 250.982 382.981 268.207C385.187 273.248 385.483 277.02 383.884 279.74C380.719 285.133 370.561 285.848 357.697 286.757C330.698 288.658 293.72 291.267 285.816 337.559C283.115 353.39 273.497 364.277 257.23 369.914C248.486 372.946 237.846 374.466 225.453 374.466L225.446 374.47ZM138.774 214.093C152.059 214.093 160.022 216.353 163.11 220.995C167.265 227.243 162.161 237.321 156.625 246.354C151.388 254.895 144.007 264.488 136.866 273.769C120.335 295.255 103.242 317.47 110.419 329.198C123.757 350.993 158.22 367.208 202.603 372.569C225.088 375.286 243.421 374.258 257.089 369.519C273.202 363.932 282.728 353.156 285.402 337.491C288.921 316.863 298.465 303.005 314.578 295.129C328.324 288.41 344.591 287.264 357.662 286.341C370.406 285.442 380.47 284.735 383.522 279.528C385.047 276.934 384.741 273.287 382.599 268.383C375.018 251.05 376.567 238.953 377.702 230.117C378.461 224.185 379.012 219.899 376.374 216.683C371.372 210.586 355.41 208.168 305.217 205.911C272.401 204.435 254.82 190.321 234.467 173.977C220.845 163.036 206.755 151.725 186.311 142.588C130.821 117.789 90.7581 156.148 79.8019 168.497C71.7262 177.598 65.2628 187.835 61.5955 197.32C58.0371 206.526 57.4329 214.078 59.8883 218.584C61.9222 222.317 66.0566 223.711 71.8351 222.612C101.43 216.992 123.022 214.208 137.85 214.093C138.159 214.093 138.468 214.093 138.774 214.093Z" fill="#41444A"/>
<path d="M227.028 369.91C219.848 369.91 212.021 369.364 203.577 368.265C184.506 365.785 166.69 361.107 152.059 354.73C134.843 347.228 122.612 337.72 115.702 326.481C108.673 315.045 124.734 293.857 140.267 273.37C146.969 264.527 153.903 255.383 158.782 247.252C165.962 235.291 167.729 228.242 164.687 223.686C158.673 214.678 132.026 215.073 78.2848 224.965C72.4502 226.039 68.2701 224.588 66.187 220.761C61.1638 211.534 69.2396 190.652 84.5726 173.215C93.105 163.514 107.539 150.572 127.849 144.032C147.58 137.676 167.954 138.97 188.405 147.873C208.459 156.604 222.338 167.462 235.76 177.965C255.516 193.418 272.577 206.766 303.679 208.268C351.701 210.589 366.999 212.989 371.882 218.979C374.534 222.227 373.982 226.441 373.22 232.277C372.138 240.566 370.652 251.916 377.39 268.056C379.339 272.73 379.543 276.251 378.015 278.824C374.91 284.045 365.092 284.795 352.66 285.74C326.659 287.724 291.05 290.436 283.319 334.929C280.66 350.235 271.425 360.655 255.871 365.893C247.914 368.574 238.261 369.914 227.028 369.914V369.91ZM141.338 216.787C154.283 216.787 162.028 218.968 165.021 223.449C168.973 229.37 164.259 238.909 159.127 247.461C154.233 255.613 147.296 264.764 140.586 273.614C125.138 293.994 109.165 315.063 116.047 326.259C122.91 337.429 135.082 346.879 152.224 354.349C166.82 360.712 184.597 365.379 203.633 367.855C225.236 370.661 242.772 369.867 255.751 365.494C271.154 360.306 280.298 349.994 282.933 334.846C286.379 315.02 295.599 301.661 311.122 294.008C324.369 287.476 340.042 286.283 352.635 285.32C364.951 284.382 374.678 283.639 377.678 278.598C379.135 276.144 378.925 272.745 377.028 268.199C370.248 251.955 371.741 240.54 372.83 232.205C373.578 226.474 374.119 222.335 371.583 219.223C366.785 213.341 351.554 210.974 303.668 208.66C272.44 207.151 255.333 193.767 235.525 178.27C222.12 167.786 208.263 156.942 188.258 148.233C133.789 124.515 95.3602 161.555 84.8817 173.473C69.6576 190.788 61.6029 211.466 66.5488 220.549C68.5406 224.207 72.5767 225.586 78.2286 224.548C106.39 219.363 126.915 216.819 140.976 216.776C141.099 216.776 141.226 216.776 141.349 216.776L141.338 216.787Z" fill="#41444A"/>
<path d="M228.581 365.369C221.31 365.369 213.304 364.762 204.6 363.544C186.474 361.007 169.62 356.469 155.861 350.422C139.537 343.247 127.924 334.204 121.338 323.543C114.607 312.646 129.547 292.607 143.995 273.227C150.268 264.812 156.753 256.113 161.295 248.37C167.909 237.085 169.501 230.434 166.613 226.126C163.803 221.937 156.433 219.892 144.079 219.871C144.016 219.871 143.945 219.871 143.882 219.871C130.608 219.871 111.238 222.17 84.6683 226.899C78.9706 227.912 74.8853 226.471 72.8515 222.731C70.5787 218.548 70.9862 211.761 74.0001 203.612C77.0773 195.295 82.6484 186.265 89.6809 178.188C97.7988 168.868 111.607 156.422 131.282 150.066C150.416 143.886 170.284 145.054 190.334 153.54C209.953 161.844 223.61 172.235 236.818 182.281C256.022 196.89 272.606 209.508 302.127 211.043C347.841 213.418 362.412 215.775 367.088 221.545C369.634 224.689 369.09 228.76 368.338 234.39C367.295 242.18 365.869 252.844 371.809 267.895C373.512 272.206 373.628 275.483 372.163 277.905C369.114 282.953 359.641 283.733 347.641 284.721C322.638 286.78 288.396 289.6 280.833 332.292C278.212 347.077 269.36 357.026 254.522 361.866C247.349 364.205 238.67 365.376 228.581 365.376V365.369ZM143.847 219.447C156.683 219.447 164.045 221.602 166.933 225.903C170.688 231.501 166.36 240.505 161.629 248.572C157.08 256.332 150.585 265.042 144.307 273.464C129.94 292.737 115.081 312.664 121.668 323.328C138.877 351.191 185.434 360.458 204.656 363.149C225.377 366.048 242.115 365.488 254.41 361.482C269.1 356.692 277.864 346.844 280.457 332.217C283.829 313.192 292.727 300.332 307.663 292.906C320.414 286.564 335.494 285.324 347.613 284.326C359.5 283.345 368.893 282.572 371.837 277.696C373.231 275.386 373.105 272.228 371.454 268.042C365.475 252.894 366.908 242.169 367.959 234.336C368.7 228.806 369.234 224.807 366.793 221.796C362.258 216.199 347.142 213.777 302.113 211.438C272.476 209.896 255.847 197.249 236.594 182.6C223.407 172.569 209.77 162.196 190.194 153.907C136.744 131.282 99.9732 166.974 89.976 178.454C82.9716 186.495 77.4321 195.478 74.369 203.752C71.3937 211.79 70.9792 218.462 73.1957 222.54C75.1418 226.119 79.0901 227.495 84.6085 226.511C111.073 221.8 130.446 219.45 143.851 219.45L143.847 219.447Z" fill="#41444A"/>
<path d="M230.204 360.885C222.897 360.885 214.73 360.195 205.622 358.819C188.441 356.225 172.549 351.831 159.661 346.114C144.23 339.269 133.232 330.686 126.972 320.604C120.54 310.245 134.363 291.353 147.729 273.083C153.57 265.099 159.612 256.842 163.806 249.491C168.078 242.007 171.977 233.667 168.534 228.565C163.019 220.395 139.846 220.474 91.0472 228.828C85.4831 229.78 81.4926 228.35 79.5044 224.689C74.9835 216.36 81.5664 198.492 94.8164 183.121C102.516 174.193 115.689 162.253 134.728 156.087C153.254 150.087 172.613 151.136 192.263 159.202C211.46 167.082 224.896 177.002 237.893 186.596C256.535 200.36 272.637 212.246 300.567 213.809C343.977 216.241 357.821 218.552 362.289 224.11C364.734 227.153 364.193 231.081 363.445 236.513C362.44 243.8 361.067 253.778 366.216 267.729C367.678 271.689 367.709 274.718 366.311 276.992C363.315 281.864 354.182 282.676 342.618 283.704C318.608 285.838 285.726 288.763 278.335 329.651C275.757 343.915 267.288 353.397 253.166 357.834C246.682 359.872 239.073 360.889 230.197 360.889L230.204 360.885ZM146.323 222.138C158.871 222.138 166.047 224.207 168.84 228.346C172.402 233.621 168.457 242.093 164.126 249.681C159.921 257.054 153.876 265.318 148.027 273.313C134.735 291.479 120.993 310.263 127.284 320.399C143.489 346.499 187.5 355.7 205.671 358.445C249.608 365.082 273.259 355.643 277.97 329.583C281.265 311.359 289.843 298.999 304.196 291.795C316.452 285.647 330.945 284.358 342.59 283.323C354.052 282.302 363.104 281.498 365.999 276.791C367.33 274.624 367.288 271.707 365.872 267.866C360.687 253.824 362.068 243.789 363.079 236.463C363.814 231.124 364.348 227.268 362.005 224.354C357.67 218.961 343.313 216.59 300.549 214.193C272.507 212.623 256.366 200.705 237.675 186.908C224.699 177.329 211.277 167.42 192.122 159.558C139.695 138.04 104.599 172.349 95.0939 183.376C81.9422 198.632 75.3805 216.313 79.8276 224.505C81.7315 228.012 85.5884 229.377 90.984 228.454C115.562 224.247 133.674 222.141 146.323 222.141V222.138Z" fill="#41444A"/>
<path d="M231.619 356.386C224.288 356.386 215.998 355.621 206.644 354.094C185.315 350.609 147.339 341.242 132.61 317.657C126.48 307.841 139.182 290.095 151.47 272.932C156.879 265.376 162.471 257.564 166.318 250.605C170.192 243.595 173.716 235.784 170.456 230.991C165.222 223.291 143.383 223.223 97.4263 230.757C91.9921 231.648 88.093 230.225 86.1504 226.643C81.9176 218.835 87.8646 202.229 99.9835 188.022C110.269 175.964 123.838 166.758 138.188 162.106C156.103 156.299 174.945 157.226 194.195 164.865C212.977 172.32 226.206 181.774 239 190.914C257.069 203.827 272.676 214.984 299.018 216.575C339.636 219.033 353.3 221.394 357.508 226.679C359.855 229.625 359.314 233.412 358.562 238.658C357.593 245.438 356.268 254.719 360.638 267.56C361.868 271.175 361.815 273.959 360.484 276.083C357.536 280.772 348.744 281.616 337.616 282.683C314.597 284.889 283.074 287.911 275.852 327.003C273.312 340.746 265.229 349.761 251.824 353.796C246.099 355.52 239.404 356.383 231.619 356.383V356.386ZM148.768 224.814C161.052 224.814 168.046 226.801 170.754 230.782C174.127 235.744 170.565 243.677 166.634 250.788C162.777 257.769 157.178 265.588 151.761 273.154C139.547 290.218 126.916 307.859 132.915 317.463C147.567 340.926 185.434 350.257 206.704 353.735C225.936 356.875 240.661 356.785 251.726 353.451C265.176 349.398 272.954 340.728 275.5 326.942C278.718 309.516 286.976 297.659 300.743 290.685C312.503 284.728 326.41 283.395 337.584 282.324C348.618 281.267 357.329 280.43 360.181 275.892C361.453 273.873 361.492 271.189 360.301 267.69C355.903 254.766 357.238 245.431 358.211 238.615C358.945 233.463 359.479 229.74 357.234 226.923C353.103 221.735 339.499 219.403 299 216.953C272.56 215.354 256.914 204.172 238.799 191.227C226.024 182.097 212.812 172.655 194.072 165.217C142.67 144.82 109.275 177.706 100.261 188.273C88.237 202.372 82.311 218.792 86.4736 226.474C88.3354 229.909 92.1045 231.267 97.3771 230.401C120.052 226.683 136.888 224.821 148.775 224.821L148.768 224.814Z" fill="#41444A"/>
<path d="M232.968 351.921C225.651 351.921 217.255 351.073 207.662 349.373C187.64 345.827 152 336.607 138.24 314.722C132.409 305.445 144.001 288.845 155.21 272.788C160.184 265.663 165.327 258.298 168.829 251.73C172.31 245.194 175.454 237.911 172.377 233.42C167.417 226.187 146.91 225.971 103.805 232.694C98.4938 233.52 94.686 232.108 92.7891 228.602C88.7776 221.186 93.9905 206.167 105.186 192.891C114.867 181.407 127.822 172.612 141.665 168.124C158.958 162.519 177.281 163.327 196.126 170.535C214.508 177.563 227.537 186.553 240.137 195.248C257.62 207.313 272.721 217.733 297.465 219.353C335.817 221.868 348.73 224.186 352.731 229.273C354.975 232.126 354.431 235.784 353.676 240.846C352.741 247.113 351.459 255.693 355.056 267.406C356.061 270.683 355.934 273.234 354.663 275.206C351.758 279.712 343.309 280.585 332.613 281.688C310.581 283.963 280.411 287.078 273.364 324.369C270.831 337.775 263.346 346.086 250.479 349.779C245.494 351.209 239.688 351.924 232.975 351.924L232.968 351.921ZM151.16 227.477C163.198 227.477 170.034 229.385 172.658 233.211C175.837 237.85 172.841 244.932 169.131 251.895C165.622 258.485 160.472 265.857 155.491 272.993C144.349 288.953 132.827 305.456 138.532 314.528C152.217 336.302 187.756 345.486 207.722 349.025C226.062 352.273 240.018 352.409 250.38 349.434C263.107 345.784 270.512 337.563 273.016 324.301C276.157 307.676 284.096 296.319 297.279 289.575C308.548 283.815 321.868 282.439 332.571 281.332C343.176 280.237 351.55 279.374 354.364 275.005C355.576 273.13 355.688 270.676 354.715 267.507C351.094 255.714 352.383 247.084 353.324 240.785C354.065 235.813 354.603 232.22 352.453 229.489C348.522 224.495 335.669 222.206 297.433 219.702C272.595 218.074 257.459 207.629 239.934 195.535C227.351 186.854 214.34 177.876 195.996 170.862C145.624 151.6 113.95 183.028 105.442 193.117C94.3418 206.285 89.1464 221.132 93.0877 228.425C94.9073 231.789 98.5921 233.143 103.749 232.338C124.509 229.101 140.049 227.477 151.16 227.477Z" fill="#41444A"/>
<path d="M234.215 347.515C227.017 347.515 218.619 346.563 208.685 344.648C185.827 340.243 156.025 330.97 143.878 311.779C138.346 303.045 148.828 287.584 158.962 272.634C163.497 265.94 168.19 259.02 171.341 252.843C175.784 244.138 176.638 239.208 174.299 235.827C169.606 229.054 150.433 228.695 110.188 234.62C104.996 235.385 101.273 233.973 99.4213 230.542C95.6978 223.639 100.328 209.832 110.427 197.705C119.497 186.815 131.833 178.439 145.16 174.124C161.821 168.731 179.617 169.428 198.055 176.194C216.054 182.801 228.893 191.328 241.307 199.574C258.186 210.784 272.767 220.467 295.909 222.116C331.999 224.689 344.16 226.967 347.961 231.864C350.107 234.63 349.548 238.162 348.779 243.052C347.873 248.798 346.633 256.666 349.471 267.237C350.265 270.19 350.061 272.511 348.849 274.333C345.976 278.652 337.872 279.554 327.611 280.693C306.567 283.032 277.745 286.233 270.87 321.721C268.376 334.599 261.267 342.456 249.13 345.744C244.795 346.919 239.878 347.508 234.219 347.508L234.215 347.515ZM153.742 230.057C165.471 230.057 171.984 231.907 174.565 235.629C177.565 239.962 174.931 246.541 171.632 253.001C168.471 259.196 163.774 266.127 159.232 272.828C149.161 287.685 138.746 303.048 144.156 311.593C156.24 330.679 185.95 339.92 208.744 344.31C234.514 349.272 264.821 351.184 270.54 321.66C273.603 305.837 281.219 294.982 293.822 288.475C304.596 282.913 317.337 281.498 327.573 280.359C337.749 279.227 345.783 278.336 348.572 274.146C349.724 272.411 349.914 270.183 349.148 267.33C346.288 256.688 347.535 248.776 348.449 243.002C349.208 238.198 349.752 234.731 347.697 232.079C343.967 227.272 331.862 225.023 295.884 222.461C272.655 220.805 258.045 211.1 241.125 199.865C228.725 191.629 215.9 183.11 197.939 176.521C148.596 158.412 118.671 188.331 110.676 197.932C100.665 209.954 96.0526 223.6 99.7094 230.384C101.487 233.682 105.091 235.029 110.135 234.289C129.234 231.476 143.485 230.06 153.742 230.06V230.057Z" fill="#41444A"/>
<path d="M235.458 343.125C228.317 343.125 219.83 342.054 209.707 339.927C178.784 333.428 158.53 322.968 149.513 308.841C144.282 300.645 153.654 286.327 162.717 272.479C166.813 266.22 171.053 259.746 173.849 253.965C177.737 245.934 178.422 241.375 176.213 238.227C171.78 231.907 153.939 231.404 116.56 236.553C111.48 237.25 107.841 235.845 106.036 232.482C102.544 225.986 106.517 213.648 115.703 202.477C124.158 192.194 135.866 184.253 148.673 180.121C164.691 174.955 181.956 175.537 199.983 181.86C217.617 188.044 230.281 196.114 242.526 203.914C258.779 214.269 272.82 223.216 294.353 224.89C328.184 227.52 339.593 229.762 343.194 234.483C345.242 237.175 344.665 240.588 343.868 245.316C342.986 250.53 341.781 257.669 343.886 267.079C344.476 269.724 344.202 271.826 343.046 273.5C340.197 277.628 332.434 278.555 322.609 279.727C302.548 282.119 275.075 285.4 268.38 319.084C266.708 327.499 262.91 333.758 257.097 337.685C251.722 341.318 244.721 343.118 235.458 343.118V343.125ZM156.029 232.683C167.582 232.683 173.961 234.455 176.473 238.037C179.304 242.072 177.021 248.148 174.133 254.108C171.323 259.908 167.083 266.393 162.98 272.659C153.974 286.417 144.665 300.645 149.78 308.657C158.751 322.71 178.932 333.119 209.77 339.6C232.933 344.469 247.475 343.793 256.918 337.412C262.738 333.478 266.384 327.463 268.064 319.02C274.804 285.102 302.411 281.807 322.57 279.4C332.318 278.235 340.015 277.316 342.783 273.309C343.882 271.714 344.142 269.702 343.57 267.151C341.451 257.676 342.663 250.501 343.548 245.259C344.332 240.613 344.901 237.257 342.937 234.685C339.449 230.107 327.636 227.804 294.325 225.217C272.714 223.536 258.646 214.575 242.354 204.194C230.123 196.401 217.473 188.342 199.875 182.173C161.491 168.714 131.352 183.948 115.945 202.689C106.844 213.759 102.885 225.943 106.313 232.324C108.052 235.558 111.579 236.905 116.514 236.226C133.628 233.869 146.562 232.68 156.025 232.68L156.029 232.683Z" fill="#41444A"/>
<path d="M236.143 338.741C227.741 338.741 218.699 337.038 210.721 335.198C182.128 328.616 163.426 318.757 155.14 305.897C150.208 298.244 158.477 285.065 166.475 272.317C170.128 266.493 173.908 260.467 176.353 255.081C179.694 247.723 180.206 243.533 178.127 240.612C173.883 234.659 157.894 234.041 122.935 238.478C117.961 239.11 114.399 237.702 112.636 234.407C109.432 228.421 112.878 217.229 121.021 207.19C128.85 197.532 139.926 190.041 152.203 186.103C167.568 181.173 184.292 181.651 201.908 187.519C219.201 193.278 231.706 200.895 243.804 208.257C259.408 217.757 272.879 225.96 292.796 227.656C321.355 230.088 332.669 232.517 336.034 236.937C337.917 239.409 337.418 242.495 336.786 246.397C335.946 251.585 334.903 258.038 338.286 266.884C338.293 266.902 338.296 266.924 338.296 266.945C338.058 276.036 328.24 277.304 315.812 278.907C297.496 281.271 272.412 284.504 265.885 316.439C264.206 324.656 260.679 330.434 255.101 334.106C249.927 337.508 243.263 338.734 236.146 338.734L236.143 338.741ZM158.227 235.28C169.651 235.28 175.921 236.98 178.38 240.429C180.537 243.454 180.031 247.737 176.637 255.214C174.182 260.618 170.399 266.651 166.739 272.486C158.796 285.148 150.58 298.241 155.403 305.721C163.644 318.512 182.279 328.325 210.795 334.889C225.471 338.27 243.755 341.202 254.936 333.844C260.44 330.222 263.925 324.509 265.587 316.378C268.502 302.114 275.219 292.283 286.115 286.333C295.49 281.213 306.267 279.823 315.776 278.598C328.046 277.013 337.741 275.763 337.994 266.971C334.591 258.056 335.687 251.291 336.487 246.347C337.106 242.52 337.597 239.495 335.795 237.131C332.49 232.79 321.232 230.394 292.775 227.972C272.788 226.269 259.285 218.048 243.653 208.53C231.573 201.176 219.082 193.573 201.82 187.82C164.269 175.309 135.588 189.728 121.266 207.391C113.205 217.337 109.769 228.382 112.917 234.256C114.613 237.429 118.07 238.78 122.91 238.165C138.019 236.247 149.604 235.277 158.238 235.277L158.227 235.28Z" fill="#41444A"/>
<path d="M236.997 334.444C228.981 334.444 220.087 332.59 211.747 330.477C185.114 323.73 168.443 314.729 160.781 302.958C156.152 295.848 163.321 283.804 170.255 272.156C173.466 266.766 176.782 261.19 178.868 256.206C181.668 249.516 182.012 245.69 180.052 242.991C176.044 237.476 161.347 236.732 129.318 240.415C124.439 240.976 120.951 239.564 119.229 236.333C116.265 230.768 119.145 220.93 126.395 211.854C139.673 195.233 166.988 181.605 203.84 193.192C220.828 198.531 233.755 206.019 245.16 212.623C260.075 221.261 272.957 228.716 291.24 230.434C317.551 232.902 327.99 235.27 331.145 239.488C332.919 241.859 332.42 244.781 331.784 248.478C330.987 253.134 329.993 258.93 332.701 266.73C332.708 266.752 332.711 266.777 332.708 266.799C331.745 274.908 322.546 276.194 310.897 277.825C292.572 280.387 269.76 283.578 263.395 313.809C261.73 321.71 258.365 327.182 253.11 330.538C248.666 333.377 243.084 334.444 236.997 334.444ZM160.318 237.85C171.674 237.85 177.864 239.477 180.287 242.812C182.318 245.607 181.988 249.523 179.139 256.325C177.042 261.33 173.719 266.913 170.504 272.314C163.62 283.88 156.496 295.841 161.024 302.793C168.643 314.496 185.258 323.457 211.818 330.186C226.434 333.891 242.751 336.797 252.955 330.283C258.14 326.974 261.463 321.563 263.11 313.745C265.956 300.235 272.359 290.882 282.694 285.155C291.592 280.222 301.831 278.788 310.862 277.527C322.37 275.918 331.461 274.649 332.416 266.799C329.698 258.944 330.699 253.113 331.5 248.427C332.121 244.802 332.61 241.942 330.916 239.671C327.818 235.529 317.431 233.19 291.216 230.732C272.865 229.011 259.959 221.537 245.016 212.886C233.066 205.965 220.708 198.812 203.752 193.48C167.041 181.935 139.838 195.503 126.62 212.045C119.444 221.027 116.577 230.728 119.486 236.19C121.144 239.305 124.533 240.659 129.283 240.117C142.347 238.615 152.544 237.85 160.318 237.85Z" fill="#41444A"/>
<path d="M237.65 330.19C230.056 330.19 221.372 328.167 212.766 325.753C195.979 321.046 175.538 313.863 166.412 300.016C162.081 293.444 168.162 282.536 174.038 271.983C176.796 267.032 179.648 261.909 181.377 257.324C183.614 251.377 183.793 247.792 181.967 245.345C178.18 240.261 164.772 239.391 135.694 242.348C130.899 242.833 127.474 241.418 125.795 238.245C123.118 233.19 125.538 224.434 131.812 216.453C143.963 201.004 169.77 188.266 205.765 198.859C222.486 203.781 235.307 210.802 246.615 217C260.796 224.768 273.041 231.476 289.684 233.208C313.448 235.676 323.361 238.069 326.262 242.043C327.927 244.321 327.418 247.08 326.775 250.573C326.016 254.694 325.071 259.825 327.116 266.572C327.123 266.597 327.123 266.623 327.116 266.648C325.458 273.776 316.89 275.073 306.043 276.715C288.701 279.342 267.115 282.611 260.901 311.172C259.25 318.757 256.05 323.924 251.118 326.963C247.356 329.281 242.747 330.194 237.65 330.194V330.19ZM162.541 240.343C173.807 240.343 179.764 241.913 182.191 245.172C184.57 248.367 183.249 253.16 181.64 257.432C179.905 262.038 177.049 267.169 174.284 272.131C168.45 282.608 162.415 293.441 166.648 299.861C175.721 313.63 196.102 320.783 212.84 325.48C227.168 329.497 241.704 332.428 250.974 326.716C255.839 323.719 258.997 318.613 260.627 311.108C263.406 298.342 269.507 289.456 279.287 283.948C287.717 279.198 297.433 277.729 306.004 276.428C316.729 274.804 325.201 273.521 326.838 266.615C324.787 259.817 325.739 254.661 326.501 250.515C327.13 247.091 327.629 244.385 326.041 242.208C323.196 238.31 313.332 235.949 289.66 233.488C272.964 231.752 260.694 225.03 246.488 217.248C235.191 211.057 222.388 204.043 205.692 199.132C169.83 188.575 144.128 201.248 132.033 216.63C125.83 224.52 123.424 233.15 126.044 238.105C127.663 241.166 130.994 242.535 135.665 242.061C146.857 240.922 155.684 240.34 162.541 240.34V240.343Z" fill="#41444A"/>
<path d="M238.163 325.986C231.429 325.986 223.272 323.995 213.788 321.027C197.703 316.001 180.168 309.221 172.05 297.076C168.021 291.051 173.016 281.267 177.842 271.807C180.147 267.294 182.528 262.627 183.888 258.448C185.616 253.145 185.612 249.922 183.888 247.676C180.248 242.948 168.526 241.996 142.072 244.277C136.097 244.795 133.484 242.308 132.342 240.135C129.918 235.518 131.857 227.997 137.288 220.977C143.221 213.306 152.347 207.277 162.987 203.996C176.314 199.889 191.359 200.065 207.697 204.521C224.214 209.026 236.965 215.591 248.213 221.386C261.596 228.281 273.156 234.235 288.131 235.974C309.696 238.475 318.709 240.81 321.39 244.59C322.939 246.778 322.415 249.383 321.748 252.678C321.024 256.256 320.129 260.708 321.53 266.407C321.537 266.435 321.534 266.464 321.527 266.489C319.215 272.63 310.901 273.991 301.276 275.569C284.882 278.253 264.48 281.594 258.41 308.527C256.77 315.8 253.735 320.657 249.129 323.381C246.049 325.199 242.385 325.986 238.159 325.986H238.163ZM164.29 242.822C175.696 242.822 181.654 244.328 184.098 247.504C185.89 249.832 185.904 253.127 184.144 258.531C182.778 262.731 180.389 267.409 178.081 271.933C173.29 281.321 168.333 291.029 172.271 296.922C180.343 308.998 197.826 315.753 213.865 320.765C229.237 325.569 241.096 327.815 248.999 323.144C253.538 320.463 256.531 315.663 258.154 308.466C260.869 296.423 266.679 287.997 275.921 282.708C283.902 278.138 293.112 276.632 301.237 275.299C310.76 273.74 318.987 272.393 321.263 266.432C319.858 260.694 320.761 256.22 321.488 252.624C322.141 249.394 322.654 246.843 321.172 244.752C318.544 241.044 309.58 238.737 288.1 236.247C273.076 234.504 261.498 228.54 248.09 221.634C236.852 215.846 224.115 209.285 207.627 204.787C172.626 195.244 148.451 206.978 137.495 221.146C132.131 228.08 130.203 235.482 132.577 240.005C134.162 243.02 137.435 244.403 142.048 244.004C151.079 243.225 158.406 242.822 164.287 242.822H164.29Z" fill="#41444A"/>
<path d="M238.247 321.861C231.394 321.861 223.241 319.271 214.804 316.306C200.784 311.38 185.195 305.197 177.681 294.137C173.954 288.655 177.871 279.995 181.661 271.62C183.502 267.549 185.406 263.342 186.396 259.569C187.626 254.895 187.446 252.027 185.799 249.976C182.332 245.657 171.861 244.601 148.448 246.207C143.832 246.523 140.429 245.032 138.855 242.007C136.691 237.839 138.205 231.483 142.814 225.421C148.104 218.458 156.57 212.954 166.644 209.928C179.262 206.138 193.724 206.224 209.622 210.191C226.02 214.279 238.757 220.405 249.997 225.809C262.499 231.82 273.297 237.012 286.576 238.748C305.713 241.245 314.108 243.602 316.521 247.155C317.955 249.264 317.396 251.718 316.69 254.83C316.002 257.852 315.148 261.614 315.945 266.256C315.949 266.284 315.945 266.317 315.931 266.342C313.019 271.494 305.425 272.838 296.625 274.394C281.134 277.132 261.86 280.538 255.92 305.894C254.29 312.853 251.42 317.406 247.145 319.809C244.556 321.265 241.553 321.865 238.247 321.865V321.861ZM165.731 245.24C177.449 245.24 183.491 246.692 185.996 249.811C187.699 251.934 187.893 254.873 186.642 259.634C185.644 263.428 183.737 267.646 181.893 271.728C178.134 280.035 174.249 288.626 177.892 293.987C185.363 304.978 200.907 311.143 214.888 316.055C227.337 320.431 239.161 323.992 247.022 319.572C251.23 317.208 254.062 312.71 255.674 305.825C261.653 280.301 281.022 276.88 296.583 274.128C305.295 272.59 312.819 271.261 315.689 266.245C314.895 261.57 315.756 257.798 316.444 254.762C317.136 251.715 317.684 249.311 316.314 247.295C313.947 243.814 305.6 241.486 286.544 238.999C273.227 237.26 262.411 232.061 249.892 226.039C238.665 220.639 225.939 214.52 209.566 210.438C193.71 206.486 179.293 206.396 166.718 210.176C156.693 213.187 148.276 218.659 143.018 225.579C138.472 231.562 136.965 237.81 139.083 241.884C140.604 244.813 143.924 246.253 148.434 245.944C155.238 245.477 160.957 245.237 165.734 245.237L165.731 245.24Z" fill="#41444A"/>
<path d="M238.265 317.765C231.984 317.765 224.277 314.955 215.825 311.578C202.431 306.228 189.866 300.641 183.319 291.195C179.894 286.258 182.746 278.716 185.507 271.422C186.877 267.797 188.296 264.05 188.911 260.694C189.656 256.63 189.297 254.104 187.71 252.239C184.376 248.319 175.159 247.173 154.831 248.143C150.236 248.363 146.867 246.843 145.339 243.86C143.474 240.217 144.647 234.824 148.406 229.787C153.057 223.553 160.848 218.602 170.35 215.842C182.24 212.389 196.105 212.397 211.554 215.857C227.962 219.532 240.773 225.238 252.073 230.268C263.563 235.385 273.487 239.804 285.023 241.518C302.038 244.047 309.51 246.35 311.677 249.731C312.987 251.776 312.366 254.093 311.582 257.029C310.897 259.598 310.117 262.512 310.363 266.098C310.363 266.13 310.356 266.162 310.335 266.187C306.914 270.355 300.078 271.652 292.16 273.151C277.505 275.928 259.264 279.388 253.433 303.253C251.806 309.903 249.101 314.15 245.16 316.231C243.126 317.305 240.815 317.769 238.265 317.769V317.765ZM166.7 247.568C179.016 247.568 185.247 248.966 187.892 252.074C189.533 254.004 189.909 256.594 189.15 260.737C188.532 264.114 187.109 267.876 185.735 271.512C182.999 278.745 180.171 286.226 183.519 291.055C190.032 300.447 202.561 306.012 215.917 311.351C227.741 316.076 238.096 319.687 245.051 316.012C248.926 313.964 251.592 309.771 253.201 303.192C259.071 279.173 277.393 275.698 292.118 272.906C299.966 271.419 306.749 270.133 310.121 266.062C309.882 262.458 310.662 259.54 311.35 256.961C312.12 254.086 312.724 251.815 311.477 249.861C309.355 246.548 301.929 244.277 284.991 241.759C273.424 240.038 263.486 235.615 251.982 230.491C240.688 225.464 227.892 219.762 211.508 216.094C196.098 212.641 182.275 212.634 170.42 216.076C160.967 218.821 153.222 223.74 148.602 229.93C144.9 234.892 143.734 240.185 145.557 243.742C147.039 246.631 150.327 248.104 154.823 247.892C159.302 247.68 163.243 247.568 166.707 247.568H166.7Z" fill="#41444A"/>
<path d="M237.963 313.778C232.406 313.778 225.426 310.813 216.844 306.857L216.384 306.645C206.369 302.032 195.02 296.801 188.953 288.26C185.837 283.873 187.636 277.441 189.378 271.222C190.267 268.046 191.187 264.758 191.423 261.823C191.697 258.388 191.131 256.11 189.596 254.443C186.347 250.914 178.387 249.693 161.21 250.077C156.601 250.185 153.25 248.618 151.775 245.683C150.187 242.525 151.04 238.177 154.058 234.056C158.069 228.58 165.186 224.204 174.105 221.736C185.251 218.649 198.501 218.581 213.49 221.527C230.112 224.797 243.126 230.111 254.606 234.803C264.456 238.827 273.761 242.629 283.473 244.296C298.227 246.829 304.999 249.165 306.858 252.348C308.027 254.356 307.293 256.559 306.362 259.347C305.723 261.266 304.996 263.44 304.782 265.955C304.782 265.987 304.764 266.016 304.74 266.034C300.953 269.221 294.943 270.428 287.984 271.829C274.049 274.632 256.707 278.121 250.946 300.62C249.319 306.965 246.776 310.907 243.172 312.671C241.598 313.44 239.867 313.785 237.97 313.785L237.963 313.778ZM166.809 249.772C180.235 249.772 186.835 251.112 189.754 254.277C191.338 255.998 191.921 258.33 191.644 261.837C191.409 264.798 190.485 268.092 189.592 271.279C187.868 277.445 186.08 283.823 189.132 288.116C195.164 296.607 206.485 301.824 216.472 306.426L216.932 306.638C228.387 311.92 236.965 315.427 243.06 312.448C246.6 310.716 249.105 306.825 250.71 300.548C256.506 277.909 273.926 274.402 287.924 271.588C294.83 270.198 300.795 268.998 304.543 265.876C304.764 263.353 305.488 261.18 306.131 259.261C307.044 256.53 307.764 254.374 306.647 252.459C304.831 249.341 298.101 247.041 283.421 244.519C273.684 242.844 264.368 239.039 254.508 235.012C243.035 230.326 230.031 225.012 213.433 221.75C198.48 218.811 185.261 218.879 174.151 221.955C165.284 224.409 158.206 228.753 154.226 234.189C151.262 238.238 150.415 242.492 151.964 245.572C153.397 248.424 156.675 249.941 161.192 249.84C163.184 249.797 165.053 249.772 166.802 249.772H166.809Z" fill="#41444A"/>
<path d="M237.401 309.847C232.068 309.847 225.377 306.211 217.859 302.13C217.332 301.842 216.802 301.555 216.265 301.267C208.508 297.074 199.713 292.321 194.584 285.318C191.777 281.488 192.543 276.166 193.284 271.018C193.678 268.287 194.082 265.463 193.927 262.951C193.414 254.655 187.506 252.201 167.578 252.004C162.97 251.957 159.531 250.297 158.14 247.448C156.847 244.8 157.433 241.426 159.759 238.199C163.135 233.51 169.577 229.741 177.899 227.589C188.279 224.905 200.9 224.769 215.411 227.187C232.627 230.057 246.063 235.048 257.918 239.453C266.275 242.558 274.168 245.493 281.914 247.06C294.556 249.618 300.584 252 302.066 255.022C303.067 257.059 302.024 259.29 300.819 261.877C300.247 263.109 299.653 264.385 299.179 265.801C299.172 265.826 299.154 265.847 299.13 265.862C295.216 268.079 289.916 269.182 284.302 270.353C270.195 273.292 254.205 276.623 248.448 297.969C246.815 304.019 244.433 307.659 241.156 309.104C239.996 309.614 238.742 309.844 237.401 309.844V309.847ZM196.094 225.688C189.459 225.688 183.396 226.393 177.951 227.801C169.679 229.942 163.279 233.683 159.935 238.329C157.662 241.487 157.079 244.774 158.336 247.347C159.692 250.121 163.061 251.734 167.585 251.781C187.667 251.978 193.625 254.479 194.148 262.933C194.303 265.47 193.896 268.305 193.502 271.046C192.768 276.148 192.009 281.427 194.76 285.185C199.86 292.148 208.631 296.887 216.37 301.07C216.907 301.361 217.441 301.648 217.965 301.932C227.319 307.012 235.398 311.403 241.071 308.902C244.282 307.487 246.628 303.894 248.241 297.911C250.823 288.343 255.73 281.516 263.247 277.047C269.798 273.148 277.481 271.549 284.26 270.137C289.838 268.973 295.111 267.877 298.989 265.689C299.463 264.274 300.053 263.009 300.626 261.78C301.856 259.143 302.825 257.059 301.873 255.119C300.422 252.165 294.44 249.819 281.872 247.275C274.112 245.705 266.212 242.77 257.845 239.662C246 235.26 232.571 230.269 215.376 227.402C208.512 226.26 202.073 225.685 196.094 225.685V225.688Z" fill="#41444A"/>
<path d="M236.568 306.024C231.918 306.024 226.072 302.158 218.97 297.465L218.878 297.404C218.204 296.959 217.515 296.506 216.813 296.05C211.045 292.277 204.504 288.005 200.219 282.378C197.746 279.134 197.503 274.93 197.272 270.87C197.135 268.463 197.005 266.188 196.446 264.083C194.623 257.22 189.161 254.755 173.958 253.933C169.212 253.677 165.745 251.931 164.445 249.15C163.462 247.045 163.848 244.58 165.531 242.209C168.278 238.339 174.042 235.213 181.759 233.406C191.342 231.16 203.313 230.977 217.34 232.852C235.978 235.35 250.268 240.175 262.872 244.429C269.065 246.52 274.917 248.496 280.358 249.829C291.149 252.477 296.383 254.953 297.331 257.863C298.069 260.127 296.214 262.408 294.068 265.053C293.907 265.254 293.741 265.455 293.576 265.66C293.566 265.674 293.548 265.685 293.531 265.692C289.972 266.968 285.929 267.791 281.647 268.664C267.681 271.513 251.845 274.74 245.954 295.328C244.303 301.094 242.066 304.443 239.112 305.568C238.307 305.873 237.461 306.017 236.568 306.017V306.024ZM199.492 231.778C192.923 231.778 187.011 232.389 181.805 233.607C174.133 235.403 168.415 238.501 165.696 242.331C164.059 244.637 163.679 247.027 164.628 249.06C165.892 251.773 169.296 253.476 173.968 253.728C189.28 254.554 194.792 257.058 196.643 264.029C197.205 266.152 197.345 268.545 197.475 270.856C197.707 274.887 197.946 279.055 200.38 282.249C204.645 287.847 211.168 292.112 216.925 295.874C217.624 296.33 218.316 296.783 218.991 297.228L219.082 297.289C227.499 302.851 234.145 307.246 239.045 305.381C241.936 304.281 244.135 300.976 245.765 295.277C251.691 274.567 267.586 271.326 281.609 268.47C285.873 267.6 289.899 266.781 293.439 265.516C293.597 265.319 293.759 265.125 293.914 264.931C296.021 262.333 297.841 260.091 297.142 257.939C296.221 255.104 291.03 252.668 280.312 250.041C274.864 248.705 269.008 246.729 262.808 244.634C250.212 240.38 235.933 235.558 217.312 233.064C210.936 232.209 204.982 231.782 199.488 231.782L199.492 231.778Z" fill="#41444A"/>
<path d="M235.451 302.301C231.225 302.301 225.928 297.799 219.897 292.675C219.272 292.143 218.629 291.604 217.975 291.055C213.957 287.677 209.401 283.851 205.857 279.442C203.798 276.88 202.656 273.898 201.55 271.013C200.763 268.954 200.018 267.01 198.968 265.221C195.768 259.767 190.545 257.144 180.33 255.865C173.979 255.071 169.971 252.124 170.35 248.539C170.722 245.035 175.071 241.902 182.276 239.941C191.198 237.512 203.991 237.023 219.268 238.518C242.062 240.749 259.626 246.43 272.451 250.576C274.692 251.302 276.807 251.984 278.805 252.606C287.724 255.376 292.652 258.473 292.681 261.333C292.698 263.011 291.015 264.499 287.945 265.523C284.201 266.77 280.168 267.65 276.266 268.498C262.886 271.415 249.053 274.43 243.464 292.693C241.778 298.201 239.66 301.273 236.99 302.078C236.495 302.229 235.978 302.297 235.448 302.297L235.451 302.301ZM203.046 237.857C180.337 237.857 171.053 243.756 170.543 248.557C170.174 252.031 174.116 254.888 180.358 255.671C190.636 256.957 195.898 259.605 199.133 265.117C200.191 266.917 200.939 268.868 201.729 270.937C202.829 273.808 203.967 276.776 206.004 279.316C209.534 283.711 214.083 287.534 218.098 290.904C218.752 291.454 219.395 291.992 220.02 292.524C226.764 298.255 232.592 303.206 236.941 301.895C239.547 301.108 241.623 298.079 243.288 292.636C248.908 274.265 262.801 271.236 276.23 268.307C280.126 267.459 284.155 266.579 287.889 265.336C290.875 264.341 292.512 262.921 292.494 261.333C292.48 259.731 290.671 256.49 278.753 252.789C276.754 252.168 274.636 251.485 272.395 250.759C259.577 246.616 242.024 240.939 219.251 238.708C213.223 238.119 207.834 237.857 203.046 237.857Z" fill="#41444A"/>
<path d="M233.916 298.712C230.094 298.712 225.58 293.628 220.911 287.943C220.019 286.858 219.117 285.737 218.158 284.555C209.875 274.308 199.568 261.556 186.698 257.795C180.199 255.894 176.433 253.073 176.872 250.432C177.15 248.758 179.23 246.451 187.569 244.989C195.406 243.613 206.72 243.343 221.2 244.184C242.775 245.442 263.732 249.624 277.259 255.376C284.049 258.265 287.906 261.168 287.583 263.148C287.379 264.388 285.567 265.149 282.346 265.351C264.483 266.468 247.882 269.195 240.976 290.053C239.223 295.352 237.168 298.158 234.695 298.636C234.439 298.687 234.183 298.708 233.919 298.708L233.916 298.712ZM206.169 243.89C185.784 243.89 177.61 247.051 177.045 250.461C176.63 252.966 180.438 255.775 186.747 257.619C199.667 261.395 209.994 274.171 218.291 284.437C219.246 285.619 220.153 286.736 221.045 287.825C226.001 293.858 230.772 299.211 234.66 298.46C237.067 297.997 239.076 295.226 240.808 289.995C247.745 269.03 264.41 266.288 282.331 265.171C285.465 264.977 287.218 264.266 287.407 263.119C287.713 261.258 283.8 258.355 277.192 255.545C263.682 249.8 242.747 245.621 221.189 244.364C215.579 244.037 210.588 243.89 206.172 243.89H206.169Z" fill="#41444A"/>
</g>
</svg>
