<svg width="694" height="346" viewBox="0 0 694 346" fill="none" xmlns="http://www.w3.org/2000/svg">
<path opacity="0.15" d="M175.592 117.595C171.709 100.081 124.062 117.595 116.121 98.6662C105.709 74.2528 155.474 80.6216 162.004 70.7147C176.121 49.4857 113.122 7.73521 158.298 0.305047C178.416 -3.05622 185.651 22.2416 196.062 32.8562C213.886 50.7239 222.004 59.3925 248.121 65.4074C293.474 75.845 356.827 59.3925 399.18 73.0145C424.239 80.9754 420.533 95.4819 400.415 102.204C388.239 106.273 375.003 110.873 373.062 118.834C365.65 149.616 482.827 136.878 492.003 136.525C541.944 134.932 594.885 130.333 644.827 133.694C700.944 137.586 715.944 187.297 653.121 197.381C641.474 199.327 616.415 200.035 600.886 204.988C586.768 209.588 582.709 226.394 600.003 233.824C615.533 240.37 637.768 231.878 651.533 249.039C660.356 259.83 657.885 272.567 638.827 280.174C614.474 289.728 561.886 255.584 545.827 279.467C542.65 284.243 546.533 295.212 559.592 307.418C595.415 340.854 476.298 346.338 451.062 345.984C430.768 345.631 330.003 347.4 322.768 331.301C315.709 315.733 345.533 322.456 341.121 304.942C336.533 286.543 294.004 293.443 283.415 293.796C258.18 294.327 157.416 309.364 145.592 272.39C135.357 240.37 172.945 241.255 202.062 236.301C215.121 234.001 231.357 230.994 231.004 222.679C230.651 216.31 212.827 215.072 201.533 214.187C122.298 208.88 -13.5845 267.614 -45.3491 192.782C-88.2314 91.5898 179.651 137.763 175.239 117.419L175.592 117.595ZM204.533 87.6979C216.357 94.0667 232.768 100.258 252.004 100.258C263.298 100.258 274.768 99.7277 286.239 99.3738C297.18 99.02 307.945 98.4894 318.533 98.4894C329.827 98.4894 343.945 94.5973 347.298 100.081C350.651 105.566 323.827 112.642 320.65 125.733C318.356 135.109 320.474 144.309 326.474 151.739C337.768 165.538 361.415 171.553 405.357 171.553C427.945 171.553 450.356 169.96 461.121 169.076C463.944 168.899 465.886 168.722 466.768 168.722C481.062 168.368 495.709 167.661 510.356 166.953C535.238 165.891 561.003 164.653 585.885 164.653C600.356 164.653 613.239 165.007 625.415 165.892C645.533 167.13 646.944 169.784 657.18 174.206C667.415 178.629 674.297 175.975 674.297 167.484C674.297 157.4 664.945 155.1 643.592 153.685C632.121 152.977 619.768 152.446 606.003 152.446C582.356 152.446 557.827 153.685 534.18 154.746C520.239 155.454 506.474 155.985 492.709 156.515C491.827 156.515 489.886 156.692 487.415 156.869C477.18 157.754 455.827 159.346 434.474 159.346C392.651 159.346 370.239 153.508 359.474 139.886C353.651 132.633 351.709 123.433 354.004 114.234C357.18 101.143 382.592 94.4205 379.415 88.9363C376.239 83.4521 362.827 87.3441 352.062 87.3441C342.003 87.3441 331.768 87.6979 321.356 88.2287C310.415 88.7594 299.474 89.1131 288.709 89.1131C270.533 89.1131 256.239 87.8748 243.886 84.8673C228.003 81.3292 211.592 70.7146 199.415 61.3385C193.415 56.7388 184.239 60.4539 183.886 68.2379C183.533 75.845 195.533 82.9213 204.709 87.8748L204.533 87.6979Z" fill="#A3DAF7"/>
</svg>
