<svg width="137" height="303" viewBox="0 0 137 303" fill="none" xmlns="http://www.w3.org/2000/svg">
<g clip-path="url(#clip0_456_3210)">
<g opacity="0.15">
<path d="M-250.328 610.516L-251.693 610.752C-267.383 521.513 -241.717 432.367 -184.731 378.092C-161.176 355.654 -132.553 338.964 -104.873 322.821C-91.8276 315.218 -78.3556 307.35 -65.5647 298.986C17.6791 244.52 80.7523 162.52 112.013 68.0902C119.308 46.0419 124.965 23.048 130.419 0.828347C137.58 -28.3178 144.987 -58.4601 156.204 -86.8315C166.804 -113.655 181.188 -137.789 197.8 -156.641C217.082 -178.516 239.138 -193.351 263.329 -200.726L263.728 -199.396C237.604 -191.433 189.045 -166.138 157.507 -86.3123C146.321 -58.0158 138.942 -27.9289 131.787 1.17834C126.319 23.4257 120.668 46.4502 113.345 68.5539C81.9906 163.277 18.719 245.546 -64.7979 300.18C-77.611 308.562 -91.1136 316.435 -104.171 324.046C-131.794 340.148 -160.343 356.799 -183.78 379.115C-240.42 433.064 -265.937 521.736 -250.328 610.516Z" fill="white"/>
<path d="M-249.047 613.821L-250.423 614.066C-263.458 541.071 -247.641 465.318 -208.107 411.436C-201.084 401.856 -193.269 392.899 -184.886 384.8C-161.695 362.408 -133.482 345.608 -106.205 329.366C-93.6543 321.889 -80.6803 314.166 -68.3543 305.991C-58.5169 299.475 -48.8022 292.445 -39.4695 285.111C28.3664 231.785 80.3418 158.518 106.876 78.8306C114.601 55.6146 120.395 31.3602 125.998 7.92168C132.523 -19.402 139.266 -47.6664 149.116 -74.3128C158.904 -100.809 172.166 -124.681 187.502 -143.363C205.264 -165.025 225.6 -179.845 247.93 -187.393L248.371 -186.078C224.263 -177.917 179.488 -152.493 150.414 -73.8242C140.606 -47.2611 133.86 -19.0466 127.35 8.24938C121.74 31.7268 115.944 56.0006 108.199 79.2832C81.5859 159.237 29.4484 232.729 -38.5911 286.223C-47.9573 293.582 -57.6943 300.629 -67.5652 307.169C-79.9135 315.361 -92.9098 323.1 -105.46 330.577C-132.673 346.789 -160.808 363.531 -183.885 385.82C-192.21 393.859 -199.977 402.764 -206.961 412.28C-246.299 465.843 -262.016 541.193 -249.047 613.821Z" fill="white"/>
<path d="M-247.771 617.127L-249.139 617.383C-262.1 545.908 -246.625 471.326 -207.737 417.855C-200.862 408.402 -193.231 399.547 -185.037 391.519C-162.196 369.145 -134.394 352.235 -107.505 335.866C-95.4637 328.543 -83.007 320.963 -71.1459 312.978C-61.5115 306.492 -51.9777 299.544 -42.826 292.292C24.4037 239.106 75.734 167.114 101.697 89.5464C109.895 65.0795 115.809 39.4728 121.53 14.7014C127.395 -10.7138 133.468 -36.9921 141.975 -61.8105C168.782 -139.85 210.187 -165.64 232.488 -174.067L232.971 -172.765C210.912 -164.432 169.909 -138.87 143.307 -61.3468C134.811 -36.6061 128.752 -10.3556 122.892 15.0208C117.168 39.8116 111.249 65.4572 103.02 89.999C76.9616 167.81 25.4856 240.049 -41.9559 293.393C-51.1382 300.65 -60.6972 307.634 -70.365 314.145C-82.2568 322.135 -94.7246 329.724 -106.777 337.055C-133.599 353.375 -161.326 370.246 -184.061 392.506C-192.207 400.482 -199.791 409.284 -206.616 418.665C-245.291 471.839 -260.678 546.027 -247.771 617.127Z" fill="white"/>
<path d="M-246.491 620.432L-247.859 620.687C-260.749 550.752 -245.613 477.321 -207.372 424.262C-200.656 414.944 -193.197 406.183 -185.173 398.229C-162.671 375.865 -135.265 358.817 -108.768 342.341C-97.2357 335.171 -85.3188 327.75 -73.9282 319.994C-64.4773 313.54 -55.1411 306.653 -46.1537 299.506C20.4807 246.451 71.1608 175.703 96.5664 100.297C105.282 74.477 111.286 47.3846 117.097 21.1969C122.278 -2.20445 127.646 -26.4023 134.884 -49.2731C145.327 -82.2948 169.887 -140.67 217.066 -160.718L217.601 -159.438C170.941 -139.602 146.58 -81.6341 136.201 -48.851C128.992 -26.0357 123.618 -1.86844 118.443 21.494C112.626 47.7206 106.608 74.8408 97.8618 100.736C72.3773 176.408 21.535 247.38 -45.3114 300.593C-54.3127 307.768 -63.6824 314.68 -73.1639 321.138C-84.5685 328.923 -96.5049 336.341 -108.048 343.519C-134.482 359.965 -161.821 376.963 -184.216 399.214C-192.173 407.118 -199.593 415.815 -206.262 425.08C-244.279 477.835 -259.316 550.863 -246.491 620.432Z" fill="white"/>
<path d="M-245.219 623.725L-246.587 623.981C-259.406 555.584 -244.609 483.305 -207.006 430.668C-200.438 421.478 -193.143 412.821 -185.328 404.936C-163.154 382.573 -136.134 365.38 -110.003 348.761C-99.0016 341.761 -87.619 334.529 -76.7268 326.987C-67.4594 320.566 -58.3012 313.742 -49.5172 306.695C17.4815 252.988 66.2164 185.33 91.3808 111.02C100.642 83.7214 106.723 55.032 112.605 27.2863C117.101 6.03775 121.753 -15.9324 127.764 -36.7498C137.161 -69.2702 159.247 -126.898 201.624 -147.373L202.224 -146.124C160.318 -125.877 138.422 -68.6679 129.096 -36.3555C123.102 -15.5852 118.455 6.346 113.962 27.5751C108.074 55.3597 101.996 84.0991 92.7039 111.473C67.4328 186.035 18.5551 253.92 -48.6471 307.795C-57.4646 314.868 -66.6451 321.709 -75.9347 328.146C-86.8382 335.696 -98.2319 342.936 -109.255 349.953C-135.32 366.522 -162.273 383.666 -184.343 405.935C-192.112 413.767 -199.347 422.363 -205.876 431.489C-243.255 483.821 -257.973 555.695 -245.219 623.725Z" fill="white"/>
<path d="M-243.94 627.031L-245.308 627.286C-258.045 560.42 -243.589 489.312 -206.63 437.067C-200.221 428.012 -193.099 419.45 -185.473 411.636C-163.61 389.227 -136.956 371.891 -111.18 355.12C-100.713 348.31 -89.8954 341.273 -79.5154 333.973C-70.4427 327.593 -61.4738 320.841 -52.8512 313.879C13.5551 260.284 61.6538 193.842 86.2439 121.741C96.1209 92.8257 102.224 62.3725 108.119 32.9212C111.91 13.9615 115.835 -5.63379 120.674 -24.2309C129.027 -56.2695 148.648 -113.137 186.213 -134.033L186.888 -132.821C149.777 -112.177 130.313 -55.7031 122.023 -23.8838C117.178 -5.31724 113.276 14.2615 109.479 33.1906C103.578 62.6807 97.4778 93.184 87.5588 122.183C62.8924 194.53 14.6316 261.196 -51.9783 314.96C-60.6232 321.939 -69.6144 328.708 -78.7094 335.104C-89.1005 342.412 -99.9405 349.466 -110.407 356.276C-136.128 373.005 -162.718 390.311 -184.464 412.598C-192.042 420.359 -199.116 428.87 -205.487 437.861C-242.244 489.817 -256.612 560.532 -243.94 627.031Z" fill="white"/>
<path d="M-242.662 630.337L-244.021 630.604C-256.688 565.277 -242.571 495.32 -206.259 443.487C-200.008 434.568 -193.059 426.098 -185.622 418.356C-164.062 395.913 -137.757 378.386 -112.302 361.439C-102.392 354.835 -92.1421 348.013 -82.3079 340.98C-73.4187 334.633 -64.6362 327.932 -56.2086 321.08C9.61944 267.569 57.0901 202.356 81.0755 132.469C91.6414 101.778 97.6866 69.3611 103.532 38.0264C106.609 21.5526 109.78 4.50707 113.545 -11.7166C120.864 -43.2816 138.012 -99.4012 170.741 -120.699L171.503 -119.535C147.549 -103.946 127.446 -65.5439 114.899 -11.4084C111.148 4.78761 107.972 21.8026 104.895 38.2763C99.041 69.6694 92.9706 102.123 82.3792 132.919C58.3094 203.041 10.6959 268.482 -55.344 322.151C-63.805 329.027 -72.5986 335.736 -81.5213 342.108C-91.3861 349.146 -101.639 355.988 -111.557 362.581C-136.937 379.49 -163.186 396.975 -184.64 419.305C-192.041 427.003 -198.939 435.4 -205.143 444.266C-241.234 495.815 -255.252 565.369 -242.662 630.337Z" fill="white"/>
<path d="M-241.39 633.631L-242.75 633.897C-255.327 570.113 -241.559 501.315 -205.902 449.882C-199.799 441.09 -193.026 432.734 -185.786 425.052C-164.512 402.527 -138.526 384.805 -113.389 367.662C-104.061 361.3 -94.4122 354.716 -85.1155 347.962C-76.4098 341.648 -67.8166 335.019 -59.5617 328.26C5.69928 274.825 52.5531 210.831 75.9085 143.195C87.2366 110.501 93.164 75.9225 98.8751 42.4733C101.228 28.6828 103.669 14.4287 106.425 0.806446C112.711 -30.2849 127.428 -85.6699 155.296 -107.335L156.147 -106.237C128.638 -84.8567 114.042 -29.8212 107.793 1.08699C105.041 14.6898 102.611 28.9356 100.249 42.7149C94.5101 76.2196 88.5935 110.86 77.2205 143.655C53.7695 211.536 6.77293 275.757 -58.6805 329.353C-66.9577 336.128 -75.5732 342.773 -84.3012 349.105C-93.609 355.867 -103.269 362.458 -112.608 368.829C-137.678 385.922 -163.6 403.614 -184.768 426.026C-191.969 433.644 -198.694 441.947 -204.761 450.695C-240.203 501.812 -253.902 570.213 -241.39 633.631Z" fill="white"/>
<path d="M-240.111 636.935L-241.471 637.202C-253.966 574.948 -240.529 507.313 -205.537 456.288C-199.594 447.632 -192.993 439.37 -185.935 431.77C-164.932 409.136 -139.239 391.182 -114.388 373.818C-105.664 367.715 -96.6218 361.41 -87.9072 354.967C-79.3822 348.666 -70.9782 342.108 -62.9071 335.452C1.78962 282.072 48.0154 219.306 70.752 153.912C82.9379 118.972 88.621 81.9453 94.0958 46.1284C95.7545 35.2934 97.4788 24.0809 99.3261 13.3133C110.991 -54.4925 127.807 -82.4579 139.843 -93.9814L140.797 -92.9775C128.911 -81.6006 112.292 -53.8845 100.692 13.5438C98.8475 24.292 97.1343 35.4962 95.4673 46.3201C89.9728 82.2035 84.3005 119.292 72.0586 154.342C49.2375 219.972 2.86071 282.954 -62.0285 336.494C-70.1107 343.159 -78.5481 349.741 -87.0843 356.051C-95.8183 362.491 -104.852 368.807 -113.587 374.919C-138.371 392.232 -164 410.156 -184.908 432.686C-191.93 440.241 -198.483 448.45 -204.38 457.054C-239.184 507.819 -252.542 575.048 -240.111 636.935Z" fill="white"/>
<path d="M-238.831 640.242L-240.194 640.528C-252.599 579.816 -239.503 513.352 -205.174 462.716C-199.378 454.187 -192.962 446.027 -186.081 438.491C-165.314 415.702 -139.892 397.5 -115.301 379.88C-107.198 374.082 -98.816 368.077 -90.7086 361.982C-82.3671 355.713 -74.1412 349.219 -66.2652 342.673C-1.19281 288.564 43.1694 228.671 65.5912 164.67C78.7835 127.148 84.0351 87.3279 89.1222 48.8233C90.1213 41.2468 91.1465 33.4259 92.2122 25.8691C97.4225 -11.0488 107.231 -59.4816 124.39 -80.5566L125.472 -79.6827C108.529 -58.8541 98.7877 -10.6794 93.6032 26.0636C92.5375 33.6204 91.504 41.4302 90.505 49.0067C85.4175 87.5807 80.1462 127.468 66.9032 165.131C44.4052 229.379 -0.10513 289.468 -65.3699 343.738C-73.2683 350.3 -81.5082 356.822 -89.8692 363.088C-97.9876 369.192 -106.381 375.205 -114.495 381.011C-139.031 398.589 -164.397 416.751 -185.069 439.434C-191.894 446.928 -198.29 455.022 -204.039 463.498C-238.152 513.819 -251.171 579.897 -238.831 640.242Z" fill="white"/>
<path d="M-237.56 643.535L-238.923 643.821C-251.238 584.651 -238.481 519.339 -204.798 469.114C-199.17 460.709 -192.909 452.665 -186.226 445.189C-165.681 422.22 -140.468 403.688 -116.095 385.798C-108.647 380.331 -100.953 374.682 -93.497 368.967C-85.3167 362.714 -77.2801 356.291 -69.6073 349.845C-5.07399 295.756 38.6771 237.044 60.4269 175.376C74.7778 134.848 79.383 91.8055 83.8289 50.1789C84.2556 46.2112 84.6766 42.2823 85.0947 38.3729C90.9049 -14.7177 98.926 -50.2298 108.912 -67.1672L110.109 -66.4652C100.218 -49.7024 92.2647 -14.3789 86.4832 38.5174C86.0568 42.4157 85.6329 46.364 85.2173 50.3234C80.76 92.0278 76.1433 135.148 61.7389 175.837C39.8935 237.749 -3.99459 296.649 -68.7204 350.898C-76.4126 357.342 -84.4632 363.793 -92.6547 370.054C-100.13 375.766 -107.835 381.423 -115.275 386.901C-139.595 404.77 -164.738 423.232 -185.2 446.104C-191.835 453.528 -198.048 461.519 -203.649 469.869C-237.122 519.817 -249.799 584.724 -237.56 643.535Z" fill="white"/>
<path d="M-236.278 646.839L-237.641 647.126C-249.857 589.509 -237.45 525.356 -204.431 475.52C-198.953 467.262 -192.885 459.309 -186.38 451.896C-166.005 428.673 -140.983 409.816 -116.775 391.564C-110.04 386.489 -103.07 381.239 -96.2829 375.953C-88.2861 369.732 -80.4359 363.361 -72.9498 357.036C-8.04339 302.168 33.8944 246.257 55.2816 186.105C71.0271 141.98 74.743 93.5945 78.0159 50.902C82.1394 -2.73435 87.2012 -36.964 93.4881 -53.7302L94.7861 -53.2417C88.547 -36.5974 83.5052 -2.5038 79.3906 51.0048C76.1063 93.775 72.3955 142.26 56.5853 186.555C35.1137 246.943 -6.95283 303.053 -72.0517 358.081C-79.5489 364.415 -87.4215 370.802 -95.4294 377.031C-102.216 382.318 -109.186 387.567 -115.933 392.651C-140.085 410.861 -165.051 429.677 -185.331 452.795C-191.788 460.155 -197.829 468.053 -203.27 476.267C-236.088 525.815 -248.427 589.571 -236.278 646.839Z" fill="white"/>
<path d="M-235.001 650.145L-236.355 650.442C-248.481 594.368 -236.405 531.377 -204.06 481.939C-198.741 473.816 -192.837 465.967 -186.521 458.626C-166.29 435.094 -141.374 415.815 -117.278 397.179C-111.295 392.559 -105.108 387.77 -99.0677 382.969C-91.2181 376.737 -83.5571 370.438 -76.2883 364.239C-11.9012 309.325 29.4478 254.578 50.1321 196.834C65.876 153.056 69.1123 105.027 70.9132 63.4288C72.8664 18.3087 74.7717 -20.6337 78.0574 -40.2733L79.4233 -40.0427C76.149 -20.4809 74.2606 18.4144 72.2936 63.4928C70.4896 105.18 67.2443 153.337 51.4329 197.303C30.667 255.264 -10.8218 310.218 -75.3902 365.285C-82.6701 371.491 -90.3534 377.807 -98.2142 384.048C-104.262 388.837 -110.449 393.626 -116.436 398.266C-140.476 416.86 -165.336 436.098 -185.472 459.525C-191.752 466.822 -197.608 474.618 -202.902 482.704C-235.051 531.824 -247.051 594.429 -235.001 650.145Z" fill="white"/>
<path d="M-233.73 653.441L-235.085 653.738C-247.102 599.208 -235.375 537.378 -203.704 488.336C-198.533 480.341 -192.813 472.594 -186.686 465.325C-166.545 441.392 -141.657 421.632 -117.601 402.524C-112.35 398.362 -107.097 394.18 -101.876 389.954C-94.1879 383.738 -86.705 377.502 -79.6424 371.422C-14.8653 315.681 24.7294 263.606 44.9641 207.562C60.909 163.566 63.4304 116.345 63.8004 75.9658C64.2439 27.4868 63.0203 -14.9434 62.6444 -26.7922L64.031 -26.8366C64.4151 -14.9766 65.6441 27.4841 65.1978 75.9826C64.83 116.481 62.2968 163.849 46.2732 208.043C25.9429 264.33 -13.7776 316.586 -78.736 372.478C-85.8098 378.567 -93.2927 384.803 -101.003 391.036C-106.224 395.262 -111.486 399.432 -116.739 403.614C-140.74 422.68 -165.56 442.391 -185.618 466.226C-191.708 473.452 -197.392 481.154 -202.527 489.105C-234.013 537.836 -245.671 599.27 -233.73 653.441Z" fill="white"/>
<path d="M-232.451 656.744L-233.805 657.041C-245.716 604.076 -234.328 543.397 -203.339 494.742C-198.327 486.882 -192.782 479.248 -186.842 472.031C-166.712 447.571 -141.78 427.241 -117.652 407.578C-113.318 404.045 -108.985 400.513 -104.676 396.947C-97.09 390.686 -89.7963 384.521 -83.0067 378.61C1.45801 305.243 27.5281 251.974 39.7887 218.276C52.6987 182.936 58.0707 141.694 56.6719 88.477C55.5789 46.6418 51.9753 7.62423 47.238 -13.3534L48.5924 -13.6507C53.3459 7.41869 56.9741 46.5391 58.0556 88.452C59.448 141.847 54.0613 183.256 41.0867 218.764C28.7671 252.592 2.60433 306.087 -82.1003 379.666C-88.9094 385.575 -96.2059 391.759 -103.803 398.028C-108.112 401.594 -112.457 405.135 -116.779 408.659C-140.852 428.281 -165.728 448.569 -185.771 472.913C-191.675 480.086 -197.194 487.683 -202.178 495.488C-232.954 543.847 -244.282 604.118 -232.451 656.744Z" fill="white"/>
<path d="M-231.179 660.039L-232.536 660.355C-244.511 608.165 -233.733 550.136 -202.976 501.169C-198.123 493.444 -192.751 485.905 -187 478.758C-166.803 453.643 -141.668 432.609 -117.37 412.265C-114.073 409.504 -110.777 406.742 -107.488 403.969C-99.8795 397.553 -92.9675 391.62 -86.3646 385.83C-3.45312 313.099 21.8484 263.826 34.628 229.033C47.8123 193.247 52.701 151.378 49.5776 101.035C46.933 58.2766 40.3089 20.5524 31.8798 0.104234L33.1685 -0.421095C41.65 20.1439 48.3065 58.0516 50.9699 100.952C54.1147 151.487 49.2084 193.542 35.9454 229.525C11.5115 296.059 -41.7487 348.569 -85.4277 386.881C-92.0306 392.671 -98.9536 398.612 -106.574 405.037C-109.862 407.81 -113.17 410.579 -116.466 413.341C-140.709 433.643 -165.788 454.636 -185.91 479.643C-191.635 486.754 -196.971 494.249 -201.796 501.918C-232.357 550.567 -243.069 608.218 -231.179 660.039Z" fill="white"/>
<path d="M-229.899 663.344L-231.256 663.661C-243.108 613.057 -232.665 556.16 -202.611 507.576C-197.916 499.987 -192.709 492.553 -187.156 485.467C-166.763 459.497 -141.26 437.583 -116.599 416.4L-110.287 410.964C-102.633 404.376 -95.9076 398.495 -89.7173 393.011C-7.85689 320.473 16.4721 274.83 29.4642 239.741C42.8356 203.764 47.2047 161.312 42.4607 113.54C38.2057 70.5947 28.7447 34.1312 16.5101 13.501L17.6969 12.7919C30.0252 33.5948 39.5546 70.2669 43.8311 113.404C48.5935 161.387 44.1928 204.053 30.7539 240.218C7.49584 303.024 -42.742 353.218 -88.8052 394.029C-94.9955 399.512 -101.74 405.39 -109.386 411.99L-115.699 417.425C-140.303 438.568 -165.75 460.44 -186.068 486.302C-191.604 493.34 -196.778 500.75 -201.444 508.284C-231.298 556.58 -241.674 613.099 -229.899 663.344Z" fill="white"/>
<path d="M-228.621 666.65L-229.97 666.977C-241.706 617.949 -231.58 562.187 -202.227 513.986C-197.695 506.552 -192.671 499.219 -187.274 492.18C-166.503 465.064 -140.381 442.051 -115.135 419.792L-113.057 417.953C-107.146 412.746 -100.147 406.558 -93.0437 400.206C-48.3929 360.22 1.20063 312.374 24.3239 250.481C37.7896 214.538 41.6168 171.52 35.3756 126.089C29.5699 83.8292 17.1042 47.6785 1.17509 26.9222L2.2737 26.0711C18.3518 47.028 30.922 83.4125 36.7545 125.895C43.0307 171.559 39.1803 214.802 25.6219 250.97C2.37497 313.162 -47.3387 361.149 -92.1151 401.246C-99.2207 407.617 -106.228 413.794 -112.139 419.001L-114.218 420.84C-139.428 443.054 -165.502 466.016 -186.178 493.026C-191.539 500.021 -196.537 507.318 -201.033 514.708C-230.221 562.595 -240.27 617.972 -228.621 666.65Z" fill="white"/>
<path d="M-227.349 669.943L-228.698 670.27C-240.3 622.82 -230.521 568.199 -201.87 520.381C-197.496 513.082 -192.637 505.855 -187.437 498.876C-167.684 472.395 -144.338 450.631 -115.856 424.946L-109.659 419.354C-105.229 415.37 -100.818 411.382 -96.3961 407.386C-49.9745 365.357 -2.81254 319.456 19.1605 261.187C36.4863 215.368 33.6852 169.231 28.2786 138.595C20.9579 97.1155 5.48742 61.2776 -14.1773 40.2701L-13.1644 39.327C6.68282 60.5103 22.2826 96.6153 29.6438 138.359C35.0746 169.168 37.9051 215.576 20.4668 261.687C-1.62704 320.236 -48.9202 366.286 -95.4563 408.417C-99.8671 412.405 -104.289 416.401 -108.719 420.386L-114.916 425.978C-143.342 451.621 -166.649 473.321 -186.319 499.705C-191.493 506.648 -196.328 513.84 -200.665 521.094C-229.142 568.61 -238.855 622.854 -227.349 669.943Z" fill="white"/>
<path d="M-226.068 673.248L-227.409 673.587C-238.869 627.726 -229.434 574.225 -201.496 526.799C-197.284 519.655 -192.598 512.521 -187.584 505.594C-167.43 477.812 -142.477 453.971 -118.646 431.951C-112.84 426.58 -107.008 421.243 -101.188 415.914L-99.7431 414.597C-59.0946 377.378 -8.51347 331.047 14.0108 271.935C27.7236 235.999 30.2723 193.101 21.1757 151.142C12.2342 109.88 -5.77835 75.257 -29.5437 53.6467L-28.6083 52.6227C-4.6326 74.4227 13.5399 109.308 22.5301 150.844C31.6783 193.059 29.1089 236.232 15.2976 272.432C-7.34201 331.855 -58.0598 378.305 -98.8115 415.618L-100.257 416.934C-106.077 422.263 -111.919 427.609 -117.714 432.972C-141.501 454.959 -166.404 478.727 -186.474 506.413C-191.471 513.293 -196.132 520.39 -200.318 527.498C-228.052 574.617 -237.441 627.737 -226.068 673.248Z" fill="white"/>
<path d="M-224.799 676.543L-226.151 676.89C-237.468 632.619 -228.357 580.242 -201.152 533.204C-197.102 526.215 -192.6 519.183 -187.761 512.3C-168.18 484.493 -144.332 460.609 -121.467 438.944C-114.853 432.679 -108.179 426.472 -103.117 421.776L-100.804 419.624C-57.3218 379.348 -12.3632 337.68 8.82537 282.64C22.6997 246.619 24.5593 204.354 14.0566 163.647C3.63591 123.26 -17.3091 88.9307 -44.9264 66.9825L-44.0601 65.8888C-16.2102 88.0101 4.91414 122.604 15.4002 163.289C25.971 204.273 24.099 246.824 10.1233 283.129C-11.1694 338.471 -56.2618 380.238 -99.8504 420.628L-102.164 422.78C-107.236 427.484 -113.899 433.682 -120.502 439.939C-143.311 461.563 -167.1 485.387 -186.618 513.094C-191.439 519.93 -195.917 526.926 -199.941 533.879C-226.976 580.633 -236.029 632.622 -224.799 676.543Z" fill="white"/>
<path d="M-223.52 679.847L-224.863 680.206C-236.193 636.896 -227.644 586.977 -200.771 539.633C-175.976 495.945 -139.082 459.613 -106.446 428.99C-103.762 426.476 -101.077 423.962 -98.3818 421.439C-58.0032 383.694 -16.2545 344.672 3.69421 293.391C17.7047 257.39 18.8692 215.797 7.00263 176.26C-4.86682 136.742 -28.7608 102.684 -60.2742 80.3616L-59.4716 79.2288C-27.7062 101.727 -3.62169 136.041 8.3325 175.86C20.2867 215.678 19.1039 257.595 4.98102 293.888C-15.0719 345.471 -56.9461 384.604 -97.4391 422.452C-100.135 424.974 -102.819 427.488 -105.503 430.002C-138.058 460.548 -174.86 496.794 -199.571 540.316C-226.257 587.33 -234.762 636.888 -223.52 679.847Z" fill="white"/>
</g>
</g>
<defs>
<clipPath id="clip0_456_3210">
<rect width="137" height="303" fill="white"/>
</clipPath>
</defs>
</svg>
