<svg width="137" height="303" viewBox="0 0 137 303" fill="none" xmlns="http://www.w3.org/2000/svg">
<g clip-path="url(#clip0_456_3257)">
<g opacity="0.15">
<path d="M387.328 610.516L388.693 610.752C404.383 521.513 378.717 432.367 321.731 378.092C298.176 355.654 269.553 338.964 241.873 322.821C228.828 315.218 215.356 307.35 202.565 298.986C119.321 244.52 56.2477 162.52 24.9866 68.0902C17.6918 46.0419 12.0345 23.048 6.58093 0.828347C-0.580004 -28.3178 -7.98723 -58.4601 -19.2036 -86.8315C-29.8044 -113.655 -44.1878 -137.789 -60.8 -156.641C-80.0822 -178.516 -102.138 -193.351 -126.329 -200.726L-126.728 -199.396C-100.604 -191.433 -52.0451 -166.138 -20.5069 -86.3123C-9.32146 -58.0158 -1.9423 -27.9289 5.21287 1.17834C10.6805 23.4257 16.3323 46.4502 23.6551 68.5539C55.0094 163.277 118.281 245.546 201.798 300.18C214.611 308.562 228.114 316.435 241.171 324.046C268.794 340.148 297.343 356.799 320.78 379.115C377.42 433.064 402.937 521.736 387.328 610.516Z" fill="white"/>
<path d="M386.047 613.821L387.423 614.066C400.458 541.071 384.641 465.318 345.107 411.436C338.084 401.856 330.269 392.899 321.886 384.8C298.695 362.408 270.482 345.608 243.205 329.366C230.654 321.889 217.68 314.166 205.354 305.991C195.517 299.475 185.802 292.445 176.469 285.111C108.634 231.785 56.6582 158.518 30.1243 78.8306C22.3991 55.6146 16.6054 31.3602 11.0017 7.92168C4.47715 -19.402 -2.26569 -47.6664 -12.1156 -74.3128C-21.9035 -100.809 -35.1662 -124.681 -50.5024 -143.363C-68.2638 -165.025 -88.5997 -179.845 -110.93 -187.393L-111.371 -186.078C-87.2628 -177.917 -42.4876 -152.493 -13.4135 -73.8242C-3.60579 -47.2611 3.13966 -19.0466 9.65022 8.24938C15.2597 31.7268 21.0562 56.0006 28.8012 79.2832C55.4141 159.237 107.552 232.729 175.591 286.223C184.957 293.582 194.694 300.629 204.565 307.169C216.913 315.361 229.91 323.1 242.46 330.577C269.673 346.789 297.808 363.531 320.885 385.82C329.21 393.859 336.977 402.764 343.961 412.28C383.299 465.843 399.016 541.193 386.047 613.821Z" fill="white"/>
<path d="M384.771 617.127L386.139 617.383C399.1 545.908 383.625 471.326 344.737 417.855C337.862 408.402 330.231 399.547 322.037 391.519C299.196 369.145 271.394 352.235 244.505 335.866C232.464 328.543 220.007 320.963 208.146 312.978C198.511 306.492 188.978 299.544 179.826 292.292C112.596 239.106 61.266 167.114 35.303 89.5464C27.1052 65.0795 21.1914 39.4728 15.4705 14.7014C9.6048 -10.7138 3.53234 -36.9921 -4.97546 -61.8105C-31.7824 -139.85 -73.1865 -165.64 -95.4876 -174.067L-95.9706 -172.765C-73.9116 -164.432 -32.9086 -138.87 -6.30691 -61.3468C2.18945 -36.6061 8.24791 -10.3556 14.1078 15.0208C19.8317 39.8116 25.7512 65.4572 33.9799 89.999C60.0384 167.81 111.514 240.049 178.956 293.393C188.138 300.65 197.697 307.634 207.365 314.145C219.257 322.135 231.725 329.724 243.777 337.055C270.599 353.375 298.326 370.246 321.061 392.506C329.207 400.482 336.791 409.284 343.616 418.665C382.291 471.839 397.678 546.027 384.771 617.127Z" fill="white"/>
<path d="M383.491 620.432L384.859 620.687C397.749 550.752 382.613 477.321 344.372 424.262C337.656 414.944 330.197 406.183 322.173 398.229C299.671 375.865 272.265 358.817 245.768 342.341C234.236 335.171 222.319 327.75 210.928 319.994C201.477 313.54 192.141 306.653 183.154 299.506C116.519 246.451 65.8392 175.703 40.4336 100.297C31.7183 74.477 25.7143 47.3846 19.9034 21.1969C14.7222 -2.20445 9.35387 -26.4023 2.11636 -49.2731C-8.32688 -82.2948 -32.887 -140.67 -80.0655 -160.718L-80.6014 -159.438C-33.9406 -139.602 -9.57964 -81.6341 0.798648 -48.851C8.00809 -26.0357 13.3818 -1.86844 18.5573 21.494C24.374 47.7206 30.392 74.8408 39.1382 100.736C64.6227 176.408 115.465 247.38 182.311 300.593C191.313 307.768 200.682 314.68 210.164 321.138C221.569 328.923 233.505 336.341 245.048 343.519C271.482 359.965 298.821 376.963 321.216 399.214C329.173 407.118 336.593 415.815 343.262 425.08C381.279 477.835 396.316 550.863 383.491 620.432Z" fill="white"/>
<path d="M382.219 623.725L383.587 623.981C396.406 555.584 381.609 483.305 344.006 430.668C337.438 421.478 330.143 412.821 322.328 404.936C300.154 382.573 273.134 365.38 247.003 348.761C236.002 341.761 224.619 334.529 213.727 326.987C204.459 320.566 195.301 313.742 186.517 306.695C119.519 252.988 70.7836 185.33 45.6192 111.02C36.3582 83.7214 30.2773 55.032 24.3953 27.2863C19.8991 6.03775 15.2468 -15.9324 9.23569 -36.7498C-0.160637 -69.2702 -22.2473 -126.898 -64.6243 -147.373L-65.2241 -146.124C-23.3178 -125.877 -1.42196 -68.6679 7.90397 -36.3555C13.8982 -15.5852 18.5448 6.346 23.0381 27.5751C28.9258 55.3597 35.0041 84.0991 44.2961 111.473C69.5672 186.035 118.445 253.92 185.647 307.795C194.465 314.868 203.645 321.709 212.935 328.146C223.838 335.696 235.232 342.936 246.255 349.953C272.32 366.522 299.273 383.666 321.343 405.935C329.112 413.767 336.347 422.363 342.876 431.489C380.255 483.821 394.973 555.695 382.219 623.725Z" fill="white"/>
<path d="M380.94 627.031L382.308 627.286C395.045 560.42 380.589 489.312 343.63 437.067C337.221 428.012 330.099 419.45 322.473 411.636C300.61 389.227 273.956 371.891 248.18 355.12C237.713 348.31 226.895 341.273 216.515 333.973C207.443 327.593 198.474 320.841 189.851 313.879C123.445 260.284 75.3462 193.842 50.7561 121.741C40.8791 92.8257 34.7762 62.3725 28.8808 32.9212C25.0897 13.9615 21.1652 -5.63379 16.3256 -24.2309C7.97338 -56.2695 -11.6483 -113.137 -49.2125 -134.033L-49.8876 -132.821C-12.7775 -112.177 6.68689 -55.7031 14.977 -23.8838C19.822 -5.31724 23.7242 14.2615 27.5207 33.1906C33.4218 62.6807 39.5222 93.184 49.4412 122.183C74.1076 194.53 122.368 261.196 188.978 314.96C197.623 321.939 206.614 328.708 215.709 335.104C226.101 342.412 236.941 349.466 247.407 356.276C273.128 373.005 299.718 390.311 321.464 412.598C329.042 420.359 336.116 428.87 342.487 437.861C379.244 489.817 393.612 560.532 380.94 627.031Z" fill="white"/>
<path d="M379.662 630.337L381.021 630.604C393.688 565.277 379.571 495.32 343.259 443.487C337.008 434.568 330.059 426.098 322.622 418.356C301.062 395.913 274.757 378.386 249.302 361.439C239.392 354.835 229.142 348.013 219.308 340.98C210.419 334.633 201.636 327.932 193.209 321.08C127.381 267.569 79.9099 202.356 55.9245 132.469C45.3586 101.778 39.3134 69.3611 33.4676 38.0264C30.3909 21.5526 27.22 4.50707 23.4555 -11.7166C16.1361 -43.2816 -1.01228 -99.4012 -33.7414 -120.699L-34.5028 -119.535C-10.5489 -103.946 9.5543 -65.5439 22.1011 -11.4084C25.8516 4.78761 29.028 21.8026 32.1046 38.2763C37.959 69.6694 44.0294 102.123 54.6208 132.919C78.6906 203.041 126.304 268.482 192.344 322.151C200.805 329.027 209.599 335.736 218.521 342.108C228.386 349.146 238.639 355.988 248.557 362.581C273.937 379.49 300.186 396.975 321.64 419.305C329.041 427.003 335.939 435.4 342.143 444.266C378.234 495.815 392.252 565.369 379.662 630.337Z" fill="white"/>
<path d="M378.39 633.631L379.75 633.897C392.327 570.113 378.559 501.315 342.902 449.882C336.799 441.09 330.026 432.734 322.786 425.052C301.512 402.527 275.526 384.805 250.389 367.662C241.061 361.3 231.412 354.716 222.115 347.962C213.41 341.648 204.817 335.019 196.562 328.26C131.301 274.825 84.4469 210.831 61.0915 143.195C49.7634 110.501 43.836 75.9225 38.1249 42.4733C35.7719 28.6828 33.3306 14.4287 30.5755 0.806446C24.2891 -30.2849 9.57235 -85.6699 -18.2965 -107.335L-19.1471 -106.237C8.36198 -84.8567 22.9577 -29.8212 29.2071 1.08699C31.9593 14.6898 34.3895 28.9356 36.7507 42.7149C42.4899 76.2196 48.4065 110.86 59.7795 143.655C83.2305 211.536 130.227 275.757 195.68 329.353C203.958 336.128 212.573 342.773 221.301 349.105C230.609 355.867 240.269 362.458 249.608 368.829C274.678 385.922 300.6 403.614 321.768 426.026C328.969 433.644 335.694 441.947 341.761 450.695C377.203 501.812 390.902 570.213 378.39 633.631Z" fill="white"/>
<path d="M377.111 636.935L378.471 637.202C390.966 574.948 377.529 507.313 342.537 456.288C336.594 447.632 329.993 439.37 322.935 431.77C301.932 409.136 276.239 391.182 251.388 373.818C242.664 367.715 233.622 361.41 224.907 354.967C216.382 348.666 207.978 342.108 199.907 335.452C135.21 282.072 88.9846 219.306 66.248 153.912C54.0621 118.972 48.379 81.9453 42.9042 46.1284C41.2455 35.2934 39.5212 24.0809 37.6739 13.3133C26.0086 -54.4925 9.1931 -82.4579 -2.84278 -93.9814L-3.79661 -92.9775C8.08855 -81.6006 24.7084 -53.8845 36.3081 13.5438C38.1525 24.292 39.8657 35.4962 41.5327 46.3201C47.0272 82.2035 52.6995 119.292 64.9414 154.342C87.7625 219.972 134.139 282.954 199.028 336.494C207.111 343.159 215.548 349.741 224.084 356.051C232.818 362.491 241.852 368.807 250.587 374.919C275.371 392.232 301 410.156 321.908 432.686C328.93 440.241 335.483 448.45 341.38 457.054C376.184 507.819 389.542 575.048 377.111 636.935Z" fill="white"/>
<path d="M375.831 640.242L377.194 640.528C389.599 579.816 376.503 513.352 342.174 462.716C336.378 454.187 329.962 446.027 323.081 438.491C302.314 415.702 276.892 397.5 252.301 379.88C244.198 374.082 235.816 368.077 227.709 361.982C219.367 355.713 211.141 349.219 203.265 342.673C138.193 288.564 93.8306 228.671 71.4088 164.67C58.2165 127.148 52.9649 87.3279 47.8778 48.8233C46.8787 41.2468 45.8535 33.4259 44.7878 25.8691C39.5775 -11.0488 29.7686 -59.4816 12.61 -80.5566L11.5277 -79.6827C28.4713 -58.8541 38.2123 -10.6794 43.3968 26.0636C44.4625 33.6204 45.496 41.4302 46.495 49.0067C51.5825 87.5807 56.8538 127.468 70.0968 165.131C92.5948 229.379 137.105 289.468 202.37 343.738C210.268 350.3 218.508 356.822 226.869 363.088C234.988 369.192 243.381 375.205 251.495 381.011C276.031 398.589 301.397 416.751 322.069 439.434C328.894 446.928 335.29 455.022 341.039 463.498C375.152 513.819 388.171 579.897 375.831 640.242Z" fill="white"/>
<path d="M374.56 643.535L375.923 643.821C388.238 584.651 375.481 519.339 341.798 469.114C336.17 460.709 329.909 452.665 323.226 445.189C302.681 422.22 277.468 403.688 253.095 385.798C245.647 380.331 237.953 374.682 230.497 368.967C222.317 362.714 214.28 356.291 206.607 349.845C142.074 295.756 98.3229 237.044 76.5731 175.376C62.2222 134.848 57.617 91.8055 53.1711 50.1789C52.7444 46.2112 52.3234 42.2823 51.9053 38.3729C46.0951 -14.7177 38.074 -50.2298 28.0885 -67.1672L26.8915 -66.4652C36.7818 -49.7024 44.7353 -14.3789 50.5168 38.5174C50.9432 42.4157 51.3671 46.364 51.7827 50.3234C56.24 92.0278 60.8567 135.148 75.2611 175.837C97.1065 237.749 140.995 296.649 205.72 350.898C213.413 357.342 221.463 363.793 229.655 370.054C237.13 375.766 244.835 381.423 252.275 386.901C276.595 404.77 301.738 423.232 322.2 446.104C328.835 453.528 335.048 461.519 340.649 469.869C374.122 519.817 386.799 584.724 374.56 643.535Z" fill="white"/>
<path d="M373.278 646.839L374.641 647.126C386.857 589.509 374.45 525.356 341.431 475.52C335.953 467.262 329.885 459.309 323.38 451.896C303.005 428.673 277.983 409.816 253.775 391.564C247.04 386.489 240.07 381.239 233.283 375.953C225.286 369.732 217.436 363.361 209.95 357.036C145.043 302.168 103.106 246.257 81.7184 186.105C65.9729 141.98 62.257 93.5945 58.9841 50.902C54.8606 -2.73435 49.7988 -36.964 43.5119 -53.7302L42.2139 -53.2417C48.453 -36.5974 53.4948 -2.5038 57.6094 51.0048C60.8937 93.775 64.6045 142.26 80.4147 186.555C101.886 246.943 143.953 303.053 209.052 358.081C216.549 364.415 224.421 370.802 232.429 377.031C239.216 382.318 246.186 387.567 252.933 392.651C277.085 410.861 302.051 429.677 322.331 452.795C328.788 460.155 334.829 468.053 340.27 476.267C373.088 525.815 385.427 589.571 373.278 646.839Z" fill="white"/>
<path d="M372.001 650.145L373.355 650.442C385.481 594.368 373.405 531.377 341.06 481.939C335.741 473.816 329.837 465.967 323.521 458.626C303.29 435.094 278.374 415.815 254.278 397.179C248.295 392.559 242.108 387.77 236.068 382.969C228.218 376.737 220.557 370.438 213.288 364.239C148.901 309.325 107.552 254.578 86.8679 196.834C71.124 153.056 67.8877 105.027 66.0868 63.4288C64.1336 18.3087 62.2283 -20.6337 58.9426 -40.2733L57.5767 -40.0427C60.851 -20.4809 62.7394 18.4144 64.7064 63.4928C66.5104 105.18 69.7557 153.337 85.5671 197.303C106.333 255.264 147.822 310.218 212.39 365.285C219.67 371.491 227.353 377.807 235.214 384.048C241.262 388.837 247.449 393.626 253.436 398.266C277.476 416.86 302.336 436.098 322.472 459.525C328.752 466.822 334.608 474.618 339.902 482.704C372.051 531.824 384.051 594.429 372.001 650.145Z" fill="white"/>
<path d="M370.73 653.441L372.085 653.738C384.102 599.208 372.375 537.378 340.704 488.336C335.533 480.341 329.813 472.594 323.686 465.325C303.545 441.392 278.657 421.632 254.601 402.524C249.35 398.362 244.097 394.18 238.876 389.954C231.188 383.738 223.705 377.502 216.642 371.422C151.865 315.681 112.271 263.606 92.0359 207.562C76.091 163.566 73.5696 116.345 73.1996 75.9658C72.7561 27.4868 73.9797 -14.9434 74.3556 -26.7922L72.969 -26.8366C72.5849 -14.9766 71.3559 27.4841 71.8022 75.9826C72.17 116.481 74.7032 163.849 90.7268 208.043C111.057 264.33 150.778 316.586 215.736 372.478C222.81 378.567 230.293 384.803 238.003 391.036C243.224 395.262 248.486 399.432 253.739 403.614C277.74 422.68 302.56 442.391 322.618 466.226C328.708 473.452 334.392 481.154 339.527 489.105C371.013 537.836 382.671 599.27 370.73 653.441Z" fill="white"/>
<path d="M369.451 656.744L370.805 657.041C382.716 604.076 371.328 543.397 340.339 494.742C335.327 486.882 329.782 479.248 323.842 472.031C303.712 447.571 278.78 427.241 254.652 407.578C250.318 404.045 245.985 400.513 241.676 396.947C234.09 390.686 226.796 384.521 220.007 378.61C135.542 305.243 109.472 251.974 97.2113 218.276C84.3013 182.936 78.9293 141.694 80.3281 88.477C81.4211 46.6418 85.0247 7.62423 89.762 -13.3534L88.4076 -13.6507C83.6541 7.41869 80.0259 46.5391 78.9444 88.452C77.552 141.847 82.9387 183.256 95.9133 218.764C108.233 252.592 134.396 306.087 219.1 379.666C225.909 385.575 233.206 391.759 240.803 398.028C245.112 401.594 249.457 405.135 253.779 408.659C277.852 428.281 302.728 448.569 322.771 472.913C328.675 480.086 334.194 487.683 339.178 495.488C369.954 543.847 381.282 604.118 369.451 656.744Z" fill="white"/>
<path d="M368.179 660.039L369.536 660.355C381.511 608.165 370.733 550.136 339.976 501.169C335.123 493.444 329.751 485.905 324 478.758C303.803 453.643 278.668 432.609 254.37 412.265C251.073 409.504 247.777 406.742 244.488 403.969C236.879 397.553 229.968 391.62 223.365 385.83C140.453 313.099 115.152 263.826 102.372 229.033C89.1877 193.247 84.299 151.378 87.4224 101.035C90.067 58.2766 96.6911 20.5524 105.12 0.104234L103.831 -0.421095C95.35 20.1439 88.6935 58.0516 86.0301 100.952C82.8853 151.487 87.7916 193.542 101.055 229.525C125.488 296.059 178.749 348.569 222.428 386.881C229.031 392.671 235.954 398.612 243.574 405.037C246.862 407.81 250.17 410.579 253.466 413.341C277.709 433.643 302.788 454.636 322.91 479.643C328.635 486.754 333.971 494.249 338.796 501.918C369.357 550.567 380.069 608.218 368.179 660.039Z" fill="white"/>
<path d="M366.899 663.344L368.256 663.661C380.108 613.057 369.665 556.16 339.611 507.576C334.916 499.987 329.709 492.553 324.156 485.467C303.763 459.497 278.26 437.583 253.599 416.4L247.287 410.964C239.633 404.376 232.908 398.495 226.717 393.011C144.857 320.473 120.528 274.83 107.536 239.741C94.1644 203.764 89.7953 161.312 94.5393 113.54C98.7943 70.5947 108.255 34.1312 120.49 13.501L119.303 12.7919C106.975 33.5948 97.4454 70.2669 93.1689 113.404C88.4065 161.387 92.8072 204.053 106.246 240.218C129.504 303.024 179.742 353.218 225.805 394.029C231.995 399.512 238.74 405.39 246.386 411.99L252.699 417.425C277.303 438.568 302.75 460.44 323.068 486.302C328.604 493.34 333.778 500.75 338.444 508.284C368.298 556.58 378.674 613.099 366.899 663.344Z" fill="white"/>
<path d="M365.621 666.65L366.97 666.977C378.706 617.949 368.58 562.187 339.227 513.986C334.695 506.552 329.671 499.219 324.274 492.18C303.503 465.064 277.381 442.051 252.135 419.792L250.057 417.953C244.146 412.746 237.147 406.558 230.044 400.206C185.393 360.22 135.799 312.374 112.676 250.481C99.2104 214.538 95.3832 171.52 101.624 126.089C107.43 83.8292 119.896 47.6785 135.825 26.9222L134.726 26.0711C118.648 47.028 106.078 83.4125 100.245 125.895C93.9693 171.559 97.8197 214.802 111.378 250.97C134.625 313.162 184.339 361.149 229.115 401.246C236.221 407.617 243.228 413.794 249.139 419.001L251.218 420.84C276.428 443.054 302.502 466.016 323.178 493.026C328.539 500.021 333.537 507.318 338.033 514.708C367.221 562.595 377.27 617.972 365.621 666.65Z" fill="white"/>
<path d="M364.349 669.943L365.698 670.27C377.3 622.82 367.521 568.199 338.87 520.381C334.496 513.082 329.637 505.855 324.437 498.876C304.684 472.395 281.338 450.631 252.856 424.946L246.659 419.354C242.229 415.37 237.818 411.382 233.396 407.386C186.974 365.357 139.813 319.456 117.839 261.187C100.514 215.368 103.315 169.231 108.721 138.595C116.042 97.1155 131.513 61.2776 151.177 40.2701L150.164 39.327C130.317 60.5103 114.717 96.6153 107.356 138.359C101.925 169.168 99.0949 215.576 116.533 261.687C138.627 320.236 185.92 366.286 232.456 408.417C236.867 412.405 241.289 416.401 245.719 420.386L251.916 425.978C280.342 451.621 303.649 473.321 323.319 499.705C328.493 506.648 333.328 513.84 337.665 521.094C366.142 568.61 375.855 622.854 364.349 669.943Z" fill="white"/>
<path d="M363.068 673.248L364.409 673.587C375.869 627.726 366.434 574.225 338.496 526.799C334.284 519.655 329.598 512.521 324.584 505.594C304.43 477.812 279.477 453.971 255.646 431.951C249.84 426.58 244.008 421.243 238.188 415.914L236.743 414.597C196.095 377.378 145.513 331.047 122.989 271.935C109.276 235.999 106.728 193.101 115.824 151.142C124.766 109.88 142.778 75.257 166.544 53.6467L165.608 52.6227C141.633 74.4227 123.46 109.308 114.47 150.844C105.322 193.059 107.891 236.232 121.702 272.432C144.342 331.855 195.06 378.305 235.812 415.618L237.257 416.934C243.077 422.263 248.919 427.609 254.714 432.972C278.501 454.959 303.404 478.727 323.474 506.413C328.471 513.293 333.132 520.39 337.318 527.498C365.052 574.617 374.441 627.737 363.068 673.248Z" fill="white"/>
<path d="M361.799 676.543L363.151 676.89C374.468 632.619 365.357 580.242 338.152 533.204C334.102 526.215 329.6 519.183 324.761 512.3C305.18 484.493 281.332 460.609 258.467 438.944C251.853 432.679 245.179 426.472 240.117 421.776L237.804 419.624C194.322 379.348 149.363 337.68 128.175 282.64C114.3 246.619 112.441 204.354 122.943 163.647C133.364 123.26 154.309 88.9307 181.926 66.9825L181.06 65.8888C153.21 88.0101 132.086 122.604 121.6 163.289C111.029 204.273 112.901 246.824 126.877 283.129C148.169 338.471 193.262 380.238 236.85 420.628L239.164 422.78C244.236 427.484 250.899 433.682 257.502 439.939C280.311 461.563 304.1 485.387 323.618 513.094C328.439 519.93 332.917 526.926 336.941 533.879C363.976 580.633 373.029 632.622 361.799 676.543Z" fill="white"/>
<path d="M360.52 679.847L361.863 680.206C373.193 636.896 364.644 586.977 337.771 539.633C312.976 495.945 276.082 459.613 243.446 428.99C240.762 426.476 238.077 423.962 235.382 421.439C195.003 383.694 153.255 344.672 133.306 293.391C119.295 257.39 118.131 215.797 129.997 176.26C141.867 136.742 165.761 102.684 197.274 80.3616L196.472 79.2288C164.706 101.727 140.622 136.041 128.668 175.86C116.713 215.678 117.896 257.595 132.019 293.888C152.072 345.471 193.946 384.604 234.439 422.452C237.135 424.974 239.819 427.488 242.503 430.002C275.058 460.548 311.86 496.794 336.571 540.316C363.257 587.33 371.762 636.888 360.52 679.847Z" fill="white"/>
</g>
</g>
<defs>
<clipPath id="clip0_456_3257">
<rect width="137" height="303" fill="white" transform="matrix(-1 0 0 1 137 0)"/>
</clipPath>
</defs>
</svg>
