<svg width="172" height="219" viewBox="0 0 172 219" fill="none" xmlns="http://www.w3.org/2000/svg">
<g opacity="0.2" clip-path="url(#clip0_447_4931)">
<path d="M150.552 201.104C150.592 201.324 152.693 207.294 152.953 207.953C152.893 207.754 152.833 207.574 152.773 207.374L150.832 201.803C150.712 201.584 150.652 201.344 150.552 201.104Z" fill="white"/>
<path d="M142.609 180.918C143.009 181.856 144.57 185.57 145.39 187.607L142.529 180.738C142.549 180.798 142.589 180.858 142.609 180.918Z" fill="white"/>
<path d="M154.994 217.817C154.994 217.817 154.974 217.797 154.954 217.797C154.674 218.037 156.434 223.867 156.835 224.047C156.875 223.967 156.975 223.787 156.334 221.531C155.674 219.195 155.134 217.937 154.994 217.817Z" fill="white"/>
<path d="M148.031 196.572C148.031 196.572 148.011 196.552 147.991 196.552C147.751 197.271 150.432 203.94 150.732 204.08C150.772 204 150.852 203.76 149.891 201.025C148.891 198.149 148.211 196.692 148.031 196.572Z" fill="white"/>
<path d="M139.828 175.846C139.808 175.846 139.808 175.846 139.788 175.826C139.648 176.685 143.149 184.252 143.47 184.392C143.47 184.292 143.53 184.013 142.249 180.938C140.889 177.683 140.008 175.986 139.828 175.846Z" fill="white"/>
<path d="M130.425 155.739C130.425 155.739 130.405 155.759 130.385 155.759C130.545 156.717 134.346 164.325 135.066 165.144C135.086 165.144 135.106 165.124 135.106 165.124C135.046 164.764 134.486 163.486 133.426 161.31C131.485 157.336 130.565 155.839 130.425 155.739Z" fill="white"/>
<path d="M119.841 136.211C119.781 136.89 125.183 145.915 125.603 146.374C125.623 146.275 125.623 146.075 123.463 142.201C121.242 138.288 120.001 136.351 119.841 136.211Z" fill="white"/>
<path d="M108.117 117.402C108.277 118.141 114.62 127.665 115.04 128.164C115.02 128.065 114.98 127.845 112.359 123.772C109.678 119.559 108.277 117.502 108.117 117.402Z" fill="white"/>
<path d="M95.2725 99.2319C95.6126 99.9308 102.755 109.655 103.455 110.493C103.295 110.154 103.055 109.874 102.835 109.575L98.8938 104.084L96.0327 100.23C95.7927 99.8909 95.5926 99.5115 95.2725 99.2319Z" fill="white"/>
<path d="M81.4668 82.0002C82.9673 83.8772 90.17 92.6627 90.7702 93.3616L81.4668 82.0002Z" fill="white"/>
<path d="M67.2017 66.1264C68.5622 67.564 74.5644 74.0733 76.4851 76.2497L67.1816 66.0864C67.1816 66.1064 67.2017 66.1064 67.2017 66.1264Z" fill="white"/>
<path d="M53.7768 52.6685C55.5574 54.3657 57.7382 56.5022 59.4788 58.2393L53.6367 52.5487C53.6767 52.5687 53.7367 52.6286 53.7768 52.6685Z" fill="white"/>
<path d="M151.173 213.724C150.653 213.524 151.433 216.919 152.433 219.155C152.853 220.093 153.174 220.513 153.274 220.253C153.334 220.113 153.394 219.614 152.853 217.617C152.113 215.082 151.413 213.804 151.173 213.724Z" fill="white"/>
<path d="M144.27 192.678C143.69 192.479 144.89 196.532 146.211 199.148C146.751 200.246 147.171 200.725 147.251 200.406C147.311 200.246 147.311 199.627 146.511 197.231C145.45 194.256 144.55 192.778 144.27 192.678Z" fill="white"/>
<path d="M136.107 172.112C136.087 172.112 136.067 172.112 136.027 172.112C135.387 172.691 139.088 180.998 140.029 181.077C140.269 180.878 139.888 179.54 138.988 177.324C137.528 173.889 136.427 172.212 136.107 172.112Z" fill="white"/>
<path d="M126.743 152.165C126.723 152.165 126.703 152.165 126.683 152.165C126.083 152.864 130.825 162.029 131.785 162.089C132.005 161.849 131.465 160.351 130.285 157.896C128.404 154.082 127.083 152.245 126.743 152.165Z" fill="white"/>
<path d="M116.2 132.797C116.18 132.797 116.16 132.797 116.14 132.797C115.639 133.615 121.502 143.579 122.462 143.559C122.662 143.28 121.922 141.642 120.441 138.947C118.1 134.833 116.54 132.877 116.2 132.797Z" fill="white"/>
<path d="M104.516 114.088C104.496 114.088 104.476 114.088 104.456 114.088C104.096 115.006 111.158 125.629 112.098 125.569C112.239 125.249 111.318 123.512 109.498 120.637C106.636 116.204 104.856 114.127 104.516 114.088Z" fill="white"/>
<path d="M91.7911 96.157C91.7711 96.157 91.7511 96.177 91.7311 96.177C91.531 97.1753 99.7941 108.197 100.654 108.097C100.734 107.758 99.594 105.921 97.4532 102.926C94.072 98.3134 92.1112 96.1969 91.7911 96.157Z" fill="white"/>
<path d="M78.0053 79.0051C77.9853 79.0251 77.9653 79.065 77.9453 79.105C78.5655 80.7822 86.8286 90.626 88.109 91.225C88.129 91.1851 88.149 91.1651 88.169 91.1452C87.949 90.5262 86.6485 88.7491 84.3276 85.8938C80.4462 81.1416 78.3054 79.0051 78.0053 79.0051Z" fill="white"/>
<path d="M63.3208 62.7719C63.1007 63.7103 73.6245 74.4526 74.5449 74.852C74.5649 74.832 74.5649 74.7921 74.5849 74.7721C74.2648 74.1531 72.8042 72.396 70.2233 69.5607C66.702 65.747 63.921 63.0115 63.3208 62.7719Z" fill="white"/>
<path d="M47.8945 47.5968C47.9145 48.5353 58.9586 58.6786 59.8189 59.038C59.8389 58.7784 58.2383 57.0812 55.0571 53.9863C51.3158 50.3922 48.4347 47.8164 47.8945 47.5968Z" fill="white"/>
<path d="M31.6689 33.4202C31.949 34.3387 43.1731 43.6034 43.9134 43.9029C43.8934 43.8031 43.8334 43.5236 38.8916 39.2506C35.0502 35.9161 32.1491 33.5799 31.6689 33.4202Z" fill="white"/>
<path d="M14.7822 20.2617C15.2824 21.1203 26.2864 29.2469 26.9067 29.4866C26.8666 29.3867 26.7066 29.1271 21.8248 25.3733C18.0034 22.4581 15.1824 20.4015 14.7822 20.2617Z" fill="white"/>
<path d="M-2.84375 8.08179C-2.28355 8.70077 7.64007 15.3299 8.86051 15.9888C8.72046 15.8291 8.58041 15.6493 4.61896 12.9737L1.75792 11.0569C0.177342 9.97866 -2.52363 8.18162 -2.84375 8.08179Z" fill="white"/>
<path d="M146.09 210.09C145.23 209.91 146.37 214.542 147.671 216.419C148.091 217.038 148.391 217.118 148.471 216.639C148.551 216.16 148.411 215.301 148.091 214.063C147.291 211.447 146.45 210.17 146.09 210.09Z" fill="white"/>
<path d="M139.248 189.364C138.267 189.204 139.988 194.655 141.589 196.832C142.069 197.45 142.389 197.59 142.489 197.191C142.549 196.911 142.549 196.113 141.829 193.976C140.748 190.901 139.668 189.424 139.248 189.364Z" fill="white"/>
<path d="M131.205 169.097C130.105 168.997 132.486 175.207 134.467 177.623C135.027 178.322 135.407 178.462 135.487 177.983C135.547 177.643 135.467 176.745 134.487 174.309C132.966 170.794 131.646 169.137 131.205 169.097Z" fill="white"/>
<path d="M121.942 149.389C120.761 149.33 123.882 156.218 126.243 158.854C126.923 159.613 127.343 159.732 127.363 159.193C127.383 158.814 127.223 157.776 125.943 155.08C124.002 151.206 122.422 149.409 121.942 149.389Z" fill="white"/>
<path d="M111.498 130.241C110.237 130.261 114.679 138.487 117.22 140.844C117.6 141.203 118.22 141.662 118.2 140.923C118.18 140.504 117.9 139.346 116.26 136.371C113.839 132.138 112.018 130.241 111.498 130.241Z" fill="white"/>
<path d="M99.914 111.731C98.5735 111.831 103.975 120.597 106.977 123.173C107.397 123.532 108.097 124.031 107.977 123.193C107.897 122.713 107.497 121.455 105.496 118.281C102.535 113.708 100.454 111.711 99.914 111.731Z" fill="white"/>
<path d="M87.2692 93.9805C85.9287 94.1802 92.3911 103.385 95.7123 106.001C96.4126 106.56 96.7927 106.62 96.7727 106.18C96.7727 105.841 96.4126 104.623 93.6716 100.769C90.1303 95.9573 87.7894 93.9006 87.2692 93.9805Z" fill="white"/>
<path d="M73.5838 77.0085C72.2032 77.308 80.4663 87.5711 83.7675 89.6277C84.3477 89.9871 84.6078 89.9672 84.5277 89.5478C84.4677 89.1685 83.9875 87.8906 80.7664 83.8971C76.6649 78.9653 74.1039 76.9086 73.5838 77.0085Z" fill="white"/>
<path d="M58.9989 60.9548C57.6785 61.3741 67.9022 72.4958 70.7432 73.7338C71.0433 73.8736 71.1434 73.8137 71.2234 73.7737C71.3634 73.1947 69.8229 71.0782 66.8618 67.8035C62.2201 62.8117 59.4591 60.7951 58.9989 60.9548Z" fill="white"/>
<path d="M43.7336 46.0194C42.5731 46.5186 53.4771 57.0612 56.2581 58.1594C56.5582 58.2792 56.6383 58.2193 56.6983 58.1794C56.7383 57.5804 55.0377 55.5437 51.8565 52.4289C46.9548 47.6966 44.1537 45.8397 43.7336 46.0194Z" fill="white"/>
<path d="M27.8279 32.1222C27.4478 32.6214 31.009 35.916 33.4899 38.0125C37.0312 41.0076 40.4325 43.3638 40.8927 43.1641C40.9127 43.1441 40.9327 43.1242 40.9527 43.1042C40.9127 42.5251 39.112 40.6482 35.8708 37.8528C31.7893 34.3586 28.5482 32.0623 27.8279 32.1222Z" fill="white"/>
<path d="M11.2617 19.2633C11.2617 20.8607 23.106 28.9474 24.0264 28.8476C24.0664 28.3683 22.3658 26.7909 18.9645 24.1752C15.0231 21.1802 11.8419 19.1435 11.2617 19.2633Z" fill="white"/>
<path d="M-6.10449 7.28306C-5.8444 8.74066 5.41971 15.5694 6.17999 15.4297C6.13997 14.9904 4.43935 13.6326 1.15815 11.3963C-2.62323 8.86047 -5.62432 7.16326 -6.10449 7.28306Z" fill="white"/>
<path d="M139.788 207.015C138.668 206.895 139.788 211.607 141.329 213.484C141.929 214.223 142.349 214.143 142.409 213.284C142.469 212.486 142.169 211.427 142.049 210.988C141.269 208.333 140.248 207.055 139.788 207.015Z" fill="white"/>
<path d="M133.086 186.668C131.806 186.608 133.466 192.099 135.367 194.196C135.907 194.795 136.487 195.074 136.587 194.116C136.667 193.178 136.167 191.68 136.007 191.181C134.887 188.106 133.606 186.688 133.086 186.668Z" fill="white"/>
<path d="M125.143 166.761C123.723 166.761 126.043 173.031 128.324 175.367C129.145 176.205 129.665 176.146 129.665 175.207C129.665 174.109 128.984 172.412 128.764 171.853C127.264 168.318 125.743 166.761 125.143 166.761Z" fill="white"/>
<path d="M115.999 147.313C114.419 147.433 117.9 155.08 120.501 157.177C121.321 157.836 121.781 157.656 121.701 156.697C121.601 155.439 120.701 153.543 120.421 152.904C118.44 148.99 116.639 147.273 115.999 147.313Z" fill="white"/>
<path d="M105.736 128.524C104.055 128.743 108.497 137.11 111.458 139.306C112.418 140.005 112.858 139.785 112.698 138.687C112.478 137.289 111.338 135.193 110.978 134.514C108.477 130.221 106.416 128.424 105.736 128.524Z" fill="white"/>
<path d="M94.3519 110.354C92.6112 110.713 98.0732 119.678 101.394 121.915C102.455 122.633 102.915 122.354 102.635 121.176C102.275 119.638 100.894 117.422 100.434 116.683C97.393 112.071 95.0321 110.194 94.3519 110.354Z" fill="white"/>
<path d="M81.8467 92.8225C80.0661 93.3217 86.6685 102.866 90.3699 105.122C91.4303 105.761 91.9104 105.562 91.6903 104.563C91.4502 103.485 90.4899 101.748 88.8293 99.3917C85.208 94.5397 82.567 92.6228 81.8467 92.8225Z" fill="white"/>
<path d="M68.3021 76.07C66.3414 76.7888 74.8445 87.3914 78.7459 89.1285C79.7663 89.5678 80.0664 89.1285 79.5462 87.9105C78.8259 86.1335 76.8252 83.6376 76.1649 82.8189C71.9434 77.7273 69.0224 75.8104 68.3021 76.07Z" fill="white"/>
<path d="M53.8168 60.1961C51.9161 61.0746 61.6797 71.8968 65.8212 73.4942C66.5014 73.7538 67.2017 73.8137 66.6815 72.5358C66.1813 71.3178 64.7808 69.4209 62.54 66.925C57.6782 61.7535 54.5171 59.8766 53.8168 60.1961Z" fill="white"/>
<path d="M38.7517 45.4803C37.011 46.4986 48.4952 57.6403 51.9765 58.2992C52.8568 58.459 52.8168 57.7601 51.8764 56.3824C50.676 54.6253 48.6553 52.6285 47.795 51.77C42.5931 46.8181 39.3719 45.1209 38.7517 45.4803Z" fill="white"/>
<path d="M23.2853 32.0224C21.8448 33.0806 33.249 42.9245 36.4301 43.3438C37.2304 43.4636 37.1104 42.8046 36.15 41.5667C34.9096 39.9893 32.8688 38.2122 32.0085 37.4534C26.8466 33.1006 23.8055 31.643 23.2853 32.0224Z" fill="white"/>
<path d="M7.07992 19.4431C5.9195 20.4814 17.0035 28.9675 19.8446 29.2071C20.2847 29.247 20.6249 29.0473 19.6845 27.9292C18.4841 26.4716 16.1032 24.6346 15.3429 24.0356C10.3011 20.2618 7.48007 19.0837 7.07992 19.4431Z" fill="white"/>
<path d="M-9.90588 7.76231C-10.8062 8.78064 -0.202342 15.9489 2.29857 16.0088C2.67871 16.0088 2.9388 15.8291 1.99846 14.8307C0.778012 13.5728 -1.50283 11.9954 -2.2431 11.4962C-7.00483 8.34136 -9.58576 7.4029 -9.90588 7.76231Z" fill="white"/>
<path d="M132.326 204.499C131.005 204.459 132.066 209.091 133.767 210.848C134.567 211.667 135.107 211.368 135.107 210.13C135.107 209.431 134.927 208.732 134.827 208.313C134.027 205.717 132.886 204.519 132.326 204.499Z" fill="white"/>
<path d="M125.763 184.572C124.243 184.612 125.803 190.003 127.924 191.979C128.824 192.818 129.425 192.578 129.425 191.341C129.425 190.442 129.064 189.364 128.904 188.905C127.804 185.909 126.403 184.572 125.763 184.572Z" fill="white"/>
<path d="M118 165.104C116.3 165.243 118.501 171.393 121.022 173.55C122.102 174.468 122.762 174.129 122.642 172.711C122.562 171.653 122.082 170.455 121.882 169.936C120.381 166.501 118.701 165.044 118 165.104Z" fill="white"/>
<path d="M109.037 146.075C107.177 146.354 110.138 153.263 113.099 155.559C114.379 156.558 115.06 156.118 114.82 154.501C114.639 153.303 113.999 151.945 113.739 151.366C111.798 147.533 109.818 145.955 109.037 146.075Z" fill="white"/>
<path d="M98.9735 127.685C96.9527 128.124 101.234 136.331 104.496 138.268C105.756 139.006 106.316 138.427 105.936 136.77C105.636 135.432 104.816 133.955 104.475 133.316C102.055 129.123 99.8138 127.485 98.9735 127.685Z" fill="white"/>
<path d="M87.7894 109.834C85.6686 110.453 90.9906 119.339 94.6519 121.296C96.0725 122.054 96.6326 121.356 96.0724 119.539C95.6323 118.081 94.6519 116.484 94.2318 115.805C91.2307 111.272 88.6497 109.595 87.7894 109.834Z" fill="white"/>
<path d="M75.5848 92.7426C73.404 93.5413 79.8064 102.926 83.8478 104.843C85.3884 105.582 85.9286 104.803 85.1883 102.846C84.5881 101.269 83.3877 99.5714 82.8875 98.8526C79.3262 94.1004 76.4652 92.4232 75.5848 92.7426Z" fill="white"/>
<path d="M62.3201 76.3495C60.0392 77.4078 67.542 87.1118 72.1236 89.0087C73.6642 89.6477 74.2044 88.9887 73.5242 87.2316C72.8239 85.4346 71.2233 83.3979 70.5231 82.5394C66.3615 77.5875 63.2204 75.9302 62.3201 76.3495Z" fill="white"/>
<path d="M48.1145 60.7751C45.7536 62.0929 55.3371 72.7954 59.8988 73.9335C61.5394 74.3328 61.6394 73.1348 60.1789 70.7787C59.2185 69.2013 57.9581 67.8036 57.1978 66.9649C52.396 61.8533 48.9948 60.2759 48.1145 60.7751Z" fill="white"/>
<path d="M33.3492 46.3788C31.2084 47.8364 41.5322 58.0796 46.0138 58.9581C47.4543 59.2377 47.5943 58.2193 46.3339 56.2825C45.2135 54.5653 43.4729 52.8282 42.7326 52.0894C37.5907 47.2374 34.1494 45.8197 33.3492 46.3788Z" fill="white"/>
<path d="M18.2239 33.2005C16.4232 34.698 26.6669 43.7432 30.8485 44.3422C32.1689 44.5219 32.1889 43.5634 30.8885 41.8263C29.708 40.2689 27.9674 38.7314 27.2271 38.0725C22.1453 33.7995 18.9041 32.6414 18.2239 33.2005Z" fill="white"/>
<path d="M2.39851 20.9206C0.89796 22.4182 11.7419 30.7245 14.8831 30.4649C16.2235 30.3651 15.0031 28.4083 12.042 25.9124C11.6819 25.6129 11.1817 25.2136 10.8016 24.914C5.91979 21.28 2.9387 20.3815 2.39851 20.9206Z" fill="white"/>
<path d="M123.742 202.482C122.322 202.502 123.122 206.615 124.883 208.412C125.823 209.371 126.563 209.111 126.623 207.813C126.663 207.135 126.483 206.456 126.383 206.056C125.603 203.58 124.363 202.482 123.742 202.482Z" fill="white"/>
<path d="M117.34 183.094C115.639 183.214 117.08 188.385 119.32 190.182C120.441 191.081 121.181 190.522 121.021 188.884C120.941 188.186 120.741 187.507 120.601 187.127C119.56 184.252 118.06 183.034 117.34 183.094Z" fill="white"/>
<path d="M109.757 164.085C107.816 164.345 109.877 170.295 112.598 172.252C113.958 173.23 114.759 172.531 114.459 170.635C114.339 169.816 114.038 169.057 113.858 168.598C112.398 165.283 110.577 163.966 109.757 164.085Z" fill="white"/>
<path d="M101.054 145.576C98.9337 145.995 101.695 152.644 104.836 154.681C106.416 155.699 107.237 154.861 106.757 152.724C106.536 151.806 106.156 150.947 105.916 150.448C104.056 146.794 101.955 145.396 101.054 145.576Z" fill="white"/>
<path d="M91.2506 127.645C88.9898 128.264 92.5511 135.532 96.1324 137.629C97.793 138.607 98.6533 137.809 98.1731 135.752C97.893 134.554 97.2928 133.456 96.9327 132.797C94.6118 128.803 92.211 127.386 91.2506 127.645Z" fill="white"/>
<path d="M80.3863 110.294C78.0254 111.112 82.447 118.959 86.4685 121.036C88.3692 122.034 89.2095 121.116 88.5092 118.84C88.1091 117.542 87.3888 116.364 86.9486 115.665C84.0676 111.392 81.3866 109.954 80.3863 110.294Z" fill="white"/>
<path d="M68.5019 93.6611C65.921 94.7792 71.8632 103.605 76.2448 105.182C78.1855 105.881 78.7257 104.563 77.5853 102.007C77.0451 100.809 76.3248 99.7511 75.8846 99.1321C72.4834 94.6195 69.5223 93.2218 68.5019 93.6611Z" fill="white"/>
<path d="M55.6577 77.7472C53.0767 79.085 60.0393 88.23 64.741 89.6676C66.8218 90.3066 67.2819 88.8689 65.8614 86.1734C65.2012 84.9154 64.3409 83.8372 63.8207 83.1983C59.8992 78.5459 56.6981 77.2081 55.6577 77.7472Z" fill="white"/>
<path d="M41.9725 62.692C39.4716 64.2694 47.3745 73.4343 52.2762 74.6723C54.457 75.2114 54.7972 73.6939 53.1165 70.9584C52.3363 69.6805 51.3559 68.6023 50.7757 67.9434C46.3341 63.291 42.9529 62.073 41.9725 62.692Z" fill="white"/>
<path d="M27.6275 48.6551C25.2267 50.4522 34.5901 59.8367 39.1517 60.1762C41.2125 60.3359 40.8524 58.1994 38.3315 55.2044C37.7312 54.5055 37.131 53.9065 36.6708 53.4273C31.9491 49.0145 28.5279 47.9762 27.6275 48.6551Z" fill="white"/>
<path d="M12.7421 35.6764C10.6614 37.5133 20.1648 45.9794 24.4264 46.0793C26.3471 46.1192 25.8269 44.1025 23.2259 41.367C22.6057 40.728 21.9455 40.149 21.5253 39.7497C16.7836 35.7962 13.5424 34.9775 12.7421 35.6764Z" fill="white"/>
<path d="M-2.78334 23.6162C-4.50397 25.4332 4.85945 32.8211 8.72085 32.6813C10.4415 32.6214 9.80124 30.7645 7.2003 28.3684C6.60008 27.8093 6.01987 27.3501 5.51969 26.9707C0.877998 23.5164 -2.1231 22.9174 -2.78334 23.6162Z" fill="white"/>
<path d="M114.079 201.045C112.538 201.124 113.198 204.918 115.039 206.516C116.159 207.494 117.02 206.995 116.94 205.397C116.92 204.938 116.84 204.619 116.74 204.259C116.039 201.983 114.759 201.005 114.079 201.045Z" fill="white"/>
<path d="M107.857 182.156C106.056 182.355 107.137 186.868 109.418 188.685C110.798 189.783 111.779 189.104 111.558 187.227C111.498 186.668 111.378 186.269 111.238 185.85C110.218 183.154 108.657 182.076 107.857 182.156Z" fill="white"/>
<path d="M100.534 163.766C98.5333 164.105 100.114 169.237 102.795 171.174C104.435 172.352 105.476 171.513 105.076 169.357C104.976 168.738 104.796 168.278 104.596 167.819C103.275 164.764 101.414 163.606 100.534 163.766Z" fill="white"/>
<path d="M92.0906 145.795C89.9098 146.335 92.0706 152.105 95.2117 154.142C96.9924 155.3 98.1128 154.481 97.7127 152.305C97.5526 151.426 97.1924 150.627 96.9724 150.168C95.2317 146.774 93.071 145.556 92.0906 145.795Z" fill="white"/>
<path d="M82.6078 128.424C80.1469 129.203 83.3681 135.991 87.0294 137.749C89.0301 138.707 89.9504 137.469 89.1301 134.933C88.87 134.154 88.59 133.595 88.2698 132.996C86.089 129.302 83.6482 128.104 82.6078 128.424Z" fill="white"/>
<path d="M72.0835 111.612C69.5026 112.61 73.504 119.898 77.5855 121.595C79.8063 122.534 80.7066 121.116 79.6262 118.38C79.3061 117.542 78.946 116.943 78.5658 116.324C75.9049 112.39 73.1839 111.192 72.0835 111.612Z" fill="white"/>
<path d="M60.6391 95.538C58.0182 96.776 62.8199 104.364 67.2215 105.961C69.6224 106.839 70.4627 105.262 69.1022 102.367C68.682 101.468 68.2619 100.849 67.8017 100.21C64.7006 96.1171 61.7595 95.0189 60.6391 95.538Z" fill="white"/>
<path d="M48.2546 80.1433C45.6737 81.6208 51.2757 89.408 55.9374 90.8457C58.5184 91.6244 59.2186 89.9072 57.578 86.9121C57.0778 85.9936 56.5576 85.3347 56.0575 84.6958C52.4962 80.5226 49.355 79.5243 48.2546 80.1433Z" fill="white"/>
<path d="M35.0504 65.5872C32.3894 67.3843 39.3719 75.6307 44.1737 76.3495C46.6346 76.7289 46.8747 74.6124 44.7139 71.5574C44.2537 70.8985 43.7535 70.3195 43.3534 69.8802C39.392 65.747 36.1108 64.8884 35.0504 65.5872Z" fill="white"/>
<path d="M21.2047 51.9696C18.7638 53.9064 26.2466 61.7535 30.9683 62.2127C33.4092 62.4523 33.4492 60.3358 31.0883 57.4006C30.5682 56.7617 30.028 56.2026 29.6278 55.8033C25.4263 51.8897 22.1851 51.2108 21.2047 51.9696Z" fill="white"/>
<path d="M6.66011 39.2505C4.49932 41.2472 12.2621 48.4753 16.7838 48.675C19.1046 48.7749 18.9846 46.7182 16.4837 43.9827C15.9435 43.3837 15.3833 42.8845 14.9631 42.5052C10.6616 38.931 7.52042 38.4518 6.66011 39.2505Z" fill="white"/>
<path d="M-8.48623 27.43C-10.3069 29.4267 -2.56408 35.8162 1.61744 35.7563C3.75823 35.7363 3.45812 33.7995 0.937204 31.3635C0.397008 30.8444 -0.143193 30.4051 -0.583354 30.0656C-4.8249 26.9308 -7.74596 26.6513 -8.48623 27.43Z" fill="white"/>
<path d="M103.355 200.066C101.835 200.186 102.255 203.341 103.975 204.878C105.216 205.996 106.296 205.417 106.156 203.7C106.136 203.401 106.056 203.121 105.996 202.902C105.336 200.845 104.056 200.006 103.355 200.066Z" fill="white"/>
<path d="M97.3728 181.836C95.5321 182.096 96.4524 186.189 98.6933 187.746C100.154 188.765 101.214 187.926 100.914 186.009C100.854 185.65 100.754 185.33 100.674 185.051C99.7537 182.655 98.1931 181.736 97.3728 181.836Z" fill="white"/>
<path d="M90.2905 164.045C88.2097 164.465 89.5702 169.157 92.2312 170.814C93.9918 171.893 95.1523 170.894 94.6521 168.678C94.552 168.258 94.432 167.899 94.312 167.6C93.0915 164.844 91.2308 163.866 90.2905 164.045Z" fill="white"/>
<path d="M82.1668 146.734C79.866 147.353 81.7467 152.624 84.8878 154.341C86.9285 155.459 88.149 154.222 87.4287 151.746C87.2887 151.266 87.1086 150.867 86.9485 150.528C85.348 147.453 83.1872 146.454 82.1668 146.734Z" fill="white"/>
<path d="M73.0043 129.902C70.5634 130.74 73.0244 136.551 76.5857 138.288C78.9265 139.426 80.1469 137.968 79.1666 135.213C78.9865 134.694 78.7464 134.214 78.5464 133.875C76.5456 130.52 74.1047 129.542 73.0043 129.902Z" fill="white"/>
<path d="M62.9206 113.748C60.3796 114.826 63.4607 120.996 67.3822 122.673C69.9431 123.772 71.1435 122.114 69.9031 119.179C69.663 118.62 69.3629 118.141 69.1428 117.761C66.742 114.187 64.061 113.269 62.9206 113.748Z" fill="white"/>
<path d="M51.8957 98.2335C49.1947 99.5913 53.4163 106.48 57.6778 107.658C60.3588 108.397 61.1791 106.24 59.3585 103.125C59.1784 102.826 58.9183 102.427 58.7182 102.127C55.9372 98.4731 53.0561 97.6545 51.8957 98.2335Z" fill="white"/>
<path d="M40.012 83.4179C37.351 85.0153 42.2328 91.9838 46.7145 92.9822C49.5355 93.6012 50.1957 91.3049 48.095 88.1302C47.8949 87.8107 47.5748 87.4114 47.3347 87.1118C44.1935 83.4379 41.1524 82.739 40.012 83.4179Z" fill="white"/>
<path d="M27.3271 69.381C24.7662 71.1781 30.2482 78.1067 34.8699 78.8854C37.7709 79.3646 38.2511 76.9486 35.8902 73.7938C35.6502 73.4743 35.31 73.0949 35.0499 72.7954C31.5487 69.1414 28.4275 68.6023 27.3271 69.381Z" fill="white"/>
<path d="M13.9428 56.1628C11.5619 58.0996 17.5041 64.7287 22.0858 65.2478C24.7868 65.5473 25.2269 63.4109 23.0661 60.5755C22.626 59.9965 22.1658 59.5173 21.7857 59.1379C18.2644 55.9032 15.1232 55.1844 13.9428 56.1628Z" fill="white"/>
<path d="M-0.142604 43.783C-2.24337 45.7997 3.9589 51.9496 8.38051 52.2092C10.9815 52.3689 11.2415 50.2524 8.9207 47.5968C8.44052 47.0577 7.96035 46.6184 7.58021 46.259C3.75882 43.1241 0.757724 42.9244 -0.142604 43.783Z" fill="white"/>
<path d="M96.3123 217.478C95.1319 217.537 95.2119 219.694 96.4524 220.772C97.3927 221.591 98.3331 221.112 98.233 219.834C98.233 219.714 98.193 219.574 98.173 219.474C97.8129 218.057 96.8725 217.458 96.3123 217.478Z" fill="white"/>
<path d="M91.6306 199.547C90.13 199.707 90.4302 202.482 92.0908 203.8C93.3512 204.798 94.4917 204.099 94.2516 202.462C94.2316 202.322 94.1915 202.123 94.1515 202.003C93.5713 200.186 92.3308 199.487 91.6306 199.547Z" fill="white"/>
<path d="M85.8684 182.056C84.1478 182.335 84.708 185.69 86.7287 187.108C88.2893 188.206 89.5698 187.287 89.1696 185.37C89.1296 185.191 89.0696 184.971 89.0096 184.791C88.2093 182.695 86.7088 181.936 85.8684 182.056Z" fill="white"/>
<path d="M79.0863 164.924C77.0656 165.383 77.9659 169.257 80.4668 170.834C82.2474 171.952 83.648 170.994 83.2678 168.937C83.1878 168.558 83.0677 168.239 82.9677 167.979C81.8473 165.523 80.0267 164.724 79.0863 164.924Z" fill="white"/>
<path d="M71.303 148.291C69.1022 148.95 70.4026 153.283 73.3037 154.94C75.3644 156.098 76.865 154.92 76.2648 152.604C76.1647 152.185 76.0047 151.806 75.8646 151.526C74.4241 148.791 72.3233 147.992 71.303 148.291Z" fill="white"/>
<path d="M62.5601 132.198C60.2192 133.076 61.9599 137.809 65.2411 139.426C67.6219 140.624 69.1425 139.246 68.3022 136.65C68.1421 136.191 67.942 135.772 67.782 135.472C66.0013 132.537 63.6605 131.798 62.5601 132.198Z" fill="white"/>
<path d="M52.8565 116.643C50.2756 117.801 52.9165 123.272 56.6579 124.57C59.2388 125.469 60.5393 123.552 59.2188 120.777C59.0988 120.517 58.8987 120.178 58.7387 119.918C56.6179 116.783 54.0169 116.124 52.8565 116.643Z" fill="white"/>
<path d="M42.2925 101.708C39.6915 103.086 42.8727 108.796 46.8941 109.974C49.6752 110.773 50.8756 108.656 49.275 105.761C49.115 105.482 48.8749 105.142 48.7148 104.883C46.2339 101.648 43.4729 101.069 42.2925 101.708Z" fill="white"/>
<path d="M30.9685 87.5112C28.4276 89.0886 32.1089 94.8391 36.2704 95.8175C39.2115 96.5164 40.2519 94.28 38.3712 91.3049C38.1911 91.0254 37.931 90.666 37.731 90.4064C34.9499 87.2316 32.1089 86.7923 30.9685 87.5112Z" fill="white"/>
<path d="M18.7642 73.9535C16.3233 75.7306 20.5049 81.4811 24.8064 82.2599C27.8476 82.8189 28.7279 80.4428 26.5871 77.4677C26.387 77.1882 26.0869 76.8487 25.8668 76.5892C22.6457 73.2547 19.7846 73.2147 18.7642 73.9535Z" fill="white"/>
<path d="M5.89964 61.2144C3.53878 63.2311 8.62064 69.0615 12.9022 69.2212C15.7432 69.3211 16.0433 66.6255 13.4824 63.89C13.3624 63.7702 13.2023 63.5905 13.0823 63.4707C9.82107 60.4756 6.92002 60.3558 5.89964 61.2144Z" fill="white"/>
<path d="M-7.605 49.294C-9.74578 51.3906 -4.40385 56.8017 -0.302354 56.7018C2.47866 56.6419 2.53868 54.0462 -0.162303 51.4505C-0.282347 51.3307 -0.462411 51.1709 -0.582455 51.0711C-3.92367 48.3556 -6.70468 48.3955 -7.605 49.294Z" fill="white"/>
<path d="M83.4074 216.699C82.387 216.759 82.347 218.376 83.3474 219.275C84.2077 220.053 85.148 219.674 85.088 218.576C85.088 218.476 85.068 218.356 85.048 218.276C84.7479 217.138 83.9076 216.659 83.4074 216.699Z" fill="white"/>
<path d="M78.9465 199.567C77.626 199.727 77.706 201.863 79.0865 202.961C80.267 203.9 81.4474 203.341 81.2673 201.903C81.2473 201.783 81.2073 201.624 81.1873 201.524C80.6671 199.966 79.5467 199.487 78.9465 199.567Z" fill="white"/>
<path d="M73.4444 182.755C71.8239 183.054 72.0839 185.71 73.8846 187.008C75.4052 188.106 76.8457 187.307 76.5056 185.53C76.4855 185.39 76.4255 185.191 76.3855 185.051C75.6653 183.234 74.2247 182.615 73.4444 182.755Z" fill="white"/>
<path d="M66.9616 166.401C65.0809 166.861 65.6011 169.996 67.7819 171.393C69.6626 172.591 71.2632 171.553 70.743 169.476C70.703 169.317 70.6229 169.077 70.5629 168.917C69.5425 166.681 67.8219 166.182 66.9616 166.401Z" fill="white"/>
<path d="M59.5391 150.488C57.3583 151.187 58.3987 154.96 61.1196 156.258C63.1804 157.257 64.701 155.919 64.0207 153.742C63.9607 153.543 63.8407 153.303 63.7606 153.103C62.5202 150.767 60.5394 150.168 59.5391 150.488Z" fill="white"/>
<path d="M51.2156 135.113C48.9148 136.011 50.3153 140.125 53.3564 141.403C55.6973 142.381 57.2578 140.824 56.3375 138.427C56.2575 138.208 56.1174 137.948 56.0174 137.749C54.4968 135.233 52.296 134.694 51.2156 135.113Z" fill="white"/>
<path d="M41.9522 120.197C39.5113 121.336 41.352 125.788 44.7532 126.986C47.3942 127.925 48.9347 126.148 47.7543 123.552C47.6543 123.332 47.4742 123.033 47.3542 122.813C45.6135 120.297 43.2727 119.598 41.9522 120.197Z" fill="white"/>
<path d="M31.9091 105.941C29.4482 107.299 31.709 111.931 35.3504 113.029C38.1514 113.868 39.6719 111.851 38.2514 109.176C38.1314 108.936 37.9313 108.636 37.7712 108.417C35.6104 105.641 33.0495 105.302 31.9091 105.941Z" fill="white"/>
<path d="M21.0452 92.3233C18.6443 93.8608 21.3053 98.5731 25.1066 99.4915C28.0477 100.21 29.4282 98.014 27.7676 95.2984C27.6275 95.0588 27.3875 94.7593 27.2274 94.5197C24.8465 91.8042 22.1856 91.5845 21.0452 92.3233Z" fill="white"/>
<path d="M9.48089 79.3845C7.10002 81.1816 10.5413 86.1135 14.4827 86.5328C17.4038 86.8522 18.2841 84.2964 16.1833 81.6807C16.1033 81.5609 15.9633 81.4212 15.8632 81.3014C13.2423 78.6457 10.5413 78.5858 9.48089 79.3845Z" fill="white"/>
<path d="M-2.82364 67.1646C-5.04445 69.0815 -1.26308 73.8336 2.63834 74.0333C5.5394 74.1731 6.21965 71.5973 3.93882 69.1014C3.83878 68.9816 3.69873 68.8418 3.5987 68.742C0.817684 66.2062 -1.82328 66.306 -2.82364 67.1646Z" fill="white"/>
<path d="M69.5225 216.319C68.6622 216.379 68.6022 217.597 69.4225 218.236C70.1627 218.835 71.003 218.456 70.883 217.557C70.883 217.517 70.883 217.477 70.863 217.438C70.6229 216.579 69.9226 216.279 69.5225 216.319Z" fill="white"/>
<path d="M65.281 199.966C64.0806 200.126 64.1006 201.863 65.301 202.742C66.4014 203.541 67.5618 202.902 67.3218 201.644C67.3218 201.604 67.3017 201.524 67.2817 201.484C66.8816 200.246 65.8412 199.887 65.281 199.966Z" fill="white"/>
<path d="M60.0796 184.013C58.6191 184.312 58.7791 186.489 60.3397 187.487C61.7602 188.405 63.1408 187.547 62.7406 185.989C62.7206 185.929 62.7006 185.85 62.6806 185.79C62.0803 184.332 60.7999 183.873 60.0796 184.013Z" fill="white"/>
<path d="M53.9372 168.458C52.2165 168.917 52.5767 171.493 54.4974 172.591C56.238 173.57 57.7986 172.472 57.2183 170.655C57.1983 170.575 57.1583 170.495 57.1383 170.415C56.338 168.698 54.7775 168.239 53.9372 168.458Z" fill="white"/>
<path d="M46.8946 153.303C44.9739 153.942 45.5741 156.917 47.8349 158.035C49.8157 159.014 51.4763 157.836 50.8961 155.859C50.856 155.699 50.756 155.479 50.696 155.32C49.6556 153.403 47.8549 152.984 46.8946 153.303Z" fill="white"/>
<path d="M38.9914 138.647C36.9507 139.486 37.831 142.74 40.3919 143.859C42.6327 144.837 44.3334 143.419 43.5531 141.263C43.4931 141.083 43.373 140.863 43.293 140.684C42.0125 138.587 40.0118 138.228 38.9914 138.647Z" fill="white"/>
<path d="M30.2285 124.47C28.0677 125.509 29.2482 129.043 32.1092 130.121C34.6101 131.06 36.3708 129.402 35.3704 127.086C35.2904 126.886 35.1503 126.647 35.0303 126.467C33.5897 124.371 31.469 123.871 30.2285 124.47Z" fill="white"/>
<path d="M20.6845 110.913C18.4837 112.151 19.9842 115.845 23.0653 116.803C25.7463 117.642 27.487 115.765 26.2665 113.369C26.1665 113.169 26.0064 112.909 25.8664 112.73C24.1057 110.434 21.7649 110.274 20.6845 110.913Z" fill="white"/>
<path d="M10.3811 97.914C8.10027 99.4315 10.221 103.425 13.6423 104.024C16.4633 104.503 17.8038 102.247 16.1432 99.8509C16.0832 99.751 15.9631 99.6312 15.9031 99.5314C13.8624 97.2352 11.4615 97.1952 10.3811 97.914Z" fill="white"/>
<path d="M-0.623172 85.5744C-2.84398 87.2716 -0.403091 91.2251 3.09819 91.6244C5.95923 91.9638 7.17967 89.5678 5.319 87.2117C5.23897 87.1118 5.13892 86.992 5.05889 86.8922C2.83808 84.6758 0.3972 84.7956 -0.623172 85.5744Z" fill="white"/>
<path d="M54.717 216.26C54.0968 216.319 53.9968 217.098 54.537 217.557C55.0772 218.017 55.8175 217.737 55.7574 217.118C55.7574 217.098 55.7574 217.058 55.7374 217.038C55.5774 216.419 55.0172 216.24 54.717 216.26Z" fill="white"/>
<path d="M50.7162 200.825C49.7759 200.985 49.6958 202.183 50.5762 202.842C51.4565 203.501 52.5369 203.021 52.3568 202.043C52.3568 202.003 52.3368 201.963 52.3368 201.923C52.0367 201.025 51.1964 200.745 50.7162 200.825Z" fill="white"/>
<path d="M45.8341 185.77C44.6537 186.029 44.6537 187.567 45.8141 188.345C47.0146 189.144 48.335 188.445 48.0349 187.207C48.0149 187.167 47.9949 187.107 47.9749 187.048C47.5348 185.949 46.4543 185.63 45.8341 185.77Z" fill="white"/>
<path d="M40.0319 171.034C38.5913 171.433 38.6914 173.35 40.1919 174.229C41.7325 175.127 43.3131 174.189 42.8529 172.651C42.8329 172.591 42.8129 172.511 42.7929 172.472C42.1526 171.114 40.7921 170.814 40.0319 171.034Z" fill="white"/>
<path d="M33.3898 156.677C31.7492 157.256 32.0093 159.493 33.81 160.431C35.6507 161.37 37.4113 160.172 36.7711 158.415C36.751 158.355 36.711 158.275 36.691 158.195C35.8307 156.657 34.2501 156.378 33.3898 156.677Z" fill="white"/>
<path d="M25.927 142.8C24.1463 143.539 24.6065 146.055 26.6873 146.993C28.708 147.892 30.5487 146.634 29.9085 144.777C29.8684 144.637 29.7684 144.438 29.6884 144.298C28.608 142.521 26.8073 142.441 25.927 142.8Z" fill="white"/>
<path d="M17.6839 129.402C15.6831 130.401 16.5635 133.316 19.0844 134.055C21.3852 134.754 23.0658 133.056 22.0455 131.08C22.0054 131 21.9454 130.9 21.9054 130.82C20.5449 128.943 18.5842 128.943 17.6839 129.402Z" fill="white"/>
<path d="M8.70036 116.563C6.69963 117.722 7.82004 120.777 10.501 121.415C12.9619 122.014 14.6025 120.118 13.3821 118.081C13.3421 118.001 13.262 117.901 13.202 117.821C11.7415 116.004 9.70072 115.984 8.70036 116.563Z" fill="white"/>
<path d="M-1.04344 104.244C-3.04417 105.581 -1.64365 108.736 1.17737 109.255C3.77832 109.735 5.35889 107.638 3.93837 105.562C3.87835 105.482 3.79833 105.382 3.73831 105.302C2.09771 103.465 -0.0430726 103.585 -1.04344 104.244Z" fill="white"/>
<path d="M39.0513 216.619C38.7312 216.659 38.5712 217.018 38.8913 217.278C39.2114 217.537 39.6716 217.398 39.6315 217.058C39.6315 217.038 39.6315 217.018 39.6315 217.018C39.5515 216.759 39.2514 216.599 39.0513 216.619Z" fill="white"/>
<path d="M35.3099 202.123C34.6296 202.243 34.5296 203.001 35.1498 203.401C35.79 203.82 36.5503 203.481 36.4703 202.862C36.4703 202.842 36.4503 202.802 36.4503 202.782C36.2502 202.243 35.67 202.063 35.3099 202.123Z" fill="white"/>
<path d="M30.7087 187.926C29.7683 188.146 29.6483 189.184 30.4886 189.763C31.4289 190.402 32.6494 189.883 32.4293 188.924C32.4293 188.885 32.4093 188.845 32.4093 188.805C32.0892 188.006 31.2289 187.806 30.7087 187.926Z" fill="white"/>
<path d="M25.2865 174.049C24.106 174.388 24.046 175.766 25.1664 176.425C26.4269 177.164 27.9474 176.405 27.5873 175.207C27.5673 175.167 27.5473 175.107 27.5273 175.067C27.0671 174.129 26.0267 173.829 25.2865 174.049Z" fill="white"/>
<path d="M19.0846 160.591C17.6641 161.11 17.7841 162.847 19.2847 163.506C20.8052 164.165 22.3658 163.167 21.8656 161.809C21.8456 161.769 21.8256 161.689 21.7856 161.649C21.1053 160.431 19.7648 160.351 19.0846 160.591Z" fill="white"/>
<path d="M12.1021 147.553C10.5415 148.231 10.8016 150.188 12.5422 150.847C14.3029 151.506 15.9635 150.268 15.3232 148.771C15.3032 148.711 15.2632 148.651 15.2232 148.591C14.3629 147.213 12.8623 147.233 12.1021 147.553Z" fill="white"/>
<path d="M4.35906 134.933C2.65844 135.792 3.0986 137.988 5.07933 138.607C7.08006 139.226 8.82069 137.729 8.00039 136.111C7.96038 136.051 7.92037 135.972 7.88035 135.912C6.89999 134.494 5.21938 134.494 4.35906 134.933Z" fill="white"/>
<path d="M-4.08401 122.833C-5.78463 123.851 -5.1644 126.168 -3.04362 126.727C-0.882835 127.286 0.877805 125.569 -0.12256 123.871C-0.162574 123.812 -0.202589 123.732 -0.26261 123.672C-1.40303 122.214 -3.18368 122.314 -4.08401 122.833Z" fill="white"/>
<path d="M22.4854 217.398L22.5454 217.438L22.6054 217.398L22.5254 217.358L22.4854 217.398Z" fill="white"/>
<path d="M19.0445 203.82C18.6843 203.88 18.6243 204.219 18.9044 204.439C19.2646 204.699 19.7247 204.479 19.6647 204.159C19.6647 204.139 19.6647 204.139 19.6647 204.12C19.5847 203.86 19.2445 203.78 19.0445 203.82Z" fill="white"/>
<path d="M14.783 190.562C14.1627 190.722 14.0427 191.361 14.6029 191.7C15.2231 192.079 16.0434 191.72 15.9234 191.141C15.9234 191.121 15.9034 191.101 15.9034 191.081C15.7233 190.622 15.1831 190.462 14.783 190.562Z" fill="white"/>
<path d="M9.7411 177.623C8.84077 177.903 8.76074 178.821 9.58104 179.26C10.5014 179.74 11.6618 179.181 11.4217 178.342C11.4217 178.322 11.4017 178.282 11.3817 178.262C11.0616 177.523 10.2013 177.483 9.7411 177.623Z" fill="white"/>
<path d="M3.97914 165.064C2.91876 165.463 2.87876 166.601 3.89913 167.08C5.07956 167.619 6.44005 166.841 6.07992 165.842C6.05991 165.802 6.03991 165.762 6.03991 165.723C5.61976 164.964 4.65939 164.804 3.97914 165.064Z" fill="white"/>
<path d="M-2.52317 152.864C-3.7236 153.403 -3.68358 154.761 -2.46313 155.26C-1.04261 155.819 0.477933 154.801 -0.00224233 153.643C-0.0222497 153.603 -0.0422544 153.563 -0.0622618 153.503C-0.662481 152.584 -1.86293 152.564 -2.52317 152.864Z" fill="white"/>
<path d="M1.97754 205.897L2.01756 205.937L2.05757 205.897L1.99755 205.857L1.97754 205.897Z" fill="white"/>
</g>
<defs>
<clipPath id="clip0_447_4931">
<rect width="172" height="218" fill="white" transform="translate(0 0.102051)"/>
</clipPath>
</defs>
</svg>
