<svg width="172" height="219" viewBox="0 0 172 219" fill="none" xmlns="http://www.w3.org/2000/svg">
<g opacity="0.2" clip-path="url(#clip0_447_5318)">
<path d="M21.4482 201.104C21.4082 201.324 19.3075 207.294 19.0474 207.953C19.1074 207.754 19.1674 207.574 19.2274 207.374L21.1681 201.803C21.2882 201.584 21.3482 201.344 21.4482 201.104Z" fill="white"/>
<path d="M29.3907 180.918C28.9905 181.856 27.4299 185.57 26.6096 187.607L29.4707 180.738C29.4507 180.798 29.4107 180.858 29.3907 180.918Z" fill="white"/>
<path d="M17.0061 217.817C17.0061 217.817 17.0261 217.797 17.0461 217.797C17.3262 218.037 15.5656 223.867 15.1654 224.047C15.1254 223.967 15.0254 223.787 15.6656 221.531C16.3259 219.195 16.8661 217.937 17.0061 217.817Z" fill="white"/>
<path d="M23.9692 196.572C23.9692 196.572 23.9892 196.552 24.0092 196.552C24.2493 197.271 21.5683 203.94 21.2682 204.08C21.2282 204 21.1482 203.76 22.1085 201.025C23.1089 198.149 23.7891 196.692 23.9692 196.572Z" fill="white"/>
<path d="M32.1717 175.846C32.1917 175.846 32.1917 175.846 32.2117 175.826C32.3518 176.685 28.8505 184.252 28.5304 184.392C28.5304 184.292 28.4704 184.013 29.7508 180.938C31.1113 177.683 31.9916 175.986 32.1717 175.846Z" fill="white"/>
<path d="M41.5752 155.739C41.5752 155.739 41.5952 155.759 41.6152 155.759C41.4552 156.717 37.6538 164.325 36.9335 165.144C36.9135 165.144 36.8935 165.124 36.8935 165.124C36.9535 164.764 37.5138 163.486 38.5741 161.31C40.5149 157.336 41.4352 155.839 41.5752 155.739Z" fill="white"/>
<path d="M52.1587 136.211C52.2187 136.89 46.8167 145.915 46.3966 146.374C46.3766 146.275 46.3766 146.075 48.5374 142.201C50.7582 138.288 51.9986 136.351 52.1587 136.211Z" fill="white"/>
<path d="M63.8828 117.402C63.7228 118.141 57.3804 127.665 56.9603 128.164C56.9803 128.065 57.0203 127.845 59.6413 123.772C62.3223 119.559 63.7228 117.502 63.8828 117.402Z" fill="white"/>
<path d="M76.7275 99.2319C76.3874 99.9308 69.2448 109.655 68.5446 110.493C68.7046 110.154 68.9447 109.874 69.1648 109.575L73.1062 104.084L75.9673 100.23C76.2073 99.8909 76.4074 99.5115 76.7275 99.2319Z" fill="white"/>
<path d="M90.5332 82.0002C89.0327 83.8772 81.83 92.6627 81.2298 93.3616L90.5332 82.0002Z" fill="white"/>
<path d="M104.798 66.1264C103.438 67.564 97.4356 74.0733 95.5149 76.2497L104.818 66.0864C104.818 66.1064 104.798 66.1064 104.798 66.1264Z" fill="white"/>
<path d="M118.223 52.6685C116.443 54.3657 114.262 56.5022 112.521 58.2393L118.363 52.5487C118.323 52.5687 118.263 52.6286 118.223 52.6685Z" fill="white"/>
<path d="M20.8272 213.724C21.3474 213.524 20.5671 216.919 19.5667 219.155C19.1466 220.093 18.8264 220.513 18.7264 220.253C18.6664 220.113 18.6064 219.614 19.1466 217.617C19.8868 215.082 20.5871 213.804 20.8272 213.724Z" fill="white"/>
<path d="M27.7299 192.678C28.3101 192.479 27.1097 196.532 25.7893 199.148C25.2491 200.246 24.8289 200.725 24.7489 200.406C24.6888 200.246 24.6888 199.627 25.4891 197.231C26.5495 194.256 27.4498 192.778 27.7299 192.678Z" fill="white"/>
<path d="M35.8929 172.112C35.9129 172.112 35.9329 172.112 35.9729 172.112C36.6132 172.691 32.9118 180.998 31.9715 181.077C31.7314 180.878 32.1115 179.54 33.0119 177.324C34.4724 173.889 35.5728 172.212 35.8929 172.112Z" fill="white"/>
<path d="M45.2568 152.165C45.2768 152.165 45.2968 152.165 45.3168 152.165C45.917 152.864 41.1753 162.029 40.2149 162.089C39.9949 161.849 40.5351 160.351 41.7155 157.896C43.5962 154.082 44.9167 152.245 45.2568 152.165Z" fill="white"/>
<path d="M55.8004 132.797C55.8204 132.797 55.8404 132.797 55.8604 132.797C56.3606 133.615 50.4984 143.579 49.5381 143.559C49.338 143.28 50.0783 141.642 51.5588 138.947C53.8997 134.833 55.4603 132.877 55.8004 132.797Z" fill="white"/>
<path d="M67.4843 114.088C67.5043 114.088 67.5243 114.088 67.5443 114.088C67.9044 115.006 60.8419 125.629 59.9015 125.569C59.7615 125.249 60.6818 123.512 62.5025 120.637C65.3635 116.204 67.1442 114.127 67.4843 114.088Z" fill="white"/>
<path d="M80.2089 96.157C80.2289 96.157 80.2489 96.177 80.2689 96.177C80.469 97.1753 72.2059 108.197 71.3456 108.097C71.2656 107.758 72.406 105.921 74.5468 102.926C77.928 98.3134 79.8888 96.1969 80.2089 96.157Z" fill="white"/>
<path d="M93.9947 79.0051C94.0147 79.0251 94.0347 79.065 94.0547 79.105C93.4345 80.7822 85.1714 90.626 83.891 91.225C83.871 91.1851 83.851 91.1651 83.831 91.1452C84.051 90.5262 85.3515 88.7491 87.6724 85.8938C91.5538 81.1416 93.6946 79.0051 93.9947 79.0051Z" fill="white"/>
<path d="M108.679 62.7719C108.899 63.7103 98.3755 74.4526 97.4551 74.852C97.4351 74.832 97.4351 74.7921 97.4151 74.7721C97.7352 74.1531 99.1958 72.396 101.777 69.5607C105.298 65.747 108.079 63.0115 108.679 62.7719Z" fill="white"/>
<path d="M124.105 47.5968C124.085 48.5353 113.041 58.6786 112.181 59.038C112.161 58.7784 113.762 57.0812 116.943 53.9863C120.684 50.3922 123.565 47.8164 124.105 47.5968Z" fill="white"/>
<path d="M140.331 33.4202C140.051 34.3387 128.827 43.6034 128.087 43.9029C128.107 43.8031 128.167 43.5236 133.108 39.2506C136.95 35.9161 139.851 33.5799 140.331 33.4202Z" fill="white"/>
<path d="M157.218 20.2617C156.718 21.1203 145.714 29.2469 145.093 29.4866C145.133 29.3867 145.293 29.1271 150.175 25.3733C153.997 22.4581 156.818 20.4015 157.218 20.2617Z" fill="white"/>
<path d="M174.844 8.08179C174.284 8.70077 164.36 15.3299 163.139 15.9888C163.28 15.8291 163.42 15.6493 167.381 12.9737L170.242 11.0569C171.823 9.97866 174.524 8.18162 174.844 8.08179Z" fill="white"/>
<path d="M25.9098 210.09C26.7701 209.91 25.6297 214.542 24.3292 216.419C23.9091 217.038 23.609 217.118 23.529 216.639C23.4489 216.16 23.589 215.301 23.9091 214.063C24.7094 211.447 25.5497 210.17 25.9098 210.09Z" fill="white"/>
<path d="M32.7523 189.364C33.7327 189.204 32.0121 194.655 30.4115 196.832C29.9313 197.45 29.6112 197.59 29.5112 197.191C29.4511 196.911 29.4511 196.113 30.1714 193.976C31.2518 190.901 32.3322 189.424 32.7523 189.364Z" fill="white"/>
<path d="M40.7946 169.097C41.895 168.997 39.5141 175.207 37.5334 177.623C36.9732 178.322 36.593 178.462 36.513 177.983C36.453 177.643 36.533 176.745 37.5134 174.309C39.0339 170.794 40.3544 169.137 40.7946 169.097Z" fill="white"/>
<path d="M50.0585 149.389C51.2389 149.33 48.1178 156.218 45.7569 158.854C45.0767 159.613 44.6565 159.732 44.6365 159.193C44.6165 158.814 44.7766 157.776 46.057 155.08C47.9977 151.206 49.5783 149.409 50.0585 149.389Z" fill="white"/>
<path d="M60.5021 130.241C61.7625 130.261 57.3209 138.487 54.78 140.844C54.3999 141.203 53.7796 141.662 53.7997 140.923C53.8197 140.504 54.0997 139.346 55.7403 136.371C58.1612 132.138 59.9819 130.241 60.5021 130.241Z" fill="white"/>
<path d="M72.086 111.731C73.4265 111.831 68.0245 120.597 65.0234 123.173C64.6033 123.532 63.903 124.031 64.023 123.193C64.1031 122.713 64.5032 121.455 66.5039 118.281C69.465 113.708 71.5458 111.711 72.086 111.731Z" fill="white"/>
<path d="M84.7308 93.9805C86.0713 94.1802 79.6089 103.385 76.2877 106.001C75.5874 106.56 75.2073 106.62 75.2273 106.18C75.2273 105.841 75.5874 104.623 78.3284 100.769C81.8697 95.9573 84.2106 93.9006 84.7308 93.9805Z" fill="white"/>
<path d="M98.4162 77.0085C99.7968 77.308 91.5337 87.5711 88.2325 89.6277C87.6523 89.9871 87.3922 89.9672 87.4723 89.5478C87.5323 89.1685 88.0125 87.8906 91.2336 83.8971C95.3351 78.9653 97.8961 76.9086 98.4162 77.0085Z" fill="white"/>
<path d="M113.001 60.9548C114.322 61.3741 104.098 72.4958 101.257 73.7338C100.957 73.8736 100.857 73.8137 100.777 73.7737C100.637 73.1947 102.177 71.0782 105.138 67.8035C109.78 62.8117 112.541 60.7951 113.001 60.9548Z" fill="white"/>
<path d="M128.266 46.0194C129.427 46.5186 118.523 57.0612 115.742 58.1594C115.442 58.2792 115.362 58.2193 115.302 58.1794C115.262 57.5804 116.962 55.5437 120.143 52.4289C125.045 47.6966 127.846 45.8397 128.266 46.0194Z" fill="white"/>
<path d="M144.172 32.1222C144.552 32.6214 140.991 35.916 138.51 38.0125C134.969 41.0076 131.568 43.3638 131.107 43.1641C131.087 43.1441 131.067 43.1242 131.047 43.1042C131.087 42.5251 132.888 40.6482 136.129 37.8528C140.211 34.3586 143.452 32.0623 144.172 32.1222Z" fill="white"/>
<path d="M160.738 19.2633C160.738 20.8607 148.894 28.9474 147.974 28.8476C147.934 28.3683 149.634 26.7909 153.035 24.1752C156.977 21.1802 160.158 19.1435 160.738 19.2633Z" fill="white"/>
<path d="M178.104 7.28306C177.844 8.74066 166.58 15.5694 165.82 15.4297C165.86 14.9904 167.561 13.6326 170.842 11.3963C174.623 8.86047 177.624 7.16326 178.104 7.28306Z" fill="white"/>
<path d="M32.2119 207.015C33.3323 206.895 32.2119 211.607 30.6713 213.484C30.0711 214.223 29.651 214.143 29.591 213.284C29.5309 212.486 29.831 211.427 29.9511 210.988C30.7314 208.333 31.7517 207.055 32.2119 207.015Z" fill="white"/>
<path d="M38.914 186.668C40.1944 186.608 38.5338 192.099 36.6332 194.196C36.093 194.795 35.5127 195.074 35.4127 194.116C35.3327 193.178 35.8328 191.68 35.9929 191.181C37.1133 188.106 38.3938 186.688 38.914 186.668Z" fill="white"/>
<path d="M46.857 166.761C48.2775 166.761 45.9566 173.031 43.6758 175.367C42.8555 176.205 42.3353 176.146 42.3353 175.207C42.3353 174.109 43.0155 172.412 43.2356 171.853C44.7362 168.318 46.2567 166.761 46.857 166.761Z" fill="white"/>
<path d="M56.0009 147.313C57.5814 147.433 54.1002 155.08 51.4992 157.177C50.6789 157.836 50.2188 157.656 50.2988 156.697C50.3988 155.439 51.2992 153.543 51.5793 152.904C53.56 148.99 55.3606 147.273 56.0009 147.313Z" fill="white"/>
<path d="M66.2641 128.524C67.9447 128.743 63.5031 137.11 60.542 139.306C59.5817 140.005 59.1415 139.785 59.3016 138.687C59.5216 137.289 60.6621 135.193 61.0222 134.514C63.5231 130.221 65.5838 128.424 66.2641 128.524Z" fill="white"/>
<path d="M77.6481 110.354C79.3888 110.713 73.9268 119.678 70.6056 121.915C69.5452 122.633 69.085 122.354 69.3651 121.176C69.7252 119.638 71.1057 117.422 71.5659 116.683C74.607 112.071 76.9679 110.194 77.6481 110.354Z" fill="white"/>
<path d="M90.1533 92.8225C91.9339 93.3217 85.3315 102.866 81.6301 105.122C80.5697 105.761 80.0896 105.562 80.3097 104.563C80.5498 103.485 81.5101 101.748 83.1707 99.3917C86.792 94.5397 89.433 92.6228 90.1533 92.8225Z" fill="white"/>
<path d="M103.698 76.07C105.659 76.7888 97.1555 87.3914 93.2541 89.1285C92.2337 89.5678 91.9336 89.1285 92.4538 87.9105C93.1741 86.1335 95.1748 83.6376 95.8351 82.8189C100.057 77.7273 102.978 75.8104 103.698 76.07Z" fill="white"/>
<path d="M118.183 60.1961C120.084 61.0746 110.32 71.8968 106.179 73.4942C105.499 73.7538 104.798 73.8137 105.319 72.5358C105.819 71.3178 107.219 69.4209 109.46 66.925C114.322 61.7535 117.483 59.8766 118.183 60.1961Z" fill="white"/>
<path d="M133.248 45.4803C134.989 46.4986 123.505 57.6403 120.024 58.2992C119.143 58.459 119.183 57.7601 120.124 56.3824C121.324 54.6253 123.345 52.6285 124.205 51.77C129.407 46.8181 132.628 45.1209 133.248 45.4803Z" fill="white"/>
<path d="M148.715 32.0224C150.155 33.0806 138.751 42.9245 135.57 43.3438C134.77 43.4636 134.89 42.8046 135.85 41.5667C137.09 39.9893 139.131 38.2122 139.991 37.4534C145.153 33.1006 148.194 31.643 148.715 32.0224Z" fill="white"/>
<path d="M164.92 19.4431C166.081 20.4814 154.996 28.9675 152.155 29.2071C151.715 29.247 151.375 29.0473 152.315 27.9292C153.516 26.4716 155.897 24.6346 156.657 24.0356C161.699 20.2618 164.52 19.0837 164.92 19.4431Z" fill="white"/>
<path d="M181.906 7.76231C182.806 8.78064 172.202 15.9489 169.701 16.0088C169.321 16.0088 169.061 15.8291 170.002 14.8307C171.222 13.5728 173.503 11.9954 174.243 11.4962C179.005 8.34136 181.586 7.4029 181.906 7.76231Z" fill="white"/>
<path d="M39.674 204.499C40.9945 204.459 39.9341 209.091 38.2335 210.848C37.4332 211.667 36.893 211.368 36.893 210.13C36.893 209.431 37.0731 208.732 37.1731 208.313C37.9734 205.717 39.1138 204.519 39.674 204.499Z" fill="white"/>
<path d="M46.2368 184.572C47.7573 184.612 46.1968 190.003 44.076 191.979C43.1757 192.818 42.5755 192.578 42.5755 191.341C42.5755 190.442 42.9356 189.364 43.0957 188.905C44.1961 185.909 45.5965 184.572 46.2368 184.572Z" fill="white"/>
<path d="M53.9995 165.104C55.7001 165.243 53.4994 171.393 50.9784 173.55C49.898 174.468 49.2378 174.129 49.3579 172.711C49.4379 171.653 49.918 170.455 50.1181 169.936C51.6187 166.501 53.2993 165.044 53.9995 165.104Z" fill="white"/>
<path d="M62.9626 146.075C64.8232 146.354 61.8622 153.263 58.9011 155.559C57.6206 156.558 56.9404 156.118 57.1805 154.501C57.3605 153.303 58.0008 151.945 58.2609 151.366C60.2016 147.533 62.1823 145.955 62.9626 146.075Z" fill="white"/>
<path d="M73.0265 127.685C75.0473 128.124 70.7657 136.331 67.5045 138.268C66.244 139.006 65.6838 138.427 66.064 136.77C66.3641 135.432 67.1844 133.955 67.5245 133.316C69.9454 129.123 72.1862 127.485 73.0265 127.685Z" fill="white"/>
<path d="M84.2106 109.834C86.3314 110.453 81.0094 119.339 77.3481 121.296C75.9275 122.054 75.3674 121.356 75.9276 119.539C76.3677 118.081 77.3481 116.484 77.7682 115.805C80.7693 111.272 83.3503 109.595 84.2106 109.834Z" fill="white"/>
<path d="M96.4152 92.7426C98.596 93.5413 92.1936 102.926 88.1522 104.843C86.6116 105.582 86.0714 104.803 86.8117 102.846C87.4119 101.269 88.6123 99.5714 89.1125 98.8526C92.6738 94.1004 95.5348 92.4232 96.4152 92.7426Z" fill="white"/>
<path d="M109.68 76.3495C111.961 77.4078 104.458 87.1118 99.8764 89.0087C98.3358 89.6477 97.7956 88.9887 98.4758 87.2316C99.1761 85.4346 100.777 83.3979 101.477 82.5394C105.638 77.5875 108.78 75.9302 109.68 76.3495Z" fill="white"/>
<path d="M123.886 60.7751C126.246 62.0929 116.663 72.7954 112.101 73.9335C110.461 74.3328 110.361 73.1348 111.821 70.7787C112.781 69.2013 114.042 67.8036 114.802 66.9649C119.604 61.8533 123.005 60.2759 123.886 60.7751Z" fill="white"/>
<path d="M138.651 46.3788C140.792 47.8364 130.468 58.0796 125.986 58.9581C124.546 59.2377 124.406 58.2193 125.666 56.2825C126.787 54.5653 128.527 52.8282 129.267 52.0894C134.409 47.2374 137.851 45.8197 138.651 46.3788Z" fill="white"/>
<path d="M153.776 33.2005C155.577 34.698 145.333 43.7432 141.152 44.3422C139.831 44.5219 139.811 43.5634 141.112 41.8263C142.292 40.2689 144.033 38.7314 144.773 38.0725C149.855 33.7995 153.096 32.6414 153.776 33.2005Z" fill="white"/>
<path d="M169.601 20.9206C171.102 22.4182 160.258 30.7245 157.117 30.4649C155.776 30.3651 156.997 28.4083 159.958 25.9124C160.318 25.6129 160.818 25.2136 161.198 24.914C166.08 21.28 169.061 20.3815 169.601 20.9206Z" fill="white"/>
<path d="M48.2577 202.482C49.6782 202.502 48.8779 206.615 47.1173 208.412C46.1769 209.371 45.4367 209.111 45.3766 207.813C45.3366 207.135 45.5167 206.456 45.6167 206.056C46.397 203.58 47.6375 202.482 48.2577 202.482Z" fill="white"/>
<path d="M54.6604 183.094C56.361 183.214 54.9205 188.385 52.6796 190.182C51.5592 191.081 50.819 190.522 50.979 188.884C51.0591 188.186 51.2591 187.507 51.3992 187.127C52.4396 184.252 53.9401 183.034 54.6604 183.094Z" fill="white"/>
<path d="M62.2431 164.085C64.1838 164.345 62.1231 170.295 59.4021 172.252C58.0416 173.23 57.2413 172.531 57.5414 170.635C57.6615 169.816 57.9616 169.057 58.1416 168.598C59.6022 165.283 61.4228 163.966 62.2431 164.085Z" fill="white"/>
<path d="M70.9455 145.576C73.0663 145.995 70.3053 152.644 67.1641 154.681C65.5836 155.699 64.7633 154.861 65.2434 152.724C65.4635 151.806 65.8437 150.947 66.0838 150.448C67.9444 146.794 70.0452 145.396 70.9455 145.576Z" fill="white"/>
<path d="M80.7494 127.645C83.0102 128.264 79.4489 135.532 75.8676 137.629C74.207 138.607 73.3467 137.809 73.8269 135.752C74.107 134.554 74.7072 133.456 75.0673 132.797C77.3882 128.803 79.789 127.386 80.7494 127.645Z" fill="white"/>
<path d="M91.6137 110.294C93.9746 111.112 89.553 118.959 85.5315 121.036C83.6308 122.034 82.7905 121.116 83.4908 118.84C83.8909 117.542 84.6112 116.364 85.0514 115.665C87.9324 111.392 90.6134 109.954 91.6137 110.294Z" fill="white"/>
<path d="M103.498 93.6611C106.079 94.7792 100.137 103.605 95.7552 105.182C93.8145 105.881 93.2743 104.563 94.4147 102.007C94.9549 100.809 95.6752 99.7511 96.1154 99.1321C99.5166 94.6195 102.478 93.2218 103.498 93.6611Z" fill="white"/>
<path d="M116.342 77.7472C118.923 79.085 111.961 88.23 107.259 89.6676C105.178 90.3066 104.718 88.8689 106.139 86.1734C106.799 84.9154 107.659 83.8372 108.179 83.1983C112.101 78.5459 115.302 77.2081 116.342 77.7472Z" fill="white"/>
<path d="M130.028 62.692C132.528 64.2694 124.626 73.4343 119.724 74.6723C117.543 75.2114 117.203 73.6939 118.883 70.9584C119.664 69.6805 120.644 68.6023 121.224 67.9434C125.666 63.291 129.047 62.073 130.028 62.692Z" fill="white"/>
<path d="M144.372 48.6551C146.773 50.4522 137.41 59.8367 132.848 60.1762C130.788 60.3359 131.148 58.1994 133.669 55.2044C134.269 54.5055 134.869 53.9065 135.329 53.4273C140.051 49.0145 143.472 47.9762 144.372 48.6551Z" fill="white"/>
<path d="M159.258 35.6764C161.339 37.5133 151.835 45.9794 147.574 46.0793C145.653 46.1192 146.173 44.1025 148.774 41.367C149.394 40.728 150.055 40.149 150.475 39.7497C155.216 35.7962 158.458 34.9775 159.258 35.6764Z" fill="white"/>
<path d="M174.783 23.6162C176.504 25.4332 167.141 32.8211 163.279 32.6813C161.559 32.6214 162.199 30.7645 164.8 28.3684C165.4 27.8093 165.98 27.3501 166.48 26.9707C171.122 23.5164 174.123 22.9174 174.783 23.6162Z" fill="white"/>
<path d="M57.9213 201.045C59.4619 201.124 58.8016 204.918 56.961 206.516C55.8406 207.494 54.9803 206.995 55.0603 205.397C55.0803 204.938 55.1603 204.619 55.2604 204.259C55.9606 201.983 57.2411 201.005 57.9213 201.045Z" fill="white"/>
<path d="M64.1429 182.156C65.9435 182.355 64.8631 186.868 62.5823 188.685C61.2018 189.783 60.2214 189.104 60.4415 187.227C60.5015 186.668 60.6216 186.269 60.7616 185.85C61.782 183.154 63.3426 182.076 64.1429 182.156Z" fill="white"/>
<path d="M71.466 163.766C73.4667 164.105 71.8861 169.237 69.2052 171.174C67.5646 172.352 66.5242 171.513 66.9243 169.357C67.0244 168.738 67.2044 168.278 67.4045 167.819C68.725 164.764 70.5856 163.606 71.466 163.766Z" fill="white"/>
<path d="M79.9094 145.795C82.0902 146.335 79.9294 152.105 76.7883 154.142C75.0076 155.3 73.8872 154.481 74.2873 152.305C74.4474 151.426 74.8076 150.627 75.0276 150.168C76.7683 146.774 78.929 145.556 79.9094 145.795Z" fill="white"/>
<path d="M89.3922 128.424C91.8531 129.203 88.6319 135.991 84.9706 137.749C82.9699 138.707 82.0496 137.469 82.8699 134.933C83.13 134.154 83.41 133.595 83.7302 132.996C85.911 129.302 88.3518 128.104 89.3922 128.424Z" fill="white"/>
<path d="M99.9165 111.612C102.497 112.61 98.496 119.898 94.4145 121.595C92.1937 122.534 91.2934 121.116 92.3738 118.38C92.6939 117.542 93.054 116.943 93.4342 116.324C96.0951 112.39 98.8161 111.192 99.9165 111.612Z" fill="white"/>
<path d="M111.361 95.538C113.982 96.776 109.18 104.364 104.778 105.961C102.378 106.839 101.537 105.262 102.898 102.367C103.318 101.468 103.738 100.849 104.198 100.21C107.299 96.1171 110.24 95.0189 111.361 95.538Z" fill="white"/>
<path d="M123.745 80.1433C126.326 81.6208 120.724 89.408 116.063 90.8457C113.482 91.6244 112.781 89.9072 114.422 86.9121C114.922 85.9936 115.442 85.3347 115.943 84.6958C119.504 80.5226 122.645 79.5243 123.745 80.1433Z" fill="white"/>
<path d="M136.95 65.5872C139.611 67.3843 132.628 75.6307 127.826 76.3495C125.365 76.7289 125.125 74.6124 127.286 71.5574C127.746 70.8985 128.246 70.3195 128.647 69.8802C132.608 65.747 135.889 64.8884 136.95 65.5872Z" fill="white"/>
<path d="M150.795 51.9696C153.236 53.9064 145.753 61.7535 141.032 62.2127C138.591 62.4523 138.551 60.3358 140.912 57.4006C141.432 56.7617 141.972 56.2026 142.372 55.8033C146.574 51.8897 149.815 51.2108 150.795 51.9696Z" fill="white"/>
<path d="M165.34 39.2505C167.501 41.2472 159.738 48.4753 155.216 48.675C152.895 48.7749 153.015 46.7182 155.516 43.9827C156.057 43.3837 156.617 42.8845 157.037 42.5052C161.338 38.931 164.48 38.4518 165.34 39.2505Z" fill="white"/>
<path d="M180.486 27.43C182.307 29.4267 174.564 35.8162 170.383 35.7563C168.242 35.7363 168.542 33.7995 171.063 31.3635C171.603 30.8444 172.143 30.4051 172.583 30.0656C176.825 26.9308 179.746 26.6513 180.486 27.43Z" fill="white"/>
<path d="M68.6447 200.066C70.1653 200.186 69.7451 203.341 68.0245 204.878C66.7841 205.996 65.7036 205.417 65.8437 203.7C65.8637 203.401 65.9437 203.121 66.0038 202.902C66.664 200.845 67.9445 200.006 68.6447 200.066Z" fill="white"/>
<path d="M74.6272 181.836C76.4679 182.096 75.5476 186.189 73.3067 187.746C71.8462 188.765 70.7858 187.926 71.0859 186.009C71.1459 185.65 71.246 185.33 71.326 185.051C72.2463 182.655 73.8069 181.736 74.6272 181.836Z" fill="white"/>
<path d="M81.7095 164.045C83.7903 164.465 82.4298 169.157 79.7688 170.814C78.0082 171.893 76.8477 170.894 77.3479 168.678C77.448 168.258 77.568 167.899 77.688 167.6C78.9085 164.844 80.7692 163.866 81.7095 164.045Z" fill="white"/>
<path d="M89.8332 146.734C92.134 147.353 90.2533 152.624 87.1122 154.341C85.0715 155.459 83.851 154.222 84.5713 151.746C84.7113 151.266 84.8914 150.867 85.0515 150.528C86.652 147.453 88.8128 146.454 89.8332 146.734Z" fill="white"/>
<path d="M98.9957 129.902C101.437 130.74 98.9756 136.551 95.4143 138.288C93.0735 139.426 91.8531 137.968 92.8334 135.213C93.0135 134.694 93.2536 134.214 93.4536 133.875C95.4544 130.52 97.8953 129.542 98.9957 129.902Z" fill="white"/>
<path d="M109.079 113.748C111.62 114.826 108.539 120.996 104.618 122.673C102.057 123.772 100.856 122.114 102.097 119.179C102.337 118.62 102.637 118.141 102.857 117.761C105.258 114.187 107.939 113.269 109.079 113.748Z" fill="white"/>
<path d="M120.104 98.2335C122.805 99.5913 118.584 106.48 114.322 107.658C111.641 108.397 110.821 106.24 112.642 103.125C112.822 102.826 113.082 102.427 113.282 102.127C116.063 98.4731 118.944 97.6545 120.104 98.2335Z" fill="white"/>
<path d="M131.988 83.4179C134.649 85.0153 129.767 91.9838 125.286 92.9822C122.465 93.6012 121.804 91.3049 123.905 88.1302C124.105 87.8107 124.425 87.4114 124.665 87.1118C127.806 83.4379 130.848 82.739 131.988 83.4179Z" fill="white"/>
<path d="M144.673 69.381C147.234 71.1781 141.752 78.1067 137.13 78.8854C134.229 79.3646 133.749 76.9486 136.11 73.7938C136.35 73.4743 136.69 73.0949 136.95 72.7954C140.451 69.1414 143.572 68.6023 144.673 69.381Z" fill="white"/>
<path d="M158.057 56.1628C160.438 58.0996 154.496 64.7287 149.914 65.2478C147.213 65.5473 146.773 63.4109 148.934 60.5755C149.374 59.9965 149.834 59.5173 150.214 59.1379C153.736 55.9032 156.877 55.1844 158.057 56.1628Z" fill="white"/>
<path d="M172.143 43.783C174.243 45.7997 168.041 51.9496 163.619 52.2092C161.019 52.3689 160.758 50.2524 163.079 47.5968C163.559 47.0577 164.04 46.6184 164.42 46.259C168.241 43.1241 171.242 42.9244 172.143 43.783Z" fill="white"/>
<path d="M75.6877 217.478C76.8681 217.537 76.7881 219.694 75.5476 220.772C74.6073 221.591 73.6669 221.112 73.767 219.834C73.767 219.714 73.807 219.574 73.827 219.474C74.1871 218.057 75.1275 217.458 75.6877 217.478Z" fill="white"/>
<path d="M80.3694 199.547C81.87 199.707 81.5698 202.482 79.9092 203.8C78.6488 204.798 77.5083 204.099 77.7484 202.462C77.7684 202.322 77.8085 202.123 77.8485 202.003C78.4287 200.186 79.6692 199.487 80.3694 199.547Z" fill="white"/>
<path d="M86.1316 182.056C87.8522 182.335 87.292 185.69 85.2713 187.108C83.7107 188.206 82.4302 187.287 82.8304 185.37C82.8704 185.191 82.9304 184.971 82.9904 184.791C83.7907 182.695 85.2912 181.936 86.1316 182.056Z" fill="white"/>
<path d="M92.9137 164.924C94.9344 165.383 94.0341 169.257 91.5332 170.834C89.7526 171.952 88.352 170.994 88.7322 168.937C88.8122 168.558 88.9323 168.239 89.0323 167.979C90.1527 165.523 91.9733 164.724 92.9137 164.924Z" fill="white"/>
<path d="M100.697 148.291C102.898 148.95 101.597 153.283 98.6963 154.94C96.6356 156.098 95.135 154.92 95.7352 152.604C95.8353 152.185 95.9953 151.806 96.1354 151.526C97.5759 148.791 99.6767 147.992 100.697 148.291Z" fill="white"/>
<path d="M109.44 132.198C111.781 133.076 110.04 137.809 106.759 139.426C104.378 140.624 102.858 139.246 103.698 136.65C103.858 136.191 104.058 135.772 104.218 135.472C105.999 132.537 108.34 131.798 109.44 132.198Z" fill="white"/>
<path d="M119.143 116.643C121.724 117.801 119.083 123.272 115.342 124.57C112.761 125.469 111.461 123.552 112.781 120.777C112.901 120.517 113.101 120.178 113.261 119.918C115.382 116.783 117.983 116.124 119.143 116.643Z" fill="white"/>
<path d="M129.708 101.708C132.308 103.086 129.127 108.796 125.106 109.974C122.325 110.773 121.124 108.656 122.725 105.761C122.885 105.482 123.125 105.142 123.285 104.883C125.766 101.648 128.527 101.069 129.708 101.708Z" fill="white"/>
<path d="M141.032 87.5112C143.572 89.0886 139.891 94.8391 135.73 95.8175C132.789 96.5164 131.748 94.28 133.629 91.3049C133.809 91.0254 134.069 90.666 134.269 90.4064C137.05 87.2316 139.891 86.7923 141.032 87.5112Z" fill="white"/>
<path d="M153.236 73.9535C155.677 75.7306 151.495 81.4811 147.194 82.2599C144.152 82.8189 143.272 80.4428 145.413 77.4677C145.613 77.1882 145.913 76.8487 146.133 76.5892C149.354 73.2547 152.215 73.2147 153.236 73.9535Z" fill="white"/>
<path d="M166.1 61.2144C168.461 63.2311 163.379 69.0615 159.098 69.2212C156.257 69.3211 155.957 66.6255 158.518 63.89C158.638 63.7702 158.798 63.5905 158.918 63.4707C162.179 60.4756 165.08 60.3558 166.1 61.2144Z" fill="white"/>
<path d="M179.605 49.294C181.746 51.3906 176.404 56.8017 172.302 56.7018C169.521 56.6419 169.461 54.0462 172.162 51.4505C172.282 51.3307 172.462 51.1709 172.582 51.0711C175.924 48.3556 178.705 48.3955 179.605 49.294Z" fill="white"/>
<path d="M88.5926 216.699C89.613 216.759 89.653 218.376 88.6526 219.275C87.7923 220.053 86.852 219.674 86.912 218.576C86.912 218.476 86.932 218.356 86.952 218.276C87.2521 217.138 88.0924 216.659 88.5926 216.699Z" fill="white"/>
<path d="M93.0535 199.567C94.374 199.727 94.294 201.863 92.9135 202.961C91.733 203.9 90.5526 203.341 90.7327 201.903C90.7527 201.783 90.7927 201.624 90.8127 201.524C91.3329 199.966 92.4533 199.487 93.0535 199.567Z" fill="white"/>
<path d="M98.5556 182.755C100.176 183.054 99.9161 185.71 98.1154 187.008C96.5948 188.106 95.1543 187.307 95.4944 185.53C95.5145 185.39 95.5745 185.191 95.6145 185.051C96.3347 183.234 97.7753 182.615 98.5556 182.755Z" fill="white"/>
<path d="M105.038 166.401C106.919 166.861 106.399 169.996 104.218 171.393C102.337 172.591 100.737 171.553 101.257 169.476C101.297 169.317 101.377 169.077 101.437 168.917C102.457 166.681 104.178 166.182 105.038 166.401Z" fill="white"/>
<path d="M112.461 150.488C114.642 151.187 113.601 154.96 110.88 156.258C108.82 157.257 107.299 155.919 107.979 153.742C108.039 153.543 108.159 153.303 108.239 153.103C109.48 150.767 111.461 150.168 112.461 150.488Z" fill="white"/>
<path d="M120.784 135.113C123.085 136.011 121.685 140.125 118.644 141.403C116.303 142.381 114.742 140.824 115.663 138.427C115.743 138.208 115.883 137.948 115.983 137.749C117.503 135.233 119.704 134.694 120.784 135.113Z" fill="white"/>
<path d="M130.048 120.197C132.489 121.336 130.648 125.788 127.247 126.986C124.606 127.925 123.065 126.148 124.246 123.552C124.346 123.332 124.526 123.033 124.646 122.813C126.386 120.297 128.727 119.598 130.048 120.197Z" fill="white"/>
<path d="M140.091 105.941C142.552 107.299 140.291 111.931 136.65 113.029C133.849 113.868 132.328 111.851 133.749 109.176C133.869 108.936 134.069 108.636 134.229 108.417C136.39 105.641 138.95 105.302 140.091 105.941Z" fill="white"/>
<path d="M150.955 92.3233C153.356 93.8608 150.695 98.5731 146.893 99.4915C143.952 100.21 142.572 98.014 144.232 95.2984C144.372 95.0588 144.613 94.7593 144.773 94.5197C147.153 91.8042 149.814 91.5845 150.955 92.3233Z" fill="white"/>
<path d="M162.519 79.3845C164.9 81.1816 161.459 86.1135 157.517 86.5328C154.596 86.8522 153.716 84.2964 155.817 81.6807C155.897 81.5609 156.037 81.4212 156.137 81.3014C158.758 78.6457 161.459 78.5858 162.519 79.3845Z" fill="white"/>
<path d="M174.824 67.1646C177.044 69.0815 173.263 73.8336 169.362 74.0333C166.461 74.1731 165.78 71.5973 168.061 69.1014C168.161 68.9816 168.301 68.8418 168.401 68.742C171.182 66.2062 173.823 66.306 174.824 67.1646Z" fill="white"/>
<path d="M102.478 216.319C103.338 216.379 103.398 217.597 102.578 218.236C101.837 218.835 100.997 218.456 101.117 217.557C101.117 217.517 101.117 217.477 101.137 217.438C101.377 216.579 102.077 216.279 102.478 216.319Z" fill="white"/>
<path d="M106.719 199.966C107.919 200.126 107.899 201.863 106.699 202.742C105.599 203.541 104.438 202.902 104.678 201.644C104.678 201.604 104.698 201.524 104.718 201.484C105.118 200.246 106.159 199.887 106.719 199.966Z" fill="white"/>
<path d="M111.92 184.013C113.381 184.312 113.221 186.489 111.66 187.487C110.24 188.405 108.859 187.547 109.259 185.989C109.279 185.929 109.299 185.85 109.319 185.79C109.92 184.332 111.2 183.873 111.92 184.013Z" fill="white"/>
<path d="M118.063 168.458C119.783 168.917 119.423 171.493 117.503 172.591C115.762 173.57 114.201 172.472 114.782 170.655C114.802 170.575 114.842 170.495 114.862 170.415C115.662 168.698 117.223 168.239 118.063 168.458Z" fill="white"/>
<path d="M125.105 153.303C127.026 153.942 126.426 156.917 124.165 158.035C122.184 159.014 120.524 157.836 121.104 155.859C121.144 155.699 121.244 155.479 121.304 155.32C122.344 153.403 124.145 152.984 125.105 153.303Z" fill="white"/>
<path d="M133.009 138.647C135.049 139.486 134.169 142.74 131.608 143.859C129.367 144.837 127.667 143.419 128.447 141.263C128.507 141.083 128.627 140.863 128.707 140.684C129.987 138.587 131.988 138.228 133.009 138.647Z" fill="white"/>
<path d="M141.771 124.47C143.932 125.509 142.752 129.043 139.891 130.121C137.39 131.06 135.629 129.402 136.63 127.086C136.71 126.886 136.85 126.647 136.97 126.467C138.41 124.371 140.531 123.871 141.771 124.47Z" fill="white"/>
<path d="M151.316 110.913C153.516 112.151 152.016 115.845 148.935 116.803C146.254 117.642 144.513 115.765 145.733 113.369C145.834 113.169 145.994 112.909 146.134 112.73C147.894 110.434 150.235 110.274 151.316 110.913Z" fill="white"/>
<path d="M161.619 97.914C163.9 99.4315 161.779 103.425 158.358 104.024C155.537 104.503 154.196 102.247 155.857 99.8509C155.917 99.751 156.037 99.6312 156.097 99.5314C158.138 97.2352 160.539 97.1952 161.619 97.914Z" fill="white"/>
<path d="M172.623 85.5744C174.844 87.2716 172.403 91.2251 168.902 91.6244C166.041 91.9638 164.82 89.5678 166.681 87.2117C166.761 87.1118 166.861 86.992 166.941 86.8922C169.162 84.6758 171.603 84.7956 172.623 85.5744Z" fill="white"/>
<path d="M117.283 216.26C117.903 216.319 118.003 217.098 117.463 217.557C116.923 218.017 116.183 217.737 116.243 217.118C116.243 217.098 116.243 217.058 116.263 217.038C116.423 216.419 116.983 216.24 117.283 216.26Z" fill="white"/>
<path d="M121.284 200.825C122.224 200.985 122.304 202.183 121.424 202.842C120.544 203.501 119.463 203.021 119.643 202.043C119.643 202.003 119.663 201.963 119.663 201.923C119.963 201.025 120.804 200.745 121.284 200.825Z" fill="white"/>
<path d="M126.166 185.77C127.346 186.029 127.346 187.567 126.186 188.345C124.985 189.144 123.665 188.445 123.965 187.207C123.985 187.167 124.005 187.107 124.025 187.048C124.465 185.949 125.546 185.63 126.166 185.77Z" fill="white"/>
<path d="M131.968 171.034C133.409 171.433 133.309 173.35 131.808 174.229C130.268 175.127 128.687 174.189 129.147 172.651C129.167 172.591 129.187 172.511 129.207 172.472C129.847 171.114 131.208 170.814 131.968 171.034Z" fill="white"/>
<path d="M138.61 156.677C140.251 157.256 139.991 159.493 138.19 160.431C136.349 161.37 134.589 160.172 135.229 158.415C135.249 158.355 135.289 158.275 135.309 158.195C136.169 156.657 137.75 156.378 138.61 156.677Z" fill="white"/>
<path d="M146.073 142.8C147.854 143.539 147.393 146.055 145.313 146.993C143.292 147.892 141.451 146.634 142.092 144.777C142.132 144.637 142.232 144.438 142.312 144.298C143.392 142.521 145.193 142.441 146.073 142.8Z" fill="white"/>
<path d="M154.316 129.402C156.317 130.401 155.437 133.316 152.916 134.055C150.615 134.754 148.934 133.056 149.955 131.08C149.995 131 150.055 130.9 150.095 130.82C151.455 128.943 153.416 128.943 154.316 129.402Z" fill="white"/>
<path d="M163.3 116.563C165.3 117.722 164.18 120.777 161.499 121.415C159.038 122.014 157.397 120.118 158.618 118.081C158.658 118.001 158.738 117.901 158.798 117.821C160.259 116.004 162.299 115.984 163.3 116.563Z" fill="white"/>
<path d="M173.043 104.244C175.044 105.581 173.644 108.736 170.823 109.255C168.222 109.735 166.641 107.638 168.062 105.562C168.122 105.482 168.202 105.382 168.262 105.302C169.902 103.465 172.043 103.585 173.043 104.244Z" fill="white"/>
<path d="M132.949 216.619C133.269 216.659 133.429 217.018 133.109 217.278C132.789 217.537 132.328 217.398 132.368 217.058C132.368 217.038 132.368 217.018 132.368 217.018C132.448 216.759 132.749 216.599 132.949 216.619Z" fill="white"/>
<path d="M136.69 202.123C137.37 202.243 137.47 203.001 136.85 203.401C136.21 203.82 135.45 203.481 135.53 202.862C135.53 202.842 135.55 202.802 135.55 202.782C135.75 202.243 136.33 202.063 136.69 202.123Z" fill="white"/>
<path d="M141.291 187.926C142.232 188.146 142.352 189.184 141.511 189.763C140.571 190.402 139.351 189.883 139.571 188.924C139.571 188.885 139.591 188.845 139.591 188.805C139.911 188.006 140.771 187.806 141.291 187.926Z" fill="white"/>
<path d="M146.714 174.049C147.894 174.388 147.954 175.766 146.834 176.425C145.573 177.164 144.053 176.405 144.413 175.207C144.433 175.167 144.453 175.107 144.473 175.067C144.933 174.129 145.973 173.829 146.714 174.049Z" fill="white"/>
<path d="M152.915 160.591C154.336 161.11 154.216 162.847 152.715 163.506C151.195 164.165 149.634 163.167 150.134 161.809C150.154 161.769 150.174 161.689 150.214 161.649C150.895 160.431 152.235 160.351 152.915 160.591Z" fill="white"/>
<path d="M159.898 147.553C161.459 148.231 161.198 150.188 159.458 150.847C157.697 151.506 156.037 150.268 156.677 148.771C156.697 148.711 156.737 148.651 156.777 148.591C157.637 147.213 159.138 147.233 159.898 147.553Z" fill="white"/>
<path d="M167.641 134.933C169.342 135.792 168.901 137.988 166.921 138.607C164.92 139.226 163.179 137.729 164 136.111C164.04 136.051 164.08 135.972 164.12 135.912C165.1 134.494 166.781 134.494 167.641 134.933Z" fill="white"/>
<path d="M176.084 122.833C177.785 123.851 177.164 126.168 175.044 126.727C172.883 127.286 171.122 125.569 172.123 123.871C172.163 123.812 172.203 123.732 172.263 123.672C173.403 122.214 175.184 122.314 176.084 122.833Z" fill="white"/>
<path d="M149.515 217.398L149.455 217.438L149.395 217.398L149.475 217.358L149.515 217.398Z" fill="white"/>
<path d="M152.956 203.82C153.316 203.88 153.376 204.219 153.096 204.439C152.735 204.699 152.275 204.479 152.335 204.159C152.335 204.139 152.335 204.139 152.335 204.12C152.415 203.86 152.755 203.78 152.956 203.82Z" fill="white"/>
<path d="M157.217 190.562C157.837 190.722 157.957 191.361 157.397 191.7C156.777 192.079 155.957 191.72 156.077 191.141C156.077 191.121 156.097 191.101 156.097 191.081C156.277 190.622 156.817 190.462 157.217 190.562Z" fill="white"/>
<path d="M162.259 177.623C163.159 177.903 163.239 178.821 162.419 179.26C161.499 179.74 160.338 179.181 160.578 178.342C160.578 178.322 160.598 178.282 160.618 178.262C160.938 177.523 161.799 177.483 162.259 177.623Z" fill="white"/>
<path d="M168.021 165.064C169.081 165.463 169.121 166.601 168.101 167.08C166.92 167.619 165.56 166.841 165.92 165.842C165.94 165.802 165.96 165.762 165.96 165.723C166.38 164.964 167.341 164.804 168.021 165.064Z" fill="white"/>
<path d="M174.523 152.864C175.724 153.403 175.684 154.761 174.463 155.26C173.043 155.819 171.522 154.801 172.002 153.643C172.022 153.603 172.042 153.563 172.062 153.503C172.662 152.584 173.863 152.564 174.523 152.864Z" fill="white"/>
<path d="M170.022 205.897L169.982 205.937L169.942 205.897L170.002 205.857L170.022 205.897Z" fill="white"/>
</g>
<defs>
<clipPath id="clip0_447_5318">
<rect width="172" height="218" fill="white" transform="matrix(-1 0 0 1 172 0.102051)"/>
</clipPath>
</defs>
</svg>
