<svg width="319" height="800" viewBox="0 0 319 800" fill="none" xmlns="http://www.w3.org/2000/svg">
<path d="M90.2994 300.023C88.4466 302.225 88.4466 305.048 90.3952 307.137C92.3279 309.188 94.7077 309.056 96.4168 306.647C97.9661 304.464 97.6466 302.018 96.1293 299.891C94.1008 298.197 91.9924 297.99 90.2994 300.023ZM108.907 113.408C110.696 115.234 113.012 115.215 114.705 113.182C116.542 110.962 116.558 108.12 114.657 105.974C112.756 103.829 110.52 104.187 108.508 106.087C107.07 108.703 106.895 111.357 108.907 113.408ZM188.225 450.805C186.516 448.396 184.152 448.302 182.204 450.334C180.383 452.216 180.287 454.908 181.82 457.072C183.529 459.5 185.75 459.349 187.922 457.599C189.455 455.435 189.775 452.988 188.225 450.805ZM145.18 407.068C143.423 409.044 143.391 411.754 144.909 413.9C146.634 416.309 149.061 416.403 151.01 414.408C153.022 412.375 152.815 409.684 151.345 407.106C149.317 405.243 147.097 404.923 145.18 407.068ZM169.346 428.41C167.685 426.321 165.385 426.264 163.564 428.033C161.504 430.047 161.408 432.908 163.069 435.222C164.778 437.612 167.062 437.387 169.282 435.674C170.863 433.284 171.151 430.687 169.346 428.41ZM108.699 64.0256C107.198 66.0393 107.278 68.3353 108.891 70.2173C110.68 72.2874 112.724 72.2874 114.465 70.1796C116.222 68.0342 115.983 65.7194 114.258 63.4987C112.325 61.8238 110.361 61.8238 108.699 64.0256ZM90.6987 349.556C92.5834 351.513 94.6438 351.25 96.257 349.029C97.7584 346.978 97.6147 344.7 95.9855 342.837C94.1647 340.767 92.2161 340.993 90.3952 342.912C88.814 345.265 88.8299 347.599 90.6987 349.556ZM109.067 364.913C107.374 367.058 107.454 369.58 109.258 371.575C111.079 373.57 113.22 373.475 114.913 371.349C116.622 369.203 116.398 366.832 114.785 364.668C112.804 362.842 110.76 362.767 109.067 364.913ZM72.2986 198.849C73.9118 200.75 75.8445 200.863 77.5535 199.075C79.4063 197.136 79.6139 194.709 77.9049 192.507C76.2278 190.324 74.2473 190.38 72.2827 192.243C70.6695 194.445 70.5098 196.741 72.2986 198.849ZM72.3466 241.419C73.9598 243.319 75.8924 243.432 77.6014 241.644C79.4542 239.706 79.6459 237.278 77.9528 235.076C76.2598 232.893 74.2952 232.95 72.3306 234.813C70.7174 237.015 70.5577 239.311 72.3466 241.419ZM90.2834 135.126C92.1043 137.121 94.2445 137.027 95.9376 134.9C97.6307 132.755 97.5508 130.233 95.7459 128.238C93.9251 126.224 91.9126 126.488 90.0917 128.37C88.5265 130.741 88.4785 133.131 90.2834 135.126ZM127.483 472.316C125.854 473.896 125.79 476.098 127.131 477.924C128.361 479.599 130.166 479.674 131.588 478.3C133.217 476.738 133.137 474.649 131.971 472.617C130.549 471.205 128.904 470.942 127.483 472.316ZM145.579 450.259C144.03 452.254 144.062 454.475 145.723 456.338C147.384 458.201 149.301 458.126 150.882 456.187C152.479 454.23 152.256 452.085 150.579 449.732C148.997 448.678 147.193 448.189 145.579 450.259ZM114.721 407.783C113.156 405.807 111.239 405.732 109.562 407.558C107.885 409.402 107.821 411.641 109.37 413.636C110.936 415.631 112.756 415.499 114.561 413.937C116.063 411.905 116.302 409.759 114.721 407.783ZM91.4813 386.367C89.8362 388.305 89.8362 390.62 91.5133 392.521C93.0306 394.233 94.8994 394.215 96.4168 392.502C98.1098 390.582 97.8862 388.38 96.289 386.028C94.7716 385.031 93.0147 384.56 91.4813 386.367ZM127.483 429.012C125.934 431.007 125.965 433.227 127.627 435.091C129.288 436.954 131.204 436.878 132.786 434.94C134.383 432.983 134.159 430.837 132.482 428.485C130.901 427.412 129.096 426.923 127.483 429.012ZM109.274 451.162C107.725 452.819 107.693 455.02 109.147 456.79C110.44 458.37 112.245 458.389 113.603 456.94C115.168 455.284 115.024 453.214 113.811 451.294C112.309 449.902 110.648 449.695 109.274 451.162ZM54.6812 171.128C53.0521 172.709 52.9243 174.967 54.1861 176.83C55.6236 178.975 57.6361 179.07 59.3451 177.282C60.9104 175.626 60.7188 173.518 59.5368 171.335C58.0354 169.98 56.2785 169.584 54.6812 171.128ZM72.1709 155.884C73.6882 157.898 75.6049 158.142 77.3459 156.373C79.2306 154.454 79.3903 152.082 77.6174 149.918C76.0202 147.942 74.1834 148.093 72.4105 149.73C70.8771 151.725 70.6375 153.851 72.1709 155.884ZM164.331 472.297C162.766 474.273 162.798 476.512 164.459 478.376C166.12 480.239 168.036 480.182 169.618 478.225C171.215 476.268 170.991 474.122 169.522 472.071C167.733 470.471 165.912 470.302 164.331 472.297ZM145.723 494.937C144.573 496.63 144.653 498.738 146.091 500.187C147.656 501.768 149.525 501.674 150.85 499.736C152 498.042 151.761 496.122 150.547 494.447C148.806 493.092 147.033 492.998 145.723 494.937ZM91.0501 85.16C89.389 87.042 89.2772 89.2627 90.8424 91.2575C92.5515 93.4406 94.564 93.4594 96.3369 91.3328C97.9501 89.3756 97.7584 87.2301 96.273 85.1788C94.532 83.4474 92.7272 83.2592 91.0501 85.16ZM77.5695 107.555C75.9563 105.579 73.9917 105.56 72.3466 107.499C70.8771 109.249 70.8611 111.47 72.2986 113.276C73.9118 115.29 75.7806 115.064 77.5535 113.427C78.8153 111.432 79.023 109.362 77.5695 107.555ZM54.5055 134.599C55.8472 136.199 57.6681 136.199 59.0736 134.806C60.6868 133.187 60.7667 130.891 59.409 129.066C58.0035 127.184 56.1986 127.391 54.4576 128.803C53.2118 130.741 53.0201 132.83 54.5055 134.599ZM72.4264 285.287C74.0236 287.244 75.9243 287.357 77.6014 285.513C79.4542 283.48 79.4702 281.109 77.6494 279.039C75.9882 277.138 74.1514 277.383 72.4264 279.133C70.9729 281.203 70.8132 283.33 72.4264 285.287ZM54.6653 300.569C53.1319 302.262 53.084 304.521 54.4417 306.29C55.991 308.303 58.0035 308.322 59.6167 306.384C61.0701 304.634 60.8306 302.526 59.5847 300.587C57.9396 299.138 56.1986 298.894 54.6653 300.569ZM54.5535 343.759C53.4035 345.453 53.4833 347.561 54.9208 349.01C56.4861 350.591 58.3549 350.497 59.6806 348.558C60.8306 346.865 60.591 344.945 59.3771 343.27C57.6361 341.915 55.8792 341.821 54.5535 343.759ZM72.4584 327.725C74.0077 329.72 75.9084 329.833 77.6174 328.026C79.3105 326.22 79.4063 323.961 77.8889 321.948C76.3556 319.915 74.5188 320.028 72.7139 321.552C71.1646 323.585 70.9091 325.711 72.4584 327.725ZM41.2006 192.921C39.6993 191.227 37.7986 191.227 36.4249 193.09C35.0992 194.916 35.1951 197.136 36.8881 198.679C38.3576 200.016 39.9708 199.696 41.3284 198.284C42.4145 196.402 42.5583 194.445 41.2006 192.921ZM54.3139 219.739C55.9271 221.715 57.8917 221.771 59.5368 219.833C61.0222 218.082 61.0382 215.862 59.6167 214.055C58.0194 212.023 56.1507 212.23 54.1382 214.055C53.2437 215.843 52.8285 217.913 54.3139 219.739ZM40.8173 236.507C39.4756 234.625 37.5909 234.531 36.0416 236.168C34.636 237.655 34.5881 239.781 35.7701 241.419C37.1117 243.319 38.8847 243.207 40.5937 241.814C41.7916 240.12 41.9993 238.163 40.8173 236.507ZM53.7708 263.136C55.416 265.075 57.3805 265.075 58.9937 263.118C60.4472 261.33 60.4313 259.128 58.9778 257.34C57.3486 255.345 55.4799 255.609 53.4833 257.491C52.6368 259.278 52.2375 261.349 53.7708 263.136ZM95.2348 42.0632C93.8612 40.52 92.0563 40.5389 90.6668 42.0068C89.1015 43.6817 89.0376 45.9589 90.4591 47.7467C91.8966 49.5722 93.7015 49.3276 95.3945 47.8973C96.5925 45.8836 96.7841 43.7758 95.2348 42.0632ZM72.3306 63.8939C71.1806 65.5689 71.2445 67.6766 72.666 69.1446C74.2313 70.7442 76.1 70.6501 77.4257 68.7305C78.5917 67.0556 78.3681 65.1172 77.1542 63.4422C75.4292 62.0684 73.6563 61.9743 72.3306 63.8939ZM72.8896 364.329C71.3084 365.966 71.2125 368.225 72.5063 370.05C73.9917 372.12 76.0202 372.196 77.6813 370.333C79.1987 368.639 78.991 366.531 77.6973 364.329C76.2119 363.106 74.4709 362.692 72.8896 364.329ZM95.6501 430.555C94.3404 428.805 92.7911 428.617 91.3056 430.273C90.0119 431.703 89.9001 433.434 91.0661 435.015C92.3758 436.766 93.8931 436.878 95.4425 435.316C96.6244 433.811 96.832 432.155 95.6501 430.555ZM77.0264 456.319C78.1764 455.077 78.1924 453.421 77.1862 452.085C76.1639 450.73 74.7264 450.711 73.5924 451.896C72.4264 453.12 72.5702 454.682 73.4966 456.376C74.5827 457.185 75.8764 457.561 77.0264 456.319ZM36.7763 365.778C35.4187 367.077 35.3229 368.827 36.4888 370.389C37.5111 371.763 38.9166 371.819 40.0826 370.728C41.4562 369.429 41.4083 367.754 40.434 366.117C39.252 364.837 37.9423 364.668 36.7763 365.778ZM36.377 64.929C35.227 66.1523 35.211 67.8272 36.2173 69.1634C37.2395 70.5184 38.677 70.5372 39.8111 69.3516C40.977 68.1283 40.8333 66.5663 40.0027 65.0607C38.8208 63.9127 37.5111 63.7245 36.377 64.929ZM55.1125 42.609C53.7708 43.9264 53.691 45.6766 54.8729 47.2198C55.9111 48.5748 57.3167 48.6124 58.4667 47.5021C59.8243 46.1847 59.7604 44.5098 58.7701 42.8725C57.5722 41.6492 56.2625 41.461 55.1125 42.609ZM18.536 257.886C17.2103 259.26 17.1624 260.991 18.3443 262.497C19.3985 263.833 20.7881 263.87 21.9381 262.704C23.2798 261.349 23.1999 259.692 22.0499 257.867C20.9798 257.02 19.702 256.662 18.536 257.886ZM72.8896 21.4182C71.7556 22.7167 71.6438 24.2976 72.6341 25.7279C73.7521 27.3464 75.2056 27.6286 76.5952 26.236C77.9688 24.8622 78.0007 23.2061 76.7389 21.3053C75.5889 20.1949 74.2313 19.8938 72.8896 21.4182ZM36.9201 327.161C38.118 328.666 39.5395 328.873 40.8652 327.462C42.3347 325.9 42.4305 324.112 40.977 322.437C39.6993 320.969 38.3256 321.101 36.9999 322.493C35.834 324.018 35.7062 325.617 36.9201 327.161ZM22.1617 300.851C21.1075 299.515 19.702 299.496 18.5679 300.681C17.4179 301.905 17.4179 303.58 18.4242 304.916C19.4624 306.29 20.7881 306.101 22.2416 305.01C22.8964 303.73 23.2318 302.206 22.1617 300.851ZM35.9777 283.706C37.2236 285.475 38.8048 285.795 40.3062 284.158C41.7756 282.558 41.8076 280.714 40.3701 279.039C39.1083 277.571 37.7027 277.609 36.1694 279.095C35.1312 280.413 34.8277 282.069 35.9777 283.706ZM91.689 473.163C90.539 474.386 90.523 476.061 91.5293 477.397C92.5515 478.752 93.989 478.771 95.123 477.585C96.289 476.362 96.1452 474.8 95.3147 473.294C94.1327 472.165 92.823 471.958 91.689 473.163ZM58.4028 387.138C57.2528 385.84 55.943 385.783 54.7451 387.025C53.4035 388.418 53.2437 390.112 54.4736 391.712C55.7035 393.292 57.093 393.236 58.4826 391.862C59.6486 390.244 59.7125 388.625 58.4028 387.138ZM109.61 494.617C108.604 495.953 108.62 497.628 109.77 498.851C110.904 500.037 112.325 500.018 113.363 498.663C114.386 497.327 114.21 495.784 113.252 494.391C111.974 493.412 110.648 493.243 109.61 494.617ZM73.2889 409.101C72.0111 410.55 71.9153 412.206 73.1132 413.749C74.4709 415.481 76.0042 415.481 77.3778 413.768C78.6077 412.244 78.448 410.606 77.266 409.12C75.9403 407.727 74.5827 407.633 73.2889 409.101ZM18.3763 128.821C17.2263 130.045 17.2103 131.72 18.2166 133.056C19.2388 134.411 20.6763 134.43 21.8103 133.244C22.9763 132.021 22.8325 130.459 22.002 128.953C20.82 127.824 19.5103 127.617 18.3763 128.821ZM36.1694 107.424C35.0513 108.76 34.9555 110.322 35.9777 111.733C37.1277 113.333 38.5652 113.596 39.9388 112.166C41.2965 110.755 41.2965 109.117 40.0027 107.217C38.8367 106.144 37.4791 105.88 36.1694 107.424ZM58.4826 86.1763C57.1729 84.426 55.6236 84.2378 54.1382 85.894C52.8604 87.3242 52.7326 89.0556 53.8986 90.6365C55.2083 92.3867 56.7257 92.4996 58.275 90.9376C59.4569 89.4132 59.6646 87.7571 58.4826 86.1763ZM18.9193 172.144C17.7054 173.65 17.7214 175.419 19.0631 176.755C20.3888 178.091 21.8902 177.884 22.9443 176.228C23.8388 174.797 23.6312 173.273 22.3853 171.749C21.2992 171.09 20.0054 170.77 18.9193 172.144ZM36.8562 150.464C35.4027 152.082 35.3548 153.908 36.7923 155.583C38.0541 157.051 39.5236 157.088 40.8173 155.658C42.2868 154.04 42.2388 152.271 40.9611 150.577C39.5555 149.146 38.1499 149.015 36.8562 150.464ZM128.521 520.87C129.655 522.056 131.077 522.037 132.115 520.682C133.121 519.346 133.105 517.671 131.955 516.448C130.821 515.243 129.511 515.45 128.329 516.579C127.499 518.085 127.355 519.647 128.521 520.87ZM22.0818 220.077C23.2478 218.798 23.3916 217.254 22.4173 215.786C21.3311 214.13 19.8777 213.81 18.4721 215.165C17.0985 216.483 16.9867 218.158 18.2166 220.077C19.3666 221.225 20.7242 221.564 22.0818 220.077ZM18.6957 348.954C19.8457 350.177 21.2673 350.102 22.2096 348.615C22.9923 347.392 22.8964 345.829 21.7943 344.832C20.7402 343.891 19.5582 344.042 18.5679 345.077C17.8172 346.451 17.6895 347.881 18.6957 348.954ZM55.6555 430.781C54.6014 431.835 54.5694 433.397 55.4 434.582C56.4062 435.994 57.8278 436.05 58.9299 434.733C59.8722 433.604 59.7285 432.174 58.9299 430.894C57.8437 429.878 56.6618 429.746 55.6555 430.781ZM3.42624 150.897C2.7554 150.012 1.8929 149.805 1.06234 150.483C0.0880345 151.273 -0.215438 152.44 0.535258 153.607C1.23804 154.717 2.19637 154.962 3.2186 154.058C4.09707 153.08 4.27277 152.007 3.42624 150.897ZM0.838731 194.614C-0.0716881 195.518 -0.311272 196.703 0.471369 197.833C1.34984 199.094 2.45193 199.338 3.52207 198.096C4.40055 197.08 4.3686 195.951 3.58596 194.84C2.72346 193.824 1.78109 193.692 0.838731 194.614ZM21.427 90.1472C22.4971 88.9051 22.3214 87.6065 21.2513 86.5526C20.3089 85.6305 19.3027 85.8563 18.52 86.929C17.7214 88.0206 17.8172 89.1497 18.6638 90.166C19.6061 91.107 20.5485 91.1823 21.427 90.1472ZM37.2555 408.931C36.3291 409.797 36.0416 410.983 36.7923 412.15C37.6229 413.448 38.7249 413.73 39.843 412.545C40.7534 411.566 40.7534 410.437 40.0187 409.308C39.1722 408.273 38.2298 408.028 37.2555 408.931ZM55.4958 0.603785C54.5854 1.50712 54.3139 2.67394 55.0965 3.82193C55.959 5.10166 57.0611 5.36513 58.1472 4.12304C59.0417 3.1256 59.0257 1.99643 58.1153 0.679064C57.3965 -0.0737181 56.4542 -0.337192 55.4958 0.603785ZM39.9548 22.1898C39.2201 21.3806 38.3576 21.2865 37.5749 22.0392C36.6486 22.9426 36.4729 24.0906 37.2874 25.2009C38.102 26.2925 39.0444 26.3113 40.0187 25.3327C40.8173 24.2788 40.8652 23.2061 39.9548 22.1898ZM0.55123 240.459C1.28595 241.55 2.29221 241.889 3.28249 241.005C4.38457 240.026 4.62416 238.727 3.61791 237.41C2.78735 236.337 1.82901 236.337 0.870676 237.203C-0.0237713 238.201 -0.231411 239.311 0.55123 240.459ZM0.742897 283.236C1.79707 284.497 2.89915 284.29 3.7936 283.029C4.57624 281.918 4.38457 280.733 3.47415 279.811C2.54776 278.87 1.58943 278.982 0.726925 279.98C-0.0716881 281.09 -0.119605 282.201 0.742897 283.236ZM126.748 84.5578C124.863 86.6656 124.799 89.5073 126.54 91.728C128.441 94.1557 130.965 94.1746 132.929 91.8033C134.75 89.6202 134.447 86.9855 132.913 84.5578C130.837 82.7511 128.633 82.45 126.748 84.5578ZM132.945 392.954C134.846 390.789 134.862 387.985 132.961 385.84C131.061 383.713 128.665 383.845 126.924 386.179C125.359 388.305 125.614 390.789 127.131 392.954C129.112 394.704 131.22 394.93 132.945 392.954ZM90.1077 177.884C91.8327 179.879 94.1327 179.898 95.9057 178.034C97.8702 175.964 97.9501 173.104 96.1932 170.845C94.4043 168.549 92.1362 168.832 89.8841 170.714C88.5424 173.066 88.191 175.682 90.1077 177.884ZM89.9001 213.528C88.3348 215.636 88.3508 218.346 90.0598 220.36C91.9286 222.524 94.3404 222.561 96.1772 220.341C98.014 218.12 97.7105 215.467 96.1133 213.095C93.8931 211.383 91.6411 211.176 89.9001 213.528ZM114.481 321.27C112.708 319.03 110.297 318.936 108.412 320.95C106.336 323.171 106.304 326.144 108.284 328.478C110.121 330.642 112.357 330.303 114.433 328.516C115.999 326.107 116.254 323.51 114.481 321.27ZM90.6188 256.832C89.0376 258.921 89.0376 261.631 90.7306 263.663C92.5834 265.865 94.9952 265.903 96.848 263.701C98.7008 261.499 98.4133 258.846 96.832 256.455C94.6279 254.724 92.3918 254.517 90.6188 256.832ZM114.306 149.335C112.309 146.982 109.849 147.001 107.885 149.391C106.096 151.593 106.112 154.397 107.917 156.58C109.913 158.989 112.213 158.631 114.386 156.655C115.903 154.115 116.143 151.518 114.306 149.335ZM126.477 127.222C124.544 129.706 124.64 132.51 126.732 134.787C128.824 137.064 131.204 136.951 133.153 134.505C135.118 132.039 134.798 129.367 132.945 126.826C130.693 124.907 128.409 124.719 126.477 127.222ZM108.747 277.684C106.751 280.036 106.783 282.916 108.795 285.268C110.648 287.432 112.98 287.451 114.913 285.4C117.037 283.142 116.861 280.413 115.264 277.74C113.076 275.67 110.76 275.294 108.747 277.684ZM108.46 235.359C106.767 237.674 106.783 240.402 108.652 242.567C110.664 244.9 113.108 244.919 115.088 242.529C117.085 240.12 116.749 237.391 114.801 234.606C112.677 233.176 110.361 232.762 108.46 235.359ZM199.901 428.767C197.857 431.101 197.809 433.924 199.789 436.333C201.77 438.742 204.15 438.798 206.21 436.483C208.287 434.15 208.095 431.458 206.402 428.842C204.23 426.735 201.977 426.396 199.901 428.767ZM127.227 342.781C125.039 344.926 124.943 347.843 126.764 350.327C128.489 352.661 130.869 352.755 132.85 350.854C135.07 348.709 134.894 345.961 133.409 343.27C131.412 341.219 129.208 340.823 127.227 342.781ZM151.106 364.084C149.157 362.071 146.825 362.108 144.988 364.31C142.992 366.682 142.992 369.561 145.02 371.895C147.065 374.247 149.365 373.852 151.537 371.744C153.086 369.034 153.262 366.305 151.106 364.084ZM107.869 191.904C106.08 194.144 106.064 196.892 107.853 199.112C109.802 201.54 112.245 201.615 114.29 199.319C116.35 196.986 116.079 194.257 114.386 191.66C112.133 189.703 109.833 189.458 107.869 191.904ZM180.99 414.239C182.939 416.685 185.318 416.817 187.411 414.54C189.503 412.262 189.583 409.44 187.666 406.974C185.718 404.471 183.45 404.659 181.198 406.579C179.345 409.101 179.025 411.754 180.99 414.239ZM163.021 385.558C161.009 387.948 161.009 390.752 163.021 393.123C165.034 395.494 167.429 395.494 169.442 393.123C171.486 390.733 171.247 388.061 169.506 385.463C167.302 383.412 165.034 383.13 163.021 385.558ZM145.436 320.818C143.247 323.453 143.327 326.295 145.579 328.798C147.688 331.131 150.004 331.037 152.032 328.628C154.252 325.994 154.013 323.246 151.936 320.592C149.7 318.504 147.464 318.372 145.436 320.818ZM126.301 221.075C128.329 223.785 130.757 224.142 133.057 221.602C135.325 219.118 135.389 216.257 133.185 213.622C131.14 211.194 128.904 211.307 126.732 213.378C124.752 215.862 124.368 218.496 126.301 221.075ZM126.668 256.192C124.464 258.808 124.528 261.65 126.764 264.171C128.856 266.524 131.172 266.449 133.217 264.059C135.453 261.443 135.229 258.695 133.169 256.023C130.949 253.915 128.713 253.764 126.668 256.192ZM144.525 105.767C142.529 108.214 142.513 110.962 144.557 113.37C146.777 115.968 149.237 115.836 151.313 113.145C153.278 110.604 152.927 107.95 150.978 105.447C148.774 103.415 146.538 103.302 144.525 105.767ZM133.265 298.875C131.22 296.485 128.888 296.391 126.828 298.762C124.592 301.321 124.624 304.201 126.892 306.722C129 309.075 131.252 308.736 133.393 306.515C135.165 303.937 135.341 301.302 133.265 298.875ZM126.013 178.129C128.106 180.481 130.438 180.481 132.466 178.053C134.67 175.419 134.543 172.539 132.243 170.093C130.086 167.797 127.834 168.211 125.71 170.525C124.001 173.123 123.905 175.776 126.013 178.129ZM163.341 349.932C165.481 352.529 167.941 352.623 170.161 350.102C172.365 347.599 172.445 344.681 170.304 342.066C168.164 339.45 165.784 339.525 163.436 341.859C161.408 344.512 161.184 347.297 163.341 349.932ZM144.557 148.017C142.353 150.539 142.273 153.437 144.413 156.053C146.554 158.65 149.013 158.744 151.234 156.223C153.454 153.701 153.39 150.897 151.409 148.13C149.157 145.74 146.777 145.477 144.557 148.017ZM225.185 406.541C223.013 403.963 220.553 403.944 218.365 406.504C216.177 409.063 216.161 411.961 218.333 414.54C220.505 417.137 222.885 416.986 225.201 414.634C227.198 411.924 227.373 409.12 225.185 406.541ZM144.637 277.345C142.465 279.923 142.433 282.803 144.605 285.381C146.777 287.959 149.237 287.978 151.425 285.419C153.629 282.859 153.502 280.055 151.377 277.176C149.205 275.03 146.841 274.729 144.637 277.345ZM188.066 371.575C190.334 369.222 190.653 366.305 188.593 363.539C186.596 360.866 184.12 360.49 181.773 362.918C179.489 365.27 179.313 368.093 181.214 371.01C183.354 373.494 185.718 374.021 188.066 371.575ZM199.709 384.052C197.33 386.536 197.234 389.867 199.374 392.596C201.371 395.156 204.118 395.25 206.306 392.972C208.686 390.488 208.558 387.364 206.689 384.334C204.437 382.151 201.898 381.756 199.709 384.052ZM144.621 191.773C142.273 194.276 142.177 197.607 144.334 200.336C146.346 202.876 149.093 202.97 151.266 200.674C153.629 198.19 153.502 195.047 151.569 191.98C149.349 189.872 146.809 189.458 144.621 191.773ZM162.302 134.881C164.507 137.554 167.366 137.572 169.554 134.9C171.742 132.228 171.614 128.84 169.25 126.356C167.078 124.06 164.523 124.418 162.286 126.601C160.466 129.405 160.258 132.416 162.302 134.881ZM144.637 234.399C142.305 236.921 142.225 240.252 144.397 242.962C146.426 245.484 149.173 245.559 151.345 243.244C153.693 240.741 153.55 237.598 151.649 234.625C149.349 232.404 146.809 232.065 144.637 234.399ZM163.037 299.289C161.025 301.792 161.025 305.048 163.037 307.532C165.209 310.223 168.1 310.298 170.352 307.72C172.62 305.123 172.349 301.961 170.4 298.95C167.893 296.88 165.241 296.56 163.037 299.289ZM181.086 329.024C183.45 331.79 186.42 331.771 188.72 328.93C190.877 326.295 190.845 322.907 188.657 320.31C186.293 317.487 183.529 317.901 180.974 320.254C179.137 323.284 178.866 326.427 181.086 329.024ZM163.117 169.603C160.785 172.087 160.817 175.324 162.686 178.241C164.379 180.876 168.468 181.027 170.368 178.543C172.477 175.776 172.333 172.784 170.496 169.791C168.068 167.514 165.417 167.138 163.117 169.603ZM162.382 255.609C160.034 258.394 160.05 261.894 162.462 264.604C164.698 267.126 167.573 267.107 169.777 264.529C172.173 261.744 171.822 258.488 169.825 255.477C167.27 253.313 164.602 252.993 162.382 255.609ZM236.142 384.711C233.762 387.458 233.746 390.959 236.126 393.706C238.346 396.285 241.221 396.266 243.457 393.725C245.885 390.978 245.566 387.703 243.601 384.654C241.046 382.471 238.378 382.132 236.142 384.711ZM199.007 341.689C196.914 344.399 196.93 347.711 199.134 350.327C201.498 353.113 204.421 353.15 206.769 350.346C209.149 347.523 208.782 344.286 206.737 341.238C204.038 339.017 201.275 338.753 199.007 341.689ZM217.183 362.842C215.011 365.496 214.995 368.808 217.135 371.481C219.435 374.36 222.358 374.435 224.77 371.725C227.214 368.978 226.91 365.722 224.914 362.617C222.278 360.302 219.531 359.982 217.183 362.842ZM181.054 157.465C183.338 159.968 186.149 159.968 188.385 157.389C190.781 154.642 190.829 151.198 188.481 148.394C186.117 145.571 183.354 145.966 180.766 148.356C178.818 151.518 178.578 154.755 181.054 157.465ZM162.494 212.851C160.034 215.523 159.97 219.005 162.254 221.865C164.411 224.538 167.286 224.575 169.586 222.147C172.093 219.494 171.838 216.2 169.825 212.869C167.461 210.875 164.81 210.329 162.494 212.851ZM181.086 277.477C178.674 280.206 178.61 283.631 180.91 286.473C183.21 289.333 186.117 289.371 188.545 286.68C191.005 283.951 190.733 280.714 188.816 277.59C186.245 275.162 183.514 274.729 181.086 277.477ZM187.938 234.154C185.51 231.388 182.779 231.463 180.287 234.154C177.923 236.714 178.003 241.118 180.463 243.564C183.066 246.142 185.67 245.785 188.225 243.207C190.158 240.101 190.398 236.94 187.938 234.154ZM199.182 298.536C196.739 301.039 196.707 305.255 198.975 307.946C201.259 310.656 204.805 310.637 206.961 307.776C209.213 304.784 208.973 301.716 206.897 298.705C204.341 296.221 201.754 295.92 199.182 298.536ZM180.942 200.035C183.386 202.763 186.117 202.688 188.593 199.978C190.941 197.4 190.829 192.996 188.369 190.568C185.766 188.009 183.146 188.385 180.591 191.001C178.69 194.106 178.466 197.268 180.942 200.035ZM225.089 320.103C222.821 317.261 219.291 317.167 217.023 320.009C214.691 322.945 214.659 326.107 216.928 329.118C219.132 332.035 222.662 332.016 224.978 329.249C227.182 326.634 227.23 322.776 225.089 320.103ZM254.143 363.031C251.747 365.59 251.619 369.749 253.871 372.459C256.139 375.188 259.685 375.207 261.857 372.384C264.142 369.41 263.918 366.343 262.257 363.859C259.685 360.772 256.395 360.64 254.143 363.031ZM198.959 169.283C196.499 171.899 196.435 176.096 198.863 178.768C201.355 181.516 204.038 181.573 206.593 178.9C209.069 176.303 209.069 172.144 206.274 168.888C204.15 166.837 201.53 166.573 198.959 169.283ZM198.623 212.23C196.419 215.26 196.419 218.496 198.831 221.301C201.402 224.312 204.246 224.236 206.849 221.282C209.229 218.591 209.085 214.469 206.673 211.797C204.309 209.181 200.764 209.294 198.623 212.23ZM198.879 256.098C196.547 258.996 196.451 262.158 198.655 265.207C200.78 268.161 204.341 268.293 206.705 265.677C209.117 263.023 209.213 258.94 206.929 256.173C204.645 253.35 201.147 253.275 198.879 256.098ZM235.344 341.031C232.852 343.609 232.772 347.824 235.152 350.516C237.628 353.301 240.295 353.376 242.882 350.741C245.374 348.182 245.406 344.004 242.659 340.729C240.55 338.64 237.931 338.339 235.344 341.031ZM217.007 277.251C214.436 280.243 214.372 283.65 216.912 286.698C219.435 289.728 222.342 289.785 224.93 286.811C227.533 283.838 227.373 280.526 225.089 277.289C222.39 274.541 219.595 274.24 217.007 277.251ZM271.776 351.325C274.284 354.336 277.143 354.374 279.842 351.551C282.446 348.822 282.446 344.418 279.858 341.652C277.175 338.791 274.428 339.036 271.744 341.783C269.444 344.983 269.253 348.295 271.776 351.325ZM243.234 298.649C240.758 295.619 237.899 295.506 235.168 298.291C232.532 300.983 232.484 305.386 235.024 308.19C237.675 311.089 240.423 310.919 243.138 308.209C245.47 305.01 245.725 301.716 243.234 298.649ZM225.265 190.982C222.933 187.839 220.106 187.425 217.231 190.079C214.468 192.638 214.196 197.023 216.608 199.94C219.116 202.952 221.863 203.083 224.722 200.486C227.134 197.494 227.645 194.219 225.265 190.982ZM261.426 319.595C258.839 316.81 255.916 316.734 253.169 319.256C250.645 321.571 250.517 326.558 252.689 329.381C254.846 332.185 258.967 332.355 261.314 329.739C263.646 327.123 263.806 322.155 261.426 319.595ZM217.087 233.947C214.931 237.147 214.963 240.609 217.295 243.677C219.451 246.5 223.652 246.368 225.888 243.639C228.14 240.892 228.028 236.055 225.68 233.477C223.316 230.899 219.084 231.011 217.087 233.947ZM235.248 265.075C237.468 267.747 241.589 267.841 243.921 265.263C246.348 262.572 246.348 257.34 243.921 254.668C241.589 252.089 237.468 252.183 235.248 254.856C232.996 257.547 233.012 262.384 235.248 265.075ZM290.272 319.162C287.844 321.853 287.812 327.01 290.208 329.758C292.476 332.374 296.565 332.411 298.881 329.833C301.309 327.142 301.341 321.985 298.945 319.237C296.677 316.64 292.588 316.603 290.272 319.162ZM244.144 212.305C241.86 209.444 237.484 209.407 235.152 212.23C232.932 214.902 232.9 219.72 235.088 222.449C237.372 225.309 241.748 225.347 244.08 222.524C246.285 219.851 246.316 215.034 244.144 212.305ZM262.369 276.254C260.148 273.337 255.788 273.186 253.376 275.953C251.108 278.55 250.996 283.367 253.121 286.172C255.341 289.089 259.717 289.239 262.113 286.473C264.381 283.894 264.493 279.058 262.369 276.254ZM271.521 307.833C274.3 310.618 277.351 310.618 280.146 307.87C282.685 305.367 282.685 300.136 280.353 297.313C278.037 294.509 273.709 294.49 271.361 297.275C269.013 300.06 268.981 305.292 271.521 307.833ZM253.169 233.402C250.916 236.13 250.837 240.854 253.025 243.677C255.309 246.632 259.589 246.801 262.065 244.035C264.541 241.268 264.605 236.243 262.209 233.383C259.829 230.541 255.548 230.541 253.169 233.402ZM289.298 275.877C286.87 278.813 286.87 283.556 289.314 286.473C291.885 289.54 296.15 289.446 298.626 286.247C300.958 283.236 300.814 278.474 298.274 275.651C295.767 272.847 291.742 272.96 289.298 275.877ZM308.353 297.576C305.813 300.249 305.59 305.217 307.858 308.228C310.126 311.22 314.342 311.484 316.898 308.811C319.438 306.139 319.661 301.171 317.393 298.16C315.125 295.167 310.908 294.885 308.353 297.576ZM271.121 265.075C273.501 268.048 277.542 268.255 280.114 265.508C282.813 262.609 282.909 257.566 280.321 254.536C277.846 251.656 273.821 251.619 271.329 254.479C268.821 257.359 268.742 262.101 271.121 265.075Z" fill="black"/>
<path d="M301.181 800.001H268.869C268.821 799.719 268.757 799.437 268.709 799.155C264.397 777.305 259.158 755.719 253.2 734.378C253.136 734.171 253.088 733.982 253.025 733.775C251.379 727.866 249.67 721.976 247.913 716.104C199.853 555.441 113.651 406.635 73.2247 245.069C54.0261 168.361 61.7886 79.8903 89.9157 0.848222C90.0116 0.565929 90.1234 0.283636 90.2192 0.00134277H253.568C253.296 0.283636 253.009 0.565929 252.737 0.848222C160.625 94.8518 114.449 260.652 147.32 392.012C182.331 531.973 251.699 662.355 300.861 799.155C300.989 799.437 301.085 799.7 301.181 800.001Z" fill="black"/>
<path d="M157.846 527.193C157.846 527.193 232.005 658.61 250.293 799.982H199.246C199.246 800.001 230.072 735.996 157.846 527.193Z" fill="black"/>
</svg>
