<svg width="239" height="800" viewBox="0 0 239 800" fill="none" xmlns="http://www.w3.org/2000/svg">
<path d="M238.54 800H206.228C206.212 799.944 206.197 799.887 206.197 799.831C206.149 799.586 206.101 799.379 206.053 799.153C201.74 777.304 196.501 755.718 190.544 734.376C190.496 734.169 190.432 733.981 190.368 733.774C188.739 727.884 187.014 721.974 185.273 716.102C184.059 712.037 182.813 707.991 181.551 703.945C181.535 703.889 181.519 703.851 181.503 703.794C154.782 618.184 117.774 535.774 83.3059 452.836C83.2899 452.836 83.2899 452.817 83.2899 452.817C54.9551 384.634 28.3453 316.093 10.5682 245.068C-8.63046 168.36 -0.851963 79.889 27.2592 0.846879C27.371 0.564586 27.4669 0.282293 27.5627 0H190.911C190.64 0.282293 190.368 0.564586 190.081 0.846879C97.9844 94.8505 51.8086 260.651 84.6795 392.011C119.691 531.972 189.058 662.354 238.221 799.153C238.317 799.379 238.397 799.586 238.476 799.831C238.508 799.887 238.524 799.944 238.54 800Z" fill="black"/>
</svg>
