<svg width="203" height="224" viewBox="0 0 203 224" fill="none" xmlns="http://www.w3.org/2000/svg">
<path opacity="0.1" d="M6.72266 152.961C6.72266 171.714 14.1762 189.7 27.4435 202.96C40.7108 216.221 58.7051 223.671 77.4679 223.671C96.2307 223.671 114.225 216.221 127.492 202.96C140.76 189.7 148.213 171.714 148.213 152.961C148.213 126.217 108.729 71.6514 77.4679 35.4648C46.2069 71.6677 6.72266 126.217 6.72266 152.961Z" fill="url(#paint0_linear_450_388)"/>
<path opacity="0.1" d="M6.72266 142.879C6.72266 161.632 14.1762 179.618 27.4435 192.878C40.7108 206.139 58.7051 213.589 77.4679 213.589C96.2307 213.589 114.225 206.139 127.492 192.878C140.76 179.618 148.213 161.632 148.213 142.879C148.213 116.135 108.729 61.5694 77.4679 25.3828C46.2069 61.5857 6.72266 116.135 6.72266 142.879Z" fill="url(#paint1_linear_450_388)"/>
<path opacity="0.1" d="M0 118.817C3.37365e-07 130.136 4.49689 140.991 12.5014 148.995C20.5059 156.999 31.3623 161.495 42.6824 161.495C54.0025 161.495 64.8589 156.999 72.8635 148.995C80.868 140.991 85.3649 130.136 85.3649 118.817C85.3649 102.675 61.543 69.7406 42.6824 47.8994C23.8218 69.7504 0 102.675 0 118.817Z" fill="url(#paint2_linear_450_388)" fill-opacity="0.7"/>
<path opacity="0.4" d="M117.627 86.8891C117.627 98.2081 122.124 109.063 130.128 117.067C138.133 125.071 148.989 129.567 160.309 129.567C171.629 129.567 182.486 125.071 190.49 117.067C198.495 109.063 202.992 98.2081 202.992 86.8891C202.992 70.7469 179.17 37.8128 160.309 15.9717C141.449 37.8227 117.627 70.7469 117.627 86.8891Z" fill="url(#paint3_linear_450_388)" fill-opacity="0.7"/>
<path opacity="0.3" d="M55.1348 121.249C55.1348 140.445 62.7579 158.855 76.3271 172.428C89.8963 186.002 108.3 193.628 127.49 193.628C146.68 193.628 165.084 186.002 178.653 172.428C192.222 158.855 199.845 140.445 199.845 121.249C199.845 93.8737 159.462 38.0209 127.49 0.980469C95.5175 38.0376 55.1348 93.8737 55.1348 121.249Z" fill="url(#paint4_linear_450_388)"/>
<defs>
<linearGradient id="paint0_linear_450_388" x1="77.636" y1="366.17" x2="77.636" y2="144.523" gradientUnits="userSpaceOnUse">
<stop stop-color="#0D57D7"/>
<stop offset="1" stop-color="#4D8EFF"/>
</linearGradient>
<linearGradient id="paint1_linear_450_388" x1="77.636" y1="25.3828" x2="77.636" y2="213.589" gradientUnits="userSpaceOnUse">
<stop stop-color="#0D57D7"/>
<stop offset="1" stop-color="#4D8EFF"/>
</linearGradient>
<linearGradient id="paint2_linear_450_388" x1="42.7838" y1="47.8994" x2="42.7838" y2="161.495" gradientUnits="userSpaceOnUse">
<stop stop-color="#0D57D7"/>
<stop offset="1" stop-color="#4D8EFF"/>
</linearGradient>
<linearGradient id="paint3_linear_450_388" x1="160.411" y1="15.9717" x2="160.411" y2="129.567" gradientUnits="userSpaceOnUse">
<stop stop-color="#0D57D7"/>
<stop offset="1" stop-color="#4D8EFF"/>
</linearGradient>
<linearGradient id="paint4_linear_450_388" x1="55.1348" y1="193.628" x2="199.845" y2="193.628" gradientUnits="userSpaceOnUse">
<stop stop-color="#0D57D7"/>
<stop offset="1" stop-color="#4D8EFF"/>
</linearGradient>
</defs>
</svg>
