<svg width="273" height="647" viewBox="0 0 273 647" fill="none" xmlns="http://www.w3.org/2000/svg">
<g opacity="0.07" clip-path="url(#clip0_447_6199)">
<path d="M214.739 179.972C179.22 179.865 143.219 180.632 107.984 179.865C103.388 179.098 99.5577 175.261 98.7917 170.657C98.0258 158.379 98.7917 145.333 98.7917 133.056C99.5577 128.451 103.388 123.847 107.984 123.847C140.921 123.08 173.858 124.615 206.795 123.847C216.753 123.08 215.987 113.104 216.753 105.43C217.519 95.4547 215.987 84.7116 215.987 74.7359C215.221 71.6664 213.689 67.0622 210.625 67.0622C187.646 63.9928 165.432 63.9928 142.453 67.0622C140.921 67.0622 139.389 69.3643 137.857 70.899C137.091 72.4338 136.325 73.9685 136.325 75.5032C136.325 100.059 136.325 123.847 136.325 148.403C136.325 149.938 135.559 151.472 134.793 153.007C134.027 154.542 133.261 156.077 131.729 156.844C130.197 157.611 128.665 159.146 127.133 159.146C82.7061 159.146 37.513 159.913 -6.91402 159.146C-9.21197 159.146 -10.7439 156.844 -12.2759 155.309C-13.8079 153.775 -15.3398 151.472 -15.3398 149.17C-15.3398 132.288 -15.3398 115.406 -15.3398 98.5242C-15.3398 96.2221 -13.8079 94.6874 -13.0419 92.3853C-12.2759 90.8505 -10.7439 90.0832 -9.97796 89.3158C-8.44599 88.5484 -7.68001 87.7811 -6.14804 87.7811C73.5143 87.7811 153.177 88.5484 232.839 87.7811C234.371 87.7811 236.669 86.2463 238.201 85.479C240.499 83.9443 241.265 80.1074 242.031 77.8053C242.797 59.3886 242.797 41.7392 242.031 23.3224C241.265 21.7877 240.499 20.2529 239.733 18.7182C238.201 17.1835 235.903 14.8814 232.839 14.8814C154.709 14.8814 75.8122 15.6487 -2.31812 14.114C-5.38205 14.114 -9.21199 12.5793 -10.9738 8.97266" stroke="white" stroke-width="10" stroke-miterlimit="10"/>
<path d="M-204.966 224.909C-122.577 225.14 -39.8504 225.907 42.8759 224.372C45.1738 224.372 47.4718 225.14 49.7697 223.605C51.3017 222.07 52.8337 220.535 54.3656 219.001C55.1316 217.466 55.8976 215.164 55.8976 213.629C55.1316 158.379 53.5997 103.896 55.8976 48.6456C56.6636 45.5761 58.9615 42.5067 62.0255 42.5067C103.389 38.6698 143.986 41.7393 185.349 40.9719C189.179 40.9719 193.009 37.9025 193.775 34.833C196.839 26.392 194.541 17.1836 195.353 9.03418" stroke="white" stroke-width="10" stroke-miterlimit="10"/>
<path d="M14.4575 646.408C13.7682 639.517 13.0022 631.076 19.8961 626.472C71.983 624.17 124.836 628.007 176.923 625.705C195.306 624.937 214.456 624.937 232.84 624.937C235.137 624.937 236.669 623.403 238.967 622.635C241.265 621.1 242.031 618.031 242.031 615.729C242.797 597.312 242.031 579.663 242.031 561.246C242.031 557.409 238.967 554.34 235.137 554.34C91.1325 549.735 -52.8724 553.572 -196.556 552.46" stroke="white" stroke-width="10" stroke-miterlimit="10"/>
<path d="M216.041 646.186C215.988 634.146 215.988 621.868 215.988 609.59C209.86 600.382 197.604 604.218 188.412 603.451C173.859 601.149 158.539 601.916 143.985 604.218C135.56 604.986 135.56 615.729 135.56 622.635C136.326 630.309 135.56 638.75 136.663 646.416" stroke="white" stroke-width="10" stroke-miterlimit="10"/>
<path d="M-29.601 646.63C-29.8921 627.239 -30.6581 608.822 -29.8921 589.638C-29.1261 587.336 -28.3601 583.499 -26.0622 581.964C-23.7642 581.197 -22.9982 578.895 -20.7003 578.895C20.6628 578.128 62.026 580.43 103.389 578.128C112.581 573.523 110.283 563.548 110.321 555.168" stroke="white" stroke-width="10" stroke-miterlimit="10"/>
<path d="M-226.338 250.325C-127.94 250.463 -29.1277 251.23 68.9182 250.463C71.9822 249.696 75.8121 248.161 78.876 246.626C82.7059 167.587 79.642 88.5488 80.2931 9.2876" stroke="white" stroke-width="10" stroke-miterlimit="10"/>
<path d="M58.1642 327.215C32.7641 326.908 -201.213 326.908 -226.322 327.215" stroke="white" stroke-width="10" stroke-miterlimit="10"/>
<path d="M-27.1197 392.426H38.1957C44.9057 392.426 50.3442 397.874 50.3442 404.596V498.437C50.3442 505.159 44.9057 510.608 38.1957 510.608H-134.457" stroke="white" stroke-width="10" stroke-miterlimit="10"/>
<path d="M260.401 622.367C260.362 622.183 260.332 622.006 260.309 621.83C260.339 622.014 260.37 622.19 260.401 622.367Z" fill="white"/>
<path d="M260.996 624.092C260.981 624.062 260.966 624.024 260.943 623.993C260.959 624.024 260.981 624.062 260.996 624.092Z" fill="white"/>
<path d="M260.584 623.081C260.684 623.388 260.798 623.687 260.936 623.971C260.798 623.679 260.684 623.38 260.584 623.081Z" fill="white"/>
<path d="M269.07 613.611C269.07 613.611 268.174 613.335 266.994 613.435L266.903 613.112C267.27 613.036 267.546 612.706 267.546 612.322C267.546 611.877 267.186 611.516 266.734 611.516C266.282 611.516 265.922 611.877 265.922 612.322C265.922 612.713 266.198 613.036 266.565 613.112L266.665 613.465C265.417 613.634 264.413 614.125 264.413 614.125L264.589 614.67C265.348 614.417 266.006 614.263 266.596 614.202C267.178 614.141 267.623 614.11 267.975 614.11C268.358 614.11 268.641 614.141 268.963 614.194" fill="white"/>
<path d="M261.044 617.072C261.074 617.026 261.105 616.996 261.135 616.957L260.898 616.781L260.523 616.504C260.5 616.535 259.918 617.072 259.45 618.078C259.427 618.047 259.404 618.016 259.381 617.985C259.243 617.832 259.044 617.755 258.799 617.763H258.792C258.638 617.763 258.531 617.709 258.462 617.648C258.531 617.563 258.569 617.448 258.569 617.333C258.569 617.049 258.34 616.819 258.056 616.819C257.773 616.819 257.543 617.049 257.543 617.333C257.543 617.617 257.773 617.847 258.056 617.847C258.102 617.847 258.14 617.84 258.186 617.832C258.309 617.97 258.516 618.093 258.807 618.085C258.96 618.085 259.067 618.124 259.144 618.208C259.228 618.3 259.259 618.438 259.266 618.538C258.929 619.451 259.029 620.587 259.029 620.587L259.841 620.618C259.856 620.203 259.918 619.482 260.124 618.906C260.523 617.794 261.021 617.103 261.044 617.072Z" fill="white"/>
<path d="M273 621.845C271.92 622.374 270.143 623.065 267.806 623.395C266.887 623.525 265.999 623.571 265.179 623.571C264.114 623.571 263.172 623.495 262.452 623.403C261.625 623.295 260.981 623.172 260.591 623.08C260.683 623.379 260.798 623.679 260.936 623.97C260.936 623.978 260.943 623.986 260.943 623.993C260.958 624.024 260.974 624.062 260.997 624.093C261.012 624.124 261.027 624.162 261.043 624.193C261.05 624.201 261.05 624.208 261.058 624.216C261.288 624.653 261.571 625.052 261.885 625.405C262.988 626.618 264.114 626.802 264.122 626.81H264.137L264.153 626.817C264.16 626.817 265.156 627.14 266.673 627.14C268.166 627.14 269.622 626.84 271.016 626.242" fill="white"/>
<path d="M268.94 614.624C268.618 614.57 268.358 614.54 267.99 614.54C267.646 614.54 267.224 614.57 266.658 614.624C266.091 614.685 265.455 614.831 264.72 615.084C263.686 615.43 262.751 615.975 262.016 616.657L261.993 616.681C261.885 616.78 261.656 616.995 261.395 617.325C261.365 617.371 260.897 618.031 260.522 619.052C260.246 619.819 260.254 620.924 260.254 620.939C260.254 621.2 260.269 621.461 260.3 621.714C260.3 621.722 260.3 621.722 260.3 621.73C260.3 621.76 260.308 621.791 260.315 621.83C260.338 622.006 260.369 622.19 260.407 622.367C260.943 622.505 264.145 623.249 267.722 622.75C269.967 622.436 271.667 621.776 272.701 621.269" fill="white"/>
<path d="M264.475 616.757C265.669 616.757 266.635 617.724 266.635 618.921C266.635 620.118 265.669 621.077 264.475 621.077C263.287 621.077 262.314 620.11 262.314 618.921C262.322 617.731 263.287 616.757 264.475 616.757Z" fill="white"/>
</g>
<defs>
<clipPath id="clip0_447_6199">
<rect width="273" height="646" fill="white" transform="translate(0 0.960938)"/>
</clipPath>
</defs>
</svg>
