<svg width="273" height="647" viewBox="0 0 273 647" fill="none" xmlns="http://www.w3.org/2000/svg">
<g opacity="0.07" clip-path="url(#clip0_447_6226)">
<path d="M58.2613 179.972C93.7799 179.865 129.781 180.632 165.016 179.865C169.612 179.098 173.442 175.261 174.208 170.657C174.974 158.379 174.208 145.333 174.208 133.056C173.442 128.451 169.612 123.847 165.016 123.847C132.079 123.08 99.1419 124.615 66.2046 123.847C56.2468 123.08 57.0128 113.104 56.2468 105.43C55.4808 95.4547 57.0128 84.7116 57.0128 74.7359C57.7788 71.6664 59.3107 67.0622 62.3747 67.0622C85.3542 63.9928 107.568 63.9928 130.547 67.0622C132.079 67.0622 133.611 69.3643 135.143 70.899C135.909 72.4338 136.675 73.9685 136.675 75.5032C136.675 100.059 136.675 123.847 136.675 148.403C136.675 149.938 137.441 151.472 138.207 153.007C138.973 154.542 139.739 156.077 141.271 156.844C142.803 157.611 144.335 159.146 145.867 159.146C190.294 159.146 235.487 159.913 279.914 159.146C282.212 159.146 283.744 156.844 285.276 155.309C286.808 153.775 288.34 151.472 288.34 149.17C288.34 132.288 288.34 115.406 288.34 98.5242C288.34 96.2221 286.808 94.6874 286.042 92.3853C285.276 90.8505 283.744 90.0832 282.978 89.3158C281.446 88.5484 280.68 87.7811 279.148 87.7811C199.486 87.7811 119.823 88.5484 40.1611 87.7811C38.6292 87.7811 36.3312 86.2463 34.7992 85.479C32.5013 83.9443 31.7353 80.1074 30.9693 77.8053C30.2033 59.3886 30.2033 41.7392 30.9693 23.3224C31.7353 21.7877 32.5013 20.2529 33.2673 18.7182C34.7992 17.1835 37.0972 14.8814 40.1611 14.8814C118.291 14.8814 197.188 15.6487 275.318 14.114C278.382 14.114 282.212 12.5793 283.974 8.97266" stroke="white" stroke-width="10" stroke-miterlimit="10"/>
<path d="M477.965 224.909C395.576 225.14 312.849 225.907 230.123 224.372C227.825 224.372 225.527 225.14 223.229 223.605C221.697 222.07 220.165 220.535 218.633 219.001C217.867 217.466 217.101 215.164 217.101 213.629C217.867 158.379 219.399 103.896 217.101 48.6456C216.335 45.5761 214.037 42.5067 210.974 42.5067C169.61 38.6698 129.013 41.7393 87.6502 40.9719C83.8203 40.9719 79.9903 37.9025 79.2243 34.833C76.1604 26.392 78.4584 17.1836 77.6464 9.03418" stroke="white" stroke-width="10" stroke-miterlimit="10"/>
<path d="M258.541 646.408C259.231 639.517 259.997 631.076 253.103 626.472C201.016 624.17 148.163 628.007 96.0763 625.705C77.6927 624.937 58.5431 624.937 40.1595 624.937C37.8616 624.937 36.3296 623.403 34.0316 622.635C31.7337 621.1 30.9677 618.031 30.9677 615.729C30.2017 597.312 30.9677 579.663 30.9677 561.246C30.9677 557.409 34.0316 554.34 37.8616 554.34C181.867 549.735 325.871 553.572 469.555 552.46" stroke="white" stroke-width="10" stroke-miterlimit="10"/>
<path d="M56.9585 646.186C57.0122 634.146 57.0122 621.868 57.0122 609.59C63.14 600.382 75.3958 604.218 84.5876 603.451C99.1413 601.149 114.461 601.916 129.015 604.218C137.44 604.986 137.44 615.729 137.44 622.635C136.674 630.309 137.44 638.75 136.337 646.416" stroke="white" stroke-width="10" stroke-miterlimit="10"/>
<path d="M302.601 646.63C302.892 627.239 303.658 608.822 302.892 589.638C302.126 587.336 301.36 583.499 299.062 581.964C296.764 581.197 295.998 578.895 293.7 578.895C252.337 578.128 210.974 580.43 169.611 578.128C160.419 573.523 162.717 563.548 162.679 555.168" stroke="white" stroke-width="10" stroke-miterlimit="10"/>
<path d="M499.338 250.325C400.94 250.463 302.128 251.23 204.082 250.463C201.018 249.696 197.188 248.161 194.124 246.626C190.294 167.587 193.358 88.5488 192.707 9.2876" stroke="white" stroke-width="10" stroke-miterlimit="10"/>
<path d="M214.836 327.215C240.236 326.908 474.213 326.908 499.322 327.215" stroke="white" stroke-width="10" stroke-miterlimit="10"/>
<path d="M300.12 392.426H234.804C228.094 392.426 222.656 397.874 222.656 404.596V498.437C222.656 505.159 228.094 510.608 234.804 510.608H407.457" stroke="white" stroke-width="10" stroke-miterlimit="10"/>
<path d="M12.5995 622.367C12.6378 622.183 12.6684 622.006 12.6914 621.83C12.6608 622.014 12.6301 622.19 12.5995 622.367Z" fill="white"/>
<path d="M12.0035 624.092C12.0187 624.062 12.0339 624.024 12.0566 623.993C12.0415 624.024 12.0187 624.062 12.0035 624.092Z" fill="white"/>
<path d="M12.416 623.081C12.3164 623.388 12.2015 623.687 12.0636 623.971C12.2015 623.679 12.3164 623.38 12.416 623.081Z" fill="white"/>
<path d="M3.92972 613.611C3.92972 613.611 4.82594 613.335 6.00555 613.435L6.09747 613.112C5.72979 613.036 5.45407 612.706 5.45407 612.322C5.45407 611.877 5.81408 611.516 6.26601 611.516C6.71794 611.516 7.07795 611.877 7.07795 612.322C7.07795 612.713 6.80217 613.036 6.4345 613.112L6.33492 613.465C7.58347 613.634 8.58691 614.125 8.58691 614.125L8.41075 614.67C7.65243 614.417 6.99369 614.263 6.40388 614.202C5.82173 614.141 5.37742 614.11 5.02507 614.11C4.64208 614.11 4.35868 614.141 4.03697 614.194" fill="white"/>
<path d="M11.9565 617.072C11.9258 617.026 11.8952 616.996 11.8646 616.957L12.102 616.781L12.4773 616.504C12.5003 616.535 13.0824 617.072 13.5497 618.078C13.5727 618.047 13.5957 618.016 13.6187 617.985C13.7565 617.832 13.9557 617.755 14.2008 617.763H14.2085C14.3617 617.763 14.4689 617.709 14.5378 617.648C14.4689 617.563 14.4306 617.448 14.4306 617.333C14.4306 617.049 14.6604 616.819 14.9438 616.819C15.2272 616.819 15.457 617.049 15.457 617.333C15.457 617.617 15.2272 617.847 14.9438 617.847C14.8978 617.847 14.8595 617.84 14.8136 617.832C14.691 617.97 14.4842 618.093 14.1931 618.085C14.0399 618.085 13.9327 618.124 13.8561 618.208C13.7718 618.3 13.7412 618.438 13.7336 618.538C14.0706 619.451 13.971 620.587 13.971 620.587L13.1591 620.618C13.1438 620.203 13.0824 619.482 12.8756 618.906C12.4773 617.794 11.9795 617.103 11.9565 617.072Z" fill="white"/>
<path d="M0.000232697 621.845C1.08027 622.374 2.85737 623.065 5.19362 623.395C6.11281 623.525 7.00134 623.571 7.82094 623.571C8.88566 623.571 9.82782 623.495 10.5478 623.403C11.3751 623.295 12.0185 623.172 12.4092 623.08C12.3173 623.379 12.2024 623.679 12.0645 623.97C12.0645 623.978 12.0569 623.986 12.0569 623.993C12.0415 624.024 12.0262 624.062 12.0032 624.093C11.9879 624.124 11.9726 624.162 11.9573 624.193C11.9496 624.201 11.9496 624.208 11.9419 624.216C11.7121 624.653 11.4287 625.052 11.1147 625.405C10.0116 626.618 8.88567 626.802 8.87801 626.81H8.86267L8.84738 626.817C8.83972 626.817 7.84391 627.14 6.32727 627.14C4.8336 627.14 3.37824 626.84 1.98415 626.242" fill="white"/>
<path d="M4.05984 614.624C4.38156 614.57 4.64198 614.54 5.00965 614.54C5.35435 614.54 5.77563 614.57 6.34246 614.624C6.90929 614.685 7.54503 614.831 8.28037 615.084C9.31445 615.43 10.249 615.975 10.9843 616.657L11.0073 616.681C11.1146 616.78 11.3443 616.995 11.6048 617.325C11.6354 617.371 12.1027 618.031 12.478 619.052C12.7538 619.819 12.7461 620.924 12.7461 620.939C12.7461 621.2 12.7308 621.461 12.7001 621.714C12.7001 621.722 12.7001 621.722 12.7001 621.73C12.7001 621.76 12.6924 621.791 12.6848 621.83C12.6618 622.006 12.6312 622.19 12.5929 622.367C12.0567 622.505 8.85487 623.249 5.27773 622.75C3.0334 622.436 1.33291 621.776 0.298835 621.269" fill="white"/>
<path d="M8.52547 616.757C7.33053 616.757 6.36539 617.724 6.36539 618.921C6.36539 620.118 7.33053 621.077 8.52547 621.077C9.71274 621.077 10.6855 620.11 10.6855 618.921C10.6779 617.731 9.71274 616.757 8.52547 616.757Z" fill="white"/>
</g>
<defs>
<clipPath id="clip0_447_6226">
<rect width="273" height="646" fill="white" transform="matrix(-1 0 0 1 273 0.960938)"/>
</clipPath>
</defs>
</svg>
