<svg width="250" height="174" viewBox="0 0 250 174" fill="none" xmlns="http://www.w3.org/2000/svg">
<path opacity="0.1" d="M-9.20416 59.2352C-11.1453 50.4782 -34.9688 59.2352 -38.9394 49.7706C-44.1453 37.5639 -19.2629 40.7483 -15.9982 35.7949C-8.93936 25.1803 -40.4392 4.3051 -17.851 0.590023C-7.79221 -1.09061 -4.17471 11.5583 1.03116 16.8656C9.94292 25.7995 14.0018 30.1338 27.0607 33.1412C49.7371 38.36 81.4135 30.1338 102.59 36.9447C115.119 40.9252 113.267 48.1785 103.208 51.5397C97.1195 53.5742 90.5017 55.8739 89.5311 59.8544C85.8252 75.2454 144.413 68.8767 149.002 68.6998C173.972 67.9037 200.443 65.6039 225.413 67.2846C253.472 69.2306 260.972 94.0862 229.56 99.1281C223.737 100.101 211.207 100.455 203.443 102.932C196.384 105.231 194.355 113.635 203.002 117.35C210.766 120.622 221.884 116.377 228.766 124.957C233.178 130.352 231.943 136.721 222.413 140.525C210.237 145.301 183.943 128.23 175.913 140.171C174.325 142.559 176.266 148.043 182.796 154.147C200.708 170.865 141.149 173.607 128.531 173.43C118.384 173.253 68.0016 174.137 64.384 166.088C60.8546 158.304 75.7664 161.665 73.5605 152.908C71.2664 143.709 50.0018 147.159 44.7077 147.336C32.0901 147.601 -18.2922 155.12 -24.204 136.633C-29.3216 120.622 -10.5277 121.065 4.03113 118.588C10.5605 117.438 18.6783 115.934 18.5018 111.777C18.3254 108.593 9.4135 107.974 3.76643 107.531C-35.8512 104.878 -103.792 134.244 -119.675 96.8283C-141.116 46.2324 -7.17465 69.319 -9.38052 59.1468L-9.20416 59.2352ZM5.26656 44.2865C11.1783 47.4708 19.3842 50.5667 29.0018 50.5667C34.6489 50.5667 40.3842 50.3013 46.1195 50.1244C51.5901 49.9475 56.9723 49.6822 62.2664 49.6822C67.9135 49.6822 74.9724 47.7362 76.6488 50.4782C78.3253 53.2203 64.9135 56.7585 63.3252 63.3041C62.1782 67.9922 63.2371 72.5918 66.2371 76.3069C71.8842 83.2063 83.7077 86.2138 105.678 86.2138C116.972 86.2138 128.178 85.4177 133.56 84.9754C134.972 84.887 135.943 84.7985 136.384 84.7985C143.531 84.6216 150.855 84.2678 158.178 83.914C170.619 83.3832 183.502 82.7641 195.943 82.7641C203.178 82.7641 209.619 82.941 215.708 83.3833C225.766 84.0024 226.472 85.3293 231.59 87.5406C236.707 89.752 240.149 88.4251 240.149 84.1793C240.149 79.1374 235.472 77.9875 224.796 77.2799C219.061 76.9261 212.884 76.6607 206.002 76.6607C194.178 76.6607 181.913 77.2799 170.09 77.8107C163.119 78.1645 156.237 78.4298 149.355 78.6952C148.913 78.6952 147.943 78.7836 146.708 78.8721C141.59 79.3143 130.913 80.1104 120.237 80.1104C99.3253 80.1104 88.1194 77.1914 82.7371 70.3805C79.8253 66.7538 78.8547 62.1542 80.0018 57.5546C81.59 51.009 94.2959 47.6477 92.7077 44.9057C91.1195 42.1636 84.4134 44.1095 79.0311 44.1095C74.0017 44.1095 68.8841 44.2865 63.6782 44.5518C58.2076 44.8172 52.737 44.9941 47.3547 44.9941C38.2664 44.9941 31.1193 44.3749 24.9428 42.8712C17.0017 41.1021 8.79588 35.7948 2.70766 31.1067C-0.292343 28.8069 -4.88062 30.6645 -5.05708 34.5564C-5.23355 38.36 0.766373 41.8982 5.3546 44.3749L5.26656 44.2865Z" fill="#A3DAF7"/>
</svg>
