<svg width="200" height="314" viewBox="0 0 200 314" fill="none" xmlns="http://www.w3.org/2000/svg">
<g opacity="0.2">
<mask id="mask0_456_3089" style="mask-type:alpha" maskUnits="userSpaceOnUse" x="0" y="0" width="201" height="314">
<rect x="0.927734" y="0.4375" width="199.073" height="313" fill="#D9D9D9"/>
</mask>
<g mask="url(#mask0_456_3089)">
<path d="M156.48 216.082C155.94 214.942 155.305 213.827 154.669 212.736C146.622 198.753 138.863 185.057 132.771 170.079C130.972 165.642 129.209 161.193 127.483 156.72C131.464 162.212 136.717 168.388 142.893 171.518C145.099 172.645 147.726 173.173 150.088 172.417C163.016 168.328 144.943 143.9 141.514 138.551C131.356 122.757 126.955 102.046 124.329 83.7342C120.419 56.4516 121.342 28.7973 119.4 1.3588C119.16 -1.97507 118.728 -5.08109 117.181 -8.07918C113.607 -14.9868 104.829 -15.4065 98.8568 -11.473C98.7249 -11.3891 98.605 -11.2931 98.4731 -11.1972C98.1973 4.7886 97.3698 20.7744 96.1106 36.7122C94.3837 58.4183 91.9133 80.0645 88.8313 101.615C86.2169 119.927 82.0436 138.107 75.3759 155.4C68.7681 172.549 59.6779 188.775 47.6136 202.686C45.1432 205.552 42.5768 208.227 39.8066 210.781C37.3841 213.024 33.8944 215.962 33.6425 219.511C33.5106 221.322 34.3501 222.557 35.5973 223.313C42.241 220.735 48.2852 216.273 53.3939 211.501C57.4353 207.723 61.105 203.538 64.4868 199.1C63.5754 201.823 62.8199 204.581 62.3402 207.435C61.9924 209.522 61.9924 212.052 64.0311 213.263C66.8613 214.93 70.8308 212.82 73.2892 211.357C77.7863 208.694 81.0482 204.413 83.6386 199.928C83.6626 201.355 83.7105 202.794 83.7825 204.221C84.1183 210.301 84.7778 216.705 87.2483 222.33C89.8866 228.35 95.9307 234.754 102.874 230.293C104.841 229.033 106.34 227.151 107.611 225.184C113.763 215.65 114.963 204.041 117.085 193.152C117.613 190.466 118.021 187.768 118.356 185.045C120.131 189.974 122.17 194.807 124.508 199.52C128.706 207.975 133.275 218.456 140.314 224.98C143.336 227.786 147.558 229.633 151.599 228.793C158.375 227.39 158.95 221.226 156.492 216.034L156.48 216.082Z" fill="#A3DAF7"/>
<g style="mix-blend-mode:multiply">
<path d="M96.6981 32.371C98.6648 29.181 101.627 26.1949 105.476 25.5833C109.626 24.9357 113.751 27.1543 116.473 30.1764C118.44 32.371 119.843 34.8774 120.947 37.5517C120.551 25.4754 120.251 13.3991 119.388 1.3588C119.148 -1.97507 118.716 -5.08109 117.169 -8.07918C113.595 -14.9868 104.817 -15.4065 98.8447 -11.473C98.7128 -11.3891 98.5929 -11.2931 98.461 -11.1972C98.2091 3.52941 97.4656 18.244 96.3623 32.9346C96.4702 32.7427 96.5782 32.5509 96.6861 32.359L96.6981 32.371Z" fill="#A3DAF7"/>
</g>
<g style="mix-blend-mode:screen">
<path d="M34.8895 217.749C37.36 215.423 39.7344 212.976 42.073 210.518C48.201 204.066 53.6456 196.991 58.7903 189.735C63.839 182.612 68.54 175.332 72.4375 167.501C76.3111 159.73 79.4411 151.648 82.3792 143.481C88.5553 126.26 91.8411 108.379 94.0357 90.2588C96.3023 71.6107 98.1971 52.8907 99.6362 34.1586C100.847 18.4846 101.651 2.77469 101.783 -12.9473C100.763 -12.5635 99.7801 -12.0718 98.8567 -11.4722C98.7248 -11.3883 98.6048 -11.2923 98.4729 -11.1964C98.1971 4.7894 97.3696 20.7752 96.1104 36.713C94.3835 58.4191 91.9131 80.0653 88.8311 101.616C86.2167 119.928 82.0434 138.108 75.3757 155.401C68.7679 172.55 59.6777 188.776 47.6134 202.687C45.143 205.553 42.5766 208.227 39.8064 210.782C37.5518 212.868 34.3739 215.567 33.7383 218.793C34.134 218.445 34.5178 218.085 34.8895 217.737V217.749Z" fill="#A3DAF7"/>
<path d="M104.637 113.117C104.529 115.228 104.445 117.35 104.409 119.461C104.302 125.421 104.457 131.406 105.237 137.318C105.92 142.462 107.084 147.691 109.41 152.38C110.442 149.742 110.885 146.9 110.981 144.081C111.197 137.654 109.842 131.226 108.211 125.05C107.144 121.044 105.885 117.087 104.649 113.129L104.637 113.117Z" fill="#A3DAF7"/>
<path d="M92.6331 165.619C92.4772 163.101 92.2253 160.582 91.9375 158.064C91.7097 156.097 91.4578 154.142 91.218 152.188C90.9541 153.95 90.7023 155.725 90.4625 157.5C89.7549 162.873 89.0594 168.281 88.6756 173.69C88.4477 176.808 88.028 179.914 87.7402 183.032C87.4164 186.677 87.1885 190.383 87.5123 194.041C87.7282 196.547 88.2079 199.521 89.9708 201.452C91.9015 198.934 92.5971 195.516 92.9808 192.446C93.8323 185.718 93.2567 178.894 92.8729 172.143C92.753 169.972 92.765 167.79 92.6331 165.619Z" fill="#A3DAF7"/>
</g>
<g style="mix-blend-mode:multiply">
<path d="M156.48 216.082C155.94 214.942 155.305 213.827 154.669 212.736C146.622 198.753 138.863 185.058 132.771 170.079C130.972 165.642 129.209 161.193 127.482 156.72C131.464 162.212 136.716 168.388 142.892 171.518C145.099 172.646 147.725 173.173 150.088 172.418C163.004 168.328 144.943 143.9 141.513 138.551C131.356 122.757 126.955 102.047 124.328 83.7343C120.419 56.4518 121.342 28.7974 119.399 1.35896C119.16 -1.97491 118.728 -5.08092 117.181 -8.07901C116.138 -10.0817 114.65 -11.5328 112.924 -12.4922C113.103 -8.13897 113.223 -3.77376 113.295 0.579459C113.511 14.1428 113.319 27.7181 113.547 41.2814C113.775 54.9527 114.71 68.564 116.042 82.1633C116.737 89.2268 117.553 96.2783 118.56 103.318C119.459 109.626 120.347 115.862 122.457 121.906C126.235 132.735 132.495 143.516 132.219 155.305C132.207 155.868 131.56 156.096 131.152 155.748C128.921 153.794 127.099 151.407 125.516 148.913C122.434 144.044 120.155 138.647 118.26 133.203C118.308 133.491 118.356 133.766 118.404 134.054C119.112 138.479 119.603 142.94 120.467 147.342C121.174 150.939 121.93 154.525 122.517 158.147C123.129 161.888 123.621 165.69 123.513 169.48C123.441 172.37 123.045 175.512 121.366 177.958C121.198 178.21 120.791 178.39 120.515 178.186C117.361 175.823 115.25 172.394 113.643 168.844C110.981 162.98 109.542 156.684 108.127 150.424C107.851 155.904 107.479 161.373 106.975 166.841C106.304 174.121 105.452 181.412 104.133 188.607C103.114 194.184 101.879 199.844 99.6121 205.061C98.3889 207.879 96.3981 211.717 93.0043 212.232C88.4112 212.928 86.0008 207.819 85.0654 204.197C84.2619 201.091 83.9741 197.865 83.8302 194.663C83.6623 190.802 83.7702 186.928 83.9861 183.055C84.082 181.316 84.2139 179.589 84.3578 177.862C82.595 183.127 81.048 188.511 78.8414 193.608C77.7501 196.15 76.4789 198.753 74.6321 200.839C73.2649 202.386 71.4421 203.49 69.3195 202.962C64.8103 201.835 66.2614 194.891 66.957 191.749C67.4127 189.699 68.0243 187.708 68.6839 185.729C65.6858 190.97 62.268 195.971 58.4544 200.648C56.0199 203.634 53.4056 206.488 50.5754 209.102C48.2249 211.273 45.7185 213.347 42.9603 214.978C41.7491 215.686 40.0222 216.729 38.5471 216.346C37.4558 216.07 37.108 214.978 37.156 213.959C37.168 213.707 37.216 213.467 37.2519 213.216C35.4651 215.026 33.8221 217.137 33.6542 219.536C33.5223 221.346 34.3618 222.582 35.609 223.337C42.2527 220.759 48.2969 216.298 53.4056 211.537C57.447 207.759 61.1167 203.562 64.4985 199.125C63.5871 201.847 62.8316 204.605 62.3519 207.459C62.0041 209.546 62.0041 212.076 64.0428 213.288C66.873 214.954 70.8425 212.844 73.3009 211.381C77.798 208.718 81.0599 204.437 83.6503 199.952C83.6743 201.379 83.7222 202.818 83.7942 204.245C84.13 210.325 84.7896 216.729 87.26 222.354C89.8983 228.374 95.9424 234.778 102.886 230.317C104.853 229.057 106.352 227.175 107.623 225.208C113.775 215.674 114.974 204.065 117.097 193.176C117.625 190.49 118.032 187.792 118.368 185.07C120.143 189.998 122.182 194.831 124.52 199.544C128.717 207.999 133.287 218.48 140.326 225.004C143.348 227.81 147.569 229.657 151.611 228.818C158.387 227.415 158.962 221.25 156.504 216.058L156.48 216.082Z" fill="#A3DAF7"/>
</g>
<g style="mix-blend-mode:multiply">
<path d="M156.48 216.083C155.94 214.944 155.304 213.828 154.669 212.737C146.622 198.754 138.863 185.059 132.771 170.08C130.972 165.643 129.209 161.194 127.482 156.721C131.464 162.213 136.716 168.39 142.892 171.52C145.099 172.647 147.725 173.174 150.088 172.419C156.851 170.284 155.125 162.561 151.443 154.922C151.491 155.989 151.515 157.045 151.455 158.1C151.251 162.046 149.956 166.339 146.082 168.126C143.96 169.109 141.633 169.289 139.451 168.425C136.956 167.442 134.882 165.559 133.107 163.593C130.552 160.738 128.49 157.524 126.547 154.227C128.082 159.695 129.533 165.176 131.08 170.632C132.651 176.125 134.306 181.605 135.997 187.062C137.316 191.307 138.611 195.54 140.194 199.69C141.609 203.395 143.132 207.233 143.468 211.226C143.612 212.881 143.432 214.464 142.772 215.999C142.353 216.994 141.705 218.038 140.626 218.398C138.527 219.093 136.524 216.815 135.361 215.387C133.514 213.121 132.027 210.579 130.624 208.024C128.777 204.678 126.859 201.368 125.168 197.939C121.69 190.899 118.956 183.56 116.245 176.197C115.934 181.317 115.094 186.414 113.871 191.379C112.264 197.939 110.009 204.343 107.191 210.483C105.045 215.172 102.73 220.28 98.2689 223.23C95.2469 225.233 91.3733 225.761 88.2073 223.77C88.0155 223.65 87.8596 223.506 87.6797 223.374C90.5219 229.059 96.2662 234.527 102.814 230.318C104.781 229.059 106.28 227.176 107.551 225.209C113.703 215.675 114.902 204.067 117.025 193.178C117.553 190.491 117.96 187.793 118.296 185.071C120.071 190 122.11 194.833 124.448 199.546C128.646 208 133.215 218.481 140.254 225.005C143.276 227.812 147.497 229.658 151.539 228.819C158.315 227.416 158.89 221.252 156.432 216.059L156.48 216.083Z" fill="#A3DAF7"/>
</g>
<path d="M24.1567 302.836C25.5717 303.124 26.8909 302.524 27.9103 301.565C30.5126 299.13 31.8198 295.341 32.9111 292.043C34.3142 287.773 35.4534 283.408 36.6047 279.067C37.5881 275.397 38.4995 271.704 39.303 267.998C37.8399 269.857 36.3888 271.728 34.9737 273.622C31.1242 278.803 27.3826 284.152 24.4205 289.896C23.2332 292.199 22.106 294.621 21.5663 297.163C21.2425 298.71 21.0986 300.641 22.1419 301.78C22.6696 302.356 23.3652 302.668 24.1567 302.824V302.836Z" fill="#A3DAF7"/>
<path d="M66.1784 264.519C67.7374 264.363 68.6608 262.84 69.2245 261.545C70.6756 258.271 70.8794 254.566 71.3591 251.064C71.8388 247.61 72.2705 244.144 72.2466 240.643C72.2346 238.988 72.0667 237.333 71.9228 235.678C68.6489 240.715 66.2384 246.291 64.5715 252.059C64.1277 253.606 63.744 255.165 63.4682 256.748C63.1684 258.475 62.9405 260.37 63.3123 262.109C63.6361 263.596 64.5355 264.663 66.1664 264.507L66.1784 264.519Z" fill="#A3DAF7"/>
<path d="M165.941 205.324C168.616 213.575 172.741 221.562 178.258 228.242C180.272 230.676 182.611 232.907 185.153 234.765C187.743 236.66 190.921 238.543 194.243 238.471C196.978 238.411 200.311 236.264 200.407 233.266C200.491 230.472 197.973 228.086 196.018 226.419C193.848 224.56 191.425 223.049 189.051 221.49C187.096 220.207 185.189 218.864 183.198 217.616C181.016 216.249 178.797 214.918 176.639 213.515C173.209 211.272 169.851 208.886 166.805 206.14C166.517 205.876 166.229 205.6 165.941 205.324Z" fill="#A3DAF7"/>
<path d="M192.697 182.396C190.598 181.328 188.272 180.753 185.993 180.213C183.487 179.625 181.004 178.966 178.51 178.33C174.984 177.443 171.518 176.399 168.029 175.38C167.969 175.368 167.909 175.344 167.849 175.332C168.376 176.112 169 176.843 169.588 177.539C170.715 178.858 171.854 180.153 172.993 181.472C175.512 184.386 178.594 187.013 182.179 188.512C182.395 188.608 182.635 188.68 182.863 188.751C186.137 189.879 189.819 189.939 193.2 189.291C194.064 189.123 194.951 188.883 195.551 188.26C197.626 186.089 194.52 183.331 192.697 182.408V182.396Z" fill="#A3DAF7"/>
<path d="M0.939453 211.585C0.939453 213.276 2.13869 214.679 3.45784 215.602C5.98823 217.389 9.26213 217.509 12.2242 216.993C18.5802 215.878 24.4204 212.4 29.2534 208.239C32.4913 205.445 35.4534 202.291 37.9958 198.849C39.0991 197.362 40.1304 195.791 41.0658 194.172C40.6461 194.376 40.2383 194.568 39.8306 194.748C35.9211 196.534 31.9037 198.069 27.8023 199.341C25.5237 200.048 23.2212 200.672 20.8947 201.211C18.6641 201.727 16.4096 202.075 14.155 202.495C10.1736 203.238 6.12014 204.293 3.15804 207.244C2.01876 208.383 0.939453 209.894 0.939453 211.573L0.939453 211.585Z" fill="#A3DAF7"/>
<g style="mix-blend-mode:multiply">
<path d="M34.7222 278.982C33.5469 281.177 32.4077 283.395 31.3403 285.662C30.345 287.784 29.3376 289.955 28.6181 292.186C27.9105 294.38 27.3469 296.743 26.0637 298.697C25.572 299.441 24.8405 300.304 23.8451 300.185C22.7298 300.053 21.9743 298.745 21.6985 297.774C21.6385 297.57 21.5906 297.366 21.5546 297.162V297.174C21.2308 298.721 21.0869 300.652 22.1302 301.791C22.6579 302.367 23.3534 302.679 24.1449 302.835C25.56 303.123 26.8792 302.523 27.8985 301.564C30.5009 299.129 31.808 295.34 32.8993 292.042C34.3024 287.772 35.4417 283.407 36.593 279.066C37.1686 276.907 37.7083 274.749 38.2239 272.578C37.0367 274.701 35.8614 276.823 34.7102 278.982H34.7222Z" fill="#A3DAF7"/>
</g>
<g style="mix-blend-mode:multiply">
<path d="M70.147 253.546C69.5474 254.961 68.9238 256.412 68.1083 257.719C67.6047 258.535 66.9811 259.374 66.1536 259.89C64.9903 260.598 63.875 260.106 63.1915 259.122C63.1195 260.142 63.1195 261.149 63.3354 262.133C63.6592 263.62 64.5586 264.687 66.1896 264.531C67.7486 264.375 68.672 262.852 69.2356 261.557C70.6867 258.283 70.8906 254.577 71.3702 251.076C71.4302 250.656 71.4782 250.236 71.5381 249.816C71.1184 251.076 70.6747 252.323 70.147 253.558V253.546Z" fill="#A3DAF7"/>
</g>
<g style="mix-blend-mode:multiply">
<path d="M196.032 226.432C193.861 224.573 191.439 223.062 189.064 221.503C187.11 220.22 185.203 218.877 183.212 217.63C181.03 216.263 178.811 214.932 176.652 213.528C173.69 211.598 170.788 209.535 168.09 207.232C169.841 209.883 171.807 212.401 173.906 214.824C175.513 216.694 177.132 218.577 178.931 220.268C180.658 221.887 182.481 223.386 184.232 224.957C185.994 226.552 187.685 228.231 189.088 230.15C190.12 231.553 191.115 233.256 191.187 235.043C191.235 236.122 190.755 237.093 189.808 237.513C191.235 238.125 192.734 238.508 194.257 238.472C196.991 238.413 200.325 236.266 200.421 233.268C200.505 230.474 197.987 228.087 196.032 226.42V226.432Z" fill="#A3DAF7"/>
</g>
<g style="mix-blend-mode:multiply">
<path d="M192.697 182.396C190.598 181.328 188.272 180.753 185.993 180.213C183.487 179.625 181.004 178.966 178.51 178.33C174.984 177.443 171.518 176.399 168.029 175.38C167.969 175.368 167.909 175.344 167.849 175.332C167.897 175.404 167.957 175.476 168.017 175.548C168.904 175.944 169.791 176.315 170.679 176.651C174.037 177.934 177.514 178.882 180.848 180.261C183.415 181.316 186.485 182.324 188.212 184.65C188.919 185.597 189.135 186.917 188.427 187.936C187.792 188.859 186.641 189.147 185.585 189.243C185.321 189.267 185.058 189.279 184.794 189.279C187.54 189.867 190.466 189.807 193.188 189.279C194.052 189.111 194.939 188.871 195.539 188.248C197.614 186.077 194.508 183.319 192.685 182.396H192.697Z" fill="#A3DAF7"/>
</g>
<g style="mix-blend-mode:multiply">
<path d="M33.9426 200.817C29.8652 203.959 25.6679 207.124 21.1108 209.547C18.7483 210.806 16.242 211.861 13.6156 212.413C11.7328 212.809 9.69413 213.061 7.77536 212.749C6.21636 212.497 4.59739 211.766 3.9498 210.231C3.42214 208.947 3.65 207.508 4.2616 206.285C3.87785 206.585 3.50609 206.909 3.14632 207.268C2.00704 208.408 0.927734 209.919 0.927734 211.598C0.927734 213.289 2.12697 214.692 3.44613 215.615C5.97651 217.402 9.25042 217.522 12.2125 217.006C18.5685 215.891 24.4087 212.413 29.2416 208.252C32.4796 205.458 35.4417 202.304 37.9841 198.862C39.0634 197.411 40.0707 195.888 40.9821 194.305C38.9434 196.763 36.4251 198.886 33.9306 200.817H33.9426Z" fill="#A3DAF7"/>
</g>
<g style="mix-blend-mode:screen">
<path d="M16.9496 205.217C16.4579 204.437 15.2587 204.317 14.4312 204.245C13.0881 204.125 11.7089 204.377 10.4138 204.725C8.7828 205.169 6.66016 205.876 6.01257 207.615C5.84468 208.083 5.86866 208.598 6.07253 209.042C6.18047 209.822 6.88801 210.325 7.71548 210.517C8.6269 210.733 9.55031 210.661 10.4737 210.517C12.4525 210.193 14.6111 209.474 16.1101 208.083C16.8536 207.399 17.5852 206.2 16.9616 205.217H16.9496Z" fill="#A3DAF7"/>
</g>
<g style="mix-blend-mode:screen">
<path d="M22.3344 203.43C22.3344 203.43 22.3344 203.43 22.3344 203.418C22.2984 203.334 22.2864 203.274 22.2384 203.214C22.1305 203.07 22.0825 203.059 21.9506 202.987C21.8427 202.927 21.7228 202.891 21.5908 202.891C21.5429 202.891 21.4949 202.891 21.4469 202.903C21.4229 202.903 21.351 202.903 21.303 202.915C21.303 202.915 21.291 202.915 21.279 202.915C21.1711 202.939 21.0632 202.987 20.9552 203.011C20.7993 203.07 20.6674 203.154 20.5595 203.274C20.4396 203.37 20.3316 203.478 20.2597 203.61C20.2237 203.694 20.1757 203.778 20.1398 203.862C20.0918 203.982 20.0798 204.102 20.1038 204.234C20.1038 204.318 20.1158 204.39 20.1638 204.462C20.1997 204.582 20.2717 204.665 20.3796 204.737C20.4516 204.773 20.5235 204.809 20.5955 204.833C20.6914 204.857 20.7754 204.869 20.8713 204.869C20.8713 204.869 20.8953 204.869 20.9073 204.869C21.0152 204.869 21.1231 204.869 21.2191 204.833H21.2431C21.339 204.821 21.4349 204.785 21.5189 204.737L21.7947 204.582L22.0346 204.378C22.1065 204.306 22.1665 204.234 22.2144 204.15C22.2144 204.15 22.3344 203.91 22.3344 203.898L22.3823 203.658L22.3583 203.418L22.3344 203.43Z" fill="#A3DAF7"/>
<path d="M22.3222 203.405C22.3222 203.405 22.2503 203.237 22.2383 203.213C22.2623 203.273 22.2982 203.345 22.3222 203.405Z" fill="#A3DAF7"/>
</g>
<g style="mix-blend-mode:screen">
<path d="M27.2866 290.422C26.8789 289.966 26.1593 290.026 25.6916 290.398C24.8402 291.082 24.2525 292.017 23.8328 293.012C23.6289 293.336 23.449 293.684 23.2931 294.008C22.8135 295.027 22.3697 296.322 22.6576 297.45C22.7415 297.785 23.0653 297.953 23.3891 297.953C24.7562 297.953 25.7995 296.754 26.4711 295.675C27.1187 294.619 27.6464 293.36 27.7183 292.113C27.7543 291.549 27.6823 290.866 27.2866 290.434V290.422Z" fill="#A3DAF7"/>
</g>
<g style="mix-blend-mode:screen">
<path d="M28.1269 287.543C27.5992 287.543 27.1075 288.478 27.8151 288.478C28.3427 288.478 28.8344 287.543 28.1269 287.543Z" fill="#A3DAF7"/>
</g>
<g style="mix-blend-mode:screen">
<path d="M68.2039 251.926C67.7122 251.147 66.6209 251.458 66.0213 251.902C65.5056 252.286 65.0859 252.814 64.7621 253.353C64.3783 253.989 64.0905 254.672 63.9586 255.404C63.9346 255.536 63.9226 255.68 63.9226 255.812C63.8147 256.159 63.7307 256.519 63.7188 256.867C63.7188 257.263 63.7907 257.67 64.0545 257.97C64.5102 258.474 65.1818 258.522 65.7814 258.258C66.7528 257.838 67.2445 256.819 67.6043 255.884C67.8201 255.32 68 254.732 68.1439 254.145C68.3118 253.485 68.5876 252.526 68.1919 251.89L68.2039 251.926Z" fill="#A3DAF7"/>
</g>
<g style="mix-blend-mode:screen">
<path d="M187.145 230.378C186.785 229.767 186.401 229.155 185.934 228.615C185.454 228.052 184.914 227.524 184.375 227.032C183.799 226.505 183.08 225.845 182.264 225.821C181.557 225.797 180.837 226.337 180.645 227.008C180.501 227.5 180.573 228.064 180.729 228.543C181.065 229.599 181.76 230.582 182.492 231.386C183.104 232.057 183.847 232.741 184.711 233.124C185.058 233.376 185.43 233.604 185.826 233.784C186.258 233.976 186.725 234.036 187.169 233.844C187.661 233.64 188.056 233.136 188.032 232.597C188.008 231.805 187.541 231.026 187.145 230.366V230.378Z" fill="#A3DAF7"/>
</g>
<g style="mix-blend-mode:screen">
<path d="M186.761 185.143C186.473 184.579 185.946 184.135 185.454 183.776C184.831 183.32 184.135 182.96 183.415 182.648C181.94 182.001 180.01 181.437 178.666 182.636C178.451 182.828 178.235 183.272 178.355 183.56C178.69 184.399 179.386 185.095 180.058 185.706C180.321 186.006 180.609 186.282 180.921 186.51C181.065 186.618 181.221 186.714 181.377 186.822C182 187.301 182.684 187.721 183.415 187.985C183.967 188.189 184.567 188.237 185.13 188.057C185.25 188.021 185.358 187.961 185.466 187.901C186.593 187.505 187.385 186.354 186.761 185.143Z" fill="#A3DAF7"/>
</g>
</g>
</g>
</svg>
