<svg width="99" height="57" viewBox="0 0 99 57" fill="none" xmlns="http://www.w3.org/2000/svg">
<path d="M7.13307 48.7407C15.0561 46.0102 22.1307 42.0004 30.4862 39.9554C32.1301 39.5705 32.6603 40.8104 32.0033 41.4979C31.0772 42.4232 29.9139 43.7713 28.5674 44.9613C32.8267 44.4009 36.9142 44.6326 41.2384 44.4418C45.2607 44.3041 49.1202 43.2425 52.596 41.7723C51.5926 41.3777 50.7241 40.8641 49.7041 40.3771C42.7381 36.1759 35.9183 19.5657 51.4046 15.5967C60.1801 13.2873 69.5529 18.7788 70.8691 23.5952C72.6131 29.9556 67.2345 36.524 59.2007 41.2745C63.084 42.1139 67.5918 42.0811 72.3037 41.4406C82.164 39.9879 88.4071 34.7911 90.7831 28.8472C95.094 17.99 87.5998 5.49941 69.7241 4.74591C68.9368 4.69422 68.8065 3.95516 69.7122 3.79546C91.33 0.174167 97.8186 19.3194 93.9972 29.4235C89.6492 40.954 69.6625 46.7645 55.7569 42.9294C54.7492 43.3929 53.6068 43.9753 52.4318 44.373C44.4395 47.5921 36.6033 46.402 28.5055 47.2585C29.7739 48.2731 31.0585 49.38 32.7635 50.2226C33.9667 50.8677 33.3054 52.4132 31.2779 52.3895C22.8662 52.3486 14.3687 52.7039 6.88765 50.8796C5.73305 50.5117 5.50502 49.2184 7.13307 48.7407ZM55.7374 40.1705C57.4347 39.2044 59.1157 38.1459 60.4786 37.0483C69.949 29.8536 69.6992 19.6101 55.936 17.4647C49.5398 16.4969 46.8665 21.6358 46.1636 24.7126C45.0853 29.1893 46.989 33.8069 50.5411 37.1812C52.1603 38.4198 53.8815 39.3546 55.7374 40.1705ZM23.3451 47.1204C23.1941 47.147 23.0104 46.9889 22.9941 46.8965C23.2677 45.8005 24.4799 44.7294 25.8425 43.6319C21.1588 45.315 16.8587 47.4068 12.1914 49.1824C16.9801 49.8621 22.1245 49.9075 27.4193 49.9265C26.3344 49.0699 25.4007 48.1866 23.8956 47.5947C23.5609 47.4634 23.3777 47.3052 23.3451 47.1204Z" fill="white"/>
</svg>
