<svg width="547" height="421" viewBox="0 0 547 421" fill="none" xmlns="http://www.w3.org/2000/svg">
<g opacity="0.34">
<path d="M251.48 421C248.994 421 246.499 420.971 243.987 420.908C207.594 420.033 170.615 412.901 139.868 400.819C106.224 387.601 81.6763 369.281 68.8774 347.838C65.8394 342.748 65.5889 336.377 68.1132 328.367C70.3425 321.292 74.6997 313.085 81.4417 303.276C93.9266 285.108 112.801 264.195 131.058 243.969C145.893 227.532 161.229 210.538 172.629 195.519C190.66 171.761 196.2 156.368 190.058 147.073C184.47 138.613 169.264 135.178 143.571 136.57C115.015 138.118 74.4809 145.567 19.6512 159.336C11.2158 161.455 5.20642 159.806 2.27307 154.564C-2.35051 146.306 0.693823 129.885 10.6228 109.517C20.8847 88.4698 37.321 66.0717 55.717 48.0626C78.0834 26.1719 102.733 11.0073 126.993 4.21462C156.332 -3.99557 184.746 -0.199661 211.447 15.5072C239.386 31.9403 257.198 51.2084 274.424 69.8423C302.749 100.482 327.208 126.943 387.864 127.561C435.986 128.052 464.482 129.102 483.154 131.075C502.511 133.117 512.78 136.275 517.492 141.632C522.09 146.861 521.263 153.841 520.118 163.503C518.19 179.755 515.279 204.313 538.086 239.906C545.922 252.131 548.249 260.234 545.414 265.409C541.108 273.267 525.204 273.245 505.07 273.213C483.681 273.185 457.062 273.144 434.696 282.635C408.479 293.763 393.502 315.533 388.904 349.185C387.22 361.499 381.984 372.608 373.336 382.197C365.259 391.156 354.236 398.78 340.572 404.856C317.013 415.333 285.606 420.997 251.477 420.997L251.48 421ZM153.954 135.641C173.65 135.641 185.675 139.294 190.584 146.728C196.895 156.279 191.349 171.907 173.13 195.906C161.714 210.947 146.368 227.951 131.524 244.397C94.9319 284.94 57.0933 326.863 69.4197 347.517C82.1457 368.84 106.583 387.068 140.096 400.235C170.78 412.289 207.68 419.408 244 420.28C280.919 421.168 315.123 415.485 340.315 404.282C368.472 391.759 385.054 372.681 388.276 349.103C390.73 331.135 396.315 316.227 404.874 304.798C412.301 294.882 422.249 287.23 434.448 282.051C456.932 272.506 483.624 272.551 505.07 272.579C524.995 272.611 540.734 272.633 544.856 265.105C547.529 260.224 545.138 252.093 537.55 240.249C514.619 204.465 517.546 179.771 519.487 163.427C520.612 153.929 521.427 147.067 517.013 142.05C512.418 136.824 502.27 133.729 483.085 131.706C464.435 129.736 435.955 128.687 387.854 128.198C326.926 127.577 302.378 101.021 273.955 70.2767C256.76 51.6777 238.98 32.4445 211.124 16.059C142.455 -24.3324 79.8751 25.3093 56.1578 48.5256C37.8125 66.484 21.4207 88.8186 11.1904 109.802C1.4993 129.682 -1.63065 146.303 2.82486 154.259C5.64404 159.295 11.2539 160.798 19.4958 158.727C74.3636 144.945 114.936 137.493 143.537 135.942C147.221 135.743 150.694 135.641 153.954 135.641Z" fill="url(#paint0_linear_456_486)"/>
<path d="M253.215 416.855C250.462 416.855 247.697 416.817 244.906 416.741C209.386 415.85 173.298 408.851 143.286 397.032C110.445 384.1 86.4739 366.192 73.9604 345.244C70.9859 340.268 70.729 334.043 73.1771 326.217C75.3367 319.307 79.5766 311.29 86.1314 301.713C98.277 283.973 116.654 263.554 134.422 243.81C148.864 227.764 163.797 211.169 174.89 196.506C192.417 173.312 197.779 158.277 191.764 149.188C186.287 140.915 171.433 137.544 146.349 138.882C118.468 140.373 78.9075 147.622 25.4065 161.039C17.1075 163.097 11.1964 161.455 8.3106 156.289C3.79484 148.212 6.7155 132.232 16.321 112.444C26.2405 92.0057 42.1852 70.2197 60.0675 52.6672C81.9677 31.1761 106.151 16.2683 130.005 9.56444C158.862 1.45572 186.848 5.13747 213.188 20.505C240.676 36.5607 258.244 55.3975 275.232 73.6128C303.12 103.514 327.205 129.337 386.455 130.003C433.414 130.504 461.244 131.547 479.504 133.491C498.414 135.505 508.447 138.6 513.058 143.848C517.564 148.976 516.753 155.813 515.63 165.276C513.746 181.132 510.902 205.09 533.04 239.754C540.578 251.63 542.794 259.517 540.016 264.575C535.767 272.31 520.159 272.313 500.399 272.316C479.456 272.322 453.396 272.325 431.505 281.655C405.85 292.586 391.18 313.912 386.658 346.851C384.99 358.937 379.856 369.82 371.392 379.201C363.489 387.963 352.704 395.402 339.344 401.316C316.546 411.407 286.214 416.849 253.221 416.849L253.215 416.855ZM156.36 137.981C175.67 137.981 187.46 141.562 192.284 148.849C198.464 158.188 193.095 173.451 175.388 196.886C164.279 211.572 149.336 228.173 134.885 244.232C99.2633 283.811 62.43 324.739 74.4932 344.927C86.9369 365.755 110.803 383.574 143.514 396.455C173.459 408.246 209.475 415.232 244.922 416.12C281.026 417.106 314.466 411.648 339.084 400.752C366.61 388.568 382.846 369.903 386.036 346.772C388.45 329.185 393.926 314.591 402.308 303.394C409.579 293.68 419.321 286.174 431.258 281.087C453.266 271.71 479.396 271.704 500.396 271.701C519.952 271.698 535.396 271.691 539.471 264.283C542.094 259.511 539.817 251.599 532.517 240.097C510.258 205.245 513.118 181.151 515.012 165.209C516.115 155.908 516.914 149.185 512.592 144.267C508.095 139.148 498.179 136.114 479.441 134.119C461.2 132.178 433.389 131.135 386.449 130.634C326.929 129.962 302.761 104.05 274.776 74.0441C257.816 55.8605 240.279 37.0586 212.871 21.0473C145.115 -18.491 83.7404 30.3071 60.4988 53.1206C42.6672 70.6256 26.7669 92.3482 16.876 112.726C7.50195 132.039 4.49884 148.215 8.84971 155.997C11.6245 160.963 17.1423 162.46 25.2542 160.446C78.7965 147.016 118.395 139.764 146.314 138.27C149.863 138.08 153.208 137.985 156.357 137.985L156.36 137.981Z" fill="url(#paint1_linear_456_486)"/>
<path d="M254.379 412.695C251.547 412.695 248.703 412.654 245.833 412.571C211.127 411.582 175.927 404.697 146.714 393.186C114.663 380.555 91.266 363.078 79.0506 342.65C76.1395 337.788 75.8763 331.709 78.2483 324.07C80.3413 317.321 84.4575 309.498 90.8316 300.153C102.638 282.841 120.514 262.92 137.8 243.655C151.851 227.996 166.379 211.807 177.164 197.495C194.158 174.904 199.362 160.278 193.537 151.472C188.212 143.42 173.723 140.125 149.248 141.4C122.077 142.814 83.4554 149.797 31.1721 162.748C23.0254 164.768 17.2157 163.154 14.3744 158.084C9.96959 150.219 12.7571 134.699 22.0201 115.504C31.5875 95.6843 47.0217 74.5071 64.3649 57.4049C85.8021 36.2658 109.526 21.5832 132.973 14.946C161.362 6.91018 188.935 10.4619 214.933 25.506C241.97 41.1843 259.294 59.5899 276.051 77.3865C303.501 106.549 327.208 131.731 385.057 132.451C430.928 132.965 458.108 133.999 475.946 135.908C494.422 137.886 504.23 140.918 508.74 146.052C513.154 151.075 512.358 157.773 511.257 167.045C509.424 182.502 506.653 205.857 528.004 239.615C535.282 251.12 537.407 258.775 534.699 263.709C530.532 271.298 515.231 271.333 495.858 271.377C475.347 271.425 449.819 271.482 428.372 280.653C403.241 291.4 388.859 312.292 384.41 344.527C382.761 356.378 377.725 367.033 369.445 376.191C361.717 384.741 351.173 391.987 338.111 397.73C315.986 407.456 286.509 412.698 254.382 412.698L254.379 412.695ZM158.822 140.528C177.776 140.528 189.335 144.023 194.041 151.139C200.028 160.189 194.818 175.037 177.646 197.866C166.845 212.197 152.308 228.398 138.25 244.064C103.599 282.679 67.7676 322.611 79.5739 342.336C91.7195 362.65 115.015 380.035 146.939 392.618C176.086 404.104 211.213 410.976 245.848 411.962C281.191 412.971 313.87 407.716 337.864 397.169C364.762 385.346 380.646 367.112 383.804 344.441C386.18 327.231 391.552 312.942 399.765 301.97C406.894 292.45 416.436 285.09 428.131 280.089C449.689 270.87 475.287 270.813 495.855 270.765C515.025 270.721 530.167 270.686 534.16 263.414C536.716 258.759 534.534 251.082 527.484 239.938C506.015 205.997 508.803 182.511 510.649 166.969C511.73 157.855 512.51 151.272 508.277 146.452C503.878 141.444 494.19 138.473 475.877 136.513C458.061 134.607 430.896 133.574 385.044 133.06C326.936 132.34 303.145 107.066 275.601 77.8051C258.876 60.0402 241.577 41.6632 214.622 26.0324C147.745 -12.6687 87.5589 35.3842 64.7867 57.8394C26.3805 95.716 6.43372 142.669 14.904 157.786C17.6343 162.66 23.0571 164.131 31.0199 162.159C83.3412 149.198 122.001 142.209 149.21 140.791C152.603 140.614 155.806 140.525 158.822 140.525V140.528Z" fill="url(#paint2_linear_456_486)"/>
<path d="M256.028 408.55C252.961 408.55 249.869 408.503 246.752 408.404C212.89 407.358 178.578 400.597 150.136 389.368C118.88 377.029 96.0575 359.977 84.1338 340.053C81.2893 335.302 81.0197 329.372 83.3125 321.917C85.3357 315.333 89.3314 307.7 95.5216 298.586C106.989 281.703 124.363 262.279 141.164 243.497C154.823 228.227 168.947 212.438 179.425 198.482C195.902 176.47 200.935 162.232 195.268 153.67C190.074 145.821 175.946 142.596 152.076 143.81C125.6 145.158 87.9329 151.91 36.9213 164.455C28.9172 166.424 23.2091 164.829 20.4153 159.841C16.1183 152.173 18.7789 137.1 27.7122 118.489C37.0703 98.9984 51.6229 78.9597 68.687 62.0668C89.6549 41.3114 112.915 26.873 135.957 20.3119C163.867 12.3649 191.022 15.7929 216.667 30.5072C243.254 45.805 260.337 63.7793 276.859 81.1637C303.871 109.587 327.202 134.132 383.646 134.899C428.391 135.426 454.915 136.45 472.334 138.327C490.372 140.271 499.946 143.243 504.354 148.263C508.673 153.184 507.896 159.742 506.818 168.815C505.029 183.872 502.33 206.628 522.953 239.469C529.951 250.613 531.978 258.046 529.33 262.86C525.229 270.312 510.233 270.375 491.244 270.458C471.17 270.544 446.188 270.651 425.204 279.658C400.615 290.211 386.531 310.669 382.158 342.193C380.525 353.812 375.591 364.239 367.495 373.182C359.938 381.529 349.638 388.584 336.877 394.159C324.855 399.411 310.788 403.296 295.065 405.706C282.751 407.593 269.654 408.544 256.031 408.544L256.028 408.55ZM161.254 142.967C179.837 142.967 191.164 146.382 195.769 153.34C201.594 162.143 196.552 176.6 179.904 198.84C169.41 212.815 155.279 228.614 141.612 243.893C107.93 281.544 73.1045 320.48 84.6476 339.742C111.206 384.113 185.212 405.896 246.771 407.802C281.327 408.871 313.242 403.832 336.636 393.611C362.903 382.137 378.442 364.328 381.565 342.108C383.903 325.275 389.164 311.293 397.206 300.552C404.185 291.232 413.525 284.015 424.966 279.103C446.064 270.049 471.113 269.941 491.241 269.852C510.033 269.773 524.878 269.706 528.807 262.565C531.305 258.024 529.225 250.571 522.448 239.78C501.712 206.762 504.43 183.878 506.225 168.739C507.284 159.819 508.048 153.372 503.903 148.65C495.817 139.441 468.843 136.488 383.636 135.489C326.939 134.719 303.529 110.088 276.422 81.5664C259.932 64.2137 242.877 46.2712 216.366 31.0178C150.383 -6.83347 91.4022 40.414 69.1056 62.4854C52.089 79.3307 37.5777 99.3092 28.2513 118.742C19.5305 136.904 16.7969 152.157 20.9353 159.543C23.6213 164.337 28.9521 165.79 36.7754 163.868C87.8251 151.317 125.527 144.559 152.042 143.208C155.286 143.043 158.355 142.961 161.247 142.961L161.254 142.967Z" fill="url(#paint3_linear_456_486)"/>
<path d="M257.505 404.402C254.258 404.402 250.982 404.348 247.675 404.237C214.656 403.133 181.232 396.496 153.564 385.552C123.104 373.505 100.855 356.875 89.2235 337.461C86.4424 332.825 86.1665 327.037 88.38 319.769C90.3366 313.35 94.2086 305.911 100.215 297.025C111.342 280.567 128.216 261.641 144.535 243.34C157.803 228.458 171.522 213.071 181.692 199.47C197.649 178.042 202.517 164.188 197.009 155.87C191.944 148.224 178.175 145.072 154.915 146.226C129.133 147.507 92.4232 154.027 42.6832 166.163C34.8218 168.082 29.2152 166.506 26.469 161.603C22.283 154.132 24.8168 139.506 33.4202 121.478C42.4295 102.603 56.4969 83.1607 73.0283 66.7276C93.5236 46.3559 116.321 32.1617 138.957 25.6798C166.388 17.8216 193.121 21.1292 218.414 35.5073C244.551 50.4277 261.393 67.9707 277.681 84.9365C304.255 112.621 327.205 136.529 382.247 137.343C425.867 137.879 451.734 138.897 468.735 140.743C486.332 142.655 495.677 145.566 499.984 150.472C504.211 155.289 503.45 161.708 502.394 170.587C500.653 185.247 498.024 207.401 517.917 239.322C524.64 250.108 526.565 257.316 523.977 262.012C519.946 269.328 505.251 269.423 486.642 269.541C467.007 269.667 442.569 269.823 422.046 278.667C397.995 289.031 384.213 309.05 379.913 339.865C378.296 351.256 373.463 361.454 365.551 370.181C358.168 378.322 348.106 385.194 335.65 390.601C323.92 395.69 310.188 399.439 294.837 401.744C283.059 403.51 270.542 404.402 257.512 404.402H257.505ZM163.683 145.408C181.898 145.408 192.994 148.747 197.497 155.546C200.576 160.195 200.557 166.36 197.443 174.396C194.773 181.283 189.775 189.598 182.161 199.822C171.976 213.442 158.247 228.842 144.973 243.73C112.262 280.418 78.4383 318.355 89.7245 337.157C115.579 380.301 187.692 401.639 247.694 403.647C281.464 404.779 312.614 399.952 335.409 390.058C361.048 378.934 376.235 361.546 379.327 339.782C381.622 323.33 386.779 309.656 394.65 299.144C401.576 289.893 410.461 283.018 421.808 278.128C442.443 269.236 466.946 269.081 486.633 268.954C505.048 268.837 519.591 268.745 523.457 261.73C525.895 257.303 523.92 250.076 517.412 239.636C497.409 207.541 500.053 185.263 501.804 170.524C502.841 161.793 503.589 155.486 499.536 150.862C491.634 141.853 465.323 138.954 382.234 137.93C326.948 137.112 303.919 113.122 277.252 85.3424C260.994 68.4083 244.18 50.8939 218.119 36.0147C153.031 -0.986681 95.2583 45.4585 73.4405 67.143C56.9567 83.5285 42.9306 102.914 33.9498 121.729C25.4256 139.582 22.8855 154.011 26.9795 161.314C29.6211 166.027 34.8567 167.467 42.5437 165.592C92.3186 153.447 129.066 146.92 154.883 145.639C157.981 145.487 160.914 145.408 163.683 145.408Z" fill="url(#paint4_linear_456_486)"/>
<path d="M259.174 400.26C255.695 400.26 252.168 400.197 248.598 400.067C216.423 398.906 183.89 392.392 156.989 381.734C127.328 369.982 105.653 353.774 94.3101 334.864C91.5924 330.342 91.3101 324.7 93.4475 317.619C95.3375 311.362 99.0859 304.116 104.911 295.462C115.7 279.432 132.073 261.004 147.906 243.182C160.781 228.69 174.097 213.703 183.959 200.457C199.4 179.612 204.1 166.141 198.747 158.064C193.815 150.621 180.405 147.536 157.75 148.633C132.662 149.848 96.9073 156.136 48.4421 167.866C40.7234 169.734 35.2151 168.177 32.5164 163.36C28.4383 156.085 30.8484 141.907 39.1252 124.459C47.7888 106.2 61.371 87.3501 77.3728 71.3831C97.3957 51.3983 119.727 37.4515 141.954 31.0457C168.903 23.2795 195.214 26.4633 220.158 40.5085C245.848 55.0515 262.449 72.1633 278.502 88.7137C304.639 115.656 327.208 138.926 380.845 139.792C423.339 140.341 448.547 141.349 465.132 143.166C482.288 145.043 491.402 147.894 495.607 152.689C499.739 157.405 498.994 163.68 497.964 172.366C496.27 186.627 493.708 208.182 512.875 239.18C519.322 249.607 521.145 256.593 518.624 261.166C514.663 268.345 500.266 268.469 482.041 268.624C462.843 268.789 438.951 268.992 418.884 277.675C395.376 287.848 381.892 307.427 377.665 337.537C376.063 348.697 371.332 358.667 363.601 367.178C356.392 375.116 346.571 381.798 334.413 387.036C314.222 395.738 288.38 400.26 259.174 400.26ZM166.112 147.844C183.956 147.844 194.824 151.104 199.225 157.747C202.222 162.266 202.216 168.26 199.206 176.07C196.631 182.758 191.795 190.845 184.422 200.799C174.544 214.067 161.222 229.061 148.338 243.563C116.597 279.286 83.7786 316.227 94.8016 334.566C119.949 376.486 190.175 397.378 248.62 399.49C282.079 400.701 311.669 396.207 334.185 386.507C359.193 375.731 374.031 358.768 377.091 337.455C379.349 321.38 384.397 308.014 392.094 297.73C398.87 288.679 407.556 281.947 418.649 277.145C438.821 268.418 462.779 268.212 482.028 268.047C500.066 267.892 514.311 267.771 518.11 260.887C520.492 256.574 518.614 249.572 512.377 239.481C493.105 208.308 495.68 186.637 497.383 172.297C498.398 163.757 499.131 157.585 495.167 153.063C487.445 144.254 461.796 141.406 380.826 140.363C326.951 139.494 304.303 116.144 278.08 89.1101C262.053 72.5882 245.484 55.505 219.867 41.0064C155.672 4.85806 99.1113 50.4882 77.7724 71.7859C61.8182 87.7084 48.2772 106.504 39.6389 124.703C31.4414 141.98 29.025 155.965 33.0111 163.078C35.6083 167.711 40.752 169.135 48.3026 167.308C96.8026 155.572 132.593 149.277 157.718 148.059C160.67 147.916 163.467 147.844 166.109 147.844H166.112Z" fill="url(#paint5_linear_456_486)"/>
<path d="M260.655 396.119C256.998 396.119 253.285 396.046 249.521 395.901C218.189 394.68 186.544 388.296 160.414 377.92C131.55 366.459 110.448 350.673 99.3969 332.274C96.7426 327.866 96.4541 322.37 98.5153 315.473C100.336 309.381 103.963 302.325 109.605 293.903C120.054 278.3 135.926 260.371 151.277 243.027C163.762 228.922 176.672 214.338 186.227 201.447C193.331 191.803 197.979 183.986 200.443 177.549C203.275 170.147 203.291 164.493 200.485 160.263C195.684 153.023 182.631 150.007 160.585 151.044C136.192 152.192 101.395 158.252 54.2012 169.573C46.6253 171.39 41.2152 169.849 38.5641 165.118C34.5938 158.04 36.8802 144.305 44.8336 127.438C53.1547 109.793 66.2549 91.5368 81.7208 76.0297C101.268 56.4349 123.133 42.7354 144.948 36.4089C171.414 28.7378 197.304 31.798 221.897 45.507C247.139 59.6695 263.499 76.3531 279.32 92.4881C305.016 118.692 327.208 141.321 379.438 142.234C420.809 142.793 445.357 143.795 461.527 145.58C478.242 147.426 487.128 150.213 491.231 154.897C495.272 159.508 494.542 165.644 493.534 174.14C491.885 188.004 489.395 208.953 507.833 239.035C514.004 249.103 515.729 255.864 513.268 260.317C509.374 267.36 495.281 267.512 477.44 267.705C458.679 267.908 435.33 268.162 415.726 276.68C392.757 286.66 379.571 305.804 375.417 335.204C373.831 346.132 369.201 355.877 361.654 364.17C354.617 371.904 345.04 378.396 333.183 383.466C313.724 391.791 288.824 396.113 260.655 396.113V396.119ZM168.538 150.283C186.015 150.283 196.651 153.467 200.954 159.949C203.868 164.341 203.872 170.163 200.97 177.745C198.487 184.23 193.813 192.092 186.681 201.777C177.11 214.69 164.194 229.283 151.699 243.395C120.929 278.155 89.1128 314.1 99.8789 331.976C110.867 350.27 131.873 365.974 160.623 377.39C186.696 387.744 218.275 394.115 249.546 395.333C305.584 397.512 367.933 382.842 374.859 335.125C377.075 319.427 382.019 306.372 389.544 296.316C396.169 287.465 404.658 280.875 415.497 276.166C435.209 267.601 458.619 267.347 477.43 267.144C495.091 266.954 509.038 266.802 512.773 260.044C515.095 255.845 513.322 249.068 507.351 239.327C488.812 209.08 491.317 188.01 492.972 174.073C493.965 165.723 494.682 159.692 490.806 155.268C483.265 146.661 458.283 143.861 379.428 142.796C326.967 141.879 304.699 119.17 278.918 92.8782C263.125 76.7717 246.794 60.1199 221.621 45.9954C158.317 10.7033 102.974 55.5153 82.1203 76.4229C66.6957 91.8856 53.6336 110.085 45.3409 127.672C37.4669 144.372 35.1741 157.919 39.0525 164.839C41.6053 169.392 46.657 170.8 54.068 169.021C101.293 157.691 136.126 151.628 160.556 150.48C163.36 150.346 166.02 150.283 168.538 150.283Z" fill="url(#paint6_linear_456_486)"/>
<path d="M262.151 391.977C258.308 391.977 254.407 391.895 250.443 391.73C219.955 390.455 189.198 384.192 163.838 374.101C135.77 362.932 115.243 347.568 104.483 329.676C99.6661 321.691 102.879 309.479 114.301 292.338C124.411 277.164 139.785 259.729 154.648 242.871C166.743 229.156 179.247 214.971 188.494 202.435C203.097 182.485 207.331 170.156 202.222 162.459C197.551 155.423 184.857 152.477 163.416 153.456C139.718 154.538 105.875 160.366 59.9597 171.282C52.5233 173.048 47.2179 171.526 44.608 166.877C40.7487 159.995 42.9114 146.705 50.5413 130.415C58.52 113.382 71.1381 95.7155 86.0776 80.6746C105.149 61.4699 126.542 48.0209 147.947 41.78C173.932 34.2009 199.397 37.1406 223.637 50.5166C248.429 64.2986 264.549 80.5763 280.135 96.318C305.39 121.824 327.202 143.848 378.033 144.691C418.338 145.36 442.246 146.404 457.972 148.183C474.246 150.025 482.891 152.759 486.877 157.328C490.8 161.819 490.086 167.781 489.103 176.032C487.502 189.452 485.079 209.739 502.79 238.901C508.692 248.62 510.325 255.166 507.924 259.498C504.103 266.395 490.337 266.579 472.908 266.813C454.604 267.058 431.822 267.365 412.668 275.721C390.232 285.511 377.31 304.211 373.165 332.891C371.617 343.588 367.105 353.108 359.748 361.188C352.891 368.719 343.549 375.024 331.987 379.926C313.255 387.87 289.29 391.99 262.151 391.99V391.977ZM170.815 152.698C188.047 152.698 198.502 155.857 202.679 162.145C205.511 166.408 205.527 172.059 202.73 179.419C200.342 185.704 195.829 193.337 188.935 202.756C179.672 215.313 167.158 229.505 155.057 243.229C125.258 277.025 94.4463 311.971 104.949 329.387C115.649 347.178 136.081 362.46 164.038 373.587C189.344 383.656 220.035 389.903 250.462 391.178C305.105 393.467 365.89 379.33 372.616 332.799C374.83 317.486 379.691 304.741 387.064 294.92C393.552 286.275 401.854 279.825 412.443 275.204C431.698 266.804 454.54 266.496 472.895 266.252C490.147 266.021 503.77 265.84 507.436 259.222C509.697 255.137 508.022 248.582 502.311 239.18C484.502 209.853 486.937 189.456 488.548 175.959C489.515 167.85 490.216 161.99 486.455 157.684C479.136 149.299 454.813 146.508 378.017 145.237C326.961 144.39 305.076 122.29 279.735 96.7017C264.174 80.9885 248.084 64.7394 223.361 50.9955C160.949 16.5596 106.83 60.5503 86.4581 81.0615C71.5631 96.058 58.983 113.671 51.0297 130.646C43.4759 146.775 41.3068 159.881 45.0805 166.607C47.5889 171.082 52.5487 172.474 59.8234 170.746C110.524 158.695 147.088 152.708 170.808 152.708L170.815 152.698Z" fill="url(#paint7_linear_456_486)"/>
<path d="M263.639 387.842C259.618 387.842 255.524 387.75 251.363 387.563C221.719 386.231 191.853 380.095 167.26 370.287C139.988 359.409 120.038 344.47 109.567 327.082C104.883 319.335 107.943 307.51 118.919 290.934C128.635 276.258 143.448 259.384 157.772 243.065C169.572 229.622 181.775 215.72 190.759 203.422C204.871 184.103 208.955 172.157 204.002 164.689C199.464 157.846 187.125 154.96 166.284 155.87C143.258 156.876 110.363 162.473 65.7159 172.985C58.4221 174.701 53.2119 173.198 50.6527 168.631C46.9012 161.946 48.9435 149.097 56.2499 133.38C63.8893 116.957 76.0285 99.883 90.4384 85.3051C103.402 72.1891 124.424 54.922 150.945 47.1399C176.444 39.6591 201.487 42.4751 225.375 55.5118C249.721 68.9164 265.599 84.766 280.957 100.096C305.771 124.866 327.199 146.258 376.625 147.13C415.818 147.822 439.069 148.868 454.373 150.619C470.207 152.433 478.62 155.106 482.504 159.562C486.329 163.947 485.634 169.766 484.67 177.815C483.113 190.833 480.76 210.503 497.742 238.746C503.371 248.11 504.906 254.431 502.569 258.642C498.817 265.403 485.355 265.615 468.313 265.888C450.447 266.174 428.214 266.526 409.52 274.72C387.623 284.316 374.995 302.579 370.914 330.549C369.388 341.013 364.977 350.308 357.804 358.173C351.122 365.498 342.021 371.615 330.76 376.35C312.757 383.92 289.738 387.842 263.639 387.842ZM173.216 155.154C190.131 155.154 200.377 158.239 204.452 164.388C207.195 168.526 207.22 174.003 204.522 181.129C202.216 187.217 197.859 194.613 191.193 203.736C182.193 216.056 169.984 229.965 158.178 243.417C129.488 276.103 99.8188 309.904 110.03 326.8C120.441 344.086 140.299 358.95 167.463 369.782C191.999 379.569 221.805 385.692 251.392 387.021C282.479 388.419 309.853 384.557 330.554 375.852C353.7 366.12 367.473 350.426 370.384 330.469C372.563 315.536 377.319 303.099 384.524 293.506C390.867 285.061 398.972 278.754 409.307 274.225C428.103 265.986 450.396 265.631 468.31 265.346C485.178 265.076 498.503 264.864 502.102 258.379C504.306 254.408 502.73 248.079 497.285 239.022C480.208 210.621 482.574 190.839 484.138 177.748C485.083 169.836 485.768 164.119 482.099 159.914C474.967 151.732 451.306 148.986 376.619 147.666C326.974 146.788 305.473 125.325 280.579 100.473C265.25 85.1719 249.4 69.3477 225.119 55.978C163.598 22.4015 110.705 65.5613 90.8221 85.6793C76.4566 100.213 64.3522 117.233 56.7382 133.602C49.5048 149.16 47.4562 161.829 51.1221 168.362C53.5861 172.757 58.457 174.133 65.5922 172.452C114.688 160.893 150.152 155.15 173.216 155.15V155.154Z" fill="url(#paint8_linear_456_486)"/>
<path d="M265.132 383.707C260.931 383.707 256.646 383.603 252.286 383.393C223.485 382.004 194.507 375.992 170.685 366.469C144.209 355.883 124.833 341.366 114.653 324.485C110.093 316.951 113.02 305.471 123.602 289.39C132.976 275.148 147.278 258.779 161.111 242.948C172.531 229.88 184.34 216.364 193.023 204.405C206.614 185.683 210.537 174.111 205.742 166.884C201.334 160.24 189.354 157.424 169.118 158.274C146.784 159.213 114.844 164.582 71.4745 174.688C64.3235 176.353 59.2179 174.866 56.7064 170.382C53.0563 163.868 55.0003 151.409 62.0371 136.2C69.3911 120.309 81.1181 103.771 95.0618 89.6372C107.689 76.8351 128.191 59.9771 154.141 52.3663C179.098 45.0472 203.653 47.7871 227.119 60.5131C251.106 73.5213 266.775 88.9808 281.927 103.93C306.259 127.939 327.275 148.675 375.223 149.579C413.299 150.296 435.897 151.339 450.78 153.064C466.173 154.849 474.354 157.462 478.134 161.807C481.864 166.088 481.182 171.761 480.243 179.613C478.73 192.225 476.447 211.287 492.703 238.607C498.062 247.616 499.499 253.714 497.225 257.802C493.54 264.423 480.386 264.667 463.731 264.975C446.305 265.299 424.617 265.701 406.38 273.734C385.019 283.14 372.686 300.965 368.671 328.224C367.165 338.458 362.855 347.527 355.866 355.173C349.356 362.296 340.499 368.222 329.539 372.792C312.269 379.988 290.194 383.714 265.139 383.714L265.132 383.707ZM175.629 157.599C192.189 157.599 202.21 160.605 206.183 166.592C211.118 174.029 207.192 185.787 193.451 204.716C184.756 216.694 172.937 230.219 161.511 243.297C133.807 275.002 105.159 307.786 115.104 324.213C125.223 340.995 144.51 355.436 170.882 365.98C194.65 375.484 223.568 381.481 252.311 382.867C282.602 384.329 309.237 380.676 329.333 372.301C352.175 362.784 365.231 347.927 368.145 328.142C370.289 313.586 374.944 301.46 381.978 292.095C388.171 283.853 396.083 277.685 406.164 273.246C424.5 265.172 446.245 264.769 463.718 264.442C480.205 264.135 493.226 263.894 496.762 257.539C498.906 253.686 497.431 247.578 492.249 238.87C475.905 211.395 478.201 192.228 479.72 179.543C480.646 171.828 481.312 166.253 477.738 162.146C470.793 154.168 447.796 151.466 375.214 150.099C327.056 149.192 305.971 128.386 281.556 104.298C266.429 89.374 250.789 73.9398 226.869 60.9697C166.423 28.1924 114.818 70.3532 95.436 90.0019C81.5335 104.095 69.8414 120.578 62.516 136.415C55.552 151.469 53.6018 163.754 57.1662 170.119C59.5858 174.438 64.3584 175.798 71.354 174.171C118.868 163.101 153.228 157.599 175.629 157.599Z" fill="url(#paint9_linear_456_486)"/>
<path d="M266.633 379.578C262.25 379.578 257.776 379.461 253.209 379.227C225.252 377.78 197.162 371.895 174.114 362.654C148.433 352.36 129.631 338.264 119.744 321.892C115.304 314.572 118.101 303.435 128.293 287.846C137.322 274.042 151.116 258.176 164.46 242.834C175.499 230.14 186.916 217.014 195.294 205.395C208.369 187.265 212.13 176.068 207.49 169.082C203.209 162.638 191.587 159.888 171.957 160.681C150.314 161.553 119.331 166.694 77.2339 176.394C70.2256 178.012 65.2152 176.537 62.7512 172.136C59.2121 165.815 61.0355 153.79 67.7585 139.146C74.7826 123.851 86.0403 107.897 99.4639 94.226C111.755 81.7061 131.743 65.2096 157.164 57.7129C181.629 50.4985 205.749 53.1211 228.861 65.5109C252.416 78.1385 267.847 93.1763 282.771 107.716C306.656 130.986 327.285 151.085 373.819 152.021C410.782 152.763 432.724 153.806 447.184 155.503C462.136 157.26 470.086 159.816 473.765 164.046C477.396 168.222 476.733 173.753 475.814 181.402C474.348 193.608 472.132 212.058 487.658 238.458C492.678 246.991 494.057 253.042 491.876 256.952C488.26 263.434 475.408 263.707 459.139 264.055C442.151 264.417 421.012 264.87 403.232 272.738C382.41 281.954 370.369 299.338 366.417 325.89C364.93 335.896 360.725 344.734 353.92 352.167C347.584 359.086 338.967 364.826 328.309 369.225C311.771 376.049 290.642 379.575 266.633 379.578ZM178.039 160.041C194.247 160.041 204.046 162.968 207.918 168.793C212.694 175.985 208.93 187.364 195.712 205.693C187.318 217.331 175.896 230.466 164.851 243.17C138.13 273.896 110.503 305.665 120.184 321.622C130.015 337.9 148.731 351.923 174.307 362.175C197.304 371.394 225.338 377.267 253.238 378.71C282.736 380.238 308.629 376.791 328.116 368.749C350.32 359.584 363.037 345.139 365.91 325.814C368.019 311.639 372.569 299.817 379.435 290.681C385.479 282.639 393.195 276.613 403.022 272.266C420.898 264.357 442.094 263.903 459.13 263.539C475.233 263.196 487.953 262.923 491.425 256.698C493.512 252.96 492.132 247.077 487.214 238.715C471.599 212.165 473.828 193.614 475.303 181.338C476.207 173.819 476.857 168.387 473.375 164.382C466.617 156.606 444.282 153.949 373.806 152.534C327.069 151.596 306.374 131.43 282.409 108.084C267.511 93.5663 252.102 78.5571 228.614 65.9612C169.078 34.0401 118.716 75.3447 99.8286 94.5843C86.4462 108.214 75.2234 124.114 68.2246 139.358C61.5715 153.851 59.7385 165.704 63.1983 171.882C65.5735 176.122 70.2542 177.47 77.1166 175.89C123.045 165.305 156.304 160.044 178.039 160.044V160.041Z" fill="url(#paint10_linear_456_486)"/>
<path d="M268.133 375.452C263.569 375.452 258.901 375.322 254.132 375.056C227.018 373.552 199.816 367.794 177.538 358.838C152.654 348.836 134.426 335.162 124.827 319.293C120.508 312.19 123.171 301.395 132.977 286.3C141.659 272.931 154.95 257.573 167.799 242.716C178.458 230.396 189.481 217.657 197.558 206.377C210.113 188.844 213.712 178.017 209.228 171.269C200.59 158.273 160.477 160.439 82.9894 178.093C76.1206 179.66 71.2116 178.204 68.792 173.885C65.3607 167.758 67.07 156.168 73.4822 142.085C80.1765 127.383 90.9712 112.012 103.872 98.8043C115.824 86.5699 135.298 70.4349 160.189 63.0555C184.16 55.9489 207.848 58.4542 230.598 70.5078C253.719 82.7549 268.919 97.3709 283.617 111.505C307.052 134.039 327.291 153.501 372.411 154.465C440.956 155.933 462.71 158.584 469.395 166.287C472.931 170.362 472.281 175.747 471.386 183.199C469.966 195.002 467.819 212.837 482.615 238.314C487.369 246.499 488.65 252.321 486.532 256.111C482.983 262.453 470.438 262.758 454.557 263.141C438.006 263.544 417.413 264.042 400.089 271.748C379.803 280.77 368.053 297.72 364.169 323.562C362.7 333.335 358.6 341.948 351.979 349.166C345.817 355.883 337.442 361.432 327.082 365.666C311.273 372.122 291.092 375.455 268.129 375.455L268.133 375.452ZM180.592 162.459C196.312 162.459 205.841 165.266 209.646 170.993C214.264 177.938 210.661 188.942 197.967 206.672C189.877 217.971 178.848 230.719 168.18 243.046C142.446 272.788 115.836 303.542 125.255 319.033C134.797 334.807 152.939 348.408 177.722 358.372C199.952 367.308 227.097 373.055 254.157 374.555C282.863 376.146 308.013 372.912 326.891 365.199C348.459 356.39 360.833 342.354 363.671 323.489C367.584 297.463 379.428 280.386 399.882 271.291C417.299 263.544 437.949 263.043 454.544 262.643C470.267 262.263 482.682 261.962 486.091 255.87C488.117 252.248 486.836 246.591 482.181 238.571C467.299 212.948 469.458 195.012 470.888 183.145C471.77 175.823 472.407 170.53 469.017 166.623C462.447 159.05 440.775 156.437 372.404 154.972C327.088 154.002 306.783 134.477 283.272 111.873C268.599 97.7641 253.425 83.1735 230.367 70.9581C171.738 39.8996 122.629 80.3353 104.236 99.1626C91.374 112.329 80.6141 127.649 73.9451 142.297C67.5996 156.231 65.884 167.657 69.2359 173.644C71.5668 177.805 76.1586 179.14 82.8815 177.608C123.73 168.304 153.789 163.385 174.773 162.58C176.799 162.501 178.743 162.463 180.595 162.463L180.592 162.459Z" fill="url(#paint11_linear_456_486)"/>
<path d="M269.636 371.329C264.895 371.329 260.03 371.183 255.052 370.885C228.782 369.325 202.47 363.69 180.96 355.02C156.872 345.31 139.218 332.057 129.91 316.696C125.712 309.805 128.246 299.356 137.661 284.753C145.998 271.821 158.781 256.964 171.142 242.598C181.42 230.652 192.05 218.301 199.822 207.363C211.86 190.426 215.298 179.971 210.966 173.463C202.61 160.905 163.772 162.919 88.7453 179.799C82.0161 181.315 77.2022 179.875 74.8302 175.639C71.5068 169.702 73.1019 158.543 79.2064 145.021C85.5773 130.912 95.9059 116.122 108.289 103.38C119.902 91.4311 138.856 75.664 163.214 68.402C186.687 61.4032 209.942 63.7943 232.337 75.5086C255.026 87.3783 269.991 101.569 284.468 115.294C307.452 137.09 327.301 155.914 371.006 156.91C437.442 158.426 458.531 161.032 465.025 168.529C468.466 172.499 467.832 177.741 466.956 184.994C465.498 197.073 463.5 213.614 477.57 238.165C482.061 246.004 483.244 251.595 481.186 255.264C477.704 261.467 465.466 261.8 449.972 262.225C433.862 262.665 413.811 263.211 396.943 270.755C377.193 279.584 365.739 296.096 361.921 321.231C360.471 330.773 356.472 339.161 350.038 346.16C344.051 352.673 335.917 358.036 325.858 362.098C310.782 368.19 291.549 371.326 269.636 371.326V371.329ZM182.993 164.885C198.36 164.885 207.668 167.616 211.375 173.191C215.834 179.891 212.396 190.521 200.222 207.649C192.437 218.605 181.801 230.966 171.513 242.919C146.765 271.681 121.174 301.421 130.329 316.442C151.925 352.08 211.026 367.781 255.077 370.397C260.199 370.701 265.184 370.85 269.997 370.85C322.842 370.85 356.631 352.752 361.432 321.158C365.279 295.846 376.828 279.21 396.74 270.308C413.696 262.726 433.802 262.177 449.956 261.736C465.295 261.318 477.409 260.988 480.757 255.026C482.724 251.522 481.544 246.09 477.145 238.412C462.996 213.718 465.089 196.397 466.471 184.937C467.331 177.808 467.955 172.658 464.657 168.852C458.274 161.483 437.265 158.914 370.996 157.401C327.101 156.399 307.189 137.515 284.131 115.649C269.684 101.947 254.741 87.7779 232.111 75.9431C174.386 45.7471 126.536 85.3107 108.641 103.723C81.1535 132.006 68.9857 164.197 75.2583 175.398C77.5447 179.482 82.0478 180.801 88.6344 179.32C128.204 170.416 157.306 165.729 177.596 164.99C179.47 164.92 181.268 164.888 182.987 164.888L182.993 164.885Z" fill="url(#paint12_linear_456_486)"/>
<path d="M271.145 367.21C266.223 367.21 261.165 367.045 255.974 366.715C230.547 365.098 205.124 359.59 184.388 351.205C161.095 341.784 144.015 328.953 135 314.102C130.922 307.427 133.325 297.32 142.351 283.209C150.342 270.711 162.618 256.361 174.49 242.481C184.388 230.913 194.621 218.948 202.089 208.35C213.61 192.005 216.883 181.921 212.706 175.652C204.633 163.531 167.073 165.39 94.5037 181.502C87.9108 182.968 83.1984 181.544 80.8708 177.389C77.6552 171.646 79.1361 160.918 84.9362 147.951C90.9837 134.429 100.852 120.222 112.719 107.944C123.989 96.2864 142.423 80.8871 166.249 73.7456C189.221 66.8578 212.044 69.1316 234.08 80.5066C256.339 91.9958 271.075 105.768 285.323 119.084C307.855 140.141 327.31 158.324 369.601 159.355C433.931 160.918 454.354 163.481 460.661 170.771C464.004 174.637 463.385 179.736 462.532 186.792C461.121 198.44 459.187 214.394 472.528 238.019C476.758 245.51 477.843 250.875 475.845 254.421C472.429 260.484 460.496 260.845 445.389 261.308C429.717 261.787 410.211 262.38 393.797 269.76C374.586 278.398 363.42 294.469 359.665 318.897C358.235 328.208 354.341 336.37 348.091 343.153C342.278 349.464 334.385 354.636 324.627 358.534C310.284 364.261 291.995 367.207 271.139 367.207L271.145 367.21ZM185.396 167.308C200.412 167.308 209.497 169.962 213.109 175.385C217.412 181.845 214.133 192.094 202.482 208.626C194.998 219.243 184.759 231.214 174.855 242.792C151.09 270.571 126.52 299.299 135.409 313.852C156.253 348.186 213.401 363.528 256.006 366.237C283.122 367.958 306.792 365.142 324.456 358.09C344.751 349.984 356.44 336.776 359.199 318.827C362.979 294.225 374.234 278.033 393.606 269.325C410.106 261.908 429.666 261.312 445.382 260.83C460.338 260.373 472.154 260.011 475.436 254.186C477.345 250.799 476.257 245.589 472.119 238.257C458.701 214.492 460.725 197.79 462.066 186.735C462.906 179.799 463.512 174.792 460.309 171.085C454.113 163.918 433.766 161.394 369.601 159.834C327.129 158.8 307.61 140.559 285.006 119.436C270.78 106.139 256.069 92.3922 233.871 80.9347C177.05 51.6076 130.465 90.2897 113.074 108.28C101.246 120.517 91.4118 134.677 85.3834 148.151C79.6467 160.975 78.1562 171.548 81.2989 177.158C83.5441 181.166 87.952 182.47 94.4086 181.036C132.701 172.534 160.842 168.072 180.443 167.4C182.162 167.34 183.814 167.311 185.402 167.311L185.396 167.308Z" fill="url(#paint13_linear_456_486)"/>
<path d="M272.654 363.097C267.558 363.097 262.3 362.916 256.897 362.548C232.314 360.877 207.778 355.492 187.816 347.393C165.316 338.263 148.813 325.855 140.086 311.508C131.283 297.14 154.949 269.293 177.839 242.367C187.356 231.173 197.193 219.595 204.36 209.339C215.364 193.588 218.475 183.874 214.45 177.843C206.656 166.157 170.374 167.863 100.265 183.208C93.8121 184.62 89.1949 183.215 86.9148 179.14C83.8071 173.59 85.177 163.29 90.6758 150.878C96.4062 137.94 105.812 124.313 117.165 112.501C128.089 101.135 146 86.1132 169.289 79.089C191.76 72.3122 214.149 74.4718 235.827 85.5043C257.658 96.613 272.163 109.964 286.192 122.874C308.267 143.191 327.332 160.737 368.205 161.797C430.43 163.411 450.19 165.926 456.307 173.013C459.554 176.777 458.952 181.734 458.118 188.593C456.754 199.81 454.883 215.174 467.495 237.873C471.465 245.018 472.455 250.155 470.52 253.577C467.171 259.498 455.543 259.894 440.822 260.392C409.148 261.467 365.766 262.935 357.429 316.566C356.018 325.645 352.226 333.58 346.162 340.15C340.524 346.255 332.872 351.243 323.415 354.972C309.801 360.341 292.465 363.097 272.661 363.097H272.654ZM187.787 169.728C202.454 169.728 211.32 172.309 214.837 177.58C218.985 183.795 215.871 193.673 204.74 209.602C197.561 219.877 187.714 231.461 178.194 242.665C155.416 269.465 131.86 297.178 140.486 311.261C149.159 325.522 165.586 337.864 187.99 346.956C207.911 355.039 232.393 360.411 256.928 362.079C283.255 363.868 306.183 361.261 323.238 354.538C342.896 346.788 354.242 333.989 356.96 316.496C360.674 292.608 371.633 276.857 390.467 268.342C406.51 261.09 425.521 260.443 440.8 259.926C455.375 259.431 466.883 259.041 470.105 253.349C471.954 250.082 470.964 245.094 467.079 238.105C454.395 215.272 456.275 199.822 457.645 188.539C458.467 181.797 459.06 176.929 455.945 173.321C449.936 166.354 430.249 163.874 368.186 162.266C327.138 161.204 308.013 143.6 285.869 123.219C271.865 110.332 257.385 97.003 235.608 85.9229C179.691 57.4679 134.381 95.2557 117.495 112.824C106.18 124.595 96.8057 138.178 91.0976 151.065C85.6622 163.341 84.2827 173.489 87.3176 178.908C89.5184 182.841 93.8375 184.131 100.161 182.749C137.172 174.646 164.355 170.413 183.265 169.804C184.828 169.753 186.335 169.728 187.787 169.728Z" fill="url(#paint14_linear_456_486)"/>
<path d="M274.167 358.991C268.894 358.991 263.439 358.788 257.817 358.379C234.077 356.651 210.433 351.396 191.238 343.579C169.534 334.741 153.605 322.751 145.17 308.912C136.636 295.019 159.282 268.194 181.182 242.247C190.315 231.427 199.759 220.239 206.621 210.323C217.108 195.168 220.057 185.822 216.185 180.025C208.67 168.774 173.663 170.328 106.018 184.909C99.7015 186.269 95.1825 184.88 92.9468 180.888C89.9469 175.532 91.209 165.657 96.4066 153.796C101.82 141.441 110.772 128.389 121.611 117.046C132.187 105.975 149.571 91.3304 172.325 84.4331C194.291 77.7736 216.242 79.8159 237.565 90.5059C258.971 101.237 273.248 114.166 287.052 126.67C308.67 146.249 327.338 163.158 366.794 164.245C426.914 165.907 446.01 168.377 451.937 175.259C455.09 178.918 454.5 183.736 453.685 190.398C452.366 201.187 450.561 215.958 462.444 237.731C466.157 244.533 467.051 249.442 465.177 252.737C461.892 258.518 450.571 258.94 436.24 259.479C405.483 260.63 363.36 262.21 355.172 314.239C352.464 331.443 341.365 343.95 322.182 351.412C309.298 356.422 292.909 358.991 274.164 358.991H274.167ZM190.178 172.148C204.5 172.148 213.147 174.653 216.569 179.775C220.562 185.749 217.609 195.253 206.998 210.583C200.123 220.518 190.673 231.712 181.534 242.542C159.738 268.362 137.201 295.063 145.56 308.674C153.945 322.43 169.8 334.354 191.412 343.157C210.563 350.958 234.156 356.2 257.852 357.925C283.386 359.784 305.575 357.383 322.02 350.987C341.041 343.589 352.045 331.202 354.725 314.169C358.372 290.994 369.04 275.684 387.331 267.363C402.917 260.272 421.386 259.581 436.224 259.026C450.415 258.493 461.622 258.074 464.784 252.515C466.572 249.366 465.678 244.603 462.047 237.953C450.092 216.053 451.909 201.196 453.234 190.347C454.034 183.799 454.614 179.068 451.595 175.56C445.773 168.796 426.749 166.361 366.785 164.702C327.161 163.608 308.432 146.645 286.747 127.009C272.962 114.528 258.711 101.618 237.363 90.915C182.349 63.3352 138.32 100.222 121.944 117.363C111.143 128.668 102.223 141.673 96.8284 153.983C91.6879 165.711 90.4226 175.437 93.3496 180.669C95.506 184.525 99.7395 185.8 105.926 184.468C141.656 176.765 167.882 172.757 186.097 172.211C187.505 172.17 188.866 172.148 190.178 172.148Z" fill="url(#paint15_linear_456_486)"/>
<path d="M275.683 354.893C270.238 354.893 264.58 354.668 258.742 354.211C235.846 352.429 213.09 347.298 194.668 339.767C173.761 331.217 158.406 319.652 150.259 306.317C141.995 292.903 163.623 267.093 184.537 242.132C193.289 231.69 202.336 220.889 208.894 211.315C218.868 196.753 221.655 187.778 217.932 182.216C214.419 176.964 204.937 174.624 188.941 175.062C171.443 175.541 146.206 179.321 111.783 186.621C105.603 187.93 101.179 186.557 98.9907 182.644C96.1017 177.478 97.2529 168.028 102.152 156.716C107.255 144.939 115.754 132.46 126.079 121.586C136.306 110.814 153.161 96.5528 175.372 89.7823C196.834 83.2402 218.345 85.1683 239.309 95.5127C260.29 105.863 274.338 118.374 287.927 130.472C309.085 149.309 327.357 165.58 365.395 166.699C423.412 168.409 441.846 170.835 447.583 177.513C450.637 181.071 450.063 185.746 449.267 192.215C447.992 202.572 446.251 216.753 457.407 237.594C460.864 244.054 461.666 248.735 459.852 251.906C456.63 257.544 445.617 257.998 431.673 258.572C401.835 259.802 360.968 261.486 352.926 311.917C350.256 328.658 339.503 340.753 320.961 347.856C308.806 352.515 293.365 354.896 275.683 354.896V354.893ZM192.563 174.567C206.538 174.567 214.974 176.999 218.3 181.969C222.137 187.705 219.35 196.832 209.259 211.565C202.692 221.158 193.635 231.965 184.876 242.418C164.063 267.258 142.541 292.944 150.64 306.086C158.736 319.338 174.018 330.843 194.837 339.358C213.217 346.873 235.926 351.992 258.777 353.771C264.79 354.24 270.558 354.471 276.06 354.471C320.574 354.471 348.103 339.342 352.489 311.844C356.069 289.38 366.442 274.51 384.197 266.382C399.327 259.456 417.251 258.718 431.654 258.125C445.461 257.557 456.367 257.107 459.465 251.681C461.194 248.652 460.395 244.111 457.014 237.8C445.791 216.836 447.545 202.572 448.826 192.158C449.606 185.803 450.171 181.211 447.244 177.802C441.605 171.237 423.244 168.846 365.38 167.14C327.18 166.014 308.85 149.695 287.629 130.802C274.062 118.723 260.036 106.234 239.109 95.9091C184.996 69.2109 142.258 105.185 126.396 121.891C103.475 146.03 93.9168 172.68 99.3712 182.428C101.455 186.155 105.714 187.455 111.685 186.189C146.133 178.883 171.398 175.1 188.922 174.621C190.172 174.586 191.386 174.57 192.556 174.57L192.563 174.567Z" fill="url(#paint16_linear_456_486)"/>
<path d="M277.195 350.799C271.582 350.799 265.725 350.549 259.662 350.045C237.311 348.183 216.026 343.306 198.112 335.943C178.017 327.682 163.226 316.541 155.343 303.723C147.373 290.769 167.973 265.98 187.892 242.006C196.254 231.94 204.902 221.533 211.155 212.301C220.612 198.332 223.238 189.726 219.664 184.398C216.277 179.343 207.15 177.073 191.76 177.45C174.953 177.862 150.675 181.42 117.536 188.324C111.491 189.583 107.163 188.222 105.016 184.389C102.235 179.416 103.281 170.388 107.889 159.618C112.684 148.415 120.732 136.51 130.55 126.102C140.425 115.631 156.747 101.757 178.413 95.1166C199.365 88.6949 220.437 90.5088 241.044 100.504C261.603 110.478 275.426 122.566 288.795 134.258C309.491 152.356 327.363 167.987 363.984 169.135C419.898 170.892 437.67 173.274 443.216 179.749C446.175 183.206 445.614 187.74 444.837 194.013C443.609 203.939 441.926 217.531 452.356 237.439C455.562 243.556 456.269 248.012 454.518 251.056C451.36 256.552 440.654 257.034 427.097 257.646C398.173 258.953 358.561 260.744 350.672 309.574C348.043 325.855 337.632 337.531 319.73 344.283C308.305 348.592 293.812 350.79 277.192 350.79L277.195 350.799ZM194.938 176.974C208.574 176.974 216.794 179.33 220.025 184.154C222.036 187.154 222.166 191.096 220.418 196.208C218.922 200.59 216.093 205.781 211.514 212.539C205.251 221.789 196.596 232.204 188.225 242.278C168.401 266.135 147.903 290.804 155.71 303.495C163.546 316.234 178.267 327.317 198.277 335.54C215.896 342.783 237.708 347.777 259.697 349.61C283.649 351.605 304.356 349.626 319.581 343.883C337.327 337.192 347.643 325.627 350.247 309.511C353.76 287.756 363.838 273.328 381.058 265.396C395.731 258.635 413.115 257.852 427.081 257.218C440.505 256.612 451.109 256.133 454.147 250.844C455.818 247.936 455.108 243.62 451.978 237.642C441.488 217.613 443.178 203.945 444.415 193.962C445.179 187.798 445.731 183.342 442.893 180.031C437.441 173.667 419.743 171.32 363.975 169.566C327.202 168.412 309.275 152.734 288.516 134.582C275.169 122.909 261.368 110.839 240.86 100.891C187.644 75.0778 146.21 110.126 130.867 126.394C121.084 136.767 113.064 148.624 108.292 159.783C103.738 170.426 102.682 179.315 105.4 184.173C107.442 187.826 111.612 189.114 117.453 187.896C150.617 180.986 174.921 177.425 191.754 177.012C192.845 176.987 193.907 176.971 194.938 176.971V176.974Z" fill="url(#paint17_linear_456_486)"/>
<path d="M278.711 346.715C272.933 346.715 266.876 346.436 260.584 345.875C223.472 342.564 177.671 329.07 160.432 301.126C152.733 288.647 172.315 264.873 191.247 241.885C199.225 232.197 207.477 222.176 213.423 213.287C222.489 199.731 224.874 191.742 221.405 186.576C218.141 181.718 209.37 179.514 194.586 179.835C178.467 180.183 155.149 183.519 123.294 190.03C117.383 191.238 113.15 189.894 111.051 186.139C108.377 181.357 109.319 172.75 113.638 162.523C118.129 151.887 125.73 140.553 135.041 130.615C144.56 120.451 160.347 106.97 181.467 100.463C201.905 94.1682 222.537 95.8648 242.788 105.512C262.928 115.104 276.529 126.774 289.683 138.061C309.912 155.416 327.382 170.407 362.582 171.586C416.397 173.391 433.506 175.728 438.862 182.004C441.726 185.359 441.177 189.754 440.419 195.836C439.236 205.328 437.613 218.33 447.313 237.303C450.269 243.081 450.884 247.308 449.197 250.228C446.102 255.578 435.7 256.092 422.534 256.742C394.523 258.125 356.164 260.021 348.423 307.256C345.832 323.074 335.767 334.338 318.509 340.734C307.81 344.698 294.262 346.718 278.708 346.718L278.711 346.715ZM197.246 179.362C210.695 179.362 218.636 181.696 221.757 186.342C225.337 191.673 222.949 199.8 213.775 213.522C207.819 222.43 199.558 232.457 191.573 242.155C172.733 265.032 153.249 288.685 160.791 300.91C177.95 328.722 223.612 342.158 260.623 345.459C283.785 347.527 303.754 345.754 318.367 340.341C335.472 334.002 345.445 322.849 348.014 307.189C351.461 286.145 361.247 272.157 377.928 264.42C392.147 257.823 408.986 256.993 422.518 256.323C435.558 255.68 445.858 255.169 448.839 250.019C450.45 247.235 449.831 243.138 446.945 237.496C437.185 218.409 438.814 205.334 440.007 195.786C440.752 189.811 441.291 185.492 438.548 182.276C433.284 176.112 416.245 173.806 362.573 172.008C327.224 170.822 309.703 155.787 289.414 138.381C276.282 127.114 262.703 115.463 242.613 105.892C190.298 80.9698 150.177 115.079 135.354 130.903C126.076 140.807 118.503 152.096 114.031 162.688C109.763 172.795 108.815 181.268 111.422 185.936C113.423 189.516 117.501 190.788 123.215 189.621C156.728 182.771 181.004 179.365 197.246 179.365V179.362Z" fill="url(#paint18_linear_456_486)"/>
<path d="M280.547 342.665C274.554 342.665 268.202 342.345 261.508 341.704C240.869 339.732 221.319 335.102 204.972 328.316C186.205 320.524 172.93 310.503 165.519 298.529C158.092 286.526 176.653 263.769 194.602 241.761C202.197 232.448 210.052 222.82 215.69 214.27C224.237 201.316 226.466 193.683 223.143 188.749C220.003 184.087 211.587 181.947 197.408 182.213C181.981 182.498 159.621 185.613 129.054 191.73C123.276 192.887 119.134 191.555 117.079 187.877C114.514 183.288 115.357 175.097 119.388 165.406C123.58 155.334 130.737 144.571 139.547 135.099C148.712 125.246 163.952 112.162 184.524 105.794C204.445 99.6259 224.633 101.211 244.529 110.506C264.254 119.722 277.633 130.973 290.575 141.853C310.334 158.467 327.398 172.817 361.178 174.028C412.897 175.88 429.342 178.173 434.511 184.249C437.28 187.506 436.744 191.761 436.002 197.654C434.86 206.714 433.3 219.119 442.274 237.157C444.983 242.599 445.509 246.601 443.882 249.391C440.851 254.595 430.754 255.141 417.977 255.829C390.879 257.288 353.767 259.285 346.178 304.925C343.625 320.283 333.906 331.132 317.289 337.173C307.223 340.832 294.916 342.669 280.547 342.669V342.665ZM199.59 181.779C212.719 181.779 220.457 184.033 223.482 188.524C226.91 193.617 224.684 201.383 216.033 214.499C210.382 223.064 202.52 232.701 194.919 242.025C177.059 263.922 158.59 286.564 165.865 298.32C173.127 310.053 186.703 320.296 205.127 327.945C221.436 334.715 240.946 339.336 261.546 341.302C290.283 344.048 339.439 342.967 345.775 304.859C349.156 284.525 358.647 270.978 374.792 263.433C388.558 257.002 404.858 256.127 417.955 255.42C430.611 254.738 440.61 254.199 443.53 249.185C445.081 246.521 444.551 242.646 441.91 237.338C432.878 219.192 434.451 206.714 435.599 197.603C436.328 191.815 436.855 187.633 434.201 184.515C429.124 178.547 412.741 176.286 361.165 174.44C327.246 173.226 310.131 158.835 290.315 142.17C277.395 131.306 264.035 120.074 244.361 110.88C191.501 86.1832 151.005 123.391 139.851 135.381C131.077 144.818 123.945 155.537 119.772 165.567C115.785 175.141 114.939 183.202 117.441 187.683C119.4 191.191 123.39 192.453 128.977 191.333C160.854 184.953 184.02 181.779 199.593 181.779H199.59Z" fill="url(#paint19_linear_456_486)"/>
<path d="M282.024 338.6C275.891 338.6 269.355 338.245 262.43 337.534C242.645 335.508 223.963 331.002 208.399 324.504C190.437 317.007 177.721 307.392 170.605 295.932C163.447 284.408 180.99 262.666 197.959 241.638C205.171 232.702 212.626 223.461 217.96 215.254C225.99 202.899 228.057 195.621 224.883 190.918C218.651 181.69 190.875 182.464 134.815 193.433C129.167 194.536 125.121 193.22 123.11 189.621C117.868 180.231 127.271 157.782 144.075 139.573C152.878 130.034 167.573 117.356 187.593 111.128C206.994 105.093 226.738 106.565 246.276 115.504C265.588 124.342 278.752 135.175 291.481 145.653C310.768 161.524 327.423 175.233 359.779 176.473C409.401 178.376 425.187 180.624 430.166 186.497C432.839 189.656 432.316 193.775 431.59 199.477C430.493 208.103 428.986 219.915 437.238 237.011C439.702 242.12 440.14 245.897 438.576 248.557C435.605 253.615 425.815 254.189 413.425 254.916C387.238 256.451 351.372 258.55 343.935 302.594C341.421 317.489 332.047 327.926 316.073 333.612C306.737 336.935 295.334 338.603 282.031 338.603L282.024 338.6ZM201.923 184.189C214.741 184.189 222.279 186.364 225.206 190.702C228.485 195.557 226.414 202.965 218.287 215.476C212.943 223.699 205.481 232.949 198.264 241.892C181.384 262.809 163.929 284.443 170.938 295.726C178.01 307.113 190.666 316.674 208.548 324.139C224.074 330.621 242.721 335.118 262.464 337.141C284.358 339.383 302.348 338.07 315.931 333.234C331.758 327.599 341.046 317.267 343.536 302.525C346.85 282.901 356.049 269.792 371.658 262.447C384.97 256.184 400.731 255.261 413.394 254.519C425.666 253.799 435.361 253.232 438.227 248.358C439.721 245.818 439.277 242.164 436.876 237.186C428.577 219.985 430.09 208.106 431.194 199.429C431.907 193.829 432.421 189.783 429.859 186.757C424.969 180.986 409.246 178.769 359.76 176.873C327.268 175.627 310.565 161.879 291.224 145.963C278.514 135.502 265.372 124.688 246.108 115.872C194.17 92.104 155.101 128.214 144.363 139.849C127.667 157.941 118.287 180.184 123.452 189.434C125.371 192.868 129.272 194.121 134.736 193.052C164.97 187.138 187.016 184.192 201.923 184.192V184.189Z" fill="url(#paint20_linear_456_486)"/>
<path d="M283.488 334.548C277.224 334.548 270.508 334.154 263.351 333.368C244.422 331.288 226.606 326.905 211.828 320.699C194.672 313.494 182.514 304.288 175.693 293.341C168.805 282.293 185.333 261.566 201.316 241.521C208.14 232.962 215.199 224.111 220.222 216.247C227.735 204.491 229.647 197.565 226.616 193.094C220.654 184.294 194.117 184.925 140.572 195.142C135.054 196.195 131.096 194.889 129.13 191.366C126.749 187.097 127.377 179.921 130.906 171.159C134.515 162.197 140.803 152.563 148.614 144.029C157.052 134.811 171.199 122.545 190.661 116.462C209.539 110.564 228.832 111.924 248.012 120.509C266.915 128.969 279.863 139.384 292.386 149.458C311.194 164.588 327.437 177.653 358.369 178.922C405.898 180.872 421.025 183.076 425.813 188.753C428.395 191.813 427.881 195.796 427.167 201.31C426.111 209.502 424.662 220.718 432.187 236.866C434.414 241.642 434.762 245.193 433.259 247.727C430.345 252.636 420.866 253.239 408.863 254.003C383.583 255.611 348.96 257.811 341.676 300.261C339.199 314.693 330.171 324.717 314.841 330.048C306.228 333.045 295.728 334.545 283.484 334.545L283.488 334.548ZM204.36 186.574C216.671 186.574 224.063 188.642 226.933 192.878C230.063 197.499 228.15 204.548 220.546 216.453C215.51 224.333 208.445 233.194 201.614 241.759C185.714 261.699 169.271 282.318 176.016 293.135C182.796 304.012 194.897 313.168 211.977 320.341C226.723 326.534 244.501 330.904 263.392 332.981C284.486 335.299 301.757 334.189 314.721 329.683C329.907 324.4 338.85 314.48 341.305 300.194C344.552 281.281 353.46 268.609 368.535 261.461C381.395 255.363 396.616 254.396 408.848 253.619C420.736 252.864 430.126 252.265 432.936 247.53C434.369 245.114 434.014 241.68 431.845 237.027C424.272 220.775 425.728 209.495 426.79 201.26C427.488 195.843 427.995 191.93 425.522 189C420.819 183.425 405.752 181.25 358.356 179.306C327.297 178.031 311.007 164.927 292.148 149.757C279.644 139.698 266.718 129.299 247.859 120.861C196.841 98.0282 159.218 133.022 148.899 144.293C133.278 161.357 124.561 182.391 129.466 191.182C131.344 194.546 135.159 195.786 140.499 194.768C168.51 189.425 188.967 186.748 203.041 186.587C203.488 186.58 203.929 186.58 204.36 186.58V186.574Z" fill="url(#paint21_linear_456_486)"/>
<path d="M284.937 330.507C278.557 330.507 271.663 330.072 264.274 329.197C246.201 327.063 229.251 322.807 215.26 316.89C198.913 309.977 187.312 301.18 180.78 290.747C174.162 280.174 189.675 260.462 204.678 241.397C211.115 233.215 217.775 224.754 222.49 217.232C229.486 206.076 231.24 199.505 228.354 195.256C222.662 186.881 197.365 187.372 146.331 196.845C140.94 197.844 137.075 196.553 135.153 193.103C130.355 184.496 138.273 164.889 153.181 148.462C161.255 139.567 174.846 127.719 193.747 121.789C212.095 116.03 230.942 117.283 249.759 125.506C268.26 133.589 280.995 143.588 293.316 153.257C311.639 167.641 327.466 180.066 356.974 181.363C402.414 183.361 416.881 185.524 421.479 191.003C423.965 193.965 423.461 197.818 422.763 203.146C421.745 210.899 420.353 221.517 427.155 236.719C429.147 241.168 429.413 244.498 427.97 246.899C425.113 251.659 415.942 252.29 404.329 253.092C379.955 254.77 346.572 257.072 339.437 297.929C336.999 311.902 328.316 321.51 313.63 326.486C305.737 329.162 296.132 330.504 284.944 330.504L284.937 330.507ZM206.692 188.958C218.685 188.958 225.874 190.953 228.661 195.05C232.413 200.565 227.805 209.46 222.807 217.432C218.079 224.97 211.417 233.437 204.97 241.628C190.046 260.592 174.615 280.199 181.094 290.55C193.135 309.786 224.247 324.098 264.315 328.829C284.614 331.227 301.164 330.32 313.503 326.137C328.049 321.206 336.65 311.695 339.063 297.869C342.241 279.663 350.857 267.432 365.403 260.481C377.812 254.551 392.497 253.539 404.297 252.724C415.802 251.931 424.888 251.307 427.644 246.712C429.02 244.422 428.744 241.203 426.81 236.875C419.966 221.577 421.365 210.899 422.389 203.101C423.074 197.866 423.572 194.083 421.19 191.244C416.675 185.863 402.265 183.729 356.952 181.737C327.326 180.434 311.455 167.977 293.081 153.552C280.783 143.895 268.063 133.913 249.607 125.848C199.512 103.961 163.345 137.816 153.454 148.716C146.163 156.748 140.328 165.783 137.017 174.155C133.805 182.279 133.26 188.945 135.476 192.922C137.312 196.217 141.045 197.447 146.261 196.477C172.979 191.517 192.472 189.059 205.857 188.958C206.137 188.958 206.416 188.958 206.692 188.958Z" fill="url(#paint22_linear_456_486)"/>
<path d="M286.363 326.483C279.881 326.483 272.815 326.001 265.192 325.03C247.975 322.842 231.891 318.713 218.683 313.084C203.141 306.463 192.099 298.072 185.861 288.152C179.516 278.059 194.015 259.358 208.038 241.276C214.088 233.472 220.348 225.401 224.753 218.225C231.235 207.668 232.83 201.446 230.084 197.425C224.655 189.475 200.598 189.824 152.082 198.554C146.815 199.502 143.041 198.221 141.16 194.844C136.626 186.7 143.916 168.269 157.758 152.879C165.461 144.317 178.492 132.894 196.827 127.123C214.64 121.513 233.033 122.655 251.495 130.513C269.6 138.219 282.129 147.802 294.246 157.072C312.081 170.711 327.483 182.492 355.561 183.817C398.914 185.866 412.725 187.984 417.133 193.271C419.527 196.137 419.029 199.857 418.341 205.007C417.364 212.323 416.023 222.341 422.105 236.586C423.865 240.712 424.049 243.819 422.669 246.09C419.866 250.698 411.003 251.36 399.78 252.194C376.307 253.945 344.161 256.339 337.181 295.608C334.78 309.117 326.443 318.314 312.401 322.937C305.218 325.303 296.504 326.486 286.363 326.486V326.483ZM209.005 191.336C220.691 191.336 227.683 193.261 230.385 197.216C233.952 202.442 229.697 210.861 225.064 218.409C220.646 225.604 214.383 233.681 208.326 241.492C194.379 259.479 179.96 278.074 186.172 287.956C192.369 297.815 203.357 306.155 218.832 312.748C232.008 318.364 248.058 322.484 265.242 324.669C284.745 327.145 300.576 326.444 312.293 322.585C326.199 318.006 334.454 308.905 336.832 295.535C339.943 278.036 348.267 266.246 362.281 259.491C374.239 253.726 388.389 252.673 399.758 251.823C410.876 250.996 419.657 250.339 422.365 245.89C423.681 243.724 423.491 240.724 421.778 236.713C415.658 222.376 417.006 212.301 417.989 204.944C418.664 199.886 419.153 196.233 416.863 193.486C412.531 188.295 398.781 186.205 355.551 184.163C327.36 182.831 311.916 171.018 294.034 157.341C281.932 148.088 269.422 138.517 251.362 130.83C202.19 109.897 167.497 142.589 158.037 153.108C144.294 168.39 137.022 186.64 141.487 194.656C143.285 197.885 146.929 199.102 152.031 198.186C177.455 193.61 195.984 191.365 208.678 191.327C208.789 191.327 208.903 191.327 209.014 191.327L209.005 191.336Z" fill="url(#paint23_linear_456_486)"/>
<path d="M287.765 322.475C281.201 322.475 273.974 321.939 266.116 320.864C249.752 318.625 234.537 314.62 222.115 309.283C207.379 302.95 196.895 294.968 190.949 285.559C184.873 275.941 198.36 258.255 211.403 241.15C217.067 233.723 222.921 226.045 227.021 219.212C232.993 209.251 234.429 203.381 231.822 199.579C229.285 195.881 222.632 194.077 211.479 194.058C211.422 194.058 211.359 194.058 211.302 194.058C199.318 194.058 181.832 196.087 157.845 200.261C152.701 201.155 149.013 199.883 147.177 196.582C145.125 192.891 145.493 186.9 148.214 179.708C150.992 172.367 156.022 164.398 162.37 157.269C169.699 149.043 182.165 138.058 199.927 132.448C217.2 126.994 235.136 128.024 253.237 135.514C270.948 142.843 283.278 152.014 295.202 160.881C312.538 173.775 327.51 184.912 354.16 186.266C395.43 188.362 408.584 190.443 412.805 195.535C415.104 198.31 414.613 201.903 413.934 206.872C412.992 213.748 411.705 223.16 417.067 236.444C418.605 240.249 418.71 243.141 417.387 245.279C414.635 249.734 406.082 250.422 395.249 251.294C372.677 253.111 341.764 255.601 334.937 293.281C332.571 306.33 324.579 315.111 311.184 319.383C304.709 321.447 296.873 322.481 287.765 322.481V322.475ZM211.27 193.683C222.857 193.683 229.504 195.586 232.111 199.382C235.501 204.323 231.594 212.27 227.322 219.389C223.216 226.239 217.352 233.926 211.685 241.359C198.715 258.369 185.301 275.957 191.247 285.369C206.783 309.961 248.814 318.14 266.166 320.515C284.873 323.074 299.984 322.579 311.083 319.044C324.345 314.816 332.257 306.124 334.597 293.214C337.642 276.423 345.674 265.073 359.158 258.518C370.669 252.921 384.283 251.827 395.224 250.946C405.955 250.08 414.435 249.398 417.092 245.095C418.351 243.056 418.237 240.268 416.747 236.574C411.349 223.204 412.643 213.738 413.591 206.825C414.26 201.944 414.743 198.415 412.539 195.757C408.445 190.817 394.799 188.679 354.148 186.615C327.392 185.254 312.38 174.092 294.999 161.163C283.094 152.309 270.784 143.154 253.111 135.838C204.858 115.869 171.662 147.372 162.637 157.503C156.313 164.601 151.312 172.529 148.547 179.832C145.861 186.926 145.487 192.815 147.488 196.414C149.245 199.572 152.809 200.787 157.791 199.918C181.683 195.761 199.172 193.687 211.273 193.687L211.27 193.683Z" fill="url(#paint24_linear_456_486)"/>
<path d="M289.231 318.517C282.635 318.517 275.262 317.908 267.039 316.694C251.528 314.404 237.182 310.526 225.547 305.48C211.616 299.439 201.687 291.863 196.036 282.965C190.229 273.822 202.708 257.148 214.774 241.023C220.048 233.977 225.503 226.689 229.289 220.201C233.145 213.595 236.665 206.235 233.557 201.732C228.579 194.521 207.658 194.59 163.604 201.963C158.581 202.804 154.979 201.542 153.184 198.31C149.102 190.959 155.045 175.189 167.007 161.623C173.958 153.742 185.85 143.205 203.038 137.763C219.763 132.467 237.239 133.393 254.979 140.512C272.309 147.467 284.439 156.222 296.172 164.689C313.002 176.838 327.538 187.328 352.753 188.708C391.942 190.855 404.44 192.894 408.473 197.8C410.681 200.486 410.192 203.952 409.517 208.747C408.61 215.178 407.37 223.984 412.019 236.298C413.338 239.792 413.367 242.466 412.104 244.473C409.399 248.773 401.154 249.49 390.715 250.397C369.04 252.281 339.354 254.862 332.682 290.95C330.354 303.54 322.709 311.908 309.961 315.825C304.107 317.623 297.238 318.52 289.224 318.52L289.231 318.517ZM213.506 196.059C224.833 196.059 231.312 197.885 233.833 201.539C237.049 206.194 233.488 213.671 229.577 220.369C225.782 226.876 220.324 234.17 215.044 241.226C203.044 257.259 190.639 273.838 196.318 282.784C210.947 305.82 250.679 313.941 267.083 316.364C306.748 322.221 328.1 313.89 332.352 290.89C335.327 274.806 343.071 263.897 356.028 257.538C367.093 252.113 380.177 250.974 390.689 250.061C401.037 249.16 409.209 248.45 411.822 244.296C413.024 242.383 412.986 239.808 411.708 236.418C407.027 224.025 408.274 215.168 409.187 208.702C409.85 203.99 410.332 200.587 408.217 198.015C404.303 193.255 391.343 191.162 352.737 189.047C327.421 187.661 312.85 177.143 295.976 164.965C284.261 156.511 272.144 147.765 254.852 140.826C207.522 121.834 175.839 152.116 167.257 161.848C155.384 175.313 149.461 190.918 153.475 198.149C155.194 201.244 158.676 202.449 163.547 201.634C185.736 197.92 202.087 196.062 213.506 196.062V196.059Z" fill="url(#paint25_linear_456_486)"/>
<path d="M290.508 314.547C283.89 314.547 276.406 313.871 267.961 312.523C248.706 309.447 214.422 301.18 201.125 280.364C195.592 271.701 207.059 256.038 218.152 240.89C223.035 234.221 228.084 227.326 231.556 221.184C235.054 214.997 238.235 208.103 235.292 203.872C230.567 197.076 210.851 197.016 169.363 203.666C164.457 204.453 160.937 203.197 159.183 200.035C155.362 193.144 160.731 178.487 171.672 165.948C180.957 155.306 193.207 147.181 206.161 143.074C222.334 137.95 239.345 138.768 256.723 145.51C273.679 152.09 285.622 160.433 297.171 168.501C313.484 179.898 327.573 189.745 351.354 191.15C388.022 193.319 400.358 195.402 404.157 200.067C406.276 202.667 405.787 206.01 405.109 210.64C404.233 216.624 403.038 224.815 406.983 236.149C408.093 239.339 408.045 241.796 406.843 243.671C404.183 247.809 396.245 248.554 386.199 249.496C365.418 251.443 336.96 254.11 330.44 288.613C328.147 300.742 320.85 308.699 308.749 312.26C303.58 313.782 297.536 314.543 290.508 314.543V314.547ZM215.713 198.421C226.803 198.421 233.116 200.175 235.561 203.688C238.606 208.068 235.39 215.07 231.842 221.346C228.36 227.507 223.305 234.408 218.415 241.086C207.389 256.146 195.985 271.717 201.401 280.193C214.628 300.901 248.814 309.137 268.015 312.206C285.377 314.978 298.671 314.899 308.66 311.956C320.803 308.379 327.824 300.727 330.123 288.559C333.028 273.179 340.483 262.714 352.911 256.558C363.528 251.301 376.083 250.124 386.17 249.179C396.131 248.247 403.996 247.508 406.571 243.503C407.718 241.72 407.753 239.352 406.678 236.263C402.708 224.856 403.913 216.617 404.792 210.602C405.454 206.054 405.936 202.769 403.91 200.283C400.181 195.703 387.899 193.645 351.338 191.483C327.469 190.071 313.344 180.203 296.99 168.777C285.457 160.719 273.53 152.385 256.612 145.821C210.208 127.818 180.059 156.844 171.922 166.17C161.067 178.614 155.717 193.106 159.475 199.886C161.156 202.918 164.559 204.117 169.318 203.352C189.788 200.07 204.988 198.427 215.719 198.427L215.713 198.421Z" fill="url(#paint26_linear_456_486)"/>
<path d="M291.725 310.604C285.12 310.604 277.541 309.856 268.88 308.356C250.804 305.226 218.63 297.089 206.208 277.773C200.944 269.585 211.409 254.934 221.528 240.762C226.018 234.474 230.661 227.973 233.823 222.176C236.965 216.408 239.803 209.98 237.026 206.016C232.548 199.632 214.034 199.442 175.121 205.375C170.326 206.104 166.888 204.858 165.176 201.763C161.555 195.218 166.261 181.962 176.367 170.245C185.107 160.11 196.802 152.347 209.3 148.386C224.912 143.439 241.453 144.152 258.466 150.514C275.061 156.716 286.823 164.651 298.198 172.325C313.981 182.974 327.614 192.17 349.951 193.6C384.574 195.82 396.232 197.866 399.844 202.356C401.87 204.874 401.378 208.102 400.697 212.57C399.853 218.101 398.696 225.674 401.943 236.012C402.85 238.904 402.736 241.156 401.588 242.897C398.965 246.873 391.338 247.644 381.682 248.617C361.793 250.625 334.555 253.374 328.194 286.288C325.907 298.119 319.15 305.454 307.534 308.714C303.034 309.977 297.792 310.608 291.732 310.608L291.725 310.604ZM217.872 200.771C228.739 200.771 234.91 202.454 237.279 205.832C240.149 209.926 237.444 216.176 234.095 222.322C230.927 228.138 226.278 234.645 221.782 240.943C211.723 255.029 201.321 269.595 206.471 277.602C218.826 296.819 250.909 304.925 268.934 308.048C285.491 310.915 298.09 311.036 307.445 308.41C318.934 305.188 325.619 297.932 327.88 286.228C330.715 271.554 337.882 261.53 349.783 255.578C359.956 250.495 371.982 249.28 381.644 248.303C391.218 247.336 398.778 246.575 401.318 242.719C402.412 241.064 402.514 238.898 401.635 236.101C398.366 225.693 399.53 218.076 400.38 212.517C401.049 208.128 401.534 204.956 399.593 202.546C396.044 198.138 384.441 196.118 349.923 193.908C327.499 192.472 313.835 183.253 298.014 172.579C286.655 164.917 274.908 156.992 258.349 150.802C212.874 133.801 184.279 161.54 176.599 170.444C166.578 182.067 161.888 195.17 165.446 201.608C167.088 204.576 170.415 205.771 175.07 205.061C193.812 202.204 207.841 200.771 217.872 200.771Z" fill="url(#paint27_linear_456_486)"/>
<path d="M292.852 306.717C286.354 306.717 278.772 305.876 269.804 304.186C249.169 300.298 222.265 292.113 211.299 275.176C206.304 267.467 215.767 253.821 224.916 240.626C229.01 234.718 233.246 228.611 236.091 223.159C240.103 215.475 240.873 211.125 238.761 208.141C234.524 202.163 217.216 201.846 180.884 207.075C176.197 207.75 172.835 206.504 171.164 203.476C167.803 197.384 171.982 185.197 181.099 174.494C189.287 164.882 200.425 157.49 212.456 153.682C227.497 148.922 243.562 149.537 260.208 155.508C276.457 161.34 288.048 168.865 299.255 176.143C314.492 186.037 327.656 194.584 348.547 196.039C381.128 198.31 392.107 200.32 395.538 204.643C397.476 207.085 396.971 210.202 396.277 214.518C395.459 219.589 394.339 226.533 396.902 235.863C397.618 238.47 397.434 240.518 396.34 242.126C393.746 245.938 386.43 246.734 377.167 247.739C358.169 249.804 332.149 252.629 325.943 283.951C323.692 295.316 317.273 302.252 306.317 305.153C302.404 306.19 297.964 306.71 292.855 306.71L292.852 306.717ZM220.203 203.048C230.792 203.048 236.671 204.681 239.002 207.966C241.71 211.791 239.332 217.597 236.354 223.299C233.5 228.766 229.26 234.883 225.16 240.797C216.068 253.91 206.666 267.47 211.549 275.011C222.458 291.857 249.28 300.013 269.858 303.888C293.122 308.267 320.482 309.955 325.645 283.897C328.41 269.931 335.286 260.351 346.664 254.608C356.39 249.699 367.892 248.449 377.133 247.444C386.319 246.445 393.572 245.659 396.09 241.961C397.13 240.43 397.301 238.463 396.61 235.945C394.029 226.552 395.154 219.569 395.979 214.473C396.664 210.234 397.155 207.173 395.3 204.833C391.932 200.59 381.005 198.605 348.525 196.344C327.554 194.882 314.365 186.316 299.09 176.4C287.895 169.132 276.317 161.613 260.103 155.797C215.558 139.814 188.542 166.221 181.325 174.694C172.287 185.305 168.123 197.349 171.424 203.336C173.029 206.247 176.282 207.437 180.836 206.783C198.078 204.3 210.944 203.051 220.203 203.051V203.048Z" fill="url(#paint28_linear_456_486)"/>
<path d="M293.974 302.842C287.527 302.842 279.866 301.897 270.726 300.02C242.81 294.283 224.525 285.052 216.385 272.583C211.663 265.349 220.124 252.712 228.305 240.49C232.003 234.966 235.831 229.252 238.355 224.149C241.865 217.062 242.484 213.037 240.489 210.259C236.487 204.681 220.381 204.237 186.636 208.782C182.051 209.397 178.765 208.157 177.135 205.189C173.983 199.455 177.57 188.565 185.862 178.706C193.495 169.63 204.065 162.622 215.627 158.975C230.088 154.415 245.674 154.929 261.949 160.51C277.868 165.968 289.3 173.09 300.355 179.975C315.028 189.114 327.703 197.01 347.142 198.488C377.684 200.809 387.984 202.788 391.235 206.955C393.083 209.33 392.563 212.343 391.843 216.516C391.047 221.118 389.96 227.419 391.859 235.724C392.392 238.058 392.145 239.913 391.101 241.391C388.53 245.035 381.521 245.853 372.651 246.887C354.541 248.999 329.739 251.894 323.695 281.624C322.185 289.051 318.757 294.575 313.509 298.041C308.657 301.247 302.337 302.836 293.974 302.836V302.842ZM222.268 205.366C232.698 205.366 238.456 206.93 240.724 210.091C243.28 213.653 241.219 219.015 238.612 224.276C236.075 229.394 232.247 235.118 228.543 240.649C220.412 252.791 212.009 265.349 216.626 272.421C224.725 284.823 242.944 294.01 270.784 299.731C291.694 304.028 304.823 303.432 313.347 297.8C318.602 294.327 321.893 289.019 323.409 281.567C329.495 251.631 354.417 248.723 372.617 246.598C381.417 245.571 388.365 244.759 390.864 241.223C391.856 239.815 392.091 238.039 391.574 235.787C389.662 227.425 390.756 221.092 391.555 216.465C392.262 212.365 392.776 209.403 391.003 207.133C387.854 203.093 377.189 201.06 347.117 198.777C327.608 197.292 314.907 189.384 300.199 180.222C289.157 173.344 277.738 166.231 261.85 160.786C227.199 148.907 199.99 162.352 186.081 178.893C177.865 188.664 174.291 199.417 177.386 205.049C178.956 207.903 182.139 209.092 186.595 208.493C202.045 206.413 213.721 205.363 222.264 205.363L222.268 205.366Z" fill="url(#paint29_linear_456_486)"/>
<path d="M294.592 298.973C287.007 298.973 278.844 297.469 271.642 295.846C245.829 290.036 228.946 281.334 221.465 269.985C217.013 263.23 224.477 251.598 231.698 240.347C234.996 235.206 238.408 229.888 240.616 225.135C243.631 218.64 244.094 214.943 242.217 212.364C238.386 207.11 223.951 206.564 192.391 210.481C187.901 211.039 184.685 209.796 183.094 206.888C180.201 201.605 183.312 191.726 190.663 182.866C197.732 174.342 207.73 167.73 218.814 164.254C232.684 159.903 247.782 160.325 263.686 165.504C279.298 170.587 290.587 177.31 301.509 183.808C315.595 192.192 327.757 199.432 345.737 200.929C371.519 203.076 381.733 205.22 384.771 209.12C386.471 211.302 386.021 214.026 385.45 217.47C384.692 222.049 383.75 227.745 386.804 235.552C386.81 235.568 386.813 235.587 386.813 235.606C386.598 243.629 377.734 244.748 366.515 246.163C349.98 248.249 327.335 251.104 321.443 279.289C319.927 286.542 316.743 291.641 311.707 294.882C307.036 297.885 301.02 298.966 294.595 298.966L294.592 298.973ZM224.252 207.658C234.565 207.658 240.226 209.158 242.445 212.203C244.393 214.873 243.936 218.653 240.872 225.252C238.656 230.022 235.24 235.346 231.936 240.496C224.766 251.671 217.349 263.227 221.703 269.829C229.142 281.119 245.965 289.779 271.709 295.573C284.958 298.557 301.464 301.145 311.558 294.65C316.527 291.454 319.673 286.411 321.173 279.235C323.805 266.645 329.869 257.969 339.706 252.718C348.169 248.199 357.899 246.971 366.483 245.89C377.56 244.492 386.312 243.388 386.541 235.628C383.468 227.76 384.457 221.789 385.18 217.426C385.738 214.048 386.182 211.378 384.556 209.291C381.572 205.461 371.408 203.346 345.718 201.208C327.674 199.705 315.484 192.449 301.372 184.049C290.467 177.557 279.19 170.847 263.607 165.77C229.707 154.728 203.814 167.454 190.885 183.044C183.607 191.821 180.506 201.57 183.347 206.755C184.879 209.555 187.999 210.747 192.369 210.205C206.008 208.511 216.467 207.655 224.262 207.655L224.252 207.658Z" fill="url(#paint30_linear_456_486)"/>
<path d="M295.363 295.18C288.126 295.18 280.097 293.544 272.568 291.679C248.525 285.724 233.474 277.78 226.558 267.391C222.378 261.115 228.851 250.486 235.11 240.205C238.009 235.448 241.003 230.526 242.886 226.128C245.414 220.223 245.724 216.846 243.955 214.464C240.337 209.596 227.068 208.94 198.154 212.19C193.749 212.685 190.6 211.439 189.046 208.588C186.369 203.676 188.97 194.993 195.515 186.983C207.502 172.313 232.161 160.285 265.43 170.512C280.766 175.224 292.436 181.833 302.733 187.661C316.198 195.285 327.826 201.865 344.332 203.381C368.085 205.56 377.509 207.649 380.357 211.372C381.958 213.465 381.508 216.043 380.934 219.307C380.214 223.416 379.317 228.532 381.762 235.416C381.768 235.435 381.771 235.457 381.768 235.476C380.899 242.634 372.594 243.769 362.078 245.209C345.534 247.47 324.941 250.286 319.194 276.968C317.691 283.942 314.653 288.771 309.909 291.733C305.898 294.238 300.859 295.18 295.363 295.18ZM226.139 209.926C236.392 209.926 241.979 211.363 244.167 214.306C246 216.773 245.702 220.229 243.13 226.232C241.237 230.65 238.237 235.578 235.336 240.344C229.12 250.552 222.689 261.109 226.777 267.245C233.655 277.574 248.655 285.483 272.632 291.422C285.827 294.692 300.557 297.257 309.77 291.508C314.45 288.587 317.45 283.812 318.938 276.911C321.506 264.987 327.287 256.733 336.617 251.678C344.649 247.324 353.893 246.059 362.047 244.946C372.435 243.525 380.642 242.405 381.505 235.476C379.05 228.544 379.954 223.397 380.677 219.262C381.239 216.062 381.679 213.538 380.151 211.534C377.354 207.878 367.977 205.813 344.31 203.644C327.744 202.125 316.093 195.529 302.603 187.893C291.814 181.785 280.658 175.471 265.351 170.765C232.209 160.576 207.651 172.551 195.718 187.151C189.239 195.079 186.652 203.641 189.277 208.461C190.774 211.211 193.834 212.406 198.122 211.927C209.915 210.602 219.121 209.926 226.139 209.926Z" fill="url(#paint31_linear_456_486)"/>
<path d="M295.953 291.425C289.097 291.425 281.258 289.64 273.488 287.509C258.333 283.355 239.88 277.015 231.642 264.794C227.731 258.994 233.221 249.366 238.526 240.052C241.016 235.682 243.591 231.16 245.151 227.114C247.171 221.865 247.333 218.701 245.683 216.541C242.265 212.054 230.161 211.286 203.91 213.896C199.581 214.324 196.489 213.075 194.973 210.275C192.557 205.813 194.742 198.085 200.405 191.042C211.374 177.405 234.673 166.164 267.168 175.512C282.263 179.857 293.838 186.053 304.046 191.524C316.848 198.38 327.903 204.3 342.928 205.829C364.381 208.007 373.33 210.119 375.949 213.627C377.452 215.637 376.993 218.073 376.412 221.155C375.727 224.792 374.874 229.321 376.72 235.276C376.726 235.299 376.726 235.321 376.72 235.343C375.223 241.635 367.489 242.779 357.696 244.229C342.04 246.547 322.553 249.432 316.943 274.64C315.453 281.335 312.564 285.895 308.111 288.578C304.715 290.623 300.554 291.428 295.953 291.428V291.425ZM228.147 212.127C238.317 212.127 243.695 213.513 245.886 216.389C248.033 219.208 246.841 223.438 245.389 227.209C243.822 231.274 241.244 235.803 238.748 240.182C233.481 249.429 228.033 258.99 231.854 264.657C240.045 276.809 258.444 283.123 273.555 287.268C286.49 290.813 299.613 293.401 307.981 288.359C312.373 285.714 315.224 281.208 316.696 274.583C319.204 263.316 324.713 255.474 333.541 250.612C341.152 246.42 349.923 245.123 357.661 243.975C367.343 242.542 374.992 241.409 376.469 235.314C374.617 229.315 375.477 224.764 376.165 221.104C376.733 218.082 377.183 215.694 375.75 213.773C373.181 210.332 364.276 208.248 342.906 206.076C327.833 204.544 316.756 198.611 303.932 191.742C293.733 186.278 282.174 180.088 267.102 175.753C234.727 166.436 211.524 177.621 200.605 191.197C195.005 198.161 192.833 205.778 195.198 210.151C196.66 212.853 199.666 214.061 203.884 213.643C213.988 212.637 221.957 212.124 228.147 212.124V212.127Z" fill="url(#paint32_linear_456_486)"/>
<path d="M296.416 287.715C290.337 287.715 282.974 285.958 274.411 283.339C259.891 278.902 244.06 272.918 236.731 262.199C233.094 256.881 237.604 248.246 241.961 239.897C244.041 235.914 246.191 231.794 247.418 228.106C248.979 223.425 248.975 220.581 247.418 218.599C244.133 214.426 233.551 213.585 209.669 215.599C204.274 216.056 201.915 213.861 200.884 211.943C198.696 207.868 200.447 201.23 205.349 195.034C210.706 188.263 218.944 182.942 228.55 180.047C240.581 176.422 254.163 176.578 268.913 180.51C283.824 184.486 295.335 190.28 305.489 195.395C317.571 201.481 328.008 206.735 341.526 208.27C360.994 210.477 369.132 212.539 371.551 215.875C372.95 217.806 372.477 220.105 371.875 223.013C371.221 226.172 370.413 230.101 371.678 235.13C371.684 235.156 371.681 235.181 371.675 235.203C369.588 240.623 362.082 241.825 353.393 243.217C338.593 245.586 320.175 248.535 314.695 272.306C313.214 278.725 310.474 283.012 306.317 285.416C303.536 287.02 300.228 287.715 296.413 287.715H296.416ZM229.726 214.315C240.023 214.315 245.401 215.643 247.609 218.447C249.226 220.502 249.239 223.41 247.65 228.179C246.416 231.886 244.26 236.015 242.176 240.008C237.851 248.294 233.376 256.862 236.931 262.063C244.219 272.721 260.002 278.683 274.481 283.107C288.358 287.347 299.064 289.329 306.199 285.206C310.297 282.841 312.998 278.604 314.463 272.252C316.915 261.622 322.16 254.186 330.503 249.518C337.708 245.484 346.023 244.155 353.358 242.979C361.955 241.603 369.382 240.413 371.437 235.152C370.168 230.088 370.983 226.14 371.64 222.966C372.23 220.115 372.693 217.863 371.355 216.018C368.982 212.745 360.89 210.709 341.498 208.511C327.935 206.973 317.482 201.709 305.378 195.614C295.233 190.505 283.735 184.715 268.849 180.744C237.252 172.322 215.427 182.679 205.537 195.183C200.694 201.303 198.953 207.836 201.097 211.828C202.527 214.489 205.483 215.71 209.646 215.358C217.799 214.67 224.415 214.315 229.723 214.315H229.726Z" fill="url(#paint33_linear_456_486)"/>
<path d="M296.493 284.075C290.306 284.075 282.946 281.788 275.329 279.172C262.672 274.824 248.599 269.367 241.816 259.606C238.451 254.767 241.987 247.124 245.409 239.732C247.07 236.139 248.789 232.426 249.683 229.096C250.793 224.97 250.632 222.44 249.144 220.629C246.014 216.817 236.561 215.885 215.425 217.302C211.258 217.581 208.185 216.265 206.765 213.595C204.811 209.917 206.178 204.307 210.338 198.957C215.114 192.811 222.757 187.953 231.852 185.283C243.243 181.937 256.298 182.013 270.651 185.514C285.454 189.123 296.953 194.53 307.101 199.299C318.387 204.605 328.135 209.187 340.122 210.719C357.399 212.923 364.978 215.003 367.157 218.139C368.45 220.001 367.946 222.167 367.309 224.913C366.687 227.58 365.917 230.9 366.637 234.997C366.64 235.023 366.637 235.051 366.624 235.074C363.995 239.621 357.139 240.807 349.195 242.18C335.21 244.597 317.81 247.603 312.447 269.982C310.976 276.125 308.385 280.142 304.526 282.264C302.189 283.548 299.477 284.078 296.493 284.078V284.075ZM231.027 216.449C241.606 216.449 247.061 217.73 249.322 220.483C250.86 222.357 251.034 224.951 249.905 229.153C249.005 232.502 247.283 236.225 245.618 239.827C242.225 247.159 238.717 254.741 242.006 259.473C248.751 269.173 262.783 274.615 275.405 278.95C286.643 282.813 297.318 285.955 304.415 282.055C308.214 279.968 310.77 275.998 312.225 269.922C317.623 247.394 335.109 244.375 349.157 241.946C357.022 240.588 363.814 239.415 366.405 234.988C365.688 230.862 366.465 227.533 367.087 224.853C367.712 222.164 368.206 220.042 366.969 218.263C364.832 215.19 357.297 213.135 340.094 210.941C328.072 209.406 318.308 204.817 307.006 199.502C296.871 194.736 285.381 189.336 270.6 185.733C256.286 182.245 243.271 182.166 231.918 185.502C222.868 188.159 215.27 192.989 210.522 199.097C206.419 204.377 205.058 209.891 206.971 213.487C208.344 216.072 211.341 217.344 215.412 217.071C221.555 216.659 226.718 216.446 231.03 216.446L231.027 216.449Z" fill="url(#paint34_linear_456_486)"/>
<path d="M296.508 280.459C290.838 280.459 283.88 277.979 276.251 274.999C264.159 270.277 252.816 265.345 246.904 257.008C243.813 252.651 246.388 245.995 248.88 239.557C250.117 236.358 251.398 233.05 251.953 230.088C252.625 226.502 252.302 224.272 250.868 222.626C247.859 219.167 239.538 218.155 221.186 219.011C217.038 219.205 213.997 217.863 212.618 215.231C210.934 212.016 211.993 207.256 215.386 202.81C219.585 197.308 226.618 192.938 235.196 190.502C245.931 187.455 258.448 187.461 272.394 190.515C287.207 193.759 298.772 198.795 308.974 203.235C319.347 207.75 328.306 211.651 338.72 213.164C354.081 215.396 360.826 217.429 362.783 220.413C363.965 222.217 363.404 224.263 362.697 226.854C362.079 229.121 361.375 231.693 361.597 234.858C361.597 234.886 361.59 234.915 361.571 234.937C358.483 238.616 352.311 239.76 345.164 241.083C331.933 243.534 315.465 246.588 310.201 267.651C308.733 273.521 306.291 277.269 302.733 279.105C300.897 280.053 298.81 280.462 296.508 280.462V280.459ZM231.902 218.504C243.02 218.504 248.645 219.738 251.033 222.481C252.514 224.184 252.854 226.47 252.169 230.126C251.61 233.107 250.326 236.427 249.086 239.637C246.616 246.02 244.063 252.623 247.085 256.885C252.965 265.174 264.276 270.086 276.333 274.799C287.007 278.969 296.356 282.156 302.635 278.912C306.133 277.104 308.54 273.403 309.992 267.597C315.291 246.398 331.832 243.331 345.125 240.867C352.21 239.554 358.333 238.419 361.378 234.826C361.162 231.645 361.866 229.07 362.488 226.793C363.182 224.256 363.728 222.252 362.602 220.527C360.686 217.603 353.983 215.599 338.691 213.376C328.248 211.857 319.277 207.953 308.892 203.431C298.696 198.995 287.144 193.962 272.353 190.724C258.441 187.677 245.963 187.671 235.26 190.709C226.726 193.131 219.734 197.473 215.564 202.937C212.221 207.316 211.168 211.987 212.814 215.127C214.152 217.676 217.121 218.976 221.18 218.789C225.223 218.602 228.781 218.504 231.908 218.504H231.902Z" fill="url(#paint35_linear_456_486)"/>
<path d="M296.236 276.94C291.219 276.94 284.918 274.323 277.171 270.832L276.755 270.645C267.714 266.573 257.468 261.956 251.992 254.418C249.179 250.546 250.802 244.869 252.375 239.38C253.178 236.577 254.008 233.675 254.221 231.084C254.468 228.053 253.958 226.042 252.572 224.571C249.639 221.457 242.453 220.378 226.946 220.718C222.785 220.813 219.76 219.43 218.428 216.839C216.994 214.052 217.765 210.215 220.489 206.577C224.111 201.745 230.535 197.882 238.587 195.703C248.649 192.979 260.611 192.919 274.142 195.52C289.148 198.405 300.898 203.095 311.261 207.237C320.153 210.789 328.553 214.144 337.322 215.615C350.641 217.851 356.755 219.912 358.432 222.722C359.488 224.495 358.826 226.439 357.985 228.899C357.408 230.593 356.752 232.511 356.558 234.731C356.558 234.76 356.542 234.785 356.52 234.801C353.102 237.614 347.676 238.679 341.394 239.916C328.813 242.39 313.157 245.469 307.957 265.327C306.488 270.927 304.192 274.406 300.939 275.963C299.518 276.642 297.955 276.946 296.242 276.946L296.236 276.94ZM232 220.448C244.121 220.448 250.079 221.631 252.715 224.425C254.145 225.944 254.671 228.002 254.421 231.097C254.208 233.71 253.374 236.618 252.569 239.431C251.012 244.873 249.398 250.501 252.153 254.291C257.598 261.785 267.819 266.389 276.835 270.451L277.25 270.638C287.591 275.3 295.335 278.395 300.837 275.766C304.034 274.238 306.295 270.803 307.744 265.263C312.977 245.282 328.702 242.187 341.34 239.704C347.574 238.476 352.959 237.417 356.342 234.661C356.542 232.435 357.196 230.517 357.776 228.823C358.6 226.413 359.25 224.51 358.242 222.82C356.603 220.068 350.527 218.038 337.274 215.812C328.484 214.334 320.074 210.976 311.172 207.421C300.815 203.286 289.075 198.596 274.092 195.716C260.592 193.122 248.659 193.182 238.628 195.897C230.624 198.063 224.234 201.897 220.641 206.695C217.965 210.269 217.201 214.023 218.599 216.741C219.893 219.259 222.852 220.597 226.93 220.508C228.728 220.47 230.415 220.448 231.994 220.448H232Z" fill="url(#paint36_linear_456_486)"/>
<path d="M295.728 273.471C290.914 273.471 284.873 270.261 278.087 266.659C277.611 266.405 277.132 266.151 276.647 265.898C269.645 262.197 261.705 258.002 257.075 251.821C254.541 248.44 255.232 243.744 255.901 239.2C256.257 236.789 256.621 234.297 256.482 232.08C256.019 224.758 250.685 222.592 232.695 222.418C228.534 222.376 225.429 220.911 224.174 218.397C223.007 216.059 223.536 213.082 225.636 210.234C228.683 206.096 234.499 202.769 242.012 200.869C251.382 198.501 262.777 198.38 275.877 200.514C291.419 203.048 303.548 207.453 314.251 211.341C321.795 214.081 328.921 216.671 335.914 218.054C347.327 220.312 352.768 222.415 354.107 225.081C355.01 226.88 354.069 228.849 352.981 231.132C352.464 232.22 351.928 233.346 351.5 234.595C351.494 234.617 351.478 234.636 351.455 234.649C347.923 236.606 343.137 237.579 338.07 238.613C325.334 241.207 310.899 244.147 305.702 262.987C304.227 268.327 302.077 271.539 299.118 272.814C298.072 273.264 296.94 273.467 295.728 273.467V273.471ZM258.438 199.192C252.448 199.192 246.975 199.813 242.059 201.057C234.591 202.947 228.813 206.248 225.794 210.348C223.742 213.136 223.216 216.037 224.351 218.308C225.575 220.756 228.617 222.18 232.701 222.221C250.831 222.395 256.209 224.603 256.681 232.064C256.821 234.303 256.453 236.805 256.098 239.225C255.435 243.728 254.75 248.386 257.233 251.704C261.838 257.849 269.756 262.032 276.742 265.723C277.228 265.98 277.71 266.234 278.182 266.484C286.627 270.968 293.921 274.844 299.042 272.637C301.941 271.387 304.059 268.216 305.515 262.936C307.845 254.491 312.276 248.466 319.062 244.521C324.976 241.08 331.911 239.669 338.032 238.423C343.068 237.395 347.828 236.428 351.329 234.497C351.757 233.247 352.29 232.131 352.806 231.046C353.916 228.719 354.792 226.88 353.932 225.167C352.622 222.56 347.222 220.49 335.875 218.244C328.87 216.859 321.738 214.268 314.185 211.525C303.491 207.64 291.368 203.235 275.845 200.705C269.648 199.696 263.836 199.189 258.438 199.189V199.192Z" fill="url(#paint37_linear_456_486)"/>
<path d="M294.977 270.096C290.778 270.096 285.501 266.684 279.089 262.542L279.007 262.488C278.398 262.095 277.776 261.696 277.142 261.293C271.935 257.963 266.03 254.193 262.161 249.227C259.929 246.363 259.71 242.653 259.501 239.069C259.377 236.945 259.26 234.937 258.755 233.079C257.11 227.022 252.178 224.847 238.454 224.12C234.169 223.895 231.039 222.354 229.866 219.899C228.978 218.041 229.327 215.866 230.846 213.773C233.326 210.357 238.53 207.598 245.497 206.003C254.148 204.021 264.955 203.86 277.618 205.515C294.444 207.719 307.344 211.978 318.723 215.733C324.313 217.578 329.597 219.322 334.509 220.499C344.251 222.836 348.976 225.021 349.832 227.59C350.498 229.587 348.823 231.601 346.886 233.935C346.74 234.113 346.591 234.29 346.442 234.471C346.432 234.484 346.416 234.493 346.401 234.5C343.188 235.625 339.538 236.352 335.673 237.122C323.064 239.637 308.768 242.485 303.45 260.656C301.96 265.745 299.94 268.701 297.273 269.693C296.546 269.963 295.782 270.09 294.977 270.09V270.096ZM261.505 204.567C255.575 204.567 250.238 205.106 245.538 206.181C238.612 207.767 233.449 210.5 230.995 213.881C229.517 215.916 229.175 218.025 230.031 219.82C231.173 222.214 234.245 223.718 238.463 223.94C252.286 224.669 257.262 226.879 258.933 233.031C259.44 234.906 259.567 237.018 259.685 239.057C259.894 242.615 260.11 246.293 262.307 249.112C266.157 254.053 272.046 257.817 277.243 261.138C277.875 261.54 278.499 261.94 279.108 262.333L279.191 262.387C286.789 267.296 292.789 271.174 297.212 269.528C299.822 268.558 301.807 265.641 303.279 260.611C308.629 242.332 322.978 239.472 335.638 236.951C339.487 236.184 343.122 235.46 346.318 234.344C346.461 234.17 346.607 233.999 346.746 233.827C348.649 231.535 350.292 229.556 349.661 227.656C348.83 225.154 344.143 223.004 334.467 220.686C329.549 219.506 324.263 217.762 318.665 215.913C307.294 212.159 294.403 207.903 277.592 205.702C271.837 204.947 266.461 204.57 261.502 204.57L261.505 204.567Z" fill="url(#paint38_linear_456_486)"/>
<path d="M293.968 266.811C290.153 266.811 285.371 262.837 279.926 258.315C279.361 257.846 278.781 257.37 278.191 256.885C274.563 253.904 270.45 250.527 267.251 246.636C265.392 244.375 264.362 241.743 263.363 239.196C262.652 237.379 261.98 235.663 261.032 234.084C258.143 229.27 253.427 226.955 244.206 225.826C238.472 225.126 234.854 222.525 235.196 219.36C235.532 216.269 239.458 213.503 245.962 211.772C254.017 209.628 265.567 209.197 279.358 210.516C299.936 212.485 315.792 217.499 327.37 221.158C329.393 221.799 331.302 222.402 333.106 222.95C341.158 225.395 345.607 228.129 345.633 230.653C345.648 232.134 344.129 233.447 341.358 234.351C337.977 235.451 334.337 236.228 330.814 236.976C318.735 239.551 306.247 242.212 301.201 258.331C299.679 263.193 297.767 265.904 295.357 266.614C294.91 266.747 294.443 266.808 293.965 266.808L293.968 266.811ZM264.714 209.932C244.212 209.932 235.83 215.14 235.371 219.376C235.038 222.443 238.596 224.964 244.231 225.655C253.51 226.791 258.26 229.128 261.181 233.992C262.135 235.581 262.811 237.303 263.524 239.13C264.517 241.663 265.544 244.283 267.384 246.525C270.571 250.403 274.677 253.777 278.302 256.752C278.892 257.237 279.472 257.713 280.037 258.182C286.125 263.24 291.386 267.61 295.312 266.452C297.665 265.758 299.539 263.085 301.043 258.28C306.117 242.066 318.659 239.393 330.782 236.808C334.299 236.06 337.936 235.283 341.307 234.186C344.003 233.307 345.48 232.055 345.465 230.653C345.452 229.239 343.819 226.378 333.059 223.112C331.254 222.563 329.342 221.961 327.319 221.32C315.747 217.664 299.901 212.653 279.342 210.684C273.9 210.164 269.036 209.932 264.714 209.932Z" fill="url(#paint39_linear_456_486)"/>
<path d="M292.582 263.643C289.132 263.643 285.057 259.156 280.842 254.139C280.037 253.181 279.222 252.192 278.356 251.148C270.878 242.104 261.574 230.85 249.955 227.53C244.088 225.852 240.689 223.363 241.085 221.032C241.335 219.554 243.213 217.518 250.741 216.227C257.816 215.013 268.03 214.775 281.102 215.517C300.58 216.627 319.499 220.318 331.711 225.395C337.841 227.945 341.323 230.507 341.031 232.255C340.847 233.349 339.211 234.021 336.303 234.199C320.177 235.185 305.19 237.592 298.956 256C297.373 260.678 295.518 263.155 293.286 263.576C293.054 263.621 292.823 263.64 292.585 263.64L292.582 263.643ZM267.533 215.257C249.13 215.257 241.751 218.048 241.24 221.057C240.866 223.267 244.304 225.747 249.999 227.374C261.663 230.707 270.986 241.984 278.476 251.044C279.339 252.087 280.157 253.073 280.963 254.034C285.437 259.359 289.744 264.084 293.254 263.421C295.426 263.012 297.24 260.567 298.804 255.95C305.067 237.446 320.111 235.026 336.29 234.04C339.119 233.869 340.701 233.241 340.873 232.229C341.148 230.587 337.616 228.024 331.651 225.544C319.454 220.474 300.554 216.786 281.093 215.676C276.028 215.387 271.522 215.257 267.536 215.257H267.533Z" fill="url(#paint40_linear_456_486)"/>
</g>
<defs>
<linearGradient id="paint0_linear_456_486" x1="273.367" y1="0" x2="460.5" y2="454.5" gradientUnits="userSpaceOnUse">
<stop stop-color="#FCFCFC"/>
<stop offset="1" stop-color="#FCFCFC" stop-opacity="0"/>
</linearGradient>
<linearGradient id="paint1_linear_456_486" x1="273.7" y1="5.37769" x2="456.386" y2="449.809" gradientUnits="userSpaceOnUse">
<stop stop-color="#FCFCFC"/>
<stop offset="1" stop-color="#FCFCFC" stop-opacity="0"/>
</linearGradient>
<linearGradient id="paint2_linear_456_486" x1="274.08" y1="10.7625" x2="452.294" y2="445.12" gradientUnits="userSpaceOnUse">
<stop stop-color="#FCFCFC"/>
<stop offset="1" stop-color="#FCFCFC" stop-opacity="0"/>
</linearGradient>
<linearGradient id="paint3_linear_456_486" x1="274.426" y1="16.144" x2="448.184" y2="440.432" gradientUnits="userSpaceOnUse">
<stop stop-color="#FCFCFC"/>
<stop offset="1" stop-color="#FCFCFC" stop-opacity="0"/>
</linearGradient>
<linearGradient id="paint4_linear_456_486" x1="274.788" y1="21.5278" x2="444.087" y2="435.742" gradientUnits="userSpaceOnUse">
<stop stop-color="#FCFCFC"/>
<stop offset="1" stop-color="#FCFCFC" stop-opacity="0"/>
</linearGradient>
<linearGradient id="paint5_linear_456_486" x1="275.144" y1="26.9106" x2="439.99" y2="431.058" gradientUnits="userSpaceOnUse">
<stop stop-color="#FCFCFC"/>
<stop offset="1" stop-color="#FCFCFC" stop-opacity="0"/>
</linearGradient>
<linearGradient id="paint6_linear_456_486" x1="275.501" y1="32.2925" x2="435.895" y2="426.373" gradientUnits="userSpaceOnUse">
<stop stop-color="#FCFCFC"/>
<stop offset="1" stop-color="#FCFCFC" stop-opacity="0"/>
</linearGradient>
<linearGradient id="paint7_linear_456_486" x1="275.862" y1="37.6804" x2="431.805" y2="421.7" gradientUnits="userSpaceOnUse">
<stop stop-color="#FCFCFC"/>
<stop offset="1" stop-color="#FCFCFC" stop-opacity="0"/>
</linearGradient>
<linearGradient id="paint8_linear_456_486" x1="276.217" y1="43.0601" x2="427.706" y2="417.007" gradientUnits="userSpaceOnUse">
<stop stop-color="#FCFCFC"/>
<stop offset="1" stop-color="#FCFCFC" stop-opacity="0"/>
</linearGradient>
<linearGradient id="paint9_linear_456_486" x1="276.583" y1="48.3687" x2="423.686" y2="412.312" gradientUnits="userSpaceOnUse">
<stop stop-color="#FCFCFC"/>
<stop offset="1" stop-color="#FCFCFC" stop-opacity="0"/>
</linearGradient>
<linearGradient id="paint10_linear_456_486" x1="276.929" y1="53.7412" x2="419.599" y2="407.619" gradientUnits="userSpaceOnUse">
<stop stop-color="#FCFCFC"/>
<stop offset="1" stop-color="#FCFCFC" stop-opacity="0"/>
</linearGradient>
<linearGradient id="paint11_linear_456_486" x1="277.289" y1="59.1116" x2="415.528" y2="402.942" gradientUnits="userSpaceOnUse">
<stop stop-color="#FCFCFC"/>
<stop offset="1" stop-color="#FCFCFC" stop-opacity="0"/>
</linearGradient>
<linearGradient id="paint12_linear_456_486" x1="277.647" y1="64.4861" x2="411.45" y2="398.263" gradientUnits="userSpaceOnUse">
<stop stop-color="#FCFCFC"/>
<stop offset="1" stop-color="#FCFCFC" stop-opacity="0"/>
</linearGradient>
<linearGradient id="paint13_linear_456_486" x1="278.009" y1="69.8586" x2="407.383" y2="393.587" gradientUnits="userSpaceOnUse">
<stop stop-color="#FCFCFC"/>
<stop offset="1" stop-color="#FCFCFC" stop-opacity="0"/>
</linearGradient>
<linearGradient id="paint14_linear_456_486" x1="278.38" y1="75.2312" x2="403.328" y2="388.916" gradientUnits="userSpaceOnUse">
<stop stop-color="#FCFCFC"/>
<stop offset="1" stop-color="#FCFCFC" stop-opacity="0"/>
</linearGradient>
<linearGradient id="paint15_linear_456_486" x1="278.738" y1="80.6077" x2="399.264" y2="384.248" gradientUnits="userSpaceOnUse">
<stop stop-color="#FCFCFC"/>
<stop offset="1" stop-color="#FCFCFC" stop-opacity="0"/>
</linearGradient>
<linearGradient id="paint16_linear_456_486" x1="279.111" y1="85.9895" x2="395.22" y2="379.59" gradientUnits="userSpaceOnUse">
<stop stop-color="#FCFCFC"/>
<stop offset="1" stop-color="#FCFCFC" stop-opacity="0"/>
</linearGradient>
<linearGradient id="paint17_linear_456_486" x1="279.469" y1="91.3579" x2="391.169" y2="374.925" gradientUnits="userSpaceOnUse">
<stop stop-color="#FCFCFC"/>
<stop offset="1" stop-color="#FCFCFC" stop-opacity="0"/>
</linearGradient>
<linearGradient id="paint18_linear_456_486" x1="279.839" y1="96.7417" x2="387.129" y2="370.275" gradientUnits="userSpaceOnUse">
<stop stop-color="#FCFCFC"/>
<stop offset="1" stop-color="#FCFCFC" stop-opacity="0"/>
</linearGradient>
<linearGradient id="paint19_linear_456_486" x1="280.211" y1="102.111" x2="383.125" y2="365.646" gradientUnits="userSpaceOnUse">
<stop stop-color="#FCFCFC"/>
<stop offset="1" stop-color="#FCFCFC" stop-opacity="0"/>
</linearGradient>
<linearGradient id="paint20_linear_456_486" x1="280.574" y1="107.487" x2="379.09" y2="361.009" gradientUnits="userSpaceOnUse">
<stop stop-color="#FCFCFC"/>
<stop offset="1" stop-color="#FCFCFC" stop-opacity="0"/>
</linearGradient>
<linearGradient id="paint21_linear_456_486" x1="280.941" y1="112.865" x2="375.07" y2="356.373" gradientUnits="userSpaceOnUse">
<stop stop-color="#FCFCFC"/>
<stop offset="1" stop-color="#FCFCFC" stop-opacity="0"/>
</linearGradient>
<linearGradient id="paint22_linear_456_486" x1="281.318" y1="118.239" x2="371.068" y2="351.75" gradientUnits="userSpaceOnUse">
<stop stop-color="#FCFCFC"/>
<stop offset="1" stop-color="#FCFCFC" stop-opacity="0"/>
</linearGradient>
<linearGradient id="paint23_linear_456_486" x1="281.699" y1="123.625" x2="367.086" y2="347.134" gradientUnits="userSpaceOnUse">
<stop stop-color="#FCFCFC"/>
<stop offset="1" stop-color="#FCFCFC" stop-opacity="0"/>
</linearGradient>
<linearGradient id="paint24_linear_456_486" x1="282.086" y1="129.005" x2="363.12" y2="342.533" gradientUnits="userSpaceOnUse">
<stop stop-color="#FCFCFC"/>
<stop offset="1" stop-color="#FCFCFC" stop-opacity="0"/>
</linearGradient>
<linearGradient id="paint25_linear_456_486" x1="282.466" y1="134.38" x2="359.183" y2="337.963" gradientUnits="userSpaceOnUse">
<stop stop-color="#FCFCFC"/>
<stop offset="1" stop-color="#FCFCFC" stop-opacity="0"/>
</linearGradient>
<linearGradient id="paint26_linear_456_486" x1="282.869" y1="139.759" x2="355.26" y2="333.378" gradientUnits="userSpaceOnUse">
<stop stop-color="#FCFCFC"/>
<stop offset="1" stop-color="#FCFCFC" stop-opacity="0"/>
</linearGradient>
<linearGradient id="paint27_linear_456_486" x1="283.254" y1="145.142" x2="351.33" y2="328.826" gradientUnits="userSpaceOnUse">
<stop stop-color="#FCFCFC"/>
<stop offset="1" stop-color="#FCFCFC" stop-opacity="0"/>
</linearGradient>
<linearGradient id="paint28_linear_456_486" x1="283.669" y1="150.519" x2="347.481" y2="324.301" gradientUnits="userSpaceOnUse">
<stop stop-color="#FCFCFC"/>
<stop offset="1" stop-color="#FCFCFC" stop-opacity="0"/>
</linearGradient>
<linearGradient id="paint29_linear_456_486" x1="284.252" y1="155.901" x2="343.719" y2="319.859" gradientUnits="userSpaceOnUse">
<stop stop-color="#FCFCFC"/>
<stop offset="1" stop-color="#FCFCFC" stop-opacity="0"/>
</linearGradient>
<linearGradient id="paint30_linear_456_486" x1="284.418" y1="161.278" x2="339.741" y2="315.251" gradientUnits="userSpaceOnUse">
<stop stop-color="#FCFCFC"/>
<stop offset="1" stop-color="#FCFCFC" stop-opacity="0"/>
</linearGradient>
<linearGradient id="paint31_linear_456_486" x1="284.887" y1="166.703" x2="335.953" y2="310.822" gradientUnits="userSpaceOnUse">
<stop stop-color="#FCFCFC"/>
<stop offset="1" stop-color="#FCFCFC" stop-opacity="0"/>
</linearGradient>
<linearGradient id="paint32_linear_456_486" x1="285.481" y1="172.075" x2="332.321" y2="306.44" gradientUnits="userSpaceOnUse">
<stop stop-color="#FCFCFC"/>
<stop offset="1" stop-color="#FCFCFC" stop-opacity="0"/>
</linearGradient>
<linearGradient id="paint33_linear_456_486" x1="286.21" y1="177.44" x2="328.801" y2="302.122" gradientUnits="userSpaceOnUse">
<stop stop-color="#FCFCFC"/>
<stop offset="1" stop-color="#FCFCFC" stop-opacity="0"/>
</linearGradient>
<linearGradient id="paint34_linear_456_486" x1="286.926" y1="182.83" x2="325.322" y2="297.846" gradientUnits="userSpaceOnUse">
<stop stop-color="#FCFCFC"/>
<stop offset="1" stop-color="#FCFCFC" stop-opacity="0"/>
</linearGradient>
<linearGradient id="paint35_linear_456_486" x1="287.649" y1="188.221" x2="321.889" y2="293.553" gradientUnits="userSpaceOnUse">
<stop stop-color="#FCFCFC"/>
<stop offset="1" stop-color="#FCFCFC" stop-opacity="0"/>
</linearGradient>
<linearGradient id="paint36_linear_456_486" x1="288.348" y1="193.614" x2="318.519" y2="289.316" gradientUnits="userSpaceOnUse">
<stop stop-color="#FCFCFC"/>
<stop offset="1" stop-color="#FCFCFC" stop-opacity="0"/>
</linearGradient>
<linearGradient id="paint37_linear_456_486" x1="289.018" y1="198.999" x2="315.185" y2="285.07" gradientUnits="userSpaceOnUse">
<stop stop-color="#FCFCFC"/>
<stop offset="1" stop-color="#FCFCFC" stop-opacity="0"/>
</linearGradient>
<linearGradient id="paint38_linear_456_486" x1="289.683" y1="204.384" x2="311.953" y2="280.866" gradientUnits="userSpaceOnUse">
<stop stop-color="#FCFCFC"/>
<stop offset="1" stop-color="#FCFCFC" stop-opacity="0"/>
</linearGradient>
<linearGradient id="paint39_linear_456_486" x1="290.403" y1="209.768" x2="308.872" y2="276.693" gradientUnits="userSpaceOnUse">
<stop stop-color="#FCFCFC"/>
<stop offset="1" stop-color="#FCFCFC" stop-opacity="0"/>
</linearGradient>
<linearGradient id="paint40_linear_456_486" x1="291.051" y1="215.095" x2="305.951" y2="272.525" gradientUnits="userSpaceOnUse">
<stop stop-color="#FCFCFC"/>
<stop offset="1" stop-color="#FCFCFC" stop-opacity="0"/>
</linearGradient>
</defs>
</svg>
