<svg width="388" height="951" viewBox="0 0 388 951" fill="none" xmlns="http://www.w3.org/2000/svg">
<g opacity="0.07" clip-path="url(#clip0_382_5136)">
<path d="M305.5 292.322C255.203 292.171 204.224 293.251 154.328 292.171C147.82 291.091 142.397 285.691 141.312 279.211C140.228 261.932 141.312 243.572 141.312 226.293C142.397 219.813 147.82 213.333 154.328 213.333C200.97 212.253 247.611 214.413 294.252 213.333C308.353 212.253 307.268 198.214 308.353 187.414C309.437 173.375 307.268 158.255 307.268 144.215C306.183 139.895 304.014 133.416 299.675 133.416C267.135 129.096 235.679 129.096 203.139 133.416C200.97 133.416 198.8 136.656 196.631 138.816C195.546 140.975 194.461 143.135 194.461 145.295C194.461 179.854 194.461 213.333 194.461 247.892C194.461 250.052 193.377 252.212 192.292 254.372C191.207 256.532 190.123 258.692 187.953 259.772C185.784 260.852 183.615 263.012 181.445 263.012C118.534 263.012 54.5381 264.092 -8.37323 263.012C-11.6273 263.012 -13.7966 259.772 -15.966 257.612C-18.1353 255.452 -20.3047 252.212 -20.3047 248.972C-20.3047 225.213 -20.3047 201.454 -20.3047 177.694C-20.3047 174.454 -18.1353 172.295 -17.0507 169.055C-15.966 166.895 -13.7966 165.815 -12.7119 164.735C-10.5426 163.655 -9.45791 162.575 -7.28856 162.575C105.518 162.575 218.324 163.655 331.131 162.575C333.3 162.575 336.554 160.415 338.724 159.335C341.978 157.175 343.062 151.775 344.147 148.535C345.232 122.616 345.232 97.7767 344.147 71.8575C343.062 69.6976 341.978 67.5376 340.893 65.3777C338.724 63.2178 335.47 59.9779 331.131 59.9779C220.494 59.9779 108.772 61.0578 -1.86517 58.8979C-6.20388 58.8979 -11.6273 56.738 -14.122 51.6621" stroke="#0D57D7" stroke-width="10" stroke-miterlimit="10"/>
<path d="M-288.828 355.565C-172.16 355.889 -55.015 356.969 62.1302 354.809C65.3843 354.809 68.6383 355.889 71.8923 353.729C74.0617 351.569 76.231 349.409 78.4004 347.249C79.4851 345.089 80.5697 341.85 80.5697 339.69C79.4851 261.932 77.3157 185.254 80.5697 107.496C81.6544 103.177 84.9085 98.8567 89.2472 98.8567C147.82 93.4569 205.308 97.7768 263.88 96.6968C269.304 96.6968 274.727 92.3769 275.812 88.0571C280.15 76.1774 276.896 63.2178 278.046 51.7485" stroke="#0D57D7" stroke-width="10" stroke-miterlimit="10"/>
<path d="M21.8891 948.77C20.9128 939.072 19.8282 927.192 29.5903 920.713C103.348 917.473 178.191 922.873 251.949 919.633C277.981 918.553 305.098 918.553 331.131 918.553C334.385 918.553 336.554 916.393 339.808 915.313C343.062 913.153 344.147 908.833 344.147 905.593C345.231 879.674 344.147 854.835 344.147 828.915C344.147 823.516 339.808 819.196 334.385 819.196C130.465 812.716 -73.4541 818.116 -276.918 816.55" stroke="#0D57D7" stroke-width="10" stroke-miterlimit="10"/>
<path d="M307.342 948.457C307.266 931.512 307.266 914.233 307.266 896.953C298.589 883.994 281.234 889.393 268.218 888.313C247.609 885.074 225.915 886.153 205.306 889.393C193.375 890.473 193.375 905.593 193.375 915.313C194.46 926.112 193.375 937.992 194.937 948.781" stroke="#0D57D7" stroke-width="10" stroke-miterlimit="10"/>
<path d="M-40.5025 949.083C-40.9147 921.792 -41.9994 895.873 -40.9147 868.874C-39.8301 865.634 -38.7454 860.234 -35.4913 858.074C-32.2373 856.994 -31.1526 853.754 -27.8986 853.754C30.674 852.675 89.2466 855.914 147.819 852.675C160.835 846.195 157.581 832.155 157.636 820.362" stroke="#0D57D7" stroke-width="10" stroke-miterlimit="10"/>
<path d="M-319.09 391.334C-179.752 391.528 -39.8287 392.608 99.0101 391.528C103.349 390.448 108.772 388.288 113.111 386.128C118.534 274.892 114.196 163.655 115.118 52.105" stroke="#0D57D7" stroke-width="10" stroke-miterlimit="10"/>
<path d="M83.781 499.547C47.8131 499.115 -283.513 499.115 -319.068 499.547" stroke="#0D57D7" stroke-width="10" stroke-miterlimit="10"/>
<path d="M-36.9885 591.323H55.502C65.0037 591.323 72.705 598.99 72.705 608.451V740.52C72.705 749.981 65.0037 757.648 55.502 757.648H-188.984" stroke="#0D57D7" stroke-width="10" stroke-miterlimit="10"/>
<path d="M370.157 914.935C370.103 914.676 370.06 914.427 370.027 914.179C370.071 914.438 370.114 914.686 370.157 914.935Z" fill="#0D57D7"/>
<path d="M371.003 917.363C370.981 917.321 370.96 917.267 370.928 917.224C370.949 917.267 370.981 917.321 371.003 917.363Z" fill="#0D57D7"/>
<path d="M370.418 915.939C370.559 916.371 370.722 916.792 370.917 917.192C370.722 916.782 370.559 916.36 370.418 915.939Z" fill="#0D57D7"/>
<path d="M382.435 902.612C382.435 902.612 381.166 902.223 379.495 902.364L379.365 901.91C379.886 901.802 380.276 901.338 380.276 900.798C380.276 900.171 379.766 899.664 379.126 899.664C378.486 899.664 377.977 900.171 377.977 900.798C377.977 901.349 378.367 901.802 378.888 901.91L379.029 902.407C377.261 902.645 375.84 903.336 375.84 903.336L376.089 904.103C377.163 903.746 378.096 903.53 378.931 903.444C379.756 903.357 380.385 903.314 380.884 903.314C381.426 903.314 381.827 903.357 382.283 903.433" fill="#0D57D7"/>
<path d="M371.068 907.483C371.112 907.419 371.155 907.375 371.198 907.321L370.862 907.073L370.331 906.684C370.298 906.727 369.474 907.483 368.812 908.898C368.78 908.855 368.747 908.812 368.715 908.768C368.519 908.552 368.237 908.444 367.89 908.455H367.879C367.662 908.455 367.511 908.38 367.413 908.293C367.511 908.174 367.565 908.012 367.565 907.85C367.565 907.451 367.239 907.127 366.838 907.127C366.437 907.127 366.111 907.451 366.111 907.85C366.111 908.25 366.437 908.574 366.838 908.574C366.903 908.574 366.957 908.563 367.022 908.552C367.196 908.747 367.489 908.92 367.901 908.909C368.118 908.909 368.27 908.963 368.378 909.082C368.498 909.211 368.541 909.406 368.552 909.546C368.075 910.831 368.216 912.43 368.216 912.43L369.365 912.473C369.387 911.89 369.474 910.874 369.767 910.064C370.331 908.498 371.036 907.527 371.068 907.483Z" fill="#0D57D7"/>
<path d="M388 914.2C386.47 914.945 383.954 915.917 380.645 916.382C379.344 916.565 378.086 916.63 376.925 916.63C375.417 916.63 374.083 916.522 373.063 916.393C371.892 916.241 370.981 916.069 370.428 915.939C370.558 916.36 370.721 916.781 370.916 917.192C370.916 917.203 370.927 917.213 370.927 917.224C370.948 917.267 370.97 917.321 371.003 917.364C371.024 917.408 371.046 917.462 371.068 917.505C371.079 917.516 371.079 917.527 371.089 917.537C371.415 918.153 371.816 918.714 372.261 919.211C373.823 920.918 375.417 921.177 375.428 921.188H375.45L375.471 921.198C375.482 921.198 376.892 921.652 379.04 921.652C381.155 921.652 383.216 921.231 385.19 920.388" fill="#0D57D7"/>
<path d="M382.251 904.038C381.796 903.962 381.427 903.919 380.906 903.919C380.418 903.919 379.822 903.962 379.019 904.038C378.216 904.124 377.316 904.329 376.275 904.686C374.811 905.172 373.487 905.938 372.446 906.9L372.413 906.932C372.262 907.072 371.936 907.375 371.567 907.839C371.524 907.904 370.862 908.833 370.331 910.269C369.94 911.349 369.951 912.904 369.951 912.926C369.951 913.293 369.973 913.66 370.016 914.017C370.016 914.027 370.016 914.027 370.016 914.038C370.016 914.081 370.027 914.125 370.038 914.179C370.071 914.427 370.114 914.686 370.168 914.935C370.927 915.129 375.461 916.177 380.527 915.475C383.705 915.032 386.113 914.103 387.577 913.39" fill="#0D57D7"/>
<path d="M375.928 907.04C377.62 907.04 378.987 908.401 378.987 910.086C378.987 911.77 377.62 913.12 375.928 913.12C374.247 913.12 372.869 911.76 372.869 910.086C372.88 908.412 374.247 907.04 375.928 907.04Z" fill="#0D57D7"/>
</g>
<defs>
<clipPath id="clip0_382_5136">
<rect width="388" height="951" fill="white"/>
</clipPath>
</defs>
</svg>
