<svg width="200" height="313" viewBox="0 0 200 313" fill="none" xmlns="http://www.w3.org/2000/svg">
<g opacity="0.4">
<mask id="mask0_456_2463" style="mask-type:alpha" maskUnits="userSpaceOnUse" x="0" y="0" width="200" height="313">
<rect width="199.073" height="313" fill="#D9D9D9"/>
</mask>
<g mask="url(#mask0_456_2463)">
<path d="M155.552 215.645C155.013 214.506 154.377 213.391 153.741 212.299C145.695 198.316 137.936 184.621 131.843 169.642C130.045 165.205 128.282 160.756 126.555 156.283C130.536 161.775 135.789 167.952 141.965 171.082C144.172 172.209 146.798 172.736 149.16 171.981C162.088 167.892 144.016 143.463 140.586 138.115C130.428 122.321 126.027 101.61 123.401 83.2976C119.491 56.0151 120.415 28.3607 118.472 0.922272C118.232 -2.4116 117.8 -5.51761 116.253 -8.5157C112.68 -15.4233 103.901 -15.843 97.9291 -11.9095C97.7972 -11.8256 97.6773 -11.7296 97.5454 -11.6337C97.2695 4.35208 96.4421 20.3379 95.1829 36.2757C93.456 57.9818 90.9856 79.628 87.9035 101.178C85.2892 119.491 81.1159 137.671 74.4481 154.964C67.8403 172.113 58.7502 188.339 46.6859 202.25C44.2154 205.116 41.6491 207.79 38.8788 210.344C36.4564 212.587 32.9666 215.525 32.7148 219.075C32.5829 220.886 33.4223 222.121 34.6695 222.876C41.3133 220.298 47.3574 215.837 52.4662 211.064C56.5076 207.286 60.1772 203.101 63.5591 198.664C62.6477 201.386 61.8921 204.144 61.4125 206.999C61.0647 209.085 61.0647 211.616 63.1034 212.827C65.9336 214.494 69.903 212.383 72.3615 210.92C76.8586 208.258 80.1205 203.977 82.7108 199.491C82.7348 200.918 82.7828 202.358 82.8548 203.785C83.1905 209.865 83.8501 216.269 86.3205 221.893C88.9589 227.913 95.003 234.317 101.947 229.856C103.913 228.597 105.412 226.714 106.684 224.747C112.836 215.213 114.035 203.605 116.157 192.716C116.685 190.029 117.093 187.331 117.429 184.609C119.204 189.538 121.242 194.371 123.581 199.084C127.778 207.538 132.347 218.02 139.387 224.543C142.409 227.35 146.63 229.196 150.671 228.357C157.447 226.954 158.023 220.79 155.564 215.597L155.552 215.645Z" fill="#A3DAF7"/>
<g style="mix-blend-mode:multiply">
<path d="M95.7704 31.9345C97.7371 28.7445 100.699 25.7584 104.549 25.1468C108.698 24.4992 112.823 26.7178 115.546 29.7399C117.512 31.9345 118.916 34.4409 120.019 37.1152C119.623 25.0389 119.323 12.9626 118.46 0.922272C118.22 -2.4116 117.788 -5.51761 116.241 -8.5157C112.668 -15.4233 103.889 -15.843 97.917 -11.9095C97.7851 -11.8256 97.6651 -11.7296 97.5332 -11.6337C97.2814 3.09288 96.5379 17.8075 95.4346 32.4981C95.5425 32.3062 95.6504 32.1143 95.7584 31.9225L95.7704 31.9345Z" fill="#A3DAF7"/>
</g>
<g style="mix-blend-mode:screen">
<path d="M33.9618 217.313C36.4322 214.986 38.8067 212.54 41.1452 210.081C47.2733 203.63 52.7178 196.554 57.8625 189.299C62.9113 182.175 67.6123 174.896 71.5098 167.065C75.3833 159.294 78.5133 151.211 81.4515 143.044C87.6275 125.823 90.9134 107.943 93.108 89.8223C95.3746 71.1742 97.2694 52.4541 98.7084 33.7221C99.9197 18.0481 100.723 2.33817 100.855 -13.3838C99.8357 -13 98.8523 -12.5083 97.9289 -11.9087C97.797 -11.8248 97.6771 -11.7288 97.5452 -11.6329C97.2694 4.35288 96.4419 20.3387 95.1827 36.2765C93.4558 57.9826 90.9854 79.6288 87.9033 101.179C85.289 119.491 81.1157 137.672 74.4479 154.965C67.8402 172.114 58.75 188.339 46.6857 202.25C44.2153 205.117 41.6489 207.791 38.8787 210.345C36.6241 212.432 33.4461 215.13 32.8105 218.356C33.2063 218.008 33.59 217.649 33.9618 217.301V217.313Z" fill="#A3DAF7"/>
<path d="M103.71 112.68C103.602 114.79 103.518 116.913 103.482 119.024C103.374 124.984 103.53 130.968 104.309 136.88C104.993 142.025 106.156 147.254 108.483 151.943C109.514 149.304 109.958 146.462 110.054 143.644C110.269 137.216 108.914 130.788 107.283 124.612C106.216 120.607 104.957 116.649 103.722 112.692L103.71 112.68Z" fill="#A3DAF7"/>
<path d="M91.7053 165.182C91.5494 162.664 91.2976 160.146 91.0098 157.627C90.7819 155.66 90.5301 153.706 90.2902 151.751C90.0264 153.514 89.7746 155.289 89.5347 157.064C88.8272 162.436 88.1316 167.845 87.7479 173.253C87.52 176.371 87.1003 179.477 86.8125 182.595C86.4887 186.241 86.2608 189.947 86.5846 193.604C86.8005 196.111 87.2802 199.085 89.043 201.015C90.9738 198.497 91.6694 195.079 92.0531 192.009C92.9046 185.281 92.3289 178.458 91.9452 171.706C91.8253 169.536 91.8372 167.353 91.7053 165.182Z" fill="#A3DAF7"/>
</g>
<g style="mix-blend-mode:multiply">
<path d="M155.552 215.646C155.012 214.507 154.377 213.392 153.741 212.3C145.694 198.317 137.935 184.622 131.843 169.644C130.044 165.206 128.281 160.757 126.555 156.284C130.536 161.777 135.789 167.953 141.965 171.083C144.171 172.21 146.798 172.738 149.16 171.982C162.076 167.893 144.015 143.464 140.586 138.116C130.428 122.322 126.027 101.611 123.401 83.2988C119.491 56.0162 120.414 28.3619 118.472 0.923414C118.232 -2.41045 117.8 -5.51647 116.253 -8.51455C115.21 -10.5173 113.723 -11.9683 111.996 -12.9277C112.176 -8.57452 112.296 -4.20931 112.368 0.143912C112.583 13.7072 112.392 27.2826 112.619 40.8459C112.847 54.5172 113.783 68.1285 115.114 81.7278C115.809 88.7913 116.625 95.8428 117.632 102.882C118.532 109.19 119.419 115.426 121.53 121.47C125.307 132.299 131.567 143.081 131.292 154.869C131.28 155.433 130.632 155.661 130.224 155.313C127.994 153.358 126.171 150.972 124.588 148.477C121.506 143.608 119.227 138.212 117.332 132.767C117.38 133.055 117.428 133.331 117.476 133.619C118.184 138.044 118.676 142.505 119.539 146.906C120.247 150.504 121.002 154.09 121.59 157.711C122.201 161.453 122.693 165.254 122.585 169.044C122.513 171.934 122.117 175.076 120.438 177.523C120.271 177.774 119.863 177.954 119.587 177.75C116.433 175.388 114.322 171.958 112.715 168.408C110.053 162.544 108.614 156.248 107.199 149.988C106.923 155.469 106.551 160.937 106.048 166.406C105.376 173.685 104.525 180.976 103.205 188.172C102.186 193.748 100.951 199.409 98.6844 204.625C97.4611 207.443 95.4704 211.281 92.0766 211.797C87.4835 212.492 85.0731 207.383 84.1377 203.762C83.3342 200.656 83.0464 197.43 82.9024 194.228C82.7346 190.366 82.8425 186.493 83.0583 182.619C83.1543 180.88 83.2862 179.154 83.4301 177.427C81.6672 182.691 80.1202 188.076 77.9136 193.173C76.8223 195.715 75.5511 198.317 73.7043 200.404C72.3372 201.951 70.5144 203.054 68.3917 202.527C63.8826 201.399 65.3337 194.456 66.0292 191.314C66.4849 189.263 67.0965 187.272 67.7561 185.294C64.758 190.534 61.3402 195.535 57.5267 200.212C55.0922 203.198 52.4779 206.052 49.6477 208.667C47.2972 210.837 44.7908 212.912 42.0326 214.543C40.8213 215.25 39.0944 216.294 37.6194 215.91C36.5281 215.634 36.1803 214.543 36.2283 213.524C36.2403 213.272 36.2882 213.032 36.3242 212.78C34.5374 214.591 32.8944 216.702 32.7265 219.1C32.5946 220.911 33.4341 222.146 34.6813 222.902C41.325 220.323 47.3691 215.862 52.4779 211.101C56.5193 207.324 60.189 203.126 63.5708 198.689C62.6594 201.411 61.9039 204.17 61.4242 207.024C61.0764 209.11 61.0764 211.641 63.1151 212.852C65.9453 214.519 69.9147 212.408 72.3732 210.945C76.8703 208.283 80.1322 204.002 82.7226 199.516C82.7465 200.944 82.7945 202.383 82.8665 203.81C83.2022 209.89 83.8618 216.294 86.3323 221.918C88.9706 227.938 95.0147 234.342 101.958 229.881C103.925 228.622 105.424 226.739 106.695 224.772C112.847 215.238 114.047 203.63 116.169 192.741C116.697 190.055 117.105 187.356 117.44 184.634C119.215 189.563 121.254 194.396 123.592 199.109C127.79 207.563 132.359 218.045 139.398 224.568C142.42 227.375 146.642 229.222 150.683 228.382C157.459 226.979 158.034 220.815 155.576 215.622L155.552 215.646Z" fill="#A3DAF7"/>
</g>
<g style="mix-blend-mode:multiply">
<path d="M155.552 215.646C155.012 214.506 154.377 213.391 153.741 212.3C145.694 198.317 137.935 184.621 131.843 169.643C130.044 165.206 128.281 160.757 126.555 156.283C130.536 161.776 135.789 167.952 141.965 171.082C144.171 172.209 146.798 172.737 149.16 171.981C155.924 169.847 154.197 162.124 150.515 154.485C150.563 155.552 150.587 156.607 150.527 157.663C150.323 161.608 149.028 165.901 145.155 167.688C143.032 168.672 140.705 168.851 138.523 167.988C136.028 167.005 133.954 165.122 132.179 163.155C129.625 160.301 127.562 157.087 125.619 153.789C127.154 159.258 128.605 164.738 130.152 170.195C131.723 175.687 133.378 181.168 135.069 186.624C136.388 190.869 137.683 195.103 139.266 199.252C140.681 202.958 142.205 206.795 142.54 210.789C142.684 212.444 142.504 214.027 141.845 215.562C141.425 216.557 140.777 217.6 139.698 217.96C137.599 218.656 135.597 216.377 134.433 214.95C132.587 212.683 131.1 210.141 129.697 207.587C127.85 204.241 125.931 200.931 124.24 197.501C120.762 190.462 118.028 183.122 115.318 175.759C115.006 180.88 114.166 185.976 112.943 190.941C111.336 197.501 109.082 203.905 106.263 210.045C104.117 214.734 101.802 219.843 97.3412 222.793C94.3191 224.796 90.4456 225.323 87.2796 223.333C87.0877 223.213 86.9318 223.069 86.752 222.937C89.5941 228.621 95.3385 234.09 101.886 229.88C103.853 228.621 105.352 226.738 106.623 224.772C112.775 215.238 113.975 203.629 116.097 192.74C116.625 190.054 117.033 187.356 117.368 184.633C119.143 189.562 121.182 194.395 123.52 199.108C127.718 207.563 132.287 218.044 139.326 224.568C142.348 227.374 146.57 229.221 150.611 228.381C157.387 226.978 157.962 220.814 155.504 215.622L155.552 215.646Z" fill="#A3DAF7"/>
</g>
<path d="M23.2289 302.398C24.644 302.686 25.9632 302.087 26.9825 301.127C29.5849 298.693 30.892 294.903 31.9833 291.605C33.3864 287.336 34.5257 282.971 35.677 278.63C36.6603 274.96 37.5718 271.266 38.3752 267.561C36.9122 269.419 35.4611 271.29 34.046 273.185C30.1965 278.366 26.4549 283.714 23.4927 289.459C22.3055 291.761 21.1782 294.184 20.6386 296.726C20.3148 298.273 20.1709 300.204 21.2142 301.343C21.7419 301.919 22.4374 302.23 23.2289 302.386V302.398Z" fill="#A3DAF7"/>
<path d="M65.2507 264.083C66.8097 263.927 67.7331 262.404 68.2968 261.108C69.7478 257.835 69.9517 254.129 70.4314 250.627C70.9111 247.173 71.3428 243.708 71.3188 240.206C71.3068 238.551 71.1389 236.896 70.995 235.241C67.7211 240.278 65.3107 245.854 63.6437 251.623C63.2 253.17 62.8163 254.729 62.5404 256.312C62.2406 258.038 62.0128 259.933 62.3845 261.672C62.7083 263.159 63.6077 264.226 65.2387 264.071L65.2507 264.083Z" fill="#A3DAF7"/>
<path d="M165.015 204.889C167.689 213.139 171.814 221.126 177.331 227.806C179.345 230.24 181.684 232.471 184.226 234.33C186.817 236.225 189.995 238.107 193.317 238.035C196.051 237.976 199.385 235.829 199.481 232.831C199.565 230.037 197.046 227.65 195.091 225.983C192.921 224.124 190.498 222.613 188.124 221.054C186.169 219.771 184.262 218.428 182.272 217.181C180.089 215.814 177.87 214.483 175.712 213.079C172.282 210.837 168.924 208.45 165.878 205.704C165.59 205.44 165.302 205.164 165.015 204.889Z" fill="#A3DAF7"/>
<path d="M191.769 181.96C189.67 180.893 187.344 180.317 185.065 179.777C182.559 179.19 180.077 178.53 177.582 177.894C174.056 177.007 170.591 175.964 167.101 174.944C167.041 174.932 166.981 174.908 166.921 174.896C167.449 175.676 168.072 176.407 168.66 177.103C169.787 178.422 170.926 179.717 172.066 181.036C174.584 183.951 177.666 186.577 181.252 188.076C181.468 188.172 181.707 188.244 181.935 188.316C185.209 189.443 188.891 189.503 192.273 188.855C193.136 188.688 194.024 188.448 194.623 187.824C196.698 185.653 193.592 182.895 191.769 181.972V181.96Z" fill="#A3DAF7"/>
<path d="M0.0117188 211.149C0.0117188 212.84 1.21095 214.243 2.53011 215.167C5.06049 216.953 8.3344 217.073 11.2965 216.558C17.6524 215.442 23.4927 211.965 28.3256 207.803C31.5636 205.009 34.5257 201.855 37.068 198.413C38.1713 196.926 39.2027 195.355 40.1381 193.736C39.7183 193.94 39.3106 194.132 38.9029 194.312C34.9934 196.099 30.9759 197.634 26.8746 198.905C24.596 199.613 22.2935 200.236 19.967 200.776C17.7364 201.291 15.4818 201.639 13.2273 202.059C9.24582 202.802 5.19241 203.858 2.2303 206.808C1.09103 207.947 0.0117188 209.458 0.0117188 211.137L0.0117188 211.149Z" fill="#A3DAF7"/>
<g style="mix-blend-mode:multiply">
<path d="M33.7944 278.546C32.6192 280.74 31.4799 282.959 30.4126 285.225C29.4172 287.348 28.4099 289.519 27.6903 291.749C26.9828 293.944 26.4192 296.306 25.136 298.261C24.6443 299.004 23.9128 299.868 22.9174 299.748C21.8021 299.616 21.0466 298.309 20.7708 297.338C20.7108 297.134 20.6628 296.93 20.6269 296.726V296.738C20.3031 298.285 20.1592 300.216 21.2025 301.355C21.7301 301.931 22.4257 302.242 23.2172 302.398C24.6323 302.686 25.9515 302.086 26.9708 301.127C29.5731 298.693 30.8803 294.903 31.9716 291.605C33.3747 287.336 34.514 282.971 35.6652 278.629C36.2409 276.471 36.7805 274.312 37.2962 272.142C36.109 274.264 34.9337 276.387 33.7824 278.546H33.7944Z" fill="#A3DAF7"/>
</g>
<g style="mix-blend-mode:multiply">
<path d="M69.2193 253.11C68.6197 254.525 67.9961 255.976 67.1806 257.283C66.6769 258.098 66.0533 258.938 65.2258 259.454C64.0626 260.161 62.9473 259.669 62.2637 258.686C62.1918 259.705 62.1918 260.713 62.4076 261.696C62.7314 263.183 63.6309 264.251 65.2618 264.095C66.8208 263.939 67.7442 262.416 68.3079 261.121C69.7589 257.847 69.9628 254.141 70.4425 250.639C70.5025 250.219 70.5504 249.8 70.6104 249.38C70.1907 250.639 69.747 251.886 69.2193 253.122V253.11Z" fill="#A3DAF7"/>
</g>
<g style="mix-blend-mode:multiply">
<path d="M195.103 225.996C192.933 224.137 190.51 222.626 188.136 221.067C186.181 219.784 184.274 218.44 182.283 217.193C180.101 215.826 177.882 214.495 175.724 213.092C172.762 211.161 169.859 209.098 167.161 206.796C168.912 209.446 170.879 211.965 172.977 214.387C174.584 216.258 176.203 218.141 178.002 219.832C179.729 221.451 181.552 222.95 183.303 224.521C185.066 226.116 186.757 227.794 188.16 229.713C189.191 231.116 190.186 232.819 190.258 234.606C190.306 235.685 189.827 236.657 188.879 237.077C190.306 237.688 191.805 238.072 193.328 238.036C196.063 237.976 199.397 235.829 199.492 232.831C199.576 230.037 197.058 227.651 195.103 225.984V225.996Z" fill="#A3DAF7"/>
</g>
<g style="mix-blend-mode:multiply">
<path d="M191.769 181.96C189.67 180.893 187.344 180.317 185.065 179.777C182.559 179.19 180.077 178.53 177.582 177.894C174.056 177.007 170.591 175.964 167.101 174.944C167.041 174.932 166.981 174.908 166.921 174.896C166.969 174.968 167.029 175.04 167.089 175.112C167.976 175.508 168.864 175.88 169.751 176.216C173.109 177.499 176.587 178.446 179.921 179.825C182.487 180.881 185.557 181.888 187.284 184.214C187.991 185.162 188.207 186.481 187.5 187.5C186.864 188.424 185.713 188.712 184.658 188.807C184.394 188.831 184.13 188.843 183.866 188.843C186.612 189.431 189.538 189.371 192.261 188.843C193.124 188.676 194.012 188.436 194.611 187.812C196.686 185.642 193.58 182.883 191.757 181.96H191.769Z" fill="#A3DAF7"/>
</g>
<g style="mix-blend-mode:multiply">
<path d="M33.0149 200.379C28.9375 203.521 24.7402 206.687 20.1831 209.109C17.8206 210.369 15.3142 211.424 12.6879 211.976C10.8051 212.371 8.7664 212.623 6.84762 212.311C5.28862 212.06 3.66966 211.328 3.02207 209.793C2.49441 208.51 2.72226 207.071 3.33387 205.848C2.95011 206.147 2.57835 206.471 2.21858 206.831C1.07931 207.97 0 209.481 0 211.16C0 212.851 1.19923 214.254 2.51839 215.178C5.04877 216.964 8.32268 217.084 11.2848 216.569C17.6407 215.453 23.481 211.976 28.3139 207.814C31.5518 205.02 34.5139 201.866 37.0563 198.424C38.1356 196.973 39.143 195.45 40.0544 193.867C38.0157 196.326 35.4973 198.448 33.0029 200.379H33.0149Z" fill="#A3DAF7"/>
</g>
<g style="mix-blend-mode:screen">
<path d="M16.0218 204.78C15.5302 204 14.3309 203.881 13.5035 203.809C12.1603 203.689 10.7812 203.941 9.48603 204.288C7.85507 204.732 5.73242 205.44 5.08484 207.178C4.91695 207.646 4.94093 208.162 5.1448 208.606C5.25273 209.385 5.96028 209.889 6.78775 210.081C7.69917 210.296 8.62258 210.225 9.54599 210.081C11.5247 209.757 13.6833 209.037 15.1824 207.646C15.9259 206.963 16.6574 205.763 16.0338 204.78H16.0218Z" fill="#A3DAF7"/>
</g>
<g style="mix-blend-mode:screen">
<path d="M21.4066 202.994C21.4066 202.994 21.4066 202.994 21.4066 202.982C21.3707 202.898 21.3587 202.838 21.3107 202.778C21.2028 202.634 21.1548 202.622 21.0229 202.55C20.9149 202.49 20.795 202.454 20.6631 202.454C20.6151 202.454 20.5672 202.454 20.5192 202.466C20.4952 202.466 20.4233 202.466 20.3753 202.478C20.3753 202.478 20.3633 202.478 20.3513 202.478C20.2434 202.502 20.1354 202.55 20.0275 202.574C19.8716 202.634 19.7397 202.718 19.6318 202.838C19.5118 202.934 19.4039 203.042 19.332 203.174C19.296 203.258 19.248 203.342 19.212 203.426C19.1641 203.545 19.1521 203.665 19.1761 203.797C19.1761 203.881 19.188 203.953 19.236 204.025C19.272 204.145 19.3439 204.229 19.4519 204.301C19.5238 204.337 19.5958 204.373 19.6677 204.397C19.7637 204.421 19.8476 204.433 19.9436 204.433C19.9436 204.433 19.9675 204.433 19.9795 204.433C20.0875 204.433 20.1954 204.433 20.2913 204.397H20.3153C20.4113 204.385 20.5072 204.349 20.5912 204.301L20.867 204.145L21.1068 203.941C21.1788 203.869 21.2387 203.797 21.2867 203.713C21.2867 203.713 21.4066 203.474 21.4066 203.462L21.4546 203.222L21.4306 202.982L21.4066 202.994Z" fill="#A3DAF7"/>
<path d="M21.3945 202.969C21.3945 202.969 21.3225 202.801 21.3105 202.777C21.3345 202.837 21.3705 202.909 21.3945 202.969Z" fill="#A3DAF7"/>
</g>
<g style="mix-blend-mode:screen">
<path d="M26.3589 289.986C25.9511 289.53 25.2316 289.59 24.7639 289.962C23.9124 290.645 23.3248 291.581 22.9051 292.576C22.7012 292.9 22.5213 293.248 22.3654 293.571C21.8857 294.591 21.442 295.886 21.7298 297.013C21.8138 297.349 22.1376 297.517 22.4613 297.517C23.8285 297.517 24.8718 296.318 25.5434 295.238C26.191 294.183 26.7186 292.924 26.7906 291.677C26.8266 291.113 26.7546 290.429 26.3589 289.998V289.986Z" fill="#A3DAF7"/>
</g>
<g style="mix-blend-mode:screen">
<path d="M27.1991 287.107C26.6715 287.107 26.1798 288.043 26.8873 288.043C27.415 288.043 27.9067 287.107 27.1991 287.107Z" fill="#A3DAF7"/>
</g>
<g style="mix-blend-mode:screen">
<path d="M67.2771 251.491C66.7854 250.711 65.6941 251.023 65.0945 251.467C64.5789 251.85 64.1591 252.378 63.8353 252.918C63.4516 253.553 63.1638 254.237 63.0318 254.968C63.0079 255.1 62.9959 255.244 62.9959 255.376C62.8879 255.724 62.804 256.084 62.792 256.431C62.792 256.827 62.8639 257.235 63.1278 257.535C63.5835 258.038 64.2551 258.086 64.8547 257.823C65.8261 257.403 66.3177 256.384 66.6775 255.448C66.8934 254.884 67.0733 254.297 67.2172 253.709C67.3851 253.05 67.6609 252.09 67.2651 251.455L67.2771 251.491Z" fill="#A3DAF7"/>
</g>
<g style="mix-blend-mode:screen">
<path d="M186.217 229.941C185.858 229.329 185.474 228.717 185.006 228.178C184.526 227.614 183.987 227.086 183.447 226.595C182.871 226.067 182.152 225.408 181.336 225.384C180.629 225.36 179.909 225.899 179.717 226.571C179.574 227.062 179.645 227.626 179.801 228.106C180.137 229.161 180.833 230.145 181.564 230.948C182.176 231.62 182.919 232.303 183.783 232.687C184.131 232.939 184.502 233.167 184.898 233.346C185.33 233.538 185.798 233.598 186.241 233.406C186.733 233.203 187.129 232.699 187.105 232.159C187.081 231.368 186.613 230.588 186.217 229.929V229.941Z" fill="#A3DAF7"/>
</g>
<g style="mix-blend-mode:screen">
<path d="M185.834 184.706C185.546 184.142 185.018 183.699 184.526 183.339C183.903 182.883 183.207 182.524 182.488 182.212C181.013 181.564 179.082 181 177.739 182.2C177.523 182.392 177.307 182.835 177.427 183.123C177.763 183.963 178.458 184.658 179.13 185.27C179.394 185.57 179.681 185.845 179.993 186.073C180.137 186.181 180.293 186.277 180.449 186.385C181.073 186.865 181.756 187.284 182.488 187.548C183.039 187.752 183.639 187.8 184.203 187.62C184.323 187.584 184.43 187.524 184.538 187.464C185.666 187.069 186.457 185.917 185.834 184.706Z" fill="#A3DAF7"/>
</g>
</g>
</g>
</svg>
