<svg width="213" height="324" viewBox="0 0 213 324" fill="none" xmlns="http://www.w3.org/2000/svg">
<path d="M166.451 230.761C165.873 229.543 165.194 228.35 164.514 227.183C155.907 212.226 147.608 197.578 141.092 181.557C139.168 176.811 137.282 172.052 135.435 167.268C139.694 173.143 145.312 179.749 151.918 183.096C154.278 184.302 157.087 184.867 159.614 184.058C173.441 179.684 154.111 153.556 150.443 147.835C139.578 130.942 134.871 108.79 132.062 89.2032C127.88 60.0219 128.868 30.443 126.79 1.09494C126.533 -2.47095 126.072 -5.79312 124.417 -8.99986C120.594 -16.3882 111.205 -16.8371 104.817 -12.6299C104.676 -12.5401 104.548 -12.4375 104.407 -12.3349C104.112 4.76345 103.227 21.8618 101.88 38.9088C100.033 62.1255 97.3905 85.2782 94.0939 108.328C91.2977 127.915 86.8339 147.361 79.7021 165.857C72.6345 184.2 62.9117 201.554 50.0078 216.434C47.3654 219.499 44.6204 222.36 41.6574 225.092C39.0664 227.49 35.3337 230.633 35.0644 234.43C34.9233 236.367 35.8212 237.688 37.1552 238.496C44.2613 235.738 50.7261 230.967 56.1903 225.861C60.513 221.821 64.4381 217.344 68.0553 212.598C67.0804 215.51 66.2723 218.46 65.7592 221.513C65.3873 223.745 65.3873 226.451 67.5678 227.747C70.595 229.53 74.8407 227.272 77.4702 225.707C82.2803 222.86 85.7693 218.281 88.5399 213.483C88.5655 215.01 88.6168 216.549 88.6938 218.075C89.053 224.579 89.7584 231.428 92.4008 237.444C95.2227 243.883 101.687 250.733 109.114 245.961C111.218 244.614 112.821 242.601 114.181 240.497C120.761 230.3 122.044 217.883 124.314 206.236C124.879 203.363 125.315 200.477 125.674 197.565C127.572 202.837 129.753 208.006 132.254 213.047C136.744 222.09 141.631 233.301 149.16 240.279C152.392 243.28 156.907 245.256 161.23 244.358C168.477 242.857 169.093 236.264 166.464 230.71L166.451 230.761Z" fill="#A3DAF7"/>
<g style="mix-blend-mode:multiply">
<path d="M102.509 34.2654C104.612 30.8534 107.78 27.6595 111.898 27.0054C116.336 26.3127 120.748 28.6857 123.66 31.9181C125.764 34.2654 127.265 36.9462 128.445 39.8066C128.021 26.8899 127.701 13.9732 126.777 1.09494C126.521 -2.47095 126.059 -5.79312 124.404 -8.99986C120.582 -16.3882 111.192 -16.8371 104.805 -12.6299C104.663 -12.5401 104.535 -12.4375 104.394 -12.3349C104.125 3.41662 103.329 19.1553 102.149 34.8683C102.265 34.663 102.38 34.4578 102.496 34.2526L102.509 34.2654Z" fill="#A3DAF7"/>
</g>
<g style="mix-blend-mode:screen">
<path d="M36.3984 232.545C39.0407 230.057 41.5805 227.44 44.0817 224.81C50.6363 217.91 56.4597 210.342 61.9625 202.581C67.3626 194.962 72.3908 187.176 76.5595 178.8C80.7026 170.488 84.0505 161.843 87.1931 153.108C93.7989 134.688 97.3135 115.563 99.6608 96.1819C102.085 76.236 104.112 56.2131 105.651 36.1774C106.947 19.4126 107.806 2.60933 107.947 -14.2068C106.857 -13.7963 105.805 -13.2704 104.817 -12.6291C104.676 -12.5393 104.548 -12.4367 104.407 -12.3341C104.112 4.76426 103.227 21.8626 101.88 38.9096C100.033 62.1263 97.3905 85.279 94.094 108.329C91.2977 127.916 86.8339 147.361 79.7021 165.858C72.6345 184.2 62.9117 201.555 50.0078 216.434C47.3654 219.5 44.6204 222.36 41.6574 225.093C39.246 227.324 35.8468 230.211 35.167 233.661C35.5903 233.289 36.0007 232.904 36.3984 232.532V232.545Z" fill="#A3DAF7"/>
<path d="M110.999 120.63C110.884 122.888 110.794 125.158 110.755 127.416C110.64 133.791 110.807 140.191 111.64 146.515C112.372 152.018 113.616 157.61 116.104 162.626C117.207 159.804 117.682 156.764 117.784 153.749C118.015 146.874 116.566 139.999 114.821 133.393C113.68 129.109 112.333 124.876 111.012 120.643L110.999 120.63Z" fill="#A3DAF7"/>
<path d="M98.1595 176.787C97.9928 174.093 97.7234 171.399 97.4156 168.706C97.1719 166.602 96.9025 164.511 96.646 162.42C96.3638 164.306 96.0944 166.204 95.8379 168.103C95.0811 173.849 94.3371 179.634 93.9267 185.419C93.6829 188.754 93.234 192.076 92.9261 195.411C92.5798 199.311 92.3361 203.274 92.6824 207.186C92.9133 209.867 93.4264 213.048 95.312 215.113C97.3771 212.42 98.1211 208.764 98.5315 205.48C99.4422 198.285 98.8265 190.986 98.4161 183.764C98.2878 181.443 98.3006 179.108 98.1595 176.787Z" fill="#A3DAF7"/>
</g>
<g style="mix-blend-mode:multiply">
<path d="M166.451 230.762C165.873 229.544 165.194 228.351 164.514 227.184C155.907 212.228 147.608 197.579 141.092 181.558C139.168 176.812 137.282 172.054 135.435 167.269C139.694 173.144 145.312 179.75 151.918 183.098C154.278 184.303 157.087 184.868 159.614 184.06C173.428 179.686 154.111 153.557 150.443 147.836C139.578 130.943 134.871 108.791 132.062 89.2044C127.88 60.0231 128.868 30.4442 126.79 1.09612C126.533 -2.46977 126.071 -5.79195 124.417 -8.99868C123.301 -11.1408 121.71 -12.6928 119.863 -13.719C120.056 -9.06282 120.184 -4.39381 120.261 0.262368C120.492 14.7696 120.286 29.2897 120.53 43.797C120.774 58.4197 121.774 72.9783 123.198 87.524C123.942 95.0791 124.814 102.621 125.892 110.151C126.854 116.898 127.803 123.568 130.061 130.033C134.101 141.615 140.797 153.147 140.502 165.756C140.489 166.358 139.796 166.602 139.36 166.23C136.974 164.139 135.025 161.587 133.331 158.919C130.035 153.711 127.598 147.939 125.571 142.115C125.622 142.423 125.674 142.718 125.725 143.026C126.482 147.759 127.008 152.531 127.931 157.238C128.688 161.087 129.496 164.922 130.125 168.796C130.779 172.798 131.305 176.864 131.189 180.917C131.112 184.008 130.689 187.369 128.893 189.986C128.714 190.255 128.278 190.447 127.983 190.229C124.609 187.702 122.352 184.034 120.633 180.237C117.785 173.965 116.246 167.231 114.732 160.535C114.437 166.397 114.04 172.246 113.501 178.095C112.783 185.881 111.872 193.68 110.461 201.376C109.371 207.34 108.05 213.395 105.625 218.975C104.317 221.989 102.188 226.093 98.5576 226.645C93.6449 227.389 91.0667 221.925 90.0662 218.051C89.2068 214.729 88.8989 211.278 88.745 207.854C88.5654 203.723 88.6808 199.58 88.9117 195.437C89.0143 193.577 89.1554 191.73 89.3094 189.883C87.4238 195.514 85.7691 201.273 83.409 206.725C82.2417 209.444 80.8821 212.228 78.9067 214.459C77.4444 216.114 75.4948 217.294 73.2244 216.73C68.4015 215.524 69.9535 208.097 70.6975 204.737C71.1849 202.543 71.8391 200.414 72.5446 198.297C69.3378 203.903 65.6821 209.252 61.6032 214.254C58.9993 217.448 56.203 220.501 53.1759 223.297C50.6618 225.619 47.981 227.838 45.0308 229.582C43.7353 230.339 41.8882 231.455 40.3105 231.045C39.1432 230.75 38.7712 229.582 38.8225 228.492C38.8354 228.223 38.8867 227.966 38.9251 227.697C37.0139 229.634 35.2566 231.891 35.0771 234.457C34.936 236.393 35.8339 237.715 37.1679 238.523C44.274 235.765 50.7388 230.993 56.203 225.901C60.5257 221.861 64.4508 217.371 68.068 212.625C67.0931 215.537 66.285 218.487 65.7719 221.54C65.3999 223.772 65.3999 226.478 67.5805 227.774C70.6077 229.557 74.8534 227.299 77.4829 225.734C82.293 222.887 85.782 218.307 88.5526 213.51C88.5782 215.037 88.6295 216.576 88.7065 218.102C89.0656 224.606 89.7711 231.455 92.4135 237.471C95.2354 243.91 101.7 250.76 109.127 245.988C111.231 244.641 112.834 242.627 114.194 240.524C120.774 230.326 122.057 217.91 124.327 206.263C124.891 203.39 125.327 200.504 125.687 197.592C127.585 202.864 129.766 208.033 132.267 213.074C136.756 222.117 141.643 233.328 149.173 240.306C152.405 243.307 156.92 245.283 161.243 244.385C168.49 242.884 169.106 236.291 166.476 230.737L166.451 230.762Z" fill="#A3DAF7"/>
</g>
<g style="mix-blend-mode:multiply">
<path d="M166.45 230.762C165.873 229.543 165.193 228.35 164.514 227.183C155.907 212.227 147.608 197.578 141.092 181.558C139.168 176.812 137.282 172.053 135.435 167.268C139.693 173.143 145.312 179.749 151.918 183.097C154.278 184.303 157.087 184.867 159.614 184.059C166.848 181.776 165.001 173.515 161.063 165.344C161.114 166.486 161.14 167.615 161.076 168.743C160.858 172.964 159.473 177.556 155.329 179.467C153.059 180.519 150.571 180.711 148.236 179.787C145.568 178.736 143.349 176.722 141.451 174.618C138.719 171.565 136.512 168.128 134.434 164.6C136.076 170.449 137.628 176.311 139.283 182.148C140.963 188.022 142.733 193.884 144.542 199.72C145.953 204.261 147.338 208.789 149.031 213.227C150.545 217.191 152.174 221.295 152.533 225.567C152.687 227.337 152.495 229.03 151.789 230.672C151.34 231.737 150.648 232.852 149.493 233.237C147.249 233.981 145.106 231.544 143.862 230.018C141.887 227.593 140.296 224.874 138.796 222.142C136.82 218.563 134.768 215.023 132.959 211.355C129.239 203.825 126.315 195.975 123.416 188.099C123.083 193.576 122.185 199.028 120.876 204.338C119.158 211.355 116.746 218.204 113.732 224.772C111.436 229.787 108.96 235.251 104.188 238.407C100.956 240.549 96.813 241.113 93.4267 238.984C93.2215 238.855 93.0547 238.702 92.8623 238.56C95.9023 244.64 102.046 250.49 109.05 245.987C111.154 244.64 112.757 242.627 114.117 240.523C120.697 230.326 121.979 217.909 124.25 206.262C124.814 203.389 125.25 200.503 125.609 197.591C127.508 202.863 129.688 208.032 132.19 213.073C136.679 222.116 141.566 233.327 149.096 240.305C152.328 243.306 156.843 245.282 161.166 244.384C168.413 242.883 169.029 236.29 166.399 230.736L166.45 230.762Z" fill="#A3DAF7"/>
</g>
<path d="M24.918 323.552C26.4315 323.86 27.8425 323.219 28.9328 322.192C31.7162 319.589 33.1144 315.535 34.2816 312.008C35.7824 307.441 37.0009 302.772 38.2323 298.129C39.2841 294.204 40.259 290.253 41.1184 286.29C39.5535 288.278 38.0014 290.279 36.4879 292.306C32.3704 297.847 28.3684 303.568 25.2001 309.712C23.9303 312.175 22.7245 314.766 22.1473 317.485C21.801 319.14 21.6471 321.205 22.763 322.423C23.3274 323.039 24.0714 323.372 24.918 323.539V323.552Z" fill="#A3DAF7"/>
<path d="M69.864 282.57C71.5315 282.403 72.5192 280.774 73.122 279.389C74.6741 275.887 74.8922 271.923 75.4052 268.178C75.9183 264.484 76.3801 260.777 76.3544 257.031C76.3416 255.261 76.162 253.491 76.0081 251.721C72.5063 257.108 69.9281 263.073 68.1452 269.243C67.6706 270.897 67.2601 272.565 66.9651 274.258C66.6444 276.105 66.4007 278.132 66.7984 279.992C67.1447 281.582 68.1067 282.724 69.8512 282.557L69.864 282.57Z" fill="#A3DAF7"/>
<path d="M176.571 219.256C179.432 228.081 183.844 236.624 189.745 243.769C191.899 246.372 194.401 248.758 197.12 250.746C199.891 252.773 203.29 254.787 206.843 254.71C209.767 254.646 213.333 252.35 213.436 249.143C213.526 246.154 210.832 243.602 208.741 241.819C206.42 239.831 203.829 238.215 201.289 236.547C199.198 235.175 197.159 233.738 195.029 232.404C192.695 230.942 190.322 229.518 188.013 228.017C184.344 225.618 180.753 223.066 177.495 220.129C177.187 219.846 176.879 219.551 176.571 219.256Z" fill="#A3DAF7"/>
<path d="M205.188 194.732C202.943 193.59 200.455 192.975 198.018 192.397C195.337 191.769 192.682 191.063 190.014 190.383C186.242 189.434 182.535 188.318 178.803 187.228C178.739 187.215 178.674 187.19 178.61 187.177C179.175 188.011 179.842 188.793 180.47 189.537C181.676 190.948 182.895 192.333 184.113 193.744C186.807 196.861 190.103 199.67 193.939 201.274C194.169 201.376 194.426 201.453 194.67 201.53C198.171 202.736 202.109 202.8 205.727 202.107C206.65 201.928 207.599 201.671 208.241 201.004C210.46 198.683 207.137 195.732 205.188 194.745V194.732Z" fill="#A3DAF7"/>
<path d="M0.0849609 225.953C0.0849609 227.761 1.36765 229.262 2.77862 230.25C5.4851 232.161 8.98686 232.289 12.1551 231.738C18.9534 230.545 25.2001 226.825 30.3694 222.374C33.8326 219.385 37.0009 216.012 39.7202 212.33C40.9003 210.74 42.0034 209.06 43.0039 207.328C42.555 207.546 42.1188 207.751 41.6827 207.944C37.5011 209.855 33.2041 211.497 28.8173 212.856C26.3802 213.613 23.9174 214.28 21.429 214.857C19.0432 215.409 16.6317 215.781 14.2202 216.23C9.96171 217.025 5.6262 218.154 2.45794 221.309C1.23939 222.528 0.0849609 224.144 0.0849609 225.94L0.0849609 225.953Z" fill="#A3DAF7"/>
<g style="mix-blend-mode:multiply">
<path d="M36.2186 298.039C34.9616 300.387 33.743 302.76 32.6014 305.184C31.5368 307.454 30.4593 309.776 29.6897 312.162C28.9329 314.509 28.3301 317.036 26.9576 319.127C26.4317 319.922 25.6492 320.846 24.5846 320.717C23.3917 320.576 22.5836 319.178 22.2886 318.139C22.2244 317.921 22.1731 317.703 22.1346 317.485V317.498C21.7883 319.152 21.6344 321.218 22.7503 322.436C23.3147 323.052 24.0587 323.385 24.9053 323.552C26.4188 323.86 27.8298 323.219 28.9201 322.192C31.7035 319.589 33.1017 315.535 34.2689 312.008C35.7697 307.441 36.9882 302.772 38.2196 298.129C38.8353 295.82 39.4125 293.511 39.9641 291.19C38.6942 293.46 37.4372 295.73 36.2058 298.039H36.2186Z" fill="#A3DAF7"/>
</g>
<g style="mix-blend-mode:multiply">
<path d="M74.1097 270.833C73.4683 272.347 72.8013 273.899 71.9291 275.297C71.3904 276.169 70.7234 277.067 69.8383 277.619C68.5941 278.375 67.4012 277.85 66.6701 276.798C66.5931 277.888 66.5931 278.965 66.824 280.017C67.1703 281.608 68.1323 282.749 69.8768 282.583C71.5443 282.416 72.532 280.787 73.1348 279.402C74.6869 275.9 74.9049 271.936 75.418 268.191C75.4822 267.742 75.5335 267.293 75.5976 266.844C75.1487 268.191 74.6741 269.525 74.1097 270.846V270.833Z" fill="#A3DAF7"/>
</g>
<g style="mix-blend-mode:multiply">
<path d="M208.754 241.832C206.432 239.844 203.841 238.228 201.301 236.56C199.211 235.188 197.171 233.751 195.042 232.417C192.707 230.955 190.334 229.531 188.026 228.03C184.857 225.965 181.753 223.759 178.867 221.296C180.74 224.131 182.844 226.825 185.088 229.416C186.807 231.417 188.539 233.43 190.463 235.239C192.31 236.971 194.26 238.574 196.132 240.254C198.018 241.96 199.826 243.756 201.327 245.808C202.43 247.309 203.495 249.131 203.572 251.042C203.623 252.196 203.11 253.235 202.097 253.684C203.623 254.338 205.227 254.749 206.856 254.71C209.78 254.646 213.346 252.35 213.449 249.143C213.538 246.155 210.845 243.602 208.754 241.819V241.832Z" fill="#A3DAF7"/>
</g>
<g style="mix-blend-mode:multiply">
<path d="M205.188 194.732C202.943 193.59 200.455 192.975 198.018 192.397C195.337 191.769 192.682 191.063 190.014 190.383C186.242 189.434 182.535 188.318 178.803 187.228C178.739 187.215 178.674 187.19 178.61 187.177C178.662 187.254 178.726 187.331 178.79 187.408C179.739 187.831 180.688 188.229 181.638 188.588C185.229 189.96 188.949 190.974 192.515 192.449C195.26 193.577 198.543 194.655 200.391 197.143C201.147 198.157 201.378 199.568 200.621 200.658C199.942 201.646 198.71 201.953 197.581 202.056C197.299 202.082 197.017 202.094 196.735 202.094C199.672 202.723 202.802 202.659 205.714 202.094C206.637 201.915 207.586 201.658 208.228 200.991C210.447 198.67 207.125 195.719 205.175 194.732H205.188Z" fill="#A3DAF7"/>
</g>
<g style="mix-blend-mode:multiply">
<path d="M35.3848 214.433C31.0237 217.793 26.5342 221.18 21.66 223.771C19.1331 225.118 16.4523 226.246 13.6432 226.836C11.6293 227.26 9.44876 227.529 7.39645 227.196C5.72895 226.926 3.99731 226.144 3.30465 224.502C2.74027 223.129 2.98398 221.59 3.63815 220.282C3.22769 220.603 2.83006 220.949 2.44525 221.334C1.22669 222.552 0.0722656 224.168 0.0722656 225.964C0.0722656 227.773 1.35496 229.274 2.76592 230.261C5.47241 232.172 8.97416 232.301 12.1424 231.749C18.9407 230.556 25.1874 226.836 30.3567 222.385C33.8199 219.397 36.9882 216.023 39.7075 212.342C40.8619 210.79 41.9394 209.161 42.9142 207.468C40.7337 210.097 38.04 212.368 35.372 214.433H35.3848Z" fill="#A3DAF7"/>
</g>
<g style="mix-blend-mode:screen">
<path d="M17.2087 219.14C16.6828 218.306 15.4001 218.178 14.5151 218.101C13.0784 217.973 11.6033 218.242 10.218 218.614C8.47357 219.089 6.2032 219.845 5.51055 221.705C5.33097 222.206 5.35662 222.757 5.57468 223.232C5.69012 224.066 6.44691 224.604 7.33197 224.809C8.30682 225.04 9.29449 224.963 10.2822 224.809C12.3986 224.463 14.7075 223.694 16.3108 222.206C17.1061 221.474 17.8885 220.192 17.2215 219.14H17.2087Z" fill="#A3DAF7"/>
</g>
<g style="mix-blend-mode:screen">
<path d="M22.968 217.23C22.968 217.23 22.968 217.23 22.968 217.217C22.9295 217.127 22.9167 217.063 22.8654 216.999C22.7499 216.845 22.6986 216.832 22.5575 216.755C22.4421 216.691 22.3138 216.652 22.1727 216.652C22.1214 216.652 22.0701 216.652 22.0188 216.665C21.9931 216.665 21.9162 216.665 21.8649 216.678C21.8649 216.678 21.852 216.678 21.8392 216.678C21.7238 216.704 21.6083 216.755 21.4929 216.781C21.3261 216.845 21.185 216.935 21.0696 217.063C20.9413 217.165 20.8259 217.281 20.7489 217.422C20.7104 217.512 20.6591 217.602 20.6206 217.691C20.5693 217.82 20.5565 217.948 20.5822 218.089C20.5822 218.179 20.595 218.256 20.6463 218.333C20.6848 218.461 20.7617 218.551 20.8772 218.628C20.9541 218.666 21.0311 218.705 21.1081 218.73C21.2107 218.756 21.3005 218.769 21.4031 218.769C21.4031 218.769 21.4287 218.769 21.4416 218.769C21.557 218.769 21.6725 218.769 21.7751 218.73H21.8007C21.9033 218.717 22.006 218.679 22.0957 218.628L22.3908 218.461L22.6473 218.243C22.7243 218.166 22.7884 218.089 22.8397 217.999C22.8397 217.999 22.968 217.743 22.968 217.73L23.0193 217.473L22.9936 217.217L22.968 217.23Z" fill="#A3DAF7"/>
<path d="M22.955 217.203C22.955 217.203 22.8781 217.024 22.8652 216.998C22.8909 217.062 22.9294 217.139 22.955 217.203Z" fill="#A3DAF7"/>
</g>
<g style="mix-blend-mode:screen">
<path d="M28.2665 310.276C27.8303 309.788 27.0607 309.852 26.5605 310.25C25.6498 310.981 25.0212 311.982 24.5723 313.046C24.3542 313.392 24.1618 313.764 23.9951 314.111C23.482 315.201 23.0074 316.586 23.3153 317.792C23.4051 318.151 23.7514 318.331 24.0977 318.331C25.56 318.331 26.6759 317.048 27.3942 315.894C28.0869 314.765 28.6513 313.418 28.7282 312.084C28.7667 311.481 28.6897 310.75 28.2665 310.288V310.276Z" fill="#A3DAF7"/>
</g>
<g style="mix-blend-mode:screen">
<path d="M29.1643 307.197C28.5999 307.197 28.074 308.198 28.8308 308.198C29.3952 308.198 29.9211 307.197 29.1643 307.197Z" fill="#A3DAF7"/>
</g>
<g style="mix-blend-mode:screen">
<path d="M72.0317 269.101C71.5057 268.268 70.3385 268.601 69.6971 269.076C69.1456 269.486 68.6966 270.051 68.3503 270.628C67.9399 271.308 67.632 272.039 67.4909 272.821C67.4653 272.962 67.4524 273.116 67.4524 273.257C67.337 273.629 67.2472 274.014 67.2344 274.386C67.2344 274.809 67.3113 275.245 67.5935 275.566C68.081 276.105 68.7993 276.156 69.4406 275.874C70.4796 275.425 71.0055 274.335 71.3903 273.334C71.6212 272.731 71.8136 272.103 71.9675 271.474C72.1471 270.769 72.4421 269.743 72.0188 269.063L72.0317 269.101Z" fill="#A3DAF7"/>
</g>
<g style="mix-blend-mode:screen">
<path d="M199.249 246.052C198.864 245.398 198.454 244.743 197.954 244.166C197.441 243.563 196.863 242.999 196.286 242.473C195.671 241.909 194.901 241.203 194.029 241.178C193.272 241.152 192.502 241.729 192.297 242.447C192.143 242.973 192.22 243.576 192.387 244.089C192.746 245.218 193.49 246.27 194.272 247.129C194.927 247.848 195.722 248.579 196.645 248.989C197.017 249.259 197.415 249.502 197.838 249.695C198.3 249.9 198.8 249.964 199.275 249.759C199.801 249.541 200.224 249.002 200.198 248.425C200.173 247.578 199.673 246.744 199.249 246.039V246.052Z" fill="#A3DAF7"/>
</g>
<g style="mix-blend-mode:screen">
<path d="M198.838 197.669C198.53 197.066 197.966 196.592 197.44 196.207C196.773 195.719 196.029 195.334 195.259 195.001C193.682 194.308 191.616 193.705 190.18 194.988C189.949 195.193 189.718 195.668 189.846 195.976C190.205 196.874 190.949 197.618 191.668 198.272C191.95 198.593 192.258 198.888 192.591 199.131C192.745 199.247 192.912 199.349 193.079 199.465C193.746 199.978 194.477 200.427 195.259 200.709C195.849 200.927 196.491 200.978 197.094 200.786C197.222 200.747 197.337 200.683 197.453 200.619C198.658 200.196 199.505 198.964 198.838 197.669Z" fill="#A3DAF7"/>
</g>
</svg>
