<svg width="227" height="219" viewBox="0 0 227 219" fill="none" xmlns="http://www.w3.org/2000/svg">
<g clip-path="url(#clip0_456_1821)">
<path d="M-1.44394 4.59794C-0.169259 4.59794 0.864074 3.56865 0.864074 2.29897C0.864074 1.02928 -0.169259 0 -1.44394 0C-2.71862 0 -3.75195 1.02928 -3.75195 2.29897C-3.75195 3.56865 -2.71862 4.59794 -1.44394 4.59794Z" fill="url(#paint0_linear_456_1821)"/>
<path d="M26.3627 4.59794C27.6374 4.59794 28.6707 3.56865 28.6707 2.29897C28.6707 1.02928 27.6374 0 26.3627 0C25.088 0 24.0547 1.02928 24.0547 2.29897C24.0547 3.56865 25.088 4.59794 26.3627 4.59794Z" fill="url(#paint1_linear_456_1821)"/>
<path d="M58.3338 2.29896C58.3338 2.75365 58.1984 3.19813 57.9448 3.57619C57.6912 3.95425 57.3308 4.24894 56.909 4.42294C56.4873 4.59695 56.0232 4.6425 55.5755 4.55379C55.1278 4.46509 54.7166 4.24613 54.3938 3.92462C54.071 3.6031 53.8512 3.19342 53.7621 2.74747C53.6731 2.30151 53.7188 1.83926 53.8935 1.41918C54.0681 0.999101 54.364 0.640094 54.7435 0.38748C55.1231 0.134866 55.5693 0 56.0258 0C56.6379 0 57.225 0.242217 57.6578 0.673357C58.0906 1.1045 58.3338 1.68923 58.3338 2.29896Z" fill="url(#paint2_linear_456_1821)"/>
<path d="M83.8324 4.59794C85.1071 4.59794 86.1404 3.56865 86.1404 2.29897C86.1404 1.02928 85.1071 0 83.8324 0C82.5577 0 81.5244 1.02928 81.5244 2.29897C81.5244 3.56865 82.5577 4.59794 83.8324 4.59794Z" fill="url(#paint3_linear_456_1821)"/>
<path d="M111.639 4.59794C112.914 4.59794 113.947 3.56865 113.947 2.29897C113.947 1.02928 112.914 0 111.639 0C110.364 0 109.331 1.02928 109.331 2.29897C109.331 3.56865 110.364 4.59794 111.639 4.59794Z" fill="url(#paint4_linear_456_1821)"/>
<path d="M139.446 4.59794C140.72 4.59794 141.754 3.56865 141.754 2.29897C141.754 1.02928 140.72 0 139.446 0C138.171 0 137.138 1.02928 137.138 2.29897C137.138 3.56865 138.171 4.59794 139.446 4.59794Z" fill="url(#paint5_linear_456_1821)"/>
<path d="M169.11 4.59794C170.384 4.59794 171.418 3.56865 171.418 2.29897C171.418 1.02928 170.384 0 169.11 0C167.835 0 166.802 1.02928 166.802 2.29897C166.802 3.56865 167.835 4.59794 169.11 4.59794Z" fill="url(#paint6_linear_456_1821)"/>
<path d="M196.916 4.59794C198.191 4.59794 199.224 3.56865 199.224 2.29897C199.224 1.02928 198.191 0 196.916 0C195.642 0 194.608 1.02928 194.608 2.29897C194.608 3.56865 195.642 4.59794 196.916 4.59794Z" fill="url(#paint7_linear_456_1821)"/>
<path d="M224.723 4.59794C225.998 4.59794 227.031 3.56865 227.031 2.29897C227.031 1.02928 225.998 0 224.723 0C223.448 0 222.415 1.02928 222.415 2.29897C222.415 3.56865 223.448 4.59794 224.723 4.59794Z" fill="url(#paint8_linear_456_1821)"/>
<path d="M-1.44394 35.9917C-0.169259 35.9917 0.864074 34.9625 0.864074 33.6928C0.864074 32.4231 -0.169259 31.3938 -1.44394 31.3938C-2.71862 31.3938 -3.75195 32.4231 -3.75195 33.6928C-3.75195 34.9625 -2.71862 35.9917 -1.44394 35.9917Z" fill="url(#paint9_linear_456_1821)"/>
<path d="M26.3627 35.9917C27.6374 35.9917 28.6707 34.9625 28.6707 33.6928C28.6707 32.4231 27.6374 31.3938 26.3627 31.3938C25.088 31.3938 24.0547 32.4231 24.0547 33.6928C24.0547 34.9625 25.088 35.9917 26.3627 35.9917Z" fill="url(#paint10_linear_456_1821)"/>
<path d="M58.3338 33.6928C58.3338 34.1475 58.1984 34.5919 57.9448 34.97C57.6912 35.3481 57.3308 35.6427 56.909 35.8167C56.4873 35.9907 56.0232 36.0363 55.5755 35.9476C55.1278 35.8589 54.7166 35.6399 54.3938 35.3184C54.071 34.9969 53.8512 34.5872 53.7621 34.1413C53.6731 33.6953 53.7188 33.2331 53.8935 32.813C54.0681 32.3929 54.364 32.0339 54.7435 31.7813C55.1231 31.5287 55.5693 31.3938 56.0258 31.3938C56.6379 31.3938 57.225 31.636 57.6578 32.0672C58.0906 32.4983 58.3338 33.083 58.3338 33.6928Z" fill="url(#paint11_linear_456_1821)"/>
<path d="M83.8324 35.9917C85.1071 35.9917 86.1404 34.9625 86.1404 33.6928C86.1404 32.4231 85.1071 31.3938 83.8324 31.3938C82.5577 31.3938 81.5244 32.4231 81.5244 33.6928C81.5244 34.9625 82.5577 35.9917 83.8324 35.9917Z" fill="url(#paint12_linear_456_1821)"/>
<path d="M111.64 35.9917C112.915 35.9917 113.948 34.9625 113.948 33.6928C113.948 32.4231 112.915 31.3938 111.64 31.3938C110.365 31.3938 109.332 32.4231 109.332 33.6928C109.332 34.9625 110.365 35.9917 111.64 35.9917Z" fill="url(#paint13_linear_456_1821)"/>
<path d="M139.446 35.9917C140.72 35.9917 141.754 34.9625 141.754 33.6928C141.754 32.4231 140.72 31.3938 139.446 31.3938C138.171 31.3938 137.138 32.4231 137.138 33.6928C137.138 34.9625 138.171 35.9917 139.446 35.9917Z" fill="url(#paint14_linear_456_1821)"/>
<path d="M169.109 35.9917C170.383 35.9917 171.417 34.9625 171.417 33.6928C171.417 32.4231 170.383 31.3938 169.109 31.3938C167.834 31.3938 166.801 32.4231 166.801 33.6928C166.801 34.9625 167.834 35.9917 169.109 35.9917Z" fill="url(#paint15_linear_456_1821)"/>
<path d="M196.916 35.9917C198.191 35.9917 199.224 34.9625 199.224 33.6928C199.224 32.4231 198.191 31.3938 196.916 31.3938C195.642 31.3938 194.608 32.4231 194.608 33.6928C194.608 34.9625 195.642 35.9917 196.916 35.9917Z" fill="url(#paint16_linear_456_1821)"/>
<path d="M224.724 35.9917C225.999 35.9917 227.032 34.9625 227.032 33.6928C227.032 32.4231 225.999 31.3938 224.724 31.3938C223.449 31.3938 222.416 32.4231 222.416 33.6928C222.416 34.9625 223.449 35.9917 224.724 35.9917Z" fill="url(#paint17_linear_456_1821)"/>
<path d="M-1.44394 67.3772C-0.169259 67.3772 0.864074 66.3479 0.864074 65.0783C0.864074 63.8086 -0.169259 62.7793 -1.44394 62.7793C-2.71862 62.7793 -3.75195 63.8086 -3.75195 65.0783C-3.75195 66.3479 -2.71862 67.3772 -1.44394 67.3772Z" fill="url(#paint18_linear_456_1821)"/>
<path d="M26.3627 67.3772C27.6374 67.3772 28.6707 66.3479 28.6707 65.0783C28.6707 63.8086 27.6374 62.7793 26.3627 62.7793C25.088 62.7793 24.0547 63.8086 24.0547 65.0783C24.0547 66.3479 25.088 67.3772 26.3627 67.3772Z" fill="url(#paint19_linear_456_1821)"/>
<path d="M58.3338 65.0783C58.3338 65.5329 58.1984 65.9774 57.9448 66.3555C57.6912 66.7335 57.3308 67.0282 56.909 67.2022C56.4873 67.3762 56.0232 67.4218 55.5755 67.3331C55.1278 67.2444 54.7166 67.0254 54.3938 66.7039C54.071 66.3824 53.8512 65.9727 53.7621 65.5268C53.6731 65.0808 53.7188 64.6186 53.8935 64.1985C54.0681 63.7784 54.364 63.4194 54.7435 63.1668C55.1231 62.9142 55.5693 62.7793 56.0258 62.7793C56.6379 62.7793 57.225 63.0215 57.6578 63.4527C58.0906 63.8838 58.3338 64.4685 58.3338 65.0783Z" fill="url(#paint20_linear_456_1821)"/>
<path d="M83.8324 67.3772C85.1071 67.3772 86.1404 66.3479 86.1404 65.0783C86.1404 63.8086 85.1071 62.7793 83.8324 62.7793C82.5577 62.7793 81.5244 63.8086 81.5244 65.0783C81.5244 66.3479 82.5577 67.3772 83.8324 67.3772Z" fill="url(#paint21_linear_456_1821)"/>
<path d="M111.64 67.3772C112.915 67.3772 113.948 66.3479 113.948 65.0783C113.948 63.8086 112.915 62.7793 111.64 62.7793C110.365 62.7793 109.332 63.8086 109.332 65.0783C109.332 66.3479 110.365 67.3772 111.64 67.3772Z" fill="url(#paint22_linear_456_1821)"/>
<path d="M139.446 67.3772C140.72 67.3772 141.754 66.3479 141.754 65.0783C141.754 63.8086 140.72 62.7793 139.446 62.7793C138.171 62.7793 137.138 63.8086 137.138 65.0783C137.138 66.3479 138.171 67.3772 139.446 67.3772Z" fill="url(#paint23_linear_456_1821)"/>
<path d="M169.109 67.3772C170.383 67.3772 171.417 66.3479 171.417 65.0783C171.417 63.8086 170.383 62.7793 169.109 62.7793C167.834 62.7793 166.801 63.8086 166.801 65.0783C166.801 66.3479 167.834 67.3772 169.109 67.3772Z" fill="url(#paint24_linear_456_1821)"/>
<path d="M196.916 67.3772C198.191 67.3772 199.224 66.3479 199.224 65.0783C199.224 63.8086 198.191 62.7793 196.916 62.7793C195.642 62.7793 194.608 63.8086 194.608 65.0783C194.608 66.3479 195.642 67.3772 196.916 67.3772Z" fill="url(#paint25_linear_456_1821)"/>
<path d="M224.724 67.3772C225.999 67.3772 227.032 66.3479 227.032 65.0783C227.032 63.8086 225.999 62.7793 224.724 62.7793C223.449 62.7793 222.416 63.8086 222.416 65.0783C222.416 66.3479 223.449 67.3772 224.724 67.3772Z" fill="url(#paint26_linear_456_1821)"/>
<path d="M-1.44394 98.771C-0.169259 98.771 0.864074 97.7417 0.864074 96.4721C0.864074 95.2024 -0.169259 94.1731 -1.44394 94.1731C-2.71862 94.1731 -3.75195 95.2024 -3.75195 96.4721C-3.75195 97.7417 -2.71862 98.771 -1.44394 98.771Z" fill="url(#paint27_linear_456_1821)"/>
<path d="M26.3627 98.771C27.6374 98.771 28.6707 97.7417 28.6707 96.4721C28.6707 95.2024 27.6374 94.1731 26.3627 94.1731C25.088 94.1731 24.0547 95.2024 24.0547 96.4721C24.0547 97.7417 25.088 98.771 26.3627 98.771Z" fill="url(#paint28_linear_456_1821)"/>
<path d="M58.3338 96.4721C58.3338 96.9267 58.1984 97.3712 57.9448 97.7493C57.6912 98.1273 57.3308 98.422 56.909 98.596C56.4873 98.77 56.0232 98.8156 55.5755 98.7269C55.1278 98.6382 54.7166 98.4192 54.3938 98.0977C54.071 97.7762 53.8512 97.3665 53.7621 96.9206C53.6731 96.4746 53.7188 96.0124 53.8935 95.5923C54.0681 95.1722 54.364 94.8132 54.7435 94.5606C55.1231 94.308 55.5693 94.1731 56.0258 94.1731C56.6379 94.1731 57.225 94.4153 57.6578 94.8465C58.0906 95.2776 58.3338 95.8623 58.3338 96.4721Z" fill="url(#paint29_linear_456_1821)"/>
<path d="M83.8324 98.771C85.1071 98.771 86.1404 97.7417 86.1404 96.4721C86.1404 95.2024 85.1071 94.1731 83.8324 94.1731C82.5577 94.1731 81.5244 95.2024 81.5244 96.4721C81.5244 97.7417 82.5577 98.771 83.8324 98.771Z" fill="url(#paint30_linear_456_1821)"/>
<path d="M111.639 98.771C112.914 98.771 113.947 97.7417 113.947 96.4721C113.947 95.2024 112.914 94.1731 111.639 94.1731C110.364 94.1731 109.331 95.2024 109.331 96.4721C109.331 97.7417 110.364 98.771 111.639 98.771Z" fill="url(#paint31_linear_456_1821)"/>
<path d="M139.446 98.771C140.72 98.771 141.754 97.7417 141.754 96.4721C141.754 95.2024 140.72 94.1731 139.446 94.1731C138.171 94.1731 137.138 95.2024 137.138 96.4721C137.138 97.7417 138.171 98.771 139.446 98.771Z" fill="url(#paint32_linear_456_1821)"/>
<path d="M169.11 98.771C170.384 98.771 171.418 97.7417 171.418 96.4721C171.418 95.2024 170.384 94.1731 169.11 94.1731C167.835 94.1731 166.802 95.2024 166.802 96.4721C166.802 97.7417 167.835 98.771 169.11 98.771Z" fill="url(#paint33_linear_456_1821)"/>
<path d="M196.916 98.771C198.191 98.771 199.224 97.7417 199.224 96.4721C199.224 95.2024 198.191 94.1731 196.916 94.1731C195.642 94.1731 194.608 95.2024 194.608 96.4721C194.608 97.7417 195.642 98.771 196.916 98.771Z" fill="url(#paint34_linear_456_1821)"/>
<path d="M224.723 98.771C225.998 98.771 227.031 97.7417 227.031 96.4721C227.031 95.2024 225.998 94.1731 224.723 94.1731C223.448 94.1731 222.415 95.2024 222.415 96.4721C222.415 97.7417 223.448 98.771 224.723 98.771Z" fill="url(#paint35_linear_456_1821)"/>
<path d="M-1.44394 130.165C-0.169259 130.165 0.864074 129.136 0.864074 127.866C0.864074 126.596 -0.169259 125.567 -1.44394 125.567C-2.71862 125.567 -3.75195 126.596 -3.75195 127.866C-3.75195 129.136 -2.71862 130.165 -1.44394 130.165Z" fill="url(#paint36_linear_456_1821)"/>
<path d="M26.3627 130.165C27.6374 130.165 28.6707 129.136 28.6707 127.866C28.6707 126.596 27.6374 125.567 26.3627 125.567C25.088 125.567 24.0547 126.596 24.0547 127.866C24.0547 129.136 25.088 130.165 26.3627 130.165Z" fill="url(#paint37_linear_456_1821)"/>
<path d="M58.3338 127.866C58.3338 128.321 58.1984 128.765 57.9448 129.143C57.6912 129.521 57.3308 129.816 56.909 129.99C56.4873 130.164 56.0232 130.209 55.5755 130.121C55.1278 130.032 54.7166 129.813 54.3938 129.492C54.071 129.17 53.8512 128.76 53.7621 128.314C53.6731 127.868 53.7188 127.406 53.8935 126.986C54.0681 126.566 54.364 126.207 54.7435 125.954C55.1231 125.702 55.5693 125.567 56.0258 125.567C56.6379 125.567 57.225 125.809 57.6578 126.24C58.0906 126.671 58.3338 127.256 58.3338 127.866Z" fill="url(#paint38_linear_456_1821)"/>
<path d="M83.8324 130.165C85.1071 130.165 86.1404 129.136 86.1404 127.866C86.1404 126.596 85.1071 125.567 83.8324 125.567C82.5577 125.567 81.5244 126.596 81.5244 127.866C81.5244 129.136 82.5577 130.165 83.8324 130.165Z" fill="url(#paint39_linear_456_1821)"/>
<path d="M111.64 130.165C112.915 130.165 113.948 129.136 113.948 127.866C113.948 126.596 112.915 125.567 111.64 125.567C110.365 125.567 109.332 126.596 109.332 127.866C109.332 129.136 110.365 130.165 111.64 130.165Z" fill="url(#paint40_linear_456_1821)"/>
<path d="M139.446 130.165C140.72 130.165 141.754 129.136 141.754 127.866C141.754 126.596 140.72 125.567 139.446 125.567C138.171 125.567 137.138 126.596 137.138 127.866C137.138 129.136 138.171 130.165 139.446 130.165Z" fill="url(#paint41_linear_456_1821)"/>
<path d="M169.109 130.165C170.383 130.165 171.417 129.136 171.417 127.866C171.417 126.596 170.383 125.567 169.109 125.567C167.834 125.567 166.801 126.596 166.801 127.866C166.801 129.136 167.834 130.165 169.109 130.165Z" fill="url(#paint42_linear_456_1821)"/>
<path d="M196.916 130.165C198.191 130.165 199.224 129.136 199.224 127.866C199.224 126.596 198.191 125.567 196.916 125.567C195.642 125.567 194.608 126.596 194.608 127.866C194.608 129.136 195.642 130.165 196.916 130.165Z" fill="url(#paint43_linear_456_1821)"/>
<path d="M224.724 130.165C225.999 130.165 227.032 129.136 227.032 127.866C227.032 126.596 225.999 125.567 224.724 125.567C223.449 125.567 222.416 126.596 222.416 127.866C222.416 129.136 223.449 130.165 224.724 130.165Z" fill="url(#paint44_linear_456_1821)"/>
<path d="M-1.44394 161.55C-0.169259 161.55 0.864074 160.521 0.864074 159.251C0.864074 157.982 -0.169259 156.952 -1.44394 156.952C-2.71862 156.952 -3.75195 157.982 -3.75195 159.251C-3.75195 160.521 -2.71862 161.55 -1.44394 161.55Z" fill="url(#paint45_linear_456_1821)"/>
<path d="M26.3627 161.55C27.6374 161.55 28.6707 160.521 28.6707 159.251C28.6707 157.982 27.6374 156.952 26.3627 156.952C25.088 156.952 24.0547 157.982 24.0547 159.251C24.0547 160.521 25.088 161.55 26.3627 161.55Z" fill="url(#paint46_linear_456_1821)"/>
<path d="M58.3338 159.251C58.3338 159.706 58.1984 160.151 57.9448 160.529C57.6912 160.907 57.3308 161.201 56.909 161.375C56.4873 161.549 56.0232 161.595 55.5755 161.506C55.1278 161.417 54.7166 161.199 54.3938 160.877C54.071 160.555 53.8512 160.146 53.7621 159.7C53.6731 159.254 53.7188 158.792 53.8935 158.372C54.0681 157.951 54.364 157.592 54.7435 157.34C55.1231 157.087 55.5693 156.952 56.0258 156.952C56.6379 156.952 57.225 157.195 57.6578 157.626C58.0906 158.057 58.3338 158.642 58.3338 159.251Z" fill="url(#paint47_linear_456_1821)"/>
<path d="M83.8324 161.55C85.1071 161.55 86.1404 160.521 86.1404 159.251C86.1404 157.982 85.1071 156.952 83.8324 156.952C82.5577 156.952 81.5244 157.982 81.5244 159.251C81.5244 160.521 82.5577 161.55 83.8324 161.55Z" fill="url(#paint48_linear_456_1821)"/>
<path d="M111.64 161.55C112.915 161.55 113.948 160.521 113.948 159.251C113.948 157.982 112.915 156.952 111.64 156.952C110.365 156.952 109.332 157.982 109.332 159.251C109.332 160.521 110.365 161.55 111.64 161.55Z" fill="url(#paint49_linear_456_1821)"/>
<path d="M139.446 161.55C140.72 161.55 141.754 160.521 141.754 159.251C141.754 157.982 140.72 156.952 139.446 156.952C138.171 156.952 137.138 157.982 137.138 159.251C137.138 160.521 138.171 161.55 139.446 161.55Z" fill="url(#paint50_linear_456_1821)"/>
<path d="M169.109 161.55C170.383 161.55 171.417 160.521 171.417 159.251C171.417 157.982 170.383 156.952 169.109 156.952C167.834 156.952 166.801 157.982 166.801 159.251C166.801 160.521 167.834 161.55 169.109 161.55Z" fill="url(#paint51_linear_456_1821)"/>
<path d="M196.916 161.55C198.191 161.55 199.224 160.521 199.224 159.251C199.224 157.982 198.191 156.952 196.916 156.952C195.642 156.952 194.608 157.982 194.608 159.251C194.608 160.521 195.642 161.55 196.916 161.55Z" fill="url(#paint52_linear_456_1821)"/>
<path d="M224.724 161.55C225.999 161.55 227.032 160.521 227.032 159.251C227.032 157.982 225.999 156.952 224.724 156.952C223.449 156.952 222.416 157.982 222.416 159.251C222.416 160.521 223.449 161.55 224.724 161.55Z" fill="url(#paint53_linear_456_1821)"/>
<path d="M-1.44394 192.949C-0.169259 192.949 0.864074 191.919 0.864074 190.65C0.864074 189.38 -0.169259 188.351 -1.44394 188.351C-2.71862 188.351 -3.75195 189.38 -3.75195 190.65C-3.75195 191.919 -2.71862 192.949 -1.44394 192.949Z" fill="url(#paint54_linear_456_1821)"/>
<path d="M26.3627 192.949C27.6374 192.949 28.6707 191.919 28.6707 190.65C28.6707 189.38 27.6374 188.351 26.3627 188.351C25.088 188.351 24.0547 189.38 24.0547 190.65C24.0547 191.919 25.088 192.949 26.3627 192.949Z" fill="url(#paint55_linear_456_1821)"/>
<path d="M58.3338 190.65C58.3338 191.104 58.1984 191.549 57.9448 191.927C57.6912 192.305 57.3308 192.6 56.909 192.774C56.4873 192.948 56.0232 192.993 55.5755 192.904C55.1278 192.816 54.7166 192.597 54.3938 192.275C54.071 191.954 53.8512 191.544 53.7621 191.098C53.6731 190.652 53.7188 190.19 53.8935 189.77C54.0681 189.35 54.364 188.991 54.7435 188.738C55.1231 188.485 55.5693 188.351 56.0258 188.351C56.6379 188.351 57.225 188.593 57.6578 189.024C58.0906 189.455 58.3338 190.04 58.3338 190.65Z" fill="url(#paint56_linear_456_1821)"/>
<path d="M83.8324 192.949C85.1071 192.949 86.1404 191.919 86.1404 190.65C86.1404 189.38 85.1071 188.351 83.8324 188.351C82.5577 188.351 81.5244 189.38 81.5244 190.65C81.5244 191.919 82.5577 192.949 83.8324 192.949Z" fill="url(#paint57_linear_456_1821)"/>
<path d="M111.639 192.949C112.914 192.949 113.947 191.919 113.947 190.65C113.947 189.38 112.914 188.351 111.639 188.351C110.364 188.351 109.331 189.38 109.331 190.65C109.331 191.919 110.364 192.949 111.639 192.949Z" fill="url(#paint58_linear_456_1821)"/>
<path d="M139.446 192.949C140.72 192.949 141.754 191.919 141.754 190.65C141.754 189.38 140.72 188.351 139.446 188.351C138.171 188.351 137.138 189.38 137.138 190.65C137.138 191.919 138.171 192.949 139.446 192.949Z" fill="url(#paint59_linear_456_1821)"/>
<path d="M169.11 192.949C170.384 192.949 171.418 191.919 171.418 190.65C171.418 189.38 170.384 188.351 169.11 188.351C167.835 188.351 166.802 189.38 166.802 190.65C166.802 191.919 167.835 192.949 169.11 192.949Z" fill="url(#paint60_linear_456_1821)"/>
<path d="M196.916 192.949C198.191 192.949 199.224 191.919 199.224 190.65C199.224 189.38 198.191 188.351 196.916 188.351C195.642 188.351 194.608 189.38 194.608 190.65C194.608 191.919 195.642 192.949 196.916 192.949Z" fill="url(#paint61_linear_456_1821)"/>
<path d="M224.723 192.949C225.998 192.949 227.031 191.919 227.031 190.65C227.031 189.38 225.998 188.351 224.723 188.351C223.448 188.351 222.415 189.38 222.415 190.65C222.415 191.919 223.448 192.949 224.723 192.949Z" fill="url(#paint62_linear_456_1821)"/>
</g>
<defs>
<linearGradient id="paint0_linear_456_1821" x1="-3.75195" y1="4.59794" x2="0.864074" y2="4.59794" gradientUnits="userSpaceOnUse">
<stop stop-color="#0D57D7"/>
<stop offset="1" stop-color="#4D8EFF"/>
</linearGradient>
<linearGradient id="paint1_linear_456_1821" x1="24.0547" y1="4.59794" x2="28.6707" y2="4.59794" gradientUnits="userSpaceOnUse">
<stop stop-color="#0D57D7"/>
<stop offset="1" stop-color="#4D8EFF"/>
</linearGradient>
<linearGradient id="paint2_linear_456_1821" x1="53.7178" y1="4.59796" x2="58.3338" y2="4.59796" gradientUnits="userSpaceOnUse">
<stop stop-color="#0D57D7"/>
<stop offset="1" stop-color="#4D8EFF"/>
</linearGradient>
<linearGradient id="paint3_linear_456_1821" x1="81.5244" y1="4.59794" x2="86.1404" y2="4.59794" gradientUnits="userSpaceOnUse">
<stop stop-color="#0D57D7"/>
<stop offset="1" stop-color="#4D8EFF"/>
</linearGradient>
<linearGradient id="paint4_linear_456_1821" x1="109.331" y1="4.59794" x2="113.947" y2="4.59794" gradientUnits="userSpaceOnUse">
<stop stop-color="#0D57D7"/>
<stop offset="1" stop-color="#4D8EFF"/>
</linearGradient>
<linearGradient id="paint5_linear_456_1821" x1="137.138" y1="4.59794" x2="141.754" y2="4.59794" gradientUnits="userSpaceOnUse">
<stop stop-color="#0D57D7"/>
<stop offset="1" stop-color="#4D8EFF"/>
</linearGradient>
<linearGradient id="paint6_linear_456_1821" x1="166.802" y1="4.59794" x2="171.418" y2="4.59794" gradientUnits="userSpaceOnUse">
<stop stop-color="#0D57D7"/>
<stop offset="1" stop-color="#4D8EFF"/>
</linearGradient>
<linearGradient id="paint7_linear_456_1821" x1="194.608" y1="4.59794" x2="199.224" y2="4.59794" gradientUnits="userSpaceOnUse">
<stop stop-color="#0D57D7"/>
<stop offset="1" stop-color="#4D8EFF"/>
</linearGradient>
<linearGradient id="paint8_linear_456_1821" x1="222.415" y1="4.59794" x2="227.031" y2="4.59794" gradientUnits="userSpaceOnUse">
<stop stop-color="#0D57D7"/>
<stop offset="1" stop-color="#4D8EFF"/>
</linearGradient>
<linearGradient id="paint9_linear_456_1821" x1="-3.75195" y1="35.9917" x2="0.864074" y2="35.9917" gradientUnits="userSpaceOnUse">
<stop stop-color="#0D57D7"/>
<stop offset="1" stop-color="#4D8EFF"/>
</linearGradient>
<linearGradient id="paint10_linear_456_1821" x1="24.0547" y1="35.9917" x2="28.6707" y2="35.9917" gradientUnits="userSpaceOnUse">
<stop stop-color="#0D57D7"/>
<stop offset="1" stop-color="#4D8EFF"/>
</linearGradient>
<linearGradient id="paint11_linear_456_1821" x1="53.7178" y1="35.9918" x2="58.3338" y2="35.9918" gradientUnits="userSpaceOnUse">
<stop stop-color="#0D57D7"/>
<stop offset="1" stop-color="#4D8EFF"/>
</linearGradient>
<linearGradient id="paint12_linear_456_1821" x1="81.5244" y1="35.9917" x2="86.1404" y2="35.9917" gradientUnits="userSpaceOnUse">
<stop stop-color="#0D57D7"/>
<stop offset="1" stop-color="#4D8EFF"/>
</linearGradient>
<linearGradient id="paint13_linear_456_1821" x1="109.332" y1="35.9917" x2="113.948" y2="35.9917" gradientUnits="userSpaceOnUse">
<stop stop-color="#0D57D7"/>
<stop offset="1" stop-color="#4D8EFF"/>
</linearGradient>
<linearGradient id="paint14_linear_456_1821" x1="137.138" y1="35.9917" x2="141.754" y2="35.9917" gradientUnits="userSpaceOnUse">
<stop stop-color="#0D57D7"/>
<stop offset="1" stop-color="#4D8EFF"/>
</linearGradient>
<linearGradient id="paint15_linear_456_1821" x1="166.801" y1="35.9917" x2="171.417" y2="35.9917" gradientUnits="userSpaceOnUse">
<stop stop-color="#0D57D7"/>
<stop offset="1" stop-color="#4D8EFF"/>
</linearGradient>
<linearGradient id="paint16_linear_456_1821" x1="194.608" y1="35.9917" x2="199.224" y2="35.9917" gradientUnits="userSpaceOnUse">
<stop stop-color="#0D57D7"/>
<stop offset="1" stop-color="#4D8EFF"/>
</linearGradient>
<linearGradient id="paint17_linear_456_1821" x1="222.416" y1="35.9917" x2="227.032" y2="35.9917" gradientUnits="userSpaceOnUse">
<stop stop-color="#0D57D7"/>
<stop offset="1" stop-color="#4D8EFF"/>
</linearGradient>
<linearGradient id="paint18_linear_456_1821" x1="-3.75195" y1="67.3772" x2="0.864074" y2="67.3772" gradientUnits="userSpaceOnUse">
<stop stop-color="#0D57D7"/>
<stop offset="1" stop-color="#4D8EFF"/>
</linearGradient>
<linearGradient id="paint19_linear_456_1821" x1="24.0547" y1="67.3772" x2="28.6707" y2="67.3772" gradientUnits="userSpaceOnUse">
<stop stop-color="#0D57D7"/>
<stop offset="1" stop-color="#4D8EFF"/>
</linearGradient>
<linearGradient id="paint20_linear_456_1821" x1="53.7178" y1="67.3773" x2="58.3338" y2="67.3773" gradientUnits="userSpaceOnUse">
<stop stop-color="#0D57D7"/>
<stop offset="1" stop-color="#4D8EFF"/>
</linearGradient>
<linearGradient id="paint21_linear_456_1821" x1="81.5244" y1="67.3772" x2="86.1404" y2="67.3772" gradientUnits="userSpaceOnUse">
<stop stop-color="#0D57D7"/>
<stop offset="1" stop-color="#4D8EFF"/>
</linearGradient>
<linearGradient id="paint22_linear_456_1821" x1="109.332" y1="67.3772" x2="113.948" y2="67.3772" gradientUnits="userSpaceOnUse">
<stop stop-color="#0D57D7"/>
<stop offset="1" stop-color="#4D8EFF"/>
</linearGradient>
<linearGradient id="paint23_linear_456_1821" x1="137.138" y1="67.3772" x2="141.754" y2="67.3772" gradientUnits="userSpaceOnUse">
<stop stop-color="#0D57D7"/>
<stop offset="1" stop-color="#4D8EFF"/>
</linearGradient>
<linearGradient id="paint24_linear_456_1821" x1="166.801" y1="67.3772" x2="171.417" y2="67.3772" gradientUnits="userSpaceOnUse">
<stop stop-color="#0D57D7"/>
<stop offset="1" stop-color="#4D8EFF"/>
</linearGradient>
<linearGradient id="paint25_linear_456_1821" x1="194.608" y1="67.3772" x2="199.224" y2="67.3772" gradientUnits="userSpaceOnUse">
<stop stop-color="#0D57D7"/>
<stop offset="1" stop-color="#4D8EFF"/>
</linearGradient>
<linearGradient id="paint26_linear_456_1821" x1="222.416" y1="67.3772" x2="227.032" y2="67.3772" gradientUnits="userSpaceOnUse">
<stop stop-color="#0D57D7"/>
<stop offset="1" stop-color="#4D8EFF"/>
</linearGradient>
<linearGradient id="paint27_linear_456_1821" x1="-3.75195" y1="98.771" x2="0.864074" y2="98.771" gradientUnits="userSpaceOnUse">
<stop stop-color="#0D57D7"/>
<stop offset="1" stop-color="#4D8EFF"/>
</linearGradient>
<linearGradient id="paint28_linear_456_1821" x1="24.0547" y1="98.771" x2="28.6707" y2="98.771" gradientUnits="userSpaceOnUse">
<stop stop-color="#0D57D7"/>
<stop offset="1" stop-color="#4D8EFF"/>
</linearGradient>
<linearGradient id="paint29_linear_456_1821" x1="53.7178" y1="98.7711" x2="58.3338" y2="98.7711" gradientUnits="userSpaceOnUse">
<stop stop-color="#0D57D7"/>
<stop offset="1" stop-color="#4D8EFF"/>
</linearGradient>
<linearGradient id="paint30_linear_456_1821" x1="81.5244" y1="98.771" x2="86.1404" y2="98.771" gradientUnits="userSpaceOnUse">
<stop stop-color="#0D57D7"/>
<stop offset="1" stop-color="#4D8EFF"/>
</linearGradient>
<linearGradient id="paint31_linear_456_1821" x1="109.331" y1="98.771" x2="113.947" y2="98.771" gradientUnits="userSpaceOnUse">
<stop stop-color="#0D57D7"/>
<stop offset="1" stop-color="#4D8EFF"/>
</linearGradient>
<linearGradient id="paint32_linear_456_1821" x1="137.138" y1="98.771" x2="141.754" y2="98.771" gradientUnits="userSpaceOnUse">
<stop stop-color="#0D57D7"/>
<stop offset="1" stop-color="#4D8EFF"/>
</linearGradient>
<linearGradient id="paint33_linear_456_1821" x1="166.802" y1="98.771" x2="171.418" y2="98.771" gradientUnits="userSpaceOnUse">
<stop stop-color="#0D57D7"/>
<stop offset="1" stop-color="#4D8EFF"/>
</linearGradient>
<linearGradient id="paint34_linear_456_1821" x1="194.608" y1="98.771" x2="199.224" y2="98.771" gradientUnits="userSpaceOnUse">
<stop stop-color="#0D57D7"/>
<stop offset="1" stop-color="#4D8EFF"/>
</linearGradient>
<linearGradient id="paint35_linear_456_1821" x1="222.415" y1="98.771" x2="227.031" y2="98.771" gradientUnits="userSpaceOnUse">
<stop stop-color="#0D57D7"/>
<stop offset="1" stop-color="#4D8EFF"/>
</linearGradient>
<linearGradient id="paint36_linear_456_1821" x1="-3.75195" y1="130.165" x2="0.864074" y2="130.165" gradientUnits="userSpaceOnUse">
<stop stop-color="#0D57D7"/>
<stop offset="1" stop-color="#4D8EFF"/>
</linearGradient>
<linearGradient id="paint37_linear_456_1821" x1="24.0547" y1="130.165" x2="28.6707" y2="130.165" gradientUnits="userSpaceOnUse">
<stop stop-color="#0D57D7"/>
<stop offset="1" stop-color="#4D8EFF"/>
</linearGradient>
<linearGradient id="paint38_linear_456_1821" x1="53.7178" y1="130.165" x2="58.3338" y2="130.165" gradientUnits="userSpaceOnUse">
<stop stop-color="#0D57D7"/>
<stop offset="1" stop-color="#4D8EFF"/>
</linearGradient>
<linearGradient id="paint39_linear_456_1821" x1="81.5244" y1="130.165" x2="86.1404" y2="130.165" gradientUnits="userSpaceOnUse">
<stop stop-color="#0D57D7"/>
<stop offset="1" stop-color="#4D8EFF"/>
</linearGradient>
<linearGradient id="paint40_linear_456_1821" x1="109.332" y1="130.165" x2="113.948" y2="130.165" gradientUnits="userSpaceOnUse">
<stop stop-color="#0D57D7"/>
<stop offset="1" stop-color="#4D8EFF"/>
</linearGradient>
<linearGradient id="paint41_linear_456_1821" x1="137.138" y1="130.165" x2="141.754" y2="130.165" gradientUnits="userSpaceOnUse">
<stop stop-color="#0D57D7"/>
<stop offset="1" stop-color="#4D8EFF"/>
</linearGradient>
<linearGradient id="paint42_linear_456_1821" x1="166.801" y1="130.165" x2="171.417" y2="130.165" gradientUnits="userSpaceOnUse">
<stop stop-color="#0D57D7"/>
<stop offset="1" stop-color="#4D8EFF"/>
</linearGradient>
<linearGradient id="paint43_linear_456_1821" x1="194.608" y1="130.165" x2="199.224" y2="130.165" gradientUnits="userSpaceOnUse">
<stop stop-color="#0D57D7"/>
<stop offset="1" stop-color="#4D8EFF"/>
</linearGradient>
<linearGradient id="paint44_linear_456_1821" x1="222.416" y1="130.165" x2="227.032" y2="130.165" gradientUnits="userSpaceOnUse">
<stop stop-color="#0D57D7"/>
<stop offset="1" stop-color="#4D8EFF"/>
</linearGradient>
<linearGradient id="paint45_linear_456_1821" x1="-3.75195" y1="161.55" x2="0.864074" y2="161.55" gradientUnits="userSpaceOnUse">
<stop stop-color="#0D57D7"/>
<stop offset="1" stop-color="#4D8EFF"/>
</linearGradient>
<linearGradient id="paint46_linear_456_1821" x1="24.0547" y1="161.55" x2="28.6707" y2="161.55" gradientUnits="userSpaceOnUse">
<stop stop-color="#0D57D7"/>
<stop offset="1" stop-color="#4D8EFF"/>
</linearGradient>
<linearGradient id="paint47_linear_456_1821" x1="53.7178" y1="161.55" x2="58.3338" y2="161.55" gradientUnits="userSpaceOnUse">
<stop stop-color="#0D57D7"/>
<stop offset="1" stop-color="#4D8EFF"/>
</linearGradient>
<linearGradient id="paint48_linear_456_1821" x1="81.5244" y1="161.55" x2="86.1404" y2="161.55" gradientUnits="userSpaceOnUse">
<stop stop-color="#0D57D7"/>
<stop offset="1" stop-color="#4D8EFF"/>
</linearGradient>
<linearGradient id="paint49_linear_456_1821" x1="109.332" y1="161.55" x2="113.948" y2="161.55" gradientUnits="userSpaceOnUse">
<stop stop-color="#0D57D7"/>
<stop offset="1" stop-color="#4D8EFF"/>
</linearGradient>
<linearGradient id="paint50_linear_456_1821" x1="137.138" y1="161.55" x2="141.754" y2="161.55" gradientUnits="userSpaceOnUse">
<stop stop-color="#0D57D7"/>
<stop offset="1" stop-color="#4D8EFF"/>
</linearGradient>
<linearGradient id="paint51_linear_456_1821" x1="166.801" y1="161.55" x2="171.417" y2="161.55" gradientUnits="userSpaceOnUse">
<stop stop-color="#0D57D7"/>
<stop offset="1" stop-color="#4D8EFF"/>
</linearGradient>
<linearGradient id="paint52_linear_456_1821" x1="194.608" y1="161.55" x2="199.224" y2="161.55" gradientUnits="userSpaceOnUse">
<stop stop-color="#0D57D7"/>
<stop offset="1" stop-color="#4D8EFF"/>
</linearGradient>
<linearGradient id="paint53_linear_456_1821" x1="222.416" y1="161.55" x2="227.032" y2="161.55" gradientUnits="userSpaceOnUse">
<stop stop-color="#0D57D7"/>
<stop offset="1" stop-color="#4D8EFF"/>
</linearGradient>
<linearGradient id="paint54_linear_456_1821" x1="-3.75195" y1="192.949" x2="0.864074" y2="192.949" gradientUnits="userSpaceOnUse">
<stop stop-color="#0D57D7"/>
<stop offset="1" stop-color="#4D8EFF"/>
</linearGradient>
<linearGradient id="paint55_linear_456_1821" x1="24.0547" y1="192.949" x2="28.6707" y2="192.949" gradientUnits="userSpaceOnUse">
<stop stop-color="#0D57D7"/>
<stop offset="1" stop-color="#4D8EFF"/>
</linearGradient>
<linearGradient id="paint56_linear_456_1821" x1="53.7178" y1="192.949" x2="58.3338" y2="192.949" gradientUnits="userSpaceOnUse">
<stop stop-color="#0D57D7"/>
<stop offset="1" stop-color="#4D8EFF"/>
</linearGradient>
<linearGradient id="paint57_linear_456_1821" x1="81.5244" y1="192.949" x2="86.1404" y2="192.949" gradientUnits="userSpaceOnUse">
<stop stop-color="#0D57D7"/>
<stop offset="1" stop-color="#4D8EFF"/>
</linearGradient>
<linearGradient id="paint58_linear_456_1821" x1="109.331" y1="192.949" x2="113.947" y2="192.949" gradientUnits="userSpaceOnUse">
<stop stop-color="#0D57D7"/>
<stop offset="1" stop-color="#4D8EFF"/>
</linearGradient>
<linearGradient id="paint59_linear_456_1821" x1="137.138" y1="192.949" x2="141.754" y2="192.949" gradientUnits="userSpaceOnUse">
<stop stop-color="#0D57D7"/>
<stop offset="1" stop-color="#4D8EFF"/>
</linearGradient>
<linearGradient id="paint60_linear_456_1821" x1="166.802" y1="192.949" x2="171.418" y2="192.949" gradientUnits="userSpaceOnUse">
<stop stop-color="#0D57D7"/>
<stop offset="1" stop-color="#4D8EFF"/>
</linearGradient>
<linearGradient id="paint61_linear_456_1821" x1="194.608" y1="192.949" x2="199.224" y2="192.949" gradientUnits="userSpaceOnUse">
<stop stop-color="#0D57D7"/>
<stop offset="1" stop-color="#4D8EFF"/>
</linearGradient>
<linearGradient id="paint62_linear_456_1821" x1="222.415" y1="192.949" x2="227.031" y2="192.949" gradientUnits="userSpaceOnUse">
<stop stop-color="#0D57D7"/>
<stop offset="1" stop-color="#4D8EFF"/>
</linearGradient>
<clipPath id="clip0_456_1821">
<rect width="226.034" height="218.776" fill="white" transform="translate(0.207031)"/>
</clipPath>
</defs>
</svg>
