<svg width="1920" height="950" viewBox="0 0 1920 950" fill="none" xmlns="http://www.w3.org/2000/svg">
<path d="M3402.8 767.311C3373.94 986.932 3268.59 1131.93 3155.98 1159.7C3036.75 1189.12 2908.24 1110.23 2782.31 999.182C2647.86 880.599 2510.47 723.971 2351.81 608.893C2051.47 391.08 1673.59 330.465 1297.38 477.389C1070.05 566.173 849.112 726.012 592.391 845.562C315.092 974.642 -26.0151 1058.56 -401.334 947.35C-819.679 823.313 -1280.4 402.838 -1369.92 -101.725" stroke="white" stroke-width="0.5" stroke-miterlimit="10"/>
<path d="M3400.55 779.933C3369.44 998.621 3261.81 1139.14 3148.69 1162.88C3029.48 1187.87 2902.12 1107.32 2776.72 994.184C2642.81 873.376 2505.37 714.891 2346.14 600.099C2047.58 384.075 1672.51 325.314 1299.36 471.982C1072.95 561.41 853.146 721.745 597.617 841.767C321.627 971.275 -18.1026 1055.8 -392.022 945.245C-808.701 822.033 -1267.39 403.313 -1357.8 -99.5616" stroke="white" stroke-width="0.5" stroke-miterlimit="10"/>
<path d="M3398.25 792.584C3364.9 1010.34 3255.15 1146.32 3141.39 1166.02C3022.21 1186.63 2896 1104.35 2771.04 989.099C2637.69 866.125 2500.13 705.805 2340.37 591.16C2043.58 376.925 1671.26 320.04 1301.24 466.487C1075.76 556.561 857.085 717.391 602.668 837.851C328.009 967.844 -10.3079 1052.89 -382.885 943.018C-797.899 820.63 -1254.58 403.608 -1345.77 -97.4849" stroke="white" stroke-width="0.5" stroke-miterlimit="10"/>
<path d="M3396 805.2C3360.43 1022.08 3248.51 1153.54 3134.14 1169.11C3015.11 1185.3 2889.86 1101.37 2765.43 984.037C2632.62 858.839 2494.95 696.684 2334.66 582.244C2039.66 369.856 1669.73 313.917 1303.19 461.016C1078.43 551.211 861.037 713.084 607.812 834.016C334.462 964.437 -2.50046 1050.02 -373.655 940.873C-787.025 819.251 -1241.65 404.043 -1333.72 -95.3619" stroke="white" stroke-width="0.5" stroke-miterlimit="10"/>
<path d="M3393.71 817.853C3355.89 1033.8 3241.96 1160.81 3126.78 1172.27C3008.01 1184.13 2883.68 1098.43 2759.75 978.953C2627.5 851.588 2489.4 687.992 2328.9 573.364C2035.11 363.526 1668.44 308.389 1305.08 455.522C1081.17 546.188 864.977 708.731 612.886 830.159C340.81 961.088 5.25971 1047.2 -364.495 938.705C-776.2 817.908 -1228.82 404.397 -1321.73 -93.2033" stroke="white" stroke-width="0.5" stroke-miterlimit="10"/>
<path d="M3391.46 830.478C3351.4 1045.49 3235.58 1168.01 3119.54 1175.38C3001.01 1182.91 2877.54 1095.47 2754.15 973.9C2622.46 844.369 2484.21 679.019 2323.2 564.457C2031.13 356.628 1667.15 302.857 1307.03 450.06C1083.92 541.218 868.993 704.409 618.036 826.333C347.268 957.689 13.131 1044.32 -355.259 936.568C-765.298 816.596 -1215.89 404.84 -1309.68 -91.0717" stroke="white" stroke-width="0.5" stroke-miterlimit="10"/>
<path d="M3389.15 843.121C3346.84 1057.2 3229.15 1175.28 3112.17 1178.52C2993.98 1181.77 2871.35 1092.52 2748.4 968.83C2617.25 837.075 2478.85 669.971 2317.35 555.533C2026.93 349.678 1665.79 297.343 1308.9 444.558C1086.67 536.245 872.919 700.048 623.096 822.468C353.66 954.309 20.8769 1041.48 -346.113 934.392C-754.509 815.186 -1203.1 405.267 -1297.72 -88.9792" stroke="white" stroke-width="0.5" stroke-miterlimit="10"/>
<path d="M3386.89 855.688C3342.34 1068.84 3222.88 1182.58 3104.93 1181.63C2987.18 1180.67 2865.28 1089.53 2742.85 963.755C2612.27 829.833 2473.66 660.998 2311.73 546.662C2022.96 342.78 1664.61 291.904 1310.94 439.131C1089.57 531.288 877.02 695.762 628.331 818.677C360.146 950.969 28.8565 1038.7 -336.85 932.313C-743.58 813.932 -1190.17 405.71 -1285.62 -86.7317" stroke="white" stroke-width="0.5" stroke-miterlimit="10"/>
<path d="M3384.59 868.329C3337.79 1080.54 3216.57 1189.94 3097.57 1184.78C2980.28 1179.68 2859.04 1086.6 2737.12 958.682C2607.07 822.535 2468.31 651.946 2305.89 537.734C2018.82 335.803 1663.18 286.352 1312.74 433.59C1092.22 526.218 880.879 691.361 633.36 814.691C366.506 947.469 36.5478 1035.68 -327.736 930.017C-732.801 812.46 -1177.36 405.994 -1273.64 -84.7825" stroke="white" stroke-width="0.5" stroke-miterlimit="10"/>
<path d="M3382.34 880.954C3333.32 1092.29 3210.44 1197.3 3090.32 1187.88C2973.51 1178.7 2852.95 1083.61 2731.56 953.606C2602.08 815.293 2463.17 642.951 2300.24 528.805C2014.87 328.824 1662.02 280.832 1314.75 428.104C1095.11 521.261 884.945 687.017 638.56 810.842C373.015 944.047 44.4339 1032.86 -318.45 927.857C-721.872 811.067 -1164.4 406.357 -1261.52 -82.6151" stroke="white" stroke-width="0.5" stroke-miterlimit="10"/>
<path d="M3380.05 893.604C3328.78 1104.01 3204.24 1204.77 3082.97 1191.04C2966.75 1177.87 2846.72 1080.69 2725.85 948.601C2596.93 808.121 2457.79 633.99 2294.45 520.003C2010.73 321.996 1660.66 275.463 1316.63 422.748C1097.84 516.375 888.877 682.801 643.626 807.122C379.413 940.812 52.2438 1030.15 -309.299 925.827C-711.055 809.86 -1151.55 406.906 -1249.55 -80.3779" stroke="white" stroke-width="0.5" stroke-miterlimit="10"/>
<path d="M3377.8 906.225C3324.29 1115.7 3198.19 1212.31 3075.71 1194.14C2960.05 1177.06 2840.64 1077.69 2720.22 943.486C2591.84 800.782 2452.57 624.955 2288.72 511.034C2006.7 314.978 1659.36 269.927 1318.53 417.165C1100.56 511.344 892.782 678.382 648.724 803.176C385.761 937.316 60.005 1027.18 -300.115 923.57C-700.205 808.428 -1138.67 407.229 -1237.56 -78.3662" stroke="white" stroke-width="0.5" stroke-miterlimit="10"/>
<path d="M3375.5 918.874C3319.74 1127.41 3192.14 1219.84 3068.35 1197.29C2953.32 1176.34 2834.45 1074.75 2714.55 938.457C2586.74 793.586 2447.3 615.948 2282.98 502.209C2002.67 308.103 1658.14 264.57 1320.45 411.785C1103.34 506.434 896.762 674.142 653.838 799.432C392.207 934.058 67.8635 1024.44 -290.914 921.515C-689.362 807.14 -1125.8 407.697 -1225.52 -76.0944" stroke="white" stroke-width="0.5" stroke-miterlimit="10"/>
<path d="M3373.25 931.495C3315.24 1139.1 3186.13 1227.49 3061.1 1200.39C2946.66 1175.66 2828.31 1071.78 2708.92 933.341C2581.64 786.246 2442.08 606.912 2277.25 493.24C1998.64 301.084 1656.84 259.034 1322.44 406.237C1106.21 501.415 900.807 669.735 659.017 795.52C398.695 930.573 75.7059 1021.5 -281.649 919.293C-678.431 805.742 -1112.84 408.054 -1213.45 -74.0484" stroke="white" stroke-width="0.5" stroke-miterlimit="10"/>
<path d="M3370.95 944.139C3310.7 1150.81 3180.15 1235.2 3053.76 1203.6C2939.95 1175.13 2822.15 1068.89 2703.22 928.389C2576.51 779.127 2436.77 597.981 2271.46 484.433C1994.55 294.228 1655.5 253.718 1324.3 400.875C1108.95 496.581 904.729 665.514 664.05 791.737C405.001 927.298 83.4833 1018.72 -272.588 917.221C-667.704 804.494 -1100.1 408.505 -1201.55 -71.7936" stroke="white" stroke-width="0.5" stroke-miterlimit="10"/>
<path d="M3368.7 956.762C3306.15 1162.53 3174.11 1242.93 3046.43 1206.67C2933.28 1174.58 2815.93 1065.88 2697.57 923.217C2571.42 771.789 2431.53 588.889 2265.73 475.465C1990.58 287.188 1654.21 248.183 1326.22 395.294C1111.68 491.552 908.698 661.073 669.153 787.792C411.413 923.78 91.2724 1015.8 -263.399 914.965C-656.872 803.006 -1087.22 408.83 -1189.49 -69.8033" stroke="white" stroke-width="0.5" stroke-miterlimit="10"/>
<path d="M3366.41 969.417C3301.66 1174.22 3168.18 1250.77 3039.16 1209.86C2926.67 1174.16 2809.83 1062.98 2691.94 918.252C2566.32 764.599 2426.29 579.946 2260 466.646C1986.53 280.261 1652.93 242.855 1328.14 389.918C1114.46 486.647 912.683 656.839 674.331 784.03C417.922 920.504 99.1128 1013.01 -254.136 912.893C-645.943 801.758 -1074.34 409.302 -1177.41 -67.607" stroke="white" stroke-width="0.5" stroke-miterlimit="10"/>
<path d="M3364.14 981.973C3297.17 1185.91 3162.19 1258.61 3031.89 1212.9C2920.03 1173.66 2803.73 1059.92 2686.28 913.071C2561.23 757.253 2421.05 570.846 2254.25 457.612C1982.48 273.178 1651.63 237.311 1330.05 384.329C1117.25 481.586 916.651 652.39 679.432 780.077C424.333 916.978 106.959 1010.07 -244.926 910.688C-635.09 800.318 -1061.43 409.677 -1165.37 -65.4862" stroke="white" stroke-width="0.5" stroke-miterlimit="10"/>
<path d="M3361.84 994.62C3292.63 1197.62 3156.16 1266.54 3024.53 1216.05C2913.29 1173.41 2797.46 1056.94 2680.63 908.04C2556.11 749.997 2415.78 561.836 2248.51 448.784C1978.51 266.278 1650.41 231.952 1331.96 378.888C1119.97 476.696 920.613 648.089 684.528 776.272C430.702 913.682 114.718 1007.23 -235.744 908.572C-624.243 799.028 -1048.55 410.142 -1153.37 -63.333" stroke="white" stroke-width="0.5" stroke-miterlimit="10"/>
<path d="M3359.6 1007.25C3288.14 1209.31 3150.18 1274.59 3017.29 1219.16C2906.73 1173.1 2791.39 1053.95 2675 902.931C2551.05 742.721 2410.55 552.748 2242.79 439.821C1974.53 259.185 1649.14 226.48 1333.89 373.369C1122.79 471.706 924.549 643.734 689.657 772.39C437.14 910.227 122.591 1004.36 -226.529 906.379C-613.362 797.659 -1035.67 410.471 -1141.35 -61.2577" stroke="white" stroke-width="0.5" stroke-miterlimit="10"/>
<path d="M3357.29 1019.89C3283.59 1221.03 3144.14 1282.66 3009.94 1222.37C2899.94 1172.94 2785.16 1051.09 2669.3 897.981C2545.91 735.605 2405.25 543.879 2236.98 431.017C1970.43 252.332 1647.82 221.226 1335.81 367.987C1125.58 466.853 928.523 639.493 694.743 768.587C443.557 906.909 130.362 1001.58 -217.358 904.265C-602.548 796.311 -1022.8 410.937 -1129.34 -59.0454" stroke="white" stroke-width="0.5" stroke-miterlimit="10"/>
<path d="M3355.05 1032.52C3279.1 1232.72 3138.12 1290.79 3002.7 1225.47C2893.28 1172.73 2779.09 1048.09 2663.73 892.844C2540.88 728.243 2400.08 534.763 2231.34 422.084C1966.52 245.268 1646.63 215.783 1337.83 362.498C1128.44 461.974 932.6 635.145 699.954 764.734C450.018 903.506 138.236 998.701 -208.12 902.124C-591.644 794.995 -1009.89 411.318 -1117.23 -56.9404" stroke="white" stroke-width="0.5" stroke-miterlimit="10"/>
<path d="M3352.74 1045.16C3274.57 1244.49 3132.04 1298.94 2995.33 1228.62C2886.52 1172.62 2772.9 1045.15 2658.01 887.836C2535.72 721.069 2394.74 525.777 2225.52 413.222C1962.44 238.275 1645.29 210.47 1339.64 357.023C1131.14 457.027 936.472 630.81 704.959 760.895C456.355 900.153 145.986 995.869 -199.028 899.975C-580.887 793.67 -997.101 411.748 -1105.31 -54.7638" stroke="white" stroke-width="0.5" stroke-miterlimit="10"/>
<path d="M3350.5 1057.78C3270.09 1256.17 3125.99 1307.14 2988.09 1231.72C2879.77 1172.51 2766.77 1042.17 2652.38 882.717C2530.71 713.761 2389.59 516.715 2219.82 404.307C1958.5 231.288 1644.06 205.104 1341.6 351.552C1133.97 452.085 940.488 626.48 710.168 757.038C462.874 896.723 153.859 992.982 -189.733 897.807C-569.948 792.268 -984.109 412.16 -1093.2 -52.6635" stroke="white" stroke-width="0.5" stroke-miterlimit="10"/>
<path d="M3348.2 1070.43C3265.54 1267.89 3119.82 1315.4 2980.72 1234.87C2872.95 1172.43 2760.58 1039.23 2646.71 877.688C2525.59 706.507 2384.31 507.708 2214.05 395.424C1954.48 224.275 1642.78 199.771 1343.5 346.114C1136.71 447.256 944.444 622.183 715.258 753.236C469.295 893.407 161.693 990.187 -180.557 895.695C-559.107 790.981 -971.26 412.571 -1081.21 -50.5068" stroke="white" stroke-width="0.5" stroke-miterlimit="10"/>
<path d="M3345.96 1083.05C3261.05 1279.57 3113.67 1323.7 2973.48 1237.97C2866.22 1172.37 2754.51 1036.23 2641.09 872.571C2520.52 699.224 2379.08 498.613 2208.33 386.453C1950.49 217.174 1641.53 194.349 1345.43 340.587C1139.53 442.258 948.416 617.739 720.387 749.346C475.675 889.967 169.508 987.327 -171.342 893.494C-548.226 789.604 -958.408 412.973 -1069.16 -48.381" stroke="white" stroke-width="0.5" stroke-miterlimit="10"/>
<path d="M3343.65 1095.7C3256.5 1291.29 3107.49 1332.1 2966.12 1241.13C2859.31 1172.4 2748.26 1033.31 2635.37 867.564C2515.34 691.992 2373.81 489.605 2202.53 377.65C1946.49 210.218 1640.21 189.095 1347.27 335.171C1142.21 437.451 952.315 613.463 725.397 745.508C482.016 886.614 177.181 984.459 -162.247 891.344C-537.487 788.221 -945.639 413.345 -1057.25 -46.2623" stroke="white" stroke-width="0.5" stroke-miterlimit="10"/>
<path d="M3341.35 1108.35C3251.95 1303.01 3101.17 1340.48 2958.84 1244.32C2852.48 1172.46 2742.15 1030.4 2629.76 862.513C2510.3 684.775 2368.61 480.634 2196.83 368.745C1942.53 203.182 1639.01 183.798 1349.29 329.687C1145.11 432.497 956.33 609.143 730.605 741.661C488.532 883.194 185.133 981.618 -152.953 889.187C-526.528 786.888 -932.649 413.768 -1045.07 -44.1159" stroke="white" stroke-width="0.5" stroke-miterlimit="10"/>
<path d="M3339.08 1120.92C3247.44 1314.65 3094.9 1348.85 2951.51 1247.39C2845.55 1172.42 2735.94 1027.41 2624.08 857.431C2505.17 677.527 2363.32 471.573 2191.04 359.809C1938.54 196.093 1637.7 178.411 1351.16 324.196C1147.82 427.615 960.262 604.792 735.671 737.805C494.872 879.847 192.862 978.734 -143.859 887.044C-515.769 785.57 -919.883 414.147 -1033.16 -41.9903" stroke="white" stroke-width="0.5" stroke-miterlimit="10"/>
<path d="M3336.79 1133.56C3242.92 1326.41 3088.61 1357.28 2944.21 1250.51C2838.65 1172.44 2729.81 1024.43 2618.4 852.334C2500.04 670.205 2358.09 462.475 2185.23 350.938C1934.47 189.092 1636.39 173.147 1352.99 318.712C1150.55 422.717 964.147 600.449 740.69 733.958C501.199 876.427 200.625 975.893 -134.755 884.885C-505.021 784.178 -907.082 414.569 -1021.24 -39.8808" stroke="white" stroke-width="0.5" stroke-miterlimit="10"/>
<path d="M3334.54 1146.18C3238.43 1338.1 3082.25 1365.75 2936.91 1253.64C2831.7 1172.54 2723.68 1021.46 2612.79 847.281C2494.99 662.985 2352.93 453.421 2179.53 342.031C1930.56 182.032 1635.19 167.848 1354.94 313.249C1153.35 417.865 968.158 596.127 745.835 730.132C507.677 873.086 208.456 973.096 -125.523 882.748C-494.124 782.865 -894.155 415.012 -1009.18 -37.691" stroke="white" stroke-width="0.5" stroke-miterlimit="10"/>
<path d="M3332.24 1158.84C3233.89 1349.82 3075.84 1374.24 2929.6 1256.77C2824.73 1172.59 2717.49 1018.52 2607.11 842.196C2489.85 655.676 2347.63 444.358 2173.74 333.092C1926.57 174.939 1633.91 162.516 1356.82 307.754C1156.13 412.957 972.095 591.773 750.942 726.192C514.092 869.575 216.226 970.128 -116.331 880.499C-483.266 781.44 -881.289 415.284 -997.171 -35.6725" stroke="white" stroke-width="0.5" stroke-miterlimit="10"/>
<path d="M3329.99 1171.46C3229.39 1361.51 3069.5 1382.75 2922.3 1259.9C2817.76 1172.63 2711.36 1015.55 2601.5 837.14C2484.8 648.454 2342.47 435.301 2168.06 324.24C1922.6 167.899 1632.72 157.272 1358.8 302.347C1159.01 408.137 976.129 587.506 756.11 722.421C520.533 866.312 224.138 967.364 -107.077 878.417C-472.369 780.125 -868.339 415.783 -985.082 -33.4275" stroke="white" stroke-width="0.5" stroke-miterlimit="10"/>
<path d="M3327.69 1184.1C3224.84 1373.22 3062.97 1391.28 2915.01 1263.08C2810.78 1172.81 2705.19 1012.66 2595.83 832.105C2479.7 641.253 2337.26 426.265 2162.3 315.351C1918.64 160.857 1631.48 152.049 1360.67 296.845C1161.72 403.244 980.063 583.145 761.178 718.555C526.91 862.873 231.869 964.469 -97.9231 876.241C-461.549 778.773 -855.512 416.128 -973.116 -31.3356" stroke="white" stroke-width="0.5" stroke-miterlimit="10"/>
<path d="M3325.44 1196.73C3220.35 1384.91 3056.49 1399.79 2907.71 1266.21C2803.76 1172.88 2699.05 1009.69 2590.17 827.076C2474.57 633.999 2331.98 417.258 2156.56 306.527C1914.7 153.879 1630.25 146.831 1362.65 291.442C1164.6 398.427 984.099 578.883 766.348 714.789C533.412 859.592 239.784 961.709 -88.6668 874.163C-450.627 777.52 -842.618 416.654 -960.989 -29.1671" stroke="white" stroke-width="0.5" stroke-miterlimit="10"/>
<path d="M3323.14 1209.36C3215.83 1396.67 3049.98 1408.37 2900.4 1269.33C2796.73 1172.93 2692.92 1006.72 2584.54 821.955C2469.51 626.711 2326.8 408.135 2150.83 297.551C1910.74 146.692 1629.04 141.521 1364.58 285.91C1167.4 393.564 988.031 574.515 771.473 710.894C539.787 856.147 247.594 958.843 -79.4564 871.958C-439.774 776.081 -829.712 417.028 -948.944 -27.0465" stroke="white" stroke-width="0.5" stroke-miterlimit="10"/>
<path d="M3320.9 1221.99C3211.34 1408.37 3043.45 1416.9 2893.1 1272.46C2789.64 1173.02 2686.71 1003.71 2578.88 816.926C2464.38 619.457 2321.59 399.105 2145.07 288.667C1906.84 139.633 1627.86 136.281 1366.46 280.414C1170.18 388.654 991.965 570.159 776.54 707.034C546.186 852.772 255.325 955.953 -70.3608 869.809C-429.013 774.757 -816.943 417.402 -937.036 -24.9263" stroke="white" stroke-width="0.5" stroke-miterlimit="10"/>
<path d="M3318.6 1234.64C3206.79 1420.09 3036.8 1425.48 2885.8 1275.6C2782.57 1173.12 2680.58 1000.75 2573.2 811.842C2459.26 612.207 2316.36 390.02 2139.31 279.788C1902.86 132.541 1626.63 131.066 1368.36 274.978C1172.95 383.886 995.927 565.864 781.614 703.176C552.569 849.343 263.143 953.102 -61.2013 867.641C-418.21 773.355 -804.088 417.814 -925.064 -22.8259" stroke="white" stroke-width="0.5" stroke-miterlimit="10"/>
<path d="M3316.33 1247.2C3202.28 1431.71 3030.21 1434.03 2878.47 1278.66C2775.4 1173.16 2674.36 997.74 2567.56 806.722C2454.19 604.921 2311.15 380.841 2133.58 270.814C1898.92 125.415 1625.42 125.758 1370.29 269.449C1175.8 379.003 999.914 561.476 786.793 699.261C559.08 845.913 271.008 950.216 -51.9363 865.415C-407.279 771.954 -791.149 418.11 -912.964 -20.7252" stroke="white" stroke-width="0.5" stroke-miterlimit="10"/>
<path d="M3314.03 1259.85C3197.73 1443.43 3023.56 1442.61 2871.19 1281.84C2768.34 1173.31 2668.26 994.829 2561.9 801.69C2449.07 597.665 2305.94 371.808 2127.82 261.928C1895 118.295 1624.21 120.596 1372.2 264.008C1178.55 374.171 1003.88 557.175 791.888 695.456C565.425 842.558 278.825 947.359 -42.7553 863.299C-396.433 770.662 -778.272 418.575 -900.97 -18.5727" stroke="white" stroke-width="0.5" stroke-miterlimit="10"/>
<path d="M3311.79 1272.48C3193.25 1455.12 3016.91 1451.19 2863.89 1284.98C2761.18 1173.37 2662.13 991.865 2556.24 796.664C2443.97 590.472 2300.73 362.781 2122.09 253.106C1891.03 111.261 1623 115.44 1374.1 258.572C1181.37 369.38 1007.83 552.88 796.982 691.657C571.85 839.244 286.604 944.59 -33.5761 861.19C-385.611 769.319 -765.42 418.987 -888.898 -16.3789" stroke="white" stroke-width="0.5" stroke-miterlimit="10"/>
<path d="M3309.49 1285.12C3188.7 1466.83 3010.21 1459.79 2856.59 1288.1C2754.04 1173.48 2655.94 988.917 2550.64 791.608C2438.91 583.191 2295.55 353.665 2116.39 244.196C1887.17 104.117 1621.84 110.253 1376.11 253.083C1184.34 364.594 1011.91 548.532 802.193 687.804C578.37 835.819 294.536 941.685 -24.2793 859.026C-374.648 767.98 -752.427 419.404 -876.789 -14.2736" stroke="white" stroke-width="0.5" stroke-miterlimit="10"/>
<path d="M3307.24 1297.75C3184.23 1478.58 3003.48 1468.33 2849.28 1291.23C2746.87 1173.53 2649.81 985.951 2544.96 786.521C2433.79 575.938 2290.37 344.555 2110.6 235.255C1883.24 96.9998 1620.61 105.036 1377.99 247.587C1187.08 359.766 1015.85 544.176 807.261 683.944C584.712 832.467 302.291 938.855 -15.1017 856.914C-363.805 766.692 -739.554 419.872 -864.799 -12.1177" stroke="white" stroke-width="0.5" stroke-miterlimit="10"/>
<path d="M3304.94 1310.38C3179.69 1490.28 2996.72 1476.94 2841.98 1294.35C2739.65 1173.59 2643.62 982.991 2539.29 781.476C2428.69 568.727 2285.15 335.509 2104.86 226.414C1879.27 89.9476 1619.41 99.9186 1379.89 242.132C1189.9 354.957 1019.74 539.885 812.328 680.068C591.088 829.018 310.044 936.007 -6.0077 854.75C-353.068 765.295 -726.845 420.252 -852.87 -9.95506" stroke="white" stroke-width="0.5" stroke-miterlimit="10"/>
<path d="M3302.7 1323.01C3175.2 1501.98 2989.95 1485.56 2834.68 1297.48C2732.43 1173.67 2637.49 980.026 2533.67 776.367C2423.6 561.393 2279.96 326.341 2099.14 217.451C1875.38 82.7506 1618.29 94.6569 1381.83 236.614C1192.73 350.164 1023.74 535.508 817.458 676.186C597.549 825.622 317.895 933.074 3.20821 852.557C-342.186 763.926 -713.933 420.64 -840.841 -7.87939" stroke="white" stroke-width="0.5" stroke-miterlimit="10"/>
<path d="M3300.4 1335.65C3170.65 1513.69 2983.17 1494.12 2827.38 1300.6C2725.27 1173.72 2631.36 977.052 2528.01 771.331C2418.5 554.19 2274.8 317.28 2093.4 208.618C1871.48 75.6836 1617.13 89.6061 1383.75 231.226C1195.57 345.421 1027.72 531.26 822.574 672.435C603.916 822.32 325.697 930.351 12.4102 850.495C-331.377 762.711 -701.058 421.1 -828.805 -5.61499" stroke="white" stroke-width="0.5" stroke-miterlimit="10"/>
<path d="M3298.15 1348.29C3166.16 1525.39 2976.37 1502.7 2820.09 1303.8C2718.06 1173.87 2625.19 974.177 2522.34 766.312C2413.37 546.947 2269.56 308.202 2087.63 199.746C1867.54 68.5769 1615.91 84.4572 1385.64 225.798C1198.41 340.696 1031.67 526.973 827.717 668.62C610.39 818.991 333.562 927.485 21.6393 848.37C-320.505 761.352 -688.133 421.554 -816.705 -3.49504" stroke="white" stroke-width="0.5" stroke-miterlimit="10"/>
<path d="M3295.85 1360.93C3161.61 1537.1 2969.47 1511.3 2812.79 1306.92C2710.84 1173.94 2619.06 971.202 2516.74 761.251C2408.39 539.697 2264.44 299.059 2081.93 190.831C1863.65 61.3696 1614.77 79.324 1387.58 220.269C1201.3 335.871 1035.67 522.585 832.847 664.728C616.829 815.526 341.377 924.622 30.8551 846.166C-309.623 759.974 -675.221 421.931 -804.677 -1.4297" stroke="white" stroke-width="0.5" stroke-miterlimit="10"/>
<path d="M3293.61 1373.55C3157.15 1548.84 2962.68 1519.86 2805.48 1310.05C2703.54 1173.98 2612.87 968.254 2511.05 756.16C2403.27 532.439 2259.26 289.944 2076.17 181.943C1859.72 54.2482 1613.64 74.1962 1389.54 214.804C1204.14 331.131 1039.68 518.26 837.995 660.899C623.309 812.183 349.212 921.822 40.0892 844.027C-298.723 758.659 -662.314 422.314 -792.607 0.757403" stroke="white" stroke-width="0.5" stroke-miterlimit="10"/>
<path d="M3291.28 1386.14C3152.57 1560.51 2955.75 1528.42 2798.15 1313.12C2696.26 1173.94 2606.71 965.234 2505.36 751.077C2398.12 525.132 2254 280.803 2070.38 173.007C1855.83 47.0548 1612.42 69.0418 1391.41 209.312C1206.96 326.343 1043.61 513.909 843.037 656.985C629.601 808.719 356.975 918.857 49.2166 841.803C-287.953 757.201 -649.49 422.67 -780.667 2.80139" stroke="white" stroke-width="0.5" stroke-miterlimit="10"/>
<path d="M3289.03 1398.77C3148.08 1572.2 2948.91 1537.01 2790.85 1316.25C2689.02 1173.96 2600.58 962.266 2499.74 745.966C2393.05 517.854 2248.85 271.609 2064.66 164.041C1851.94 39.8544 1611.33 63.8346 1393.35 203.79C1209.87 321.582 1047.58 509.47 848.166 653.1C636.062 805.319 364.79 916 58.3739 839.629C-277.049 755.887 -636.637 423.077 -768.676 4.95463" stroke="white" stroke-width="0.5" stroke-miterlimit="10"/>
<path d="M3286.74 1411.41C3143.54 1583.91 2941.99 1545.56 2783.55 1319.38C2681.75 1174.06 2594.4 959.318 2494.08 740.933C2387.94 510.597 2243.68 262.494 2058.93 155.212C1848.01 32.7337 1610.18 58.8465 1395.25 198.348C1212.72 316.844 1051.49 505.192 853.263 649.294C642.467 801.941 372.608 913.143 67.5558 837.513C-266.282 754.56 -623.782 423.483 -756.681 7.107" stroke="white" stroke-width="0.5" stroke-miterlimit="10"/>
<path d="M3284.49 1424.03C3139.05 1595.59 2935.06 1554.1 2776.27 1322.56C2674.44 1174.09 2588.29 956.399 2488.41 735.892C2382.83 503.39 2238.5 253.371 2053.16 146.317C1844.14 25.582 1609.05 53.711 1397.15 192.898C1215.59 312.155 1055.44 500.882 858.352 645.48C648.83 798.635 380.383 910.358 76.7315 835.389C-255.464 753.202 -610.991 423.903 -744.693 9.25065" stroke="white" stroke-width="0.5" stroke-miterlimit="10"/>
<path d="M3282.19 1436.68C3134.5 1607.31 2928.15 1562.71 2768.96 1325.69C2667.19 1174.11 2582.15 953.432 2482.8 730.84C2377.79 496.171 2233.37 244.237 2047.46 137.411C1840.24 18.3832 1607.93 48.6446 1399.1 187.436C1218.51 307.454 1059.45 496.561 863.555 641.632C655.342 795.214 388.272 907.539 86.0203 833.229C-244.509 751.867 -598.007 424.324 -732.511 11.3954" stroke="white" stroke-width="0.5" stroke-miterlimit="10"/>
<path d="M3279.94 1449.3C3130.03 1619.05 2921.22 1571.25 2761.66 1328.81C2659.89 1174.14 2575.94 950.422 2477.12 725.745C2372.64 488.851 2228.17 235.06 2041.7 128.52C1836.37 11.235 1606.82 43.5708 1400.98 181.931C1221.35 302.711 1063.39 492.197 868.624 637.763C661.742 791.831 396.062 904.619 95.1745 831.05C-233.689 750.513 -585.156 424.725 -720.544 13.4845" stroke="white" stroke-width="0.5" stroke-miterlimit="10"/>
<path d="M3277.63 1461.94C3125.48 1630.77 2914.23 1579.83 2754.35 1331.94C2652.55 1174.13 2569.8 947.454 2471.51 720.692C2367.59 481.632 2223.05 225.925 2035.99 119.613C1832.47 4.03561 1605.7 38.5039 1402.93 176.468C1224.28 298.01 1067.4 487.875 873.745 633.879C668.172 788.375 403.869 901.764 104.382 828.855C-222.839 749.084 -572.276 425.052 -708.502 15.6161" stroke="white" stroke-width="0.5" stroke-miterlimit="10"/>
<path d="M3275.39 1474.57C3120.99 1642.46 2907.28 1588.32 2747.05 1335.07C2645.25 1174.17 2563.62 944.511 2465.82 715.605C2362.45 474.321 2217.91 216.733 2030.23 110.73C1828.58 -3.16214 1604.62 33.497 1404.89 171.008C1227.21 293.311 1071.42 483.555 878.898 630.055C674.598 785.058 411.743 898.888 113.62 826.72C-211.935 747.773 -559.342 425.497 -696.452 17.7494" stroke="white" stroke-width="0.5" stroke-miterlimit="10"/>
<path d="M3273.09 1487.23C3116.45 1654.18 2900.3 1596.91 2739.74 1338.2C2637.93 1174.16 2557.49 941.551 2460.16 710.582C2357.35 467.131 2212.7 207.57 2024.47 101.853C1824.69 -10.3545 1603.51 28.4372 1406.79 165.575C1230.1 288.698 1075.37 479.263 883.988 626.258C680.998 781.689 419.52 896.121 122.739 824.636C-201.173 746.455 -546.55 425.935 -684.521 19.9338" stroke="white" stroke-width="0.5" stroke-miterlimit="10"/>
<path d="M3270.86 1499.84C3111.97 1665.86 2893.39 1605.45 2732.51 1341.3C2630.67 1174.11 2551.43 938.55 2454.61 705.438C2352.35 459.82 2207.69 198.32 2018.81 92.8543C1820.9 -17.6681 1602.53 23.3141 1408.77 159.963C1233.13 283.882 1079.41 474.791 889.163 622.283C687.504 778.199 427.381 893.174 132 822.35C-190.247 744.994 -533.593 426.228 -672.424 21.9737" stroke="white" stroke-width="0.5" stroke-miterlimit="10"/>
<path d="M3268.53 1512.43C3107.39 1677.52 2886.29 1613.92 2725.14 1344.45C2623.3 1174.17 2545.17 935.624 2448.88 700.427C2347.16 452.585 2202.42 189.169 2012.95 84.07C1816.93 -24.7094 1601.34 18.4056 1410.57 154.623C1235.92 279.362 1083.21 470.615 894.153 618.579C693.744 774.946 435.092 890.419 141.075 820.335C-179.506 743.804 -520.822 426.795 -660.479 24.2053" stroke="white" stroke-width="0.5" stroke-miterlimit="10"/>
<path d="M3266.29 1525.05C3102.91 1689.21 2879.34 1622.42 2717.9 1347.56C2616.02 1174.08 2539.1 932.637 2443.25 695.319C2342.1 445.311 2197.34 179.956 2007.23 75.1081C1813.08 -31.9864 1600.29 13.3193 1412.51 149.106C1238.85 274.664 1087.21 466.239 899.344 614.676C700.267 771.528 442.969 887.544 150.352 818.121C-168.586 742.356 -507.872 427.102 -648.39 26.2594" stroke="white" stroke-width="0.5" stroke-miterlimit="10"/>
<path d="M3263.99 1537.71C3098.38 1700.99 2872.3 1631.02 2710.54 1350.71C2608.63 1174.09 2532.85 929.718 2437.59 690.292C2336.98 438.059 2192.2 170.766 2001.47 66.227C1809.16 -39.2408 1599.2 8.31388 1414.38 143.611C1241.8 270.025 1091.14 461.884 904.388 610.759C706.62 768.038 450.735 884.576 159.482 815.894C-157.79 740.953 -495.104 427.478 -636.424 28.3588" stroke="white" stroke-width="0.5" stroke-miterlimit="10"/>
<path d="M3261.73 1550.32C3093.88 1712.67 2865.28 1639.53 2703.28 1353.81C2601.29 1174.06 2526.77 926.722 2431.95 685.174C2331.9 430.775 2187.02 161.509 1995.75 57.3134C1805.31 -46.4695 1598.16 3.2758 1416.33 138.142C1244.8 265.353 1095.15 457.556 909.524 606.927C713.088 764.692 458.557 881.773 168.704 813.751C-146.902 739.634 -482.209 427.857 -624.39 30.4838" stroke="white" stroke-width="0.5" stroke-miterlimit="10"/>
<path d="M3259.44 1562.97C3089.34 1724.38 2858.26 1647.99 2695.92 1356.96C2593.92 1174.07 2520.59 923.775 2426.24 680.165C2326.75 423.6 2181.82 152.337 1989.94 48.4504C1801.37 -53.6476 1597.1 -1.67624 1418.23 132.701C1247.72 260.789 1099.11 453.256 914.625 603.122C719.439 761.337 466.343 878.997 177.89 811.635C-136.073 738.285 -469.327 428.321 -612.369 32.6949" stroke="white" stroke-width="0.5" stroke-miterlimit="10"/>
<path d="M3257.18 1575.6C3084.84 1736.08 2851.24 1656.51 2688.67 1360.07C2586.62 1173.97 2514.45 920.808 2420.66 675.031C2321.71 416.241 2176.83 143.017 1984.26 39.4625C1797.57 -60.9507 1596.1 -6.78859 1420.22 127.157C1250.78 256.101 1103.15 448.853 919.802 599.215C725.948 757.915 474.242 876.038 187.095 809.44C-125.202 736.915 -456.448 428.649 -600.351 34.7683" stroke="white" stroke-width="0.5" stroke-miterlimit="10"/>
<path d="M3254.89 1588.24C3080.3 1747.79 2844.18 1665.04 2681.34 1363.27C2579.2 1174.06 2508.29 917.917 2414.97 670.078C2316.58 409.122 2171.65 133.901 1978.5 30.7134C1793.67 -68.0149 1595.09 -11.6266 1422.09 121.795C1253.74 251.651 1107.08 444.631 924.865 595.488C732.32 754.616 481.991 873.341 196.244 807.403C-114.387 735.702 -443.603 429.192 -588.332 36.9771" stroke="white" stroke-width="0.5" stroke-miterlimit="10"/>
<path d="M3252.64 1600.86C3075.81 1759.48 2837.17 1673.56 2674.09 1366.38C2571.91 1173.96 2502.15 914.949 2409.34 664.966C2311.51 401.844 2166.54 124.626 1972.76 21.7476C1789.84 -75.3768 1594.05 -16.6586 1424.02 116.273C1256.74 246.985 1111.07 440.251 929.984 591.604C738.712 751.24 489.854 870.463 205.449 805.207C-103.539 734.273 -430.703 429.576 -576.292 39.108" stroke="white" stroke-width="0.5" stroke-miterlimit="10"/>
<path d="M3250.35 1613.51C3071.29 1771.25 2830.09 1682.04 2666.73 1369.53C2564.53 1173.96 2495.97 912.003 2403.68 659.935C2306.4 394.587 2161.44 115.35 1967.03 12.9196C1785.98 -82.52 1593.07 -21.5755 1425.95 110.89C1259.83 242.492 1115 436.031 935.085 587.798C745.122 747.862 497.618 867.629 214.659 803.15C-92.664 733.04 -417.819 430.041 -564.269 41.3186" stroke="white" stroke-width="0.5" stroke-miterlimit="10"/>
<path d="M3248.09 1626.13C3066.79 1782.94 2823.07 1690.55 2659.48 1372.63C2557.17 1173.88 2489.89 909.01 2398.05 654.821C2301.32 387.307 2156.32 106.074 1961.3 3.95215C1782.09 -89.8607 1592.12 -26.5738 1427.85 105.309C1262.85 237.882 1118.96 431.59 940.239 583.831C751.607 744.38 505.458 864.69 223.899 800.872C-81.7587 731.586 -404.884 430.343 -552.195 43.3671" stroke="white" stroke-width="0.5" stroke-miterlimit="10"/>
<path d="M3245.78 1638.72C3062.23 1794.6 2815.97 1698.98 2652.1 1375.73C2549.75 1173.77 2483.63 906.03 2392.31 649.755C2296.13 380.017 2151.14 96.7639 1955.47 -4.96764C1778.16 -97.1766 1591.04 -31.5825 1429.68 99.8336C1265.77 233.321 1122.85 427.256 945.258 579.992C757.935 740.968 513.198 861.8 233.003 798.722C-71.0112 730.203 -392.106 430.715 -540.278 45.4859" stroke="white" stroke-width="0.5" stroke-miterlimit="10"/>
<path d="M3243.53 1651.35C3057.74 1806.29 2808.93 1707.44 2644.85 1378.84C2542.4 1173.7 2477.55 903.042 2386.73 644.624C2291.11 372.719 2146.12 87.3881 1949.82 -13.8954C1774.43 -104.442 1590.16 -36.5411 1431.75 94.3276C1269.02 228.763 1126.97 422.89 950.517 576.122C764.468 737.607 521.144 858.959 242.349 796.542C-60 728.847 -379.123 431.138 -528.12 47.5739" stroke="white" stroke-width="0.5" stroke-miterlimit="10"/>
<path d="M3241.23 1663.99C3053.2 1818 2801.35 1716.18 2637.52 1382.04C2534.69 1173.9 2471.33 900.173 2381.04 639.669C2286.04 365.576 2141.11 78.005 1944.03 -22.7039C1770.62 -111.809 1589.44 -41.1578 1433.62 88.9636C1272.32 224.651 1130.9 418.667 955.58 572.395C770.839 734.307 528.95 856.238 251.439 794.527C-49.2442 727.657 -366.337 431.703 -516.137 49.8625" stroke="white" stroke-width="0.5" stroke-miterlimit="10"/>
<path d="M3238.98 1676.62C3048.7 1829.69 2794.75 1724.39 2630.27 1385.15C2527.66 1173.63 2465.23 897.123 2375.41 634.557C2280.95 358.238 2135.91 68.8335 1938.29 -31.6702C1766.66 -118.987 1588.25 -46.4004 1435.52 83.3835C1275.15 219.716 1134.86 414.228 960.655 568.393C777.246 730.79 536.689 853.207 260.6 792.214C-38.4397 726.11 -353.503 431.912 -504.163 51.8183" stroke="white" stroke-width="0.5" stroke-miterlimit="10"/>
</svg>
