<svg width="398" height="226" viewBox="0 0 398 226" fill="none" xmlns="http://www.w3.org/2000/svg">
<path d="M282.712 0.000453949L326.9 0.000453949L350.833 23.9041C356.934 29.9978 356.934 39.8778 350.833 45.9715C347.783 49.0184 343.788 50.5459 339.786 50.5459C335.784 50.5459 331.79 49.0184 328.739 45.9715L311.143 28.3972L282.712 0.000453949Z" fill="url(#paint0_linear_1_7529)"/>
<path d="M195.329 0.000793457H239.413L289.81 50.2807L358.189 118.508C364.274 124.579 364.274 134.423 358.189 140.495C355.146 143.53 351.162 145.044 347.17 145.044C343.177 145.044 339.193 143.53 336.151 140.495L195.329 0.000793457Z" fill="url(#paint1_linear_1_7529)"/>
<path d="M152.379 0.000320435H196.52L393.429 196.473C399.524 202.554 399.524 212.414 393.429 218.495C390.382 221.535 386.384 223.06 382.394 223.06C378.404 223.06 374.406 221.535 371.359 218.495L251.898 99.3071L156.133 3.75432L152.371 0.000320435H152.379Z" fill="url(#paint2_linear_1_7529)"/>
<path d="M84.5448 0.000320435H120.382L311.195 190.955C317.277 197.042 317.277 206.91 311.195 212.997C308.154 216.04 304.164 217.565 300.182 217.565C296.2 217.565 292.21 216.04 289.169 212.997L89.0051 12.6928C85.5423 9.22749 84.0501 4.5287 84.5367 0.000320435H84.5448Z" fill="url(#paint3_linear_1_7529)"/>
<path d="M238.653 0.000453949L282.889 0.000453949L311.351 28.4429C305.243 22.3394 295.34 22.3394 289.233 28.4429C283.125 34.5465 283.125 44.4424 289.233 50.5459L238.653 0.000453949Z" fill="url(#paint4_linear_1_7529)"/>
<path d="M117.858 0.318069C117.858 0.212112 117.858 0.106155 117.866 0.000183105H155.162L259.788 105.134C259.837 105.183 259.885 105.232 259.926 105.281C262.878 108.313 264.354 112.266 264.354 116.203C264.354 120.141 262.83 124.216 259.788 127.273C253.704 133.386 243.841 133.386 237.758 127.273L219.305 108.737L140.099 29.1407C140.099 29.1407 140.026 29.0592 139.986 29.0184L123.796 12.7486L122.433 11.3874C119.391 8.3307 117.866 4.32845 117.866 0.318069H117.858Z" fill="url(#paint5_linear_1_7529)"/>
<path d="M45.1606 0.00050354H88.0147L139.164 50.9534L218.712 130.208L218.85 130.354L220.122 131.613C223.177 134.657 224.701 138.643 224.701 142.638C224.701 146.632 223.177 150.618 220.122 153.663C214.01 159.752 204.101 159.752 197.99 153.663L48.3549 4.58757C46.9859 3.22362 45.9184 1.66484 45.1606 0.00050354Z" fill="url(#paint6_linear_1_7529)"/>
<path d="M-9.15527e-05 0.000427246H44.1413L48.7326 4.58138L197.954 153.458L243.265 198.676C246.312 201.716 247.832 205.705 247.832 209.686C247.832 213.667 246.312 217.656 243.265 220.697C237.17 226.778 227.289 226.778 221.194 220.697L186 185.581L90.233 90.0302L-9.15527e-05 0.000427246Z" fill="url(#paint7_linear_1_7529)"/>
<defs>
<linearGradient id="paint0_linear_1_7529" x1="273.104" y1="35.8775" x2="330.604" y2="87.8598" gradientUnits="userSpaceOnUse">
<stop stop-color="#0D57D7"/>
<stop offset="1" stop-color="#4D8EFF"/>
</linearGradient>
<linearGradient id="paint1_linear_1_7529" x1="175.686" y1="-12.4887" x2="376.128" y2="149.306" gradientUnits="userSpaceOnUse">
<stop stop-color="#0D57D7"/>
<stop offset="1" stop-color="#4D8EFF"/>
</linearGradient>
<linearGradient id="paint2_linear_1_7529" x1="391.339" y1="223.147" x2="147.829" y2="31.5554" gradientUnits="userSpaceOnUse">
<stop stop-color="#0D57D7"/>
<stop offset="1" stop-color="#4D8EFF"/>
</linearGradient>
<linearGradient id="paint3_linear_1_7529" x1="293.088" y1="247.698" x2="18.4787" y2="35.8066" gradientUnits="userSpaceOnUse">
<stop stop-color="#0D57D7"/>
<stop offset="1" stop-color="#4D8EFF"/>
</linearGradient>
<linearGradient id="paint4_linear_1_7529" x1="311.082" y1="62.6144" x2="245.564" y2="56.0301" gradientUnits="userSpaceOnUse">
<stop stop-color="#0D57D7"/>
<stop offset="1" stop-color="#4D8EFF"/>
</linearGradient>
<linearGradient id="paint5_linear_1_7529" x1="98.2512" y1="-2.22166" x2="286.941" y2="146.963" gradientUnits="userSpaceOnUse">
<stop stop-color="#0D57D7"/>
<stop offset="1" stop-color="#4D8EFF"/>
</linearGradient>
<linearGradient id="paint6_linear_1_7529" x1="178.184" y1="150.155" x2="14.585" y2="19.3151" gradientUnits="userSpaceOnUse">
<stop stop-color="#0D57D7"/>
<stop offset="1" stop-color="#4D8EFF"/>
</linearGradient>
<linearGradient id="paint7_linear_1_7529" x1="-7.49389" y1="24.6295" x2="243.793" y2="222.244" gradientUnits="userSpaceOnUse">
<stop stop-color="#0D57D7"/>
<stop offset="1" stop-color="#4D8EFF"/>
</linearGradient>
</defs>
</svg>
