<svg width="35" height="29" viewBox="0 0 35 29" fill="none" xmlns="http://www.w3.org/2000/svg">
<path d="M17.3968 5.84261C23.1956 5.8995 26.8283 5.53871 27.3189 11.9661H34.3902C34.3902 2.00909 25.7064 0.666992 17.2127 0.666992C8.7183 0.666992 0.0351562 2.00909 0.0351562 11.9661H7.05155C7.59442 5.41621 11.6461 5.78638 17.3968 5.84261Z" fill="url(#paint0_linear_484_5036)"/>
<path d="M3.54167 15.167C5.26397 15.167 6.6971 15.2701 7.01573 13.5759C7.05857 13.3457 7.08333 13.0846 7.08333 12.7827H7.00167H0C0 15.3029 1.58575 15.167 3.54167 15.167Z" fill="url(#paint1_linear_484_5036)"/>
<path d="M27.3631 12.7827H27.2969C27.2969 13.0866 27.323 13.3483 27.3718 13.5759C27.7079 15.1382 29.139 15.0412 30.8553 15.0412C32.8206 15.0412 34.4137 15.1704 34.4137 12.7827H27.3631Z" fill="url(#paint2_linear_484_5036)"/>
<path d="M23.909 11.0664V10.065C23.909 9.61723 23.3929 9.58911 22.7557 9.58911H21.7148C21.0782 9.58911 20.5621 9.61723 20.5621 10.065V10.9279V11.5972H13.199V10.9279V10.065C13.199 9.61723 12.6829 9.58911 12.0464 9.58911H11.0048C10.3682 9.58911 9.85214 9.61723 9.85214 10.065V11.0664V11.9406C8.17468 13.6837 2.6858 21.1037 2.48633 22.002L2.48901 27.9963C2.48901 28.5499 2.9395 29.0003 3.49307 29.0003H30.2681C30.8217 29.0003 31.2722 28.5499 31.2722 27.9963V21.9719C31.0747 21.0997 25.5872 13.683 23.909 11.94V11.0664ZM12.8362 22.8086C12.2974 22.8086 11.8603 22.3722 11.8603 21.8327C11.8603 21.2931 12.2974 20.8567 12.8362 20.8567C13.3751 20.8567 13.8122 21.2931 13.8122 21.8327C13.8122 22.3722 13.3751 22.8086 12.8362 22.8086ZM12.8362 19.4617C12.2974 19.4617 11.8603 19.0253 11.8603 18.4858C11.8603 17.9463 12.2974 17.5098 12.8362 17.5098C13.3751 17.5098 13.8122 17.9463 13.8122 18.4858C13.8122 19.0253 13.3751 19.4617 12.8362 19.4617ZM12.8362 16.1155C12.2974 16.1155 11.8603 15.6791 11.8603 15.1396C11.8603 14.6007 12.2974 14.1636 12.8362 14.1636C13.3751 14.1636 13.8122 14.6007 13.8122 15.1396C13.8122 15.6791 13.3751 16.1155 12.8362 16.1155ZM16.8525 22.8086C16.3136 22.8086 15.8765 22.3722 15.8765 21.8327C15.8765 21.2931 16.3136 20.8567 16.8525 20.8567C17.392 20.8567 17.8284 21.2931 17.8284 21.8327C17.8284 22.3722 17.392 22.8086 16.8525 22.8086ZM16.8525 19.4617C16.3136 19.4617 15.8765 19.0253 15.8765 18.4858C15.8765 17.9463 16.3136 17.5098 16.8525 17.5098C17.392 17.5098 17.8284 17.9463 17.8284 18.4858C17.8284 19.0253 17.392 19.4617 16.8525 19.4617ZM16.8525 16.1155C16.3136 16.1155 15.8765 15.6791 15.8765 15.1396C15.8765 14.6007 16.3136 14.1636 16.8525 14.1636C17.392 14.1636 17.8284 14.6007 17.8284 15.1396C17.8284 15.6791 17.392 16.1155 16.8525 16.1155ZM20.8687 22.8086C20.3292 22.8086 19.8928 22.3722 19.8928 21.8327C19.8928 21.2931 20.3292 20.8567 20.8687 20.8567C21.4082 20.8567 21.8447 21.2931 21.8447 21.8327C21.8447 22.3722 21.4082 22.8086 20.8687 22.8086ZM20.8687 19.4617C20.3292 19.4617 19.8928 19.0253 19.8928 18.4858C19.8928 17.9463 20.3292 17.5098 20.8687 17.5098C21.4082 17.5098 21.8447 17.9463 21.8447 18.4858C21.8447 19.0253 21.4082 19.4617 20.8687 19.4617ZM20.8687 16.1155C20.3292 16.1155 19.8928 15.6791 19.8928 15.1396C19.8928 14.6007 20.3292 14.1636 20.8687 14.1636C21.4082 14.1636 21.8447 14.6007 21.8447 15.1396C21.8447 15.6791 21.4082 16.1155 20.8687 16.1155Z" fill="url(#paint3_linear_484_5036)"/>
<defs>
<linearGradient id="paint0_linear_484_5036" x1="0.0351562" y1="11.9661" x2="34.3902" y2="11.9661" gradientUnits="userSpaceOnUse">
<stop stop-color="#0D57D7"/>
<stop offset="1" stop-color="#4D8EFF"/>
</linearGradient>
<linearGradient id="paint1_linear_484_5036" x1="0" y1="15.1683" x2="7.08333" y2="15.1683" gradientUnits="userSpaceOnUse">
<stop stop-color="#0D57D7"/>
<stop offset="1" stop-color="#4D8EFF"/>
</linearGradient>
<linearGradient id="paint2_linear_484_5036" x1="27.2969" y1="15.0424" x2="34.4137" y2="15.0424" gradientUnits="userSpaceOnUse">
<stop stop-color="#0D57D7"/>
<stop offset="1" stop-color="#4D8EFF"/>
</linearGradient>
<linearGradient id="paint3_linear_484_5036" x1="2.48633" y1="29.0003" x2="31.2722" y2="29.0003" gradientUnits="userSpaceOnUse">
<stop stop-color="#0D57D7"/>
<stop offset="1" stop-color="#4D8EFF"/>
</linearGradient>
</defs>
</svg>
