<svg width="602" height="575" viewBox="0 0 602 575" fill="none" xmlns="http://www.w3.org/2000/svg">
<path d="M432.367 6C432.367 2.68629 429.681 0 426.367 0H6C2.68629 0 0 2.68629 0 5.99999V441.92C0 445.233 2.68629 447.92 6 447.92H163.007C166.32 447.92 169.007 445.233 169.007 441.92V196.781C169.007 193.467 171.693 190.781 175.007 190.781H426.367C429.681 190.781 432.367 188.094 432.367 184.781V6Z" fill="black"/>
<path d="M194.928 222.702C194.928 219.388 197.614 216.702 200.928 216.702H595.374C598.687 216.702 601.374 219.388 601.374 222.702V568.415C601.374 571.729 598.687 574.415 595.374 574.415H200.928C197.614 574.415 194.928 571.729 194.928 568.415V222.702Z" fill="black"/>
</svg>
