<svg width="585" height="646" viewBox="0 0 585 646" fill="none" xmlns="http://www.w3.org/2000/svg">
<mask id="mask0_2013_348" style="mask-type:alpha" maskUnits="userSpaceOnUse" x="0" y="2" width="585" height="644">
<path d="M0 435.606C1.66381e-06 491.406 22.1776 544.92 61.654 584.377C101.13 623.834 154.672 646 210.5 646C266.328 646 319.87 623.834 359.346 584.377C398.822 544.92 421 491.406 421 435.606C421 357.095 306.643 198.008 214.252 90.3573C212.265 88.042 208.736 88.0425 206.749 90.3581C114.357 198.054 0 357.095 0 435.606Z" fill="#D9D9D9"/>
<path d="M134 374.578C134 434.363 157.741 491.7 199.999 533.975C242.258 576.25 299.572 600 359.335 600C419.097 600 476.412 576.25 518.671 533.975C560.929 491.7 584.67 434.363 584.67 374.578C584.67 290.384 462.036 119.705 363.087 4.36094C361.1 2.04387 357.57 2.0443 355.583 4.36178C256.634 119.755 134 290.384 134 374.578Z" fill="#D9D9D9"/>
</mask>
<g mask="url(#mask0_2013_348)">
<rect x="-252" y="-12" width="1094" height="688" fill="black"/>
</g>
</svg>
